<svg xmlns="http://www.w3.org/2000/svg" viewBox="0 0 1991.58 328.06"><defs><style>.cls-1{fill:#231f20;}</style></defs><title>Asset 6</title><g id="Layer_2" data-name="Layer 2"><g id="Layer_4" data-name="Layer 4"><path class="cls-1" d="M1559.74,70.91a29.38,29.38,0,1,0-29.37-29.37A29.38,29.38,0,0,0,1559.74,70.91Z"/><path class="cls-1" d="M1989,255.05,1966,233.13a8.44,8.44,0,0,0-11.93.32c-.21.23-.41.46-.59.7A133.14,133.14,0,0,1,1936,253.56a101.36,101.36,0,0,1-66.83,26,77.07,77.07,0,0,1-23-3.16c24.85-16.66,68.55-49.83,78.12-82.58,6.68-22.9,3.37-45.47-9-62.05-11-14.64-28.15-23.39-47.56-24.39v-.14H1864c-24.33,0-50.71,10.74-70.59,28.73a110.71,110.71,0,0,0-24.3,131c-14.55,9.45-34.69,12.82-55.33,12.82-16.36,0-31.09-4.89-44.28-16.38l.58-.69c33.25-40.17,59.94-93.18,75.13-149.26,10.47-38.71,7.36-74.08-8.33-94.58A46.86,46.86,0,0,0,1699,0c-19.74,0-37.11,8.29-51.61,24.64s-26.52,41.68-36.08,76.44c-17.82,67.08-18.48,120.22-2,158.54-18.89,15.12-35.16,19.93-45.28,19.93-5.87,0-16.64-1.21-22.9-9.37-7.71-10.09-8.26-29.37-1.47-54.24,5.73-21,20.14-73.71,26.89-98.38a7.22,7.22,0,0,0-5.09-8.87,7.07,7.07,0,0,0-1.89-.26h-33.11a9.64,9.64,0,0,0-9.29,7.1L1487.11,225c-11.32,40.21-24.2,54.86-39.08,54.86-8.53,0-19.59-2.2-13.41-26.08,3.92-15.24,16.71-60.68,16.71-60.68,1.39-5.06,3.47-15.67,3.28-23.13-.38-15-4.14-28.59-12.39-39.39-11.31-14.8-29.07-23.31-48.84-23.31-21.53,0-40,8.44-55.1,23.1-11.45-14.66-29.3-23.1-49.08-23.1-11.76,0-25.31,2.08-35.41,9.87a7,7,0,0,0-5-8.57,7.26,7.26,0,0,0-1.79-.23h-31.34a9.64,9.64,0,0,0-9.12,6.53c-.64,2.38-1.72,6.4-3.16,11.69-4.5,11.47-13.38,19.42-26.51,23.64-25,8-59.6-.2-81.22-19h0a92,92,0,0,0-37.78-20.73c-53.3-14.47-109.6,21.47-125.52,80.12h0a121.89,121.89,0,0,0-3.08,15.06l0,0c-15.16,69.33-33.81,74-42.68,74-2.27,0-7.89-.43-11-4.55s-4.71-12.2-2-21.95c5.4-19.69,16.5-60.27,21.62-78.9a25.67,25.67,0,0,0-2.64-20.16c-6.18-10.18-16.12-12.35-25.74-14.46-21.1-4.62-37.73-10.19-40.89-33a9.64,9.64,0,0,0-9.57-8.43h-32a9.64,9.64,0,0,0-9.28,7c-6.25,22.33-25.65,91.61-32.75,117.19-10,36.16-28.17,56.88-51.73,56.88-5.78,0-11.38-2.41-14.29-6.27-4.19-5.51-4.25-14-2.55-20.24h-.15l35.32-128.67h29.4a9.63,9.63,0,0,0,9.29-7.07l8.84-32a7.24,7.24,0,0,0-5-8.9,7.42,7.42,0,0,0-1.93-.26H722.1l18-65.56a7.24,7.24,0,0,0-5-8.91,6.86,6.86,0,0,0-2-.26H700a9.64,9.64,0,0,0-9.28,7.12L672.1,75.94h-38A9.63,9.63,0,0,0,624.8,83L616,115a7.23,7.23,0,0,0,5.06,8.89,7,7,0,0,0,1.92.26h35.86l-10.38,38c-11.06,39.6-28.71,71.19-51,91.37a101.31,101.31,0,0,1-66.89,26.08,76.74,76.74,0,0,1-23-3.15c24.85-16.71,68.58-49.88,78.12-82.63,6.68-22.9,3.37-45.47-9.05-62.05-11-14.64-28.15-23.33-47.5-24.39v-.14h-3.73c-24.33,0-50.71,10.74-70.58,28.73a108.68,108.68,0,0,0-35.93,81.51A110,110,0,0,0,430.53,267c-18.65,10-39,15.17-51.9,15.17-8.54,0-20.08-4.63-13.92-28.51,3.94-15.23,16.73-60.67,16.73-60.67,1.38-5.07,3.47-15.67,3.28-23.13-.39-15.06-4.16-28.6-12.4-39.4-11.31-14.71-29.11-23.22-48.85-23.22-21.53,0-40,8.44-55.1,23.1-11.46-14.66-29.3-23.1-49.09-23.1-9.87,0-21.78,3.12-33.65,8.59.21-3.05.5-7.66.5-10.4A93.07,93.07,0,0,0,0,105.52C0,143.68,25.78,176.31,61.93,189a8.44,8.44,0,0,0,10.76-5.17c.06-.18.12-.37.17-.56l8.3-30.2A8.44,8.44,0,0,0,76,143c-17.54-6.87-27.8-22.6-27.8-37.45a44.86,44.86,0,1,1,88.3,11.4L126.33,154l-6.2,22.63L115,195.27,81.55,317.18a7.23,7.23,0,0,0,5.08,8.88,7.49,7.49,0,0,0,1.89.26h33.22a9.68,9.68,0,0,0,9.3-7.09L160.31,212.4c11.7-41.93,36.89-56.86,56.56-56.86,13.74,0,15.07,11.85,13,22.5L191.65,317.18a7.25,7.25,0,0,0,7,9.14h33.16a9.63,9.63,0,0,0,9.29-7.08c5.77-21.07,22.83-83.37,29.34-106.87,10-36.16,29.41-56.83,53-56.83,10.85,0,15.67,8.85,12.38,21.24-4.93,18.49-17.62,63.8-17.62,63.8-6.79,24.72-5.22,48.67,7.37,65.18,11.41,15,31,22.3,51,22.3,27.22,0,58.81-12.15,83.82-24.44,20.05,15.67,45.36,24.19,72.53,24.19,33.61,0,71.32-16,97.23-42.19a54.35,54.35,0,0,0,6.49,15.46c10.34,16.52,31.72,26.45,52.62,26.45,45.69,0,82.86-33.69,98.84-90.4,4.21-14.9,12.3-44.14,19.57-70.55.64.5,1.26,1,1.89,1.42a102.94,102.94,0,0,0,32.76,15.4s-11.93,43.68-15.83,58.28c-6.46,24.22-3.08,46.49,9.31,62.73,11.4,15,29.4,23.53,49.42,23.53,23.23,0,40.19-8.9,54.81-26.31a106.05,106.05,0,0,0,9.09-13.7,93,93,0,0,0,75.29,38.48c18.57,0,37.06-5.62,53.73-16.58,23.07-15.16,39.95-38.88,47.52-66.78a118.77,118.77,0,0,0,3-48.42,97.87,97.87,0,0,0,26.61,3.78,117.66,117.66,0,0,0,29.48-3.68c-15.59,56.92-33.58,122.44-33.58,122.44a7.23,7.23,0,0,0,5.08,8.88,7.06,7.06,0,0,0,1.89.25h33.43a9.63,9.63,0,0,0,9.29-7.08l29.33-106.84c11.69-41.92,36.88-56.85,56.56-56.85,13.73,0,15.06,11.83,13,22.49l-38.18,139.15a7.22,7.22,0,0,0,5.07,8.88,7.11,7.11,0,0,0,1.89.25h33.16a9.65,9.65,0,0,0,9.3-7.08c5.77-21.07,22.9-83.37,29.33-106.86,10-36.16,29.43-56.83,53-56.83,10.85,0,15.67,8.85,12.38,21.24-4.94,18.53-17.59,63.8-17.59,63.8-6.78,24.72-3.61,47.43,9,63.88,11.4,15,29.4,23.54,49.42,23.54,12.76,0,35.43-2.07,56-28.93l.28.38c14,18.23,35.68,28.29,61.17,28.29,22.9,0,47.52-10.61,71.83-30.45,24.31,22.29,55.45,30.45,78.35,30.45,28.81,0,59.86-11.85,84.88-24.11,20,15.67,45.35,24.19,72.51,24.19,44.31,0,87.45-21.39,118.29-61.57A8.44,8.44,0,0,0,1989,255.05ZM472.32,245.27a65.13,65.13,0,0,1-5.17-31c1.94-32,33.57-62.5,59.79-59.9,16.38,1.63,15.86,18.89,12.59,27.32C534.42,194.9,511.71,220,472.69,245Zm609-14.27c-4.63,17.05-14.71,31.4-28.39,40.39-12.8,8.41-27.25,11-40.69,7.38s-24.58-13.21-31.37-26.93c-7.26-14.68-8.71-32.15-4.08-49.21h0C986,168.47,1017,147,1045.83,154.86S1090.55,196.84,1081.28,231Zm563.86-10.62c-4.38-26.12.74-61.6,12.78-106.91h0c15.42-55.81,26.28-65.25,37.2-65.25a7.07,7.07,0,0,1,4.41,1.44c7.2,5.46,6,26.05-.79,51.31-10,37-25,73.94-44,104.84C1651.62,210.82,1648.44,215.7,1645.14,220.38ZM1811.58,245l-.36.23a64.9,64.9,0,0,1-5.18-31c2-32,31.25-63.53,59.78-59.9.31,0,.61.1.91.15,15.39,2.59,14.89,18.9,11.7,27.16-4.74,12.22-24.56,34.66-58.41,57.76C1817.29,241.3,1814.49,243.16,1811.58,245Z"/></g></g></svg>