<svg xmlns="http://www.w3.org/2000/svg" xmlns:xlink="http://www.w3.org/1999/xlink" viewBox="0 0 160 160"><defs><style>.cls-1,.cls-2,.cls-4{opacity:0.2;}.cls-1{fill:url(#linear-gradient);}.cls-2{fill:url(#linear-gradient-2);}.cls-3{fill:#fff;}.cls-4{fill:url(#linear-gradient-3);}</style><linearGradient id="linear-gradient" x1="511.96" y1="49.55" x2="483.68" y2="21.26" gradientTransform="translate(-197.97 -328.05) rotate(45)" gradientUnits="userSpaceOnUse"><stop offset="0" stop-color="#fff" stop-opacity="0"/><stop offset="1" stop-color="#fff"/></linearGradient><linearGradient id="linear-gradient-2" x1="80" y1="147.05" x2="80" y2="12.95" gradientTransform="translate(80 -33.14) rotate(45)" xlink:href="#linear-gradient"/><linearGradient id="linear-gradient-3" x1="31" y1="132" x2="31" y2="90" gradientTransform="matrix(1, 0, 0, 1, 0, 0)" xlink:href="#linear-gradient"/></defs><title>placeholder-icon-01</title><g id="Layer_1" data-name="Layer 1"><rect class="cls-1" x="109" y="29" width="40" height="40" rx="0.83"/><rect class="cls-2" x="32" y="32" width="96" height="96" rx="2" transform="translate(-33.14 80) rotate(-45)"/><path class="cls-3" d="M100,75.43a1.75,1.75,0,0,0-.39-1.22,1.68,1.68,0,0,0-.52-.4,1.65,1.65,0,0,0-.62-.18,1.68,1.68,0,0,0-1.8,1.54.34.34,0,0,1-.07.15.26.26,0,0,1-.15.07.21.21,0,0,1-.15,0,.22.22,0,0,1-.1-.13,13.73,13.73,0,0,0-4.78-7,18.5,18.5,0,0,0-14.86-3.53.42.42,0,0,1-.22,0,.45.45,0,0,1-.19-.14,6.65,6.65,0,0,0-7-2.44,1.54,1.54,0,0,0-.76.44,1.71,1.71,0,0,0-.44.76,1.64,1.64,0,0,0,0,.88,1.66,1.66,0,0,0,.45.75A5,5,0,0,1,69.77,67a.42.42,0,0,1,0,.27.47.47,0,0,1-.16.21,13.88,13.88,0,0,0-5.94,8.25.44.44,0,0,1-.15.23.45.45,0,0,1-.26.09H62.5A2.49,2.49,0,0,0,60,78.5v3.34a2.51,2.51,0,0,0,2.5,2.51h2.07a.5.5,0,0,1,.21.05.46.46,0,0,1,.15.16,14.92,14.92,0,0,0,5.19,5.34.39.39,0,0,1,.17.21.46.46,0,0,1,0,.26l-1.47,5.08A2.1,2.1,0,0,0,69,97a2.06,2.06,0,0,0,1.24,1,2.33,2.33,0,0,0,.59.08,2.09,2.09,0,0,0,2-1.5l1.27-4.42a.46.46,0,0,1,.2-.25.4.4,0,0,1,.32,0,18.79,18.79,0,0,0,10.74,0,.4.4,0,0,1,.32,0,.41.41,0,0,1,.13.1.51.51,0,0,1,.07.15l1.28,4.41a2.05,2.05,0,0,0,.75,1.08,2.09,2.09,0,0,0,1.25.42,2.32,2.32,0,0,0,.58-.08A2,2,0,0,0,91,97a2.1,2.1,0,0,0,.18-1.59L89.7,90.38a.5.5,0,0,1,0-.27.55.55,0,0,1,.17-.2A13.94,13.94,0,0,0,96.56,80a.4.4,0,0,1,.09-.2.38.38,0,0,1,.18-.13A5,5,0,0,0,100,75.43ZM88.5,72.57a1.21,1.21,0,0,1-.82.49,1.15,1.15,0,0,1-.49,0,1.19,1.19,0,0,1-.44-.21,11.26,11.26,0,0,0-7.5-2.22,1.27,1.27,0,0,1-.91-.31,1.26,1.26,0,0,1,.74-2.2,13.65,13.65,0,0,1,9.17,2.72,1.46,1.46,0,0,1,.33.37,1.26,1.26,0,0,1,.16.46,1.35,1.35,0,0,1,0,.49A1.19,1.19,0,0,1,88.5,72.57ZM70,77.67a1.65,1.65,0,0,1-.93-.29,1.67,1.67,0,0,1-.61-.75,1.58,1.58,0,0,1-.09-1,1.71,1.71,0,0,1,.45-.86,1.64,1.64,0,0,1,.85-.45,1.69,1.69,0,0,1,1,.09,1.73,1.73,0,0,1,.75.62A1.67,1.67,0,0,1,70,77.67Z"/><circle class="cls-4" cx="31" cy="111" r="21"/></g></svg>