<?xml version="1.0" standalone="no"?>
<!DOCTYPE svg PUBLIC "-//W3C//DTD SVG 20010904//EN"
 "http://www.w3.org/TR/2001/REC-SVG-20010904/DTD/svg10.dtd">
<svg version="1.0" xmlns="http://www.w3.org/2000/svg"
 width="2000.000000pt" height="2000.000000pt" viewBox="0 0 2000.000000 2000.000000"
 preserveAspectRatio="xMidYMid meet">
<metadata>
Created by potrace 1.11, written by Peter Selinger 2001-2013
</metadata>
<g transform="translate(0.000000,2000.000000) scale(0.100000,-0.100000)"
fill="#000000" stroke="none">
<path d="M9515 19989 c-2921 -140 -5618 -1545 -7421 -3864 -1781 -2290 -2473
-5261 -1894 -8125 521 -2573 2052 -4851 4247 -6318 1884 -1260 4124 -1836
6398 -1647 3027 252 5778 1877 7473 4412 1132 1694 1715 3678 1679 5713 -9
479 -39 858 -103 1300 -404 2784 -1987 5284 -4341 6858 -1780 1190 -3891 1774
-6038 1671z m-3217 -4004 c449 -57 865 -200 1252 -431 459 -273 875 -701 1137
-1168 296 -526 437 -1130 404 -1721 -6 -98 -9 -181 -7 -183 2 -1 50 17 107 41
237 101 500 179 734 218 152 26 420 30 575 10 262 -33 494 -104 727 -221 235
-119 438 -274 598 -458 l79 -91 51 45 c350 310 641 486 1010 609 665 222 1389
159 1934 -166 266 -160 501 -390 663 -652 244 -391 361 -966 303 -1477 -25
-214 -68 -408 -180 -805 -289 -1028 -453 -1630 -486 -1785 -28 -135 -35 -335
-15 -429 46 -217 182 -352 402 -397 62 -13 113 -15 239 -11 232 8 469 53 712
134 134 45 213 49 288 15 64 -29 116 -81 143 -140 29 -63 302 -1081 302 -1125
0 -86 -52 -186 -122 -237 -53 -39 -395 -151 -663 -218 -559 -140 -1006 -158
-1465 -60 -251 53 -584 196 -780 335 -136 97 -350 313 -433 438 -165 250 -266
527 -313 860 -24 167 -24 529 0 720 36 288 46 331 288 1200 274 988 425 1547
443 1629 21 104 20 255 -3 337 -43 155 -145 257 -294 295 -94 24 -318 14 -457
-20 -606 -152 -1098 -717 -1406 -1616 -52 -151 -145 -488 -704 -2530 -241
-881 -400 -1445 -417 -1478 -34 -66 -100 -125 -170 -152 -53 -19 -76 -20 -682
-20 l-627 0 -51 24 c-89 41 -152 148 -141 240 2 22 298 1110 657 2416 359
1306 658 2409 666 2450 17 98 17 278 0 361 -37 174 -153 295 -317 330 -70 15
-320 5 -419 -16 -307 -67 -603 -231 -853 -474 -140 -136 -218 -230 -332 -401
-157 -236 -275 -476 -375 -765 -28 -82 -288 -1009 -576 -2060 -572 -2080 -537
-1969 -632 -2039 -93 -68 -76 -66 -759 -66 -438 0 -627 3 -654 12 -89 26 -169
134 -169 228 0 28 345 1303 949 3505 522 1903 955 3487 963 3520 8 39 13 133
13 275 0 238 -14 330 -77 509 -287 817 -1196 1236 -1999 922 -510 -199 -866
-645 -960 -1201 -18 -110 -16 -347 5 -445 99 -460 417 -832 890 -1041 111 -49
155 -85 194 -159 22 -42 26 -62 26 -125 -1 -65 -21 -148 -147 -603 -81 -290
-154 -544 -164 -565 -24 -51 -80 -104 -138 -131 -103 -49 -200 -30 -476 94
-368 164 -690 386 -974 670 -734 733 -1023 1694 -819 2719 110 553 387 1091
781 1519 359 390 817 687 1323 859 226 76 514 136 760 158 144 12 489 4 638
-15z"/>
</g>
</svg>
