<svg xmlns="http://www.w3.org/2000/svg" xmlns:xlink="http://www.w3.org/1999/xlink" viewBox="0 0 512 512"><defs><style>.cls-1,.cls-12,.cls-16,.cls-19,.cls-2,.cls-4,.cls-5,.cls-6,.cls-7{fill:none;}.cls-2{stroke:#e6e6ea;}.cls-11,.cls-12,.cls-13,.cls-16,.cls-19,.cls-2,.cls-4,.cls-5,.cls-6,.cls-7{stroke-miterlimit:10;}.cls-3{fill:url(#linear-gradient);}.cls-11,.cls-13,.cls-4,.cls-5{stroke:#c1c1ca;}.cls-12,.cls-13,.cls-19,.cls-4{stroke-linecap:round;}.cls-11,.cls-13,.cls-4{stroke-width:2px;}.cls-5{stroke-width:16px;}.cls-16,.cls-6,.cls-7{stroke:#fff;}.cls-6{stroke-width:12px;}.cls-7{stroke-width:12px;}.cls-8{fill:#32c2cc;}.cls-9{clip-path:url(#clip-path);}.cls-10{fill:#fe6f66;}.cls-11,.cls-13,.cls-15{fill:#fff;}.cls-12{stroke:#fe6f66;}.cls-12,.cls-19{stroke-width:2px;}.cls-14{fill:url(#linear-gradient-2);}.cls-16{stroke-width:6px;}.cls-17{fill:url(#linear-gradient-3);}.cls-18{fill:url(#linear-gradient-4);}.cls-19{stroke:#000;}</style><linearGradient id="linear-gradient" x1="-453.5" y1="-275.5" x2="-453.5" y2="-313.5" gradientTransform="translate(519.5 550.5)" gradientUnits="userSpaceOnUse"><stop offset="0.02" stop-color="#32c2cc"/><stop offset="0.06" stop-color="#3ec4ce"/><stop offset="0.31" stop-color="#86d3da"/><stop offset="0.51" stop-color="#badde3"/><stop offset="0.67" stop-color="#dae4e8"/><stop offset="0.75" stop-color="#e6e6ea"/></linearGradient><clipPath id="clip-path"><rect class="cls-1" x="222.06" y="238.06" width="67.88" height="67.88" rx="2" transform="translate(-117.35 260.69) rotate(-45)"/></clipPath><linearGradient id="linear-gradient-2" x1="-108.5" y1="-346.7" x2="-108.5" y2="-384.7" gradientTransform="translate(550.7 541.7)" gradientUnits="userSpaceOnUse"><stop offset="0.02" stop-color="#fe6f66"/><stop offset="0.19" stop-color="#f7908a"/><stop offset="0.45" stop-color="#eebebe"/><stop offset="0.64" stop-color="#e8dbde"/><stop offset="0.75" stop-color="#e6e6ea"/></linearGradient><linearGradient id="linear-gradient-3" x1="480" y1="264.5" x2="480" y2="226.5" gradientTransform="matrix(1, 0, 0, 1, 0, 0)" xlink:href="#linear-gradient"/><linearGradient id="linear-gradient-4" x1="-80.5" y1="1089.1" x2="-80.5" y2="1072.1" gradientTransform="translate(121 -872.6)" xlink:href="#linear-gradient-2"/></defs><title>automation-illo-vector_02</title><g id="Layer_4" data-name="Layer 4"><polyline class="cls-2" points="32 0 32 208 64 208"/><polyline class="cls-2" points="128 0 128 32 288 32 288 192 368 192 368 224 480 224 480 272"/><polyline class="cls-2" points="512 64 160 64 160 256 47 256"/><rect class="cls-3" x="65.5" y="237" width="1" height="38" transform="translate(322 190) rotate(90)"/><polyline class="cls-2" points="512 112 384 112 384 144 208 144 208 264"/><path class="cls-4" d="M159,328a20,20,0,0,1,29.32-22.5"/><path class="cls-4" d="M188.32,350.5A20,20,0,0,1,159,328"/><path class="cls-5" d="M256,272l25.28-25.28C324.51,203.49,217,135,144.71,207.29,134.85,217.15,108.15,240,72,240"/><path class="cls-6" d="M256,272l25.28-25.28C324.51,203.49,217,135,144.71,207.29,134.85,217.15,108.15,240,72,240"/><path class="cls-5" d="M256,272l29-14.5a78.24,78.24,0,0,1,70,0h0a78.32,78.32,0,0,0,59.76,4.25L432,256"/><path class="cls-7" d="M256,272l29-14.5a78.24,78.24,0,0,1,70,0h0a78.32,78.32,0,0,0,59.76,4.25L432,256"/><path class="cls-5" d="M288,272h15.88a38.92,38.92,0,0,0,27.52-11.4L384,208"/><path class="cls-6" d="M288,272h15.88a38.92,38.92,0,0,0,27.52-11.4L384,208"/><path class="cls-5" d="M256,272H100a28,28,0,0,0-28,28h0a28,28,0,0,0,28,28h58"/><path class="cls-6" d="M256,272H100a28,28,0,0,0-28,28h0a28,28,0,0,0,28,28h58"/><path class="cls-5" d="M96,208h32.79A152.62,152.62,0,0,1,236.7,252.7L256,272"/><path class="cls-6" d="M96,208h32.79A152.62,152.62,0,0,1,236.7,252.7L256,272"/><rect class="cls-8" x="222.06" y="238.06" width="67.88" height="67.88" rx="2" transform="translate(-117.35 260.69) rotate(-45)"/><g class="cls-9"><circle class="cls-10" cx="300.92" cy="221.09" r="3.29"/><circle class="cls-10" cx="303.92" cy="224.08" r="3.29"/><circle class="cls-10" cx="294.93" cy="221.09" r="3.29"/><circle class="cls-10" cx="297.93" cy="224.08" r="3.29"/><circle class="cls-10" cx="300.92" cy="227.08" r="3.29"/><circle class="cls-10" cx="303.92" cy="230.07" r="3.29"/><circle class="cls-10" cx="288.94" cy="221.09" r="3.29"/><circle class="cls-10" cx="291.94" cy="224.08" r="3.29"/><circle class="cls-10" cx="294.93" cy="227.08" r="3.29"/><circle class="cls-10" cx="297.93" cy="230.07" r="3.29"/><circle class="cls-10" cx="300.92" cy="233.07" r="3.29"/><circle class="cls-10" cx="303.92" cy="236.06" r="3.29"/><circle class="cls-10" cx="282.95" cy="221.09" r="3.29"/><circle class="cls-10" cx="285.95" cy="224.08" r="3.29"/><circle class="cls-10" cx="288.94" cy="227.08" r="3.29"/><circle class="cls-10" cx="291.94" cy="230.07" r="3.29"/><circle class="cls-10" cx="294.93" cy="233.07" r="3.29"/><circle class="cls-10" cx="297.93" cy="236.06" r="3.29"/><circle class="cls-10" cx="300.92" cy="239.06" r="3.29"/><circle class="cls-10" cx="303.92" cy="242.05" r="3.29"/><circle class="cls-10" cx="276.96" cy="221.09" r="3.29"/><circle class="cls-10" cx="279.96" cy="224.08" r="3.29"/><circle class="cls-10" cx="282.95" cy="227.08" r="3.29"/><circle class="cls-10" cx="285.95" cy="230.07" r="3.29"/><circle class="cls-10" cx="288.94" cy="233.07" r="3.29"/><circle class="cls-10" cx="291.94" cy="236.06" r="3.29"/><circle class="cls-10" cx="294.93" cy="239.06" r="3.29"/><circle class="cls-10" cx="297.93" cy="242.05" r="3.29"/><circle class="cls-10" cx="300.92" cy="245.05" r="3.29"/><circle class="cls-10" cx="303.92" cy="248.04" r="3.29"/><circle class="cls-10" cx="270.97" cy="221.09" r="3.29"/><circle class="cls-10" cx="273.97" cy="224.08" r="3.29"/><circle class="cls-10" cx="276.96" cy="227.08" r="3.29"/><circle class="cls-10" cx="279.96" cy="230.07" r="3.29"/><circle class="cls-10" cx="282.95" cy="233.07" r="3.29"/><circle class="cls-10" cx="285.95" cy="236.06" r="3.29"/><circle class="cls-10" cx="288.94" cy="239.06" r="3.29"/><circle class="cls-10" cx="291.94" cy="242.05" r="3.29"/><circle class="cls-10" cx="294.93" cy="245.05" r="3.29"/><circle class="cls-10" cx="297.93" cy="248.04" r="3.29"/><circle class="cls-10" cx="300.92" cy="251.04" r="3.29"/><circle class="cls-10" cx="303.92" cy="254.03" r="3.29"/><circle class="cls-10" cx="264.98" cy="221.09" r="3.29"/><circle class="cls-10" cx="267.98" cy="224.08" r="3.29"/><circle class="cls-10" cx="270.97" cy="227.08" r="3.29"/><circle class="cls-10" cx="273.97" cy="230.07" r="3.29"/><circle class="cls-10" cx="276.96" cy="233.07" r="3.29"/><circle class="cls-10" cx="279.96" cy="236.06" r="3.29"/><circle class="cls-10" cx="282.95" cy="239.06" r="3.29"/><circle class="cls-10" cx="285.95" cy="242.05" r="3.29"/><circle class="cls-10" cx="288.94" cy="245.05" r="3.29"/><circle class="cls-10" cx="291.94" cy="248.04" r="3.29"/><circle class="cls-10" cx="294.93" cy="251.04" r="3.29"/><circle class="cls-10" cx="297.93" cy="254.03" r="3.29"/><circle class="cls-10" cx="300.92" cy="257.03" r="3.29"/><circle class="cls-10" cx="303.92" cy="260.02" r="3.29"/><circle class="cls-10" cx="264.98" cy="227.08" r="3.29"/><circle class="cls-10" cx="270.97" cy="233.07" r="3.29"/><circle class="cls-10" cx="273.97" cy="236.06" r="3.29"/><circle class="cls-10" cx="276.96" cy="239.06" r="3.29"/><circle class="cls-10" cx="282.95" cy="245.05" r="3.29"/><circle class="cls-10" cx="285.95" cy="248.04" r="3.29"/><circle class="cls-10" cx="291.94" cy="254.03" r="3.29"/><circle class="cls-10" cx="294.93" cy="257.03" r="3.29"/><circle class="cls-10" cx="297.93" cy="260.02" r="3.29"/><circle class="cls-10" cx="303.92" cy="266.01" r="3.29"/><circle class="cls-10" cx="303.92" cy="277.99" r="3.29"/><circle class="cls-10" cx="241.03" cy="221.09" r="3.29"/><circle class="cls-10" cx="244.02" cy="224.08" r="3.29"/><circle class="cls-10" cx="300.92" cy="280.98" r="3.29"/><circle class="cls-10" cx="303.92" cy="283.98" r="3.29"/><circle class="cls-10" cx="235.04" cy="221.09" r="3.29"/><circle class="cls-10" cx="238.03" cy="224.08" r="3.29"/><circle class="cls-10" cx="241.03" cy="227.08" r="3.29"/><circle class="cls-10" cx="297.93" cy="283.98" r="3.29"/><circle class="cls-10" cx="300.92" cy="286.97" r="3.29"/><circle class="cls-10" cx="303.92" cy="289.97" r="3.29"/><circle class="cls-10" cx="229.05" cy="221.09" r="3.29"/><circle class="cls-10" cx="232.04" cy="224.08" r="3.29"/><circle class="cls-10" cx="235.04" cy="227.08" r="3.29"/><circle class="cls-10" cx="238.03" cy="230.07" r="3.29"/><circle class="cls-10" cx="241.03" cy="233.07" r="3.29"/><circle class="cls-10" cx="294.93" cy="286.97" r="3.29"/><circle class="cls-10" cx="297.93" cy="289.97" r="3.29"/><circle class="cls-10" cx="300.92" cy="292.96" r="3.29"/><circle class="cls-10" cx="303.92" cy="295.96" r="3.29"/><circle class="cls-10" cx="223.06" cy="221.09" r="3.29"/><circle class="cls-10" cx="226.05" cy="224.08" r="3.29"/><circle class="cls-10" cx="229.05" cy="227.08" r="3.29"/><circle class="cls-10" cx="232.04" cy="230.07" r="3.29"/><circle class="cls-10" cx="235.04" cy="233.07" r="3.29"/><circle class="cls-10" cx="238.03" cy="236.06" r="3.29"/><circle class="cls-10" cx="291.94" cy="289.97" r="3.29"/><circle class="cls-10" cx="294.93" cy="292.96" r="3.29"/><circle class="cls-10" cx="297.93" cy="295.96" r="3.29"/><circle class="cls-10" cx="300.92" cy="298.95" r="3.29"/><circle class="cls-10" cx="303.92" cy="301.95" r="3.29"/><circle class="cls-10" cx="217.07" cy="221.09" r="3.29"/><circle class="cls-10" cx="220.06" cy="224.08" r="3.29"/><circle class="cls-10" cx="223.06" cy="227.08" r="3.29"/><circle class="cls-10" cx="226.05" cy="230.07" r="3.29"/><circle class="cls-10" cx="229.05" cy="233.07" r="3.29"/><circle class="cls-10" cx="232.04" cy="236.06" r="3.29"/><circle class="cls-10" cx="288.94" cy="292.96" r="3.29"/><circle class="cls-10" cx="291.94" cy="295.96" r="3.29"/><circle class="cls-10" cx="294.93" cy="298.95" r="3.29"/><circle class="cls-10" cx="297.93" cy="301.95" r="3.29"/><circle class="cls-10" cx="300.92" cy="304.94" r="3.29"/><circle class="cls-10" cx="303.92" cy="307.94" r="3.29"/><circle class="cls-10" cx="211.08" cy="221.09" r="3.29"/><circle class="cls-10" cx="214.07" cy="224.08" r="3.29"/><circle class="cls-10" cx="217.07" cy="227.08" r="3.29"/><circle class="cls-10" cx="220.06" cy="230.07" r="3.29"/><circle class="cls-10" cx="223.06" cy="233.07" r="3.29"/><circle class="cls-10" cx="226.05" cy="236.06" r="3.29"/><circle class="cls-10" cx="229.05" cy="239.06" r="3.29"/><circle class="cls-10" cx="285.95" cy="295.96" r="3.29"/><circle class="cls-10" cx="288.94" cy="298.95" r="3.29"/><circle class="cls-10" cx="291.94" cy="301.95" r="3.29"/><circle class="cls-10" cx="294.93" cy="304.94" r="3.29"/><circle class="cls-10" cx="297.93" cy="307.94" r="3.29"/><circle class="cls-10" cx="300.92" cy="310.93" r="3.29"/><circle class="cls-10" cx="303.92" cy="313.93" r="3.29"/><circle class="cls-10" cx="208.08" cy="224.08" r="3.29"/><circle class="cls-10" cx="211.08" cy="227.08" r="3.29"/><circle class="cls-10" cx="214.07" cy="230.07" r="3.29"/><circle class="cls-10" cx="217.07" cy="233.07" r="3.29"/><circle class="cls-10" cx="220.06" cy="236.06" r="3.29"/><circle class="cls-10" cx="223.06" cy="239.06" r="3.29"/><circle class="cls-10" cx="226.05" cy="242.05" r="3.29"/><circle class="cls-10" cx="229.05" cy="245.05" r="3.29"/><circle class="cls-10" cx="282.95" cy="298.95" r="3.29"/><circle class="cls-10" cx="285.95" cy="301.95" r="3.29"/><circle class="cls-10" cx="288.94" cy="304.94" r="3.29"/><circle class="cls-10" cx="291.94" cy="307.94" r="3.29"/><circle class="cls-10" cx="294.93" cy="310.93" r="3.29"/><circle class="cls-10" cx="297.93" cy="313.93" r="3.29"/><circle class="cls-10" cx="300.92" cy="316.92" r="3.29"/><circle class="cls-10" cx="303.92" cy="319.92" r="3.29"/><circle class="cls-10" cx="205.09" cy="227.08" r="3.29"/><circle class="cls-10" cx="208.08" cy="230.07" r="3.29"/><circle class="cls-10" cx="211.08" cy="233.07" r="3.29"/><circle class="cls-10" cx="214.07" cy="236.06" r="3.29"/><circle class="cls-10" cx="217.07" cy="239.06" r="3.29"/><circle class="cls-10" cx="220.06" cy="242.05" r="3.29"/><circle class="cls-10" cx="223.06" cy="245.05" r="3.29"/><circle class="cls-10" cx="226.05" cy="248.04" r="0.01"/><circle class="cls-10" cx="229.05" cy="251.04" r="0.21"/><circle class="cls-10" cx="232.04" cy="254.03" r="0.01"/><circle class="cls-10" cx="235.04" cy="257.03" r="0.01"/><circle class="cls-10" cx="238.03" cy="260.02" r="0.21"/><circle class="cls-10" cx="241.03" cy="263.02" r="0.21"/><circle class="cls-10" cx="244.02" cy="266.01" r="0.01"/><circle class="cls-10" cx="247.02" cy="269.01" r="0.01"/><circle class="cls-10" cx="250.01" cy="272" r="0.21"/><circle class="cls-10" cx="253.01" cy="274.99" r="0.01"/><circle class="cls-10" cx="256" cy="277.99" r="0.01"/><circle class="cls-10" cx="258.99" cy="280.98" r="0.21"/><circle class="cls-10" cx="261.99" cy="283.98" r="0.01"/><circle class="cls-10" cx="264.98" cy="286.97" r="0.01"/><circle class="cls-10" cx="267.98" cy="289.97" r="0.21"/><circle class="cls-10" cx="270.97" cy="292.96" r="0.21"/><circle class="cls-10" cx="273.97" cy="295.96" r="0.01"/><circle class="cls-10" cx="276.96" cy="298.95" r="0.01"/><circle class="cls-10" cx="279.96" cy="301.95" r="3.29"/><circle class="cls-10" cx="282.95" cy="304.94" r="3.29"/><circle class="cls-10" cx="285.95" cy="307.94" r="3.29"/><circle class="cls-10" cx="288.94" cy="310.93" r="3.29"/><circle class="cls-10" cx="291.94" cy="313.93" r="3.29"/><circle class="cls-10" cx="294.93" cy="316.92" r="3.29"/><circle class="cls-10" cx="297.93" cy="319.92" r="3.29"/><circle class="cls-10" cx="205.09" cy="233.07" r="3.29"/><circle class="cls-10" cx="208.08" cy="236.06" r="3.29"/><circle class="cls-10" cx="211.08" cy="239.06" r="3.29"/><circle class="cls-10" cx="214.07" cy="242.05" r="3.29"/><circle class="cls-10" cx="217.07" cy="245.05" r="3.29"/><circle class="cls-10" cx="220.06" cy="248.04" r="3.29"/><circle class="cls-10" cx="223.06" cy="251.04" r="0.47"/><circle class="cls-10" cx="226.05" cy="254.03" r="0.21"/><circle class="cls-10" cx="229.05" cy="257.03" r="0.47"/><circle class="cls-10" cx="232.04" cy="260.02" r="0.47"/><circle class="cls-10" cx="235.04" cy="263.02" r="0.47"/><circle class="cls-10" cx="238.03" cy="266.01" r="0.47"/><circle class="cls-10" cx="241.03" cy="269.01" r="0.47"/><circle class="cls-10" cx="244.02" cy="272" r="0.47"/><circle class="cls-10" cx="247.02" cy="274.99" r="0.21"/><circle class="cls-10" cx="250.01" cy="277.99" r="0.47"/><circle class="cls-10" cx="253.01" cy="280.98" r="0.47"/><circle class="cls-10" cx="256" cy="283.98" r="0.21"/><circle class="cls-10" cx="258.99" cy="286.97" r="0.47"/><circle class="cls-10" cx="261.99" cy="289.97" r="0.47"/><circle class="cls-10" cx="264.98" cy="292.96" r="0.47"/><circle class="cls-10" cx="267.98" cy="295.96" r="0.47"/><circle class="cls-10" cx="270.97" cy="298.95" r="0.47"/><circle class="cls-10" cx="273.97" cy="301.95" r="0.47"/><circle class="cls-10" cx="276.96" cy="304.94" r="3.29"/><circle class="cls-10" cx="279.96" cy="307.94" r="3.29"/><circle class="cls-10" cx="282.95" cy="310.93" r="3.29"/><circle class="cls-10" cx="285.95" cy="313.93" r="3.29"/><circle class="cls-10" cx="288.94" cy="316.92" r="3.29"/><circle class="cls-10" cx="291.94" cy="319.92" r="3.29"/><circle class="cls-10" cx="205.09" cy="239.06" r="3.29"/><circle class="cls-10" cx="208.08" cy="242.05" r="3.29"/><circle class="cls-10" cx="211.08" cy="245.05" r="3.29"/><circle class="cls-10" cx="214.07" cy="248.04" r="3.29"/><circle class="cls-10" cx="217.07" cy="251.04" r="3.29"/><circle class="cls-10" cx="220.06" cy="254.03" r="3.29"/><circle class="cls-10" cx="223.06" cy="257.03" r="0.76"/><circle class="cls-10" cx="226.05" cy="260.02" r="0.76"/><circle class="cls-10" cx="229.05" cy="263.02" r="1.09"/><circle class="cls-10" cx="232.04" cy="266.01" r="0.76"/><circle class="cls-10" cx="235.04" cy="269.01" r="0.76"/><circle class="cls-10" cx="238.03" cy="272" r="1.09"/><circle class="cls-10" cx="241.03" cy="274.99" r="0.76"/><circle class="cls-10" cx="244.02" cy="277.99" r="0.76"/><circle class="cls-10" cx="247.02" cy="280.98" r="0.76"/><circle class="cls-10" cx="250.01" cy="283.98" r="0.76"/><circle class="cls-10" cx="253.01" cy="286.97" r="0.76"/><circle class="cls-10" cx="256" cy="289.97" r="0.76"/><circle class="cls-10" cx="258.99" cy="292.96" r="1.09"/><circle class="cls-10" cx="261.99" cy="295.96" r="0.76"/><circle class="cls-10" cx="264.98" cy="298.95" r="0.76"/><circle class="cls-10" cx="267.98" cy="301.95" r="1.09"/><circle class="cls-10" cx="270.97" cy="304.94" r="0.76"/><circle class="cls-10" cx="273.97" cy="307.94" r="3.29"/><circle class="cls-10" cx="276.96" cy="310.93" r="3.29"/><circle class="cls-10" cx="279.96" cy="313.93" r="3.29"/><circle class="cls-10" cx="282.95" cy="316.92" r="3.29"/><circle class="cls-10" cx="285.95" cy="319.92" r="3.29"/><circle class="cls-10" cx="205.09" cy="245.05" r="3.29"/><circle class="cls-10" cx="208.08" cy="248.04" r="3.29"/><circle class="cls-10" cx="211.08" cy="251.04" r="3.29"/><circle class="cls-10" cx="214.07" cy="254.03" r="3.29"/><circle class="cls-10" cx="217.07" cy="257.03" r="3.29"/><circle class="cls-10" cx="220.06" cy="260.02" r="1.42"/><circle class="cls-10" cx="223.06" cy="263.02" r="1.42"/><circle class="cls-10" cx="226.05" cy="266.01" r="1.09"/><circle class="cls-10" cx="229.05" cy="269.01" r="1.42"/><circle class="cls-10" cx="232.04" cy="272" r="1.42"/><circle class="cls-10" cx="235.04" cy="274.99" r="1.09"/><circle class="cls-10" cx="238.03" cy="277.99" r="1.42"/><circle class="cls-10" cx="241.03" cy="280.98" r="1.42"/><circle class="cls-10" cx="244.02" cy="283.98" r="1.09"/><circle class="cls-10" cx="247.02" cy="286.97" r="1.09"/><circle class="cls-10" cx="250.01" cy="289.97" r="1.42"/><circle class="cls-10" cx="253.01" cy="292.96" r="1.42"/><circle class="cls-10" cx="256" cy="295.96" r="1.09"/><circle class="cls-10" cx="258.99" cy="298.95" r="1.42"/><circle class="cls-10" cx="261.99" cy="301.95" r="1.42"/><circle class="cls-10" cx="264.98" cy="304.94" r="1.09"/><circle class="cls-10" cx="267.98" cy="307.94" r="1.42"/><circle class="cls-10" cx="270.97" cy="310.93" r="3.29"/><circle class="cls-10" cx="273.97" cy="313.93" r="3.29"/><circle class="cls-10" cx="276.96" cy="316.92" r="3.29"/><circle class="cls-10" cx="279.96" cy="319.92" r="3.29"/><circle class="cls-10" cx="205.09" cy="251.04" r="3.29"/><circle class="cls-10" cx="208.08" cy="254.03" r="3.29"/><circle class="cls-10" cx="211.08" cy="257.03" r="3.29"/><circle class="cls-10" cx="214.07" cy="260.02" r="1.78"/><circle class="cls-10" cx="217.07" cy="263.02" r="2.16"/><circle class="cls-10" cx="220.06" cy="266.01" r="1.78"/><circle class="cls-10" cx="223.06" cy="269.01" r="1.78"/><circle class="cls-10" cx="226.05" cy="272" r="1.78"/><circle class="cls-10" cx="229.05" cy="274.99" r="1.78"/><circle class="cls-10" cx="232.04" cy="277.99" r="1.78"/><circle class="cls-10" cx="235.04" cy="280.98" r="1.78"/><circle class="cls-10" cx="238.03" cy="283.98" r="1.78"/><circle class="cls-10" cx="241.03" cy="286.97" r="1.78"/><circle class="cls-10" cx="244.02" cy="289.97" r="1.78"/><circle class="cls-10" cx="247.02" cy="292.96" r="1.78"/><circle class="cls-10" cx="250.01" cy="295.96" r="1.78"/><circle class="cls-10" cx="253.01" cy="298.95" r="1.78"/><circle class="cls-10" cx="256" cy="301.95" r="1.78"/><circle class="cls-10" cx="258.99" cy="304.94" r="1.78"/><circle class="cls-10" cx="261.99" cy="307.94" r="1.78"/><circle class="cls-10" cx="264.98" cy="310.93" r="1.78"/><circle class="cls-10" cx="267.98" cy="313.93" r="3.29"/><circle class="cls-10" cx="270.97" cy="316.92" r="3.29"/><circle class="cls-10" cx="273.97" cy="319.92" r="3.29"/><circle class="cls-10" cx="205.09" cy="257.03" r="3.29"/><circle class="cls-10" cx="208.08" cy="260.02" r="3.29"/><circle class="cls-10" cx="211.08" cy="263.02" r="2.54"/><circle class="cls-10" cx="214.07" cy="266.01" r="2.16"/><circle class="cls-10" cx="217.07" cy="269.01" r="2.54"/><circle class="cls-10" cx="220.06" cy="272" r="2.54"/><circle class="cls-10" cx="223.06" cy="274.99" r="2.16"/><circle class="cls-10" cx="226.05" cy="277.99" r="2.16"/><circle class="cls-10" cx="229.05" cy="280.98" r="2.54"/><circle class="cls-10" cx="232.04" cy="283.98" r="2.16"/><circle class="cls-10" cx="235.04" cy="286.97" r="2.16"/><circle class="cls-10" cx="238.03" cy="289.97" r="2.54"/><circle class="cls-10" cx="241.03" cy="292.96" r="2.54"/><circle class="cls-10" cx="244.02" cy="295.96" r="2.16"/><circle class="cls-10" cx="247.02" cy="298.95" r="2.16"/><circle class="cls-10" cx="250.01" cy="301.95" r="2.54"/><circle class="cls-10" cx="253.01" cy="304.94" r="2.16"/><circle class="cls-10" cx="256" cy="307.94" r="2.16"/><circle class="cls-10" cx="258.99" cy="310.93" r="2.54"/><circle class="cls-10" cx="261.99" cy="313.93" r="2.54"/><circle class="cls-10" cx="264.98" cy="316.92" r="3.29"/><circle class="cls-10" cx="267.98" cy="319.92" r="3.29"/><circle class="cls-10" cx="205.09" cy="263.02" r="2.54"/><circle class="cls-10" cx="208.08" cy="266.01" r="2.54"/><circle class="cls-10" cx="211.08" cy="269.01" r="2.95"/><circle class="cls-10" cx="214.07" cy="272" r="2.95"/><circle class="cls-10" cx="217.07" cy="274.99" r="2.95"/><circle class="cls-10" cx="220.06" cy="277.99" r="2.95"/><circle class="cls-10" cx="223.06" cy="280.98" r="2.95"/><circle class="cls-10" cx="226.05" cy="283.98" r="2.54"/><circle class="cls-10" cx="229.05" cy="286.97" r="2.95"/><circle class="cls-10" cx="232.04" cy="289.97" r="2.95"/><circle class="cls-10" cx="235.04" cy="292.96" r="2.95"/><circle class="cls-10" cx="238.03" cy="295.96" r="2.95"/><circle class="cls-10" cx="241.03" cy="298.95" r="2.95"/><circle class="cls-10" cx="244.02" cy="301.95" r="2.95"/><circle class="cls-10" cx="247.02" cy="304.94" r="2.54"/><circle class="cls-10" cx="250.01" cy="307.94" r="2.95"/><circle class="cls-10" cx="253.01" cy="310.93" r="2.95"/><circle class="cls-10" cx="256" cy="313.93" r="2.95"/><circle class="cls-10" cx="258.99" cy="316.92" r="2.95"/><circle class="cls-10" cx="261.99" cy="319.92" r="3.29"/><circle class="cls-10" cx="205.09" cy="269.01" r="2.95"/><circle class="cls-10" cx="208.08" cy="272" r="3.29"/><circle class="cls-10" cx="211.08" cy="274.99" r="3.29"/><circle class="cls-10" cx="214.07" cy="277.99" r="3.29"/><circle class="cls-10" cx="217.07" cy="280.98" r="3.29"/><circle class="cls-10" cx="220.06" cy="283.98" r="3.29"/><circle class="cls-10" cx="223.06" cy="286.97" r="3.29"/><circle class="cls-10" cx="226.05" cy="289.97" r="3.29"/><circle class="cls-10" cx="229.05" cy="292.96" r="3.29"/><circle class="cls-10" cx="232.04" cy="295.96" r="3.29"/><circle class="cls-10" cx="235.04" cy="298.95" r="3.29"/><circle class="cls-10" cx="238.03" cy="301.95" r="3.29"/><circle class="cls-10" cx="241.03" cy="304.94" r="3.29"/><circle class="cls-10" cx="244.02" cy="307.94" r="3.29"/><circle class="cls-10" cx="247.02" cy="310.93" r="3.29"/><circle class="cls-10" cx="250.01" cy="313.93" r="3.29"/><circle class="cls-10" cx="253.01" cy="316.92" r="3.29"/><circle class="cls-10" cx="256" cy="319.92" r="3.29"/><circle class="cls-10" cx="205.09" cy="274.99" r="3.29"/><circle class="cls-10" cx="208.08" cy="277.99" r="3.29"/><circle class="cls-10" cx="211.08" cy="280.98" r="3.29"/><circle class="cls-10" cx="214.07" cy="283.98" r="3.29"/><circle class="cls-10" cx="217.07" cy="286.97" r="3.29"/><circle class="cls-10" cx="220.06" cy="289.97" r="3.29"/><circle class="cls-10" cx="223.06" cy="292.96" r="3.29"/><circle class="cls-10" cx="226.05" cy="295.96" r="3.29"/><circle class="cls-10" cx="229.05" cy="298.95" r="3.29"/><circle class="cls-10" cx="232.04" cy="301.95" r="3.29"/><circle class="cls-10" cx="235.04" cy="304.94" r="3.29"/><circle class="cls-10" cx="238.03" cy="307.94" r="3.29"/><circle class="cls-10" cx="241.03" cy="310.93" r="3.29"/><circle class="cls-10" cx="244.02" cy="313.93" r="3.29"/><circle class="cls-10" cx="247.02" cy="316.92" r="3.29"/><circle class="cls-10" cx="250.01" cy="319.92" r="3.29"/><circle class="cls-10" cx="205.09" cy="280.98" r="3.29"/><circle class="cls-10" cx="208.08" cy="283.98" r="3.29"/><circle class="cls-10" cx="211.08" cy="286.97" r="3.29"/><circle class="cls-10" cx="214.07" cy="289.97" r="3.29"/><circle class="cls-10" cx="217.07" cy="292.96" r="3.29"/><circle class="cls-10" cx="220.06" cy="295.96" r="3.29"/><circle class="cls-10" cx="223.06" cy="298.95" r="3.29"/><circle class="cls-10" cx="226.05" cy="301.95" r="3.29"/><circle class="cls-10" cx="229.05" cy="304.94" r="3.29"/><circle class="cls-10" cx="232.04" cy="307.94" r="3.29"/><circle class="cls-10" cx="235.04" cy="310.93" r="3.29"/><circle class="cls-10" cx="238.03" cy="313.93" r="3.29"/><circle class="cls-10" cx="241.03" cy="316.92" r="3.29"/><circle class="cls-10" cx="244.02" cy="319.92" r="3.29"/><circle class="cls-10" cx="205.09" cy="286.97" r="3.29"/><circle class="cls-10" cx="208.08" cy="289.97" r="3.29"/><circle class="cls-10" cx="211.08" cy="292.96" r="3.29"/><circle class="cls-10" cx="214.07" cy="295.96" r="3.29"/><circle class="cls-10" cx="217.07" cy="298.95" r="3.29"/><circle class="cls-10" cx="220.06" cy="301.95" r="3.29"/><circle class="cls-10" cx="223.06" cy="304.94" r="3.29"/><circle class="cls-10" cx="226.05" cy="307.94" r="3.29"/><circle class="cls-10" cx="229.05" cy="310.93" r="3.29"/><circle class="cls-10" cx="232.04" cy="313.93" r="3.29"/><circle class="cls-10" cx="235.04" cy="316.92" r="3.29"/><circle class="cls-10" cx="238.03" cy="319.92" r="3.29"/><circle class="cls-10" cx="205.09" cy="292.96" r="3.29"/><circle class="cls-10" cx="208.08" cy="295.96" r="3.29"/><circle class="cls-10" cx="211.08" cy="298.95" r="3.29"/><circle class="cls-10" cx="214.07" cy="301.95" r="3.29"/><circle class="cls-10" cx="217.07" cy="304.94" r="3.29"/><circle class="cls-10" cx="220.06" cy="307.94" r="3.29"/><circle class="cls-10" cx="223.06" cy="310.93" r="3.29"/><circle class="cls-10" cx="226.05" cy="313.93" r="3.29"/><circle class="cls-10" cx="229.05" cy="316.92" r="3.29"/><circle class="cls-10" cx="232.04" cy="319.92" r="3.29"/><circle class="cls-10" cx="205.09" cy="298.95" r="3.29"/><circle class="cls-10" cx="208.08" cy="301.95" r="3.29"/><circle class="cls-10" cx="211.08" cy="304.94" r="3.29"/><circle class="cls-10" cx="214.07" cy="307.94" r="3.29"/><circle class="cls-10" cx="217.07" cy="310.93" r="3.29"/><circle class="cls-10" cx="220.06" cy="313.93" r="3.29"/><circle class="cls-10" cx="223.06" cy="316.92" r="3.29"/><circle class="cls-10" cx="226.05" cy="319.92" r="3.29"/><circle class="cls-10" cx="205.09" cy="304.94" r="3.29"/><circle class="cls-10" cx="208.08" cy="307.94" r="3.29"/><circle class="cls-10" cx="211.08" cy="310.93" r="3.29"/><circle class="cls-10" cx="214.07" cy="313.93" r="3.29"/><circle class="cls-10" cx="217.07" cy="316.92" r="3.29"/><circle class="cls-10" cx="220.06" cy="319.92" r="3.29"/><circle class="cls-10" cx="205.09" cy="310.93" r="3.29"/><circle class="cls-10" cx="208.08" cy="313.93" r="3.29"/><circle class="cls-10" cx="211.08" cy="316.92" r="3.29"/><circle class="cls-10" cx="214.07" cy="319.92" r="3.29"/><circle class="cls-10" cx="205.09" cy="316.92" r="3.29"/><circle class="cls-10" cx="208.08" cy="319.92" r="3.29"/></g><circle class="cls-11" cx="158" cy="328" r="7"/><circle class="cls-11" cx="158" cy="328" r="3"/><line class="cls-12" x1="192" y1="304" x2="192" y2="300"/><line class="cls-12" x1="204" y1="307.22" x2="206" y2="303.75"/><line class="cls-12" x1="212.78" y1="316" x2="216.25" y2="314"/><line class="cls-12" x1="216.25" y1="328" x2="220" y2="328"/><line class="cls-12" x1="213" y1="340.12" x2="216.25" y2="342"/><line class="cls-12" x1="204.12" y1="349" x2="206" y2="352.25"/><line class="cls-12" x1="192" y1="352.25" x2="192" y2="356"/><path class="cls-10" d="M209.17,333.46l2.63-2.63a4,4,0,0,0,0-5.66l-2.63-2.63a4,4,0,0,1-1.17-2.82V316a4,4,0,0,0-4-4h-3.72a4,4,0,0,1-2.82-1.17l-2.63-2.63a4,4,0,0,0-5.66,0l-2.63,2.63a4,4,0,0,1-2.82,1.17H180a4,4,0,0,0-4,4v3.72a4,4,0,0,1-1.17,2.82l-2.63,2.63a4,4,0,0,0,0,5.66l2.63,2.63a4,4,0,0,1,1.17,2.82V340a4,4,0,0,0,4,4h3.72a4,4,0,0,1,2.82,1.17l2.63,2.63a4,4,0,0,0,5.66,0l2.63-2.63a4,4,0,0,1,2.82-1.17H204a4,4,0,0,0,4-4v-3.72A4,4,0,0,1,209.17,333.46Z"/><line class="cls-2" x1="512" y1="176" x2="416" y2="176"/><path class="cls-13" d="M60.86,193.86a20,20,0,1,1,0,28.28"/><circle class="cls-11" cx="96" cy="208" r="7"/><circle class="cls-11" cx="96" cy="208" r="3"/><path class="cls-4" d="M36.76,238.87a20,20,0,1,1,7.11,27.37"/><circle class="cls-8" cx="40" cy="256" r="8"/><circle class="cls-10" cx="56" cy="208" r="8"/><path class="cls-13" d="M417,194a20,20,0,1,1-20-20"/><circle class="cls-11" cx="384" cy="208" r="7"/><circle class="cls-11" cx="384" cy="208" r="3"/><circle class="cls-10" cx="416" cy="176" r="8"/><rect class="cls-14" x="441.7" y="157" width="1" height="38" transform="translate(618.2 -266.2) rotate(90)"/><path class="cls-13" d="M459.94,278.89a20,20,0,1,1,8.95-26.83"/><circle class="cls-11" cx="432" cy="256" r="7"/><circle class="cls-11" cx="432" cy="256" r="3"/><circle class="cls-8" cx="480" cy="272" r="8"/><circle class="cls-11" cx="72" cy="240" r="7"/><circle class="cls-11" cx="72" cy="240" r="3"/><polygon class="cls-15" points="195 318 194 332 190 332 189 318 195 318"/><line class="cls-16" x1="192" y1="338" x2="192" y2="334"/><rect class="cls-17" x="479.5" y="226.5" width="1" height="38"/><rect class="cls-18" x="40" y="199.5" width="1" height="17" transform="translate(-167.5 248.5) rotate(-90)"/><line class="cls-19" x1="256" y1="279" x2="256" y2="249"/><line class="cls-19" x1="256" y1="279" x2="271.48" y2="253.15"/><line class="cls-19" x1="256" y1="279" x2="282.82" y2="264.48"/><line class="cls-19" x1="256" y1="279" x2="286.97" y2="279"/><line class="cls-19" x1="256" y1="279" x2="225.03" y2="279"/><line class="cls-19" x1="256" y1="279" x2="229.18" y2="264.48"/><line class="cls-19" x1="256" y1="279" x2="240.52" y2="253.15"/><path class="cls-15" d="M256,252a28,28,0,0,0-27.92,25.85,2,2,0,0,0,2,2.15h51.84a2,2,0,0,0,2-2.15A28,28,0,0,0,256,252Z"/><path d="M236,280a8,8,0,0,1,16,0"/></g></svg>