<svg xmlns="http://www.w3.org/2000/svg" xmlns:xlink="http://www.w3.org/1999/xlink" viewBox="0 0 512 512"><defs><style>.cls-1,.cls-13,.cls-17,.cls-20,.cls-23,.cls-24,.cls-3,.cls-4,.cls-6,.cls-7,.cls-8,.cls-9{fill:none;}.cls-2{fill:#fe6f66;}.cls-12,.cls-14,.cls-3,.cls-6,.cls-7{stroke:#c1c1ca;}.cls-12,.cls-13,.cls-14,.cls-17,.cls-20,.cls-22,.cls-23,.cls-24,.cls-3,.cls-4,.cls-6,.cls-7,.cls-8,.cls-9{stroke-miterlimit:10;}.cls-12,.cls-14,.cls-22,.cls-23,.cls-24,.cls-3,.cls-6{stroke-width:2px;}.cls-4{stroke:#e6e6ea;}.cls-5{fill:url(#linear-gradient);}.cls-13,.cls-14,.cls-20,.cls-6{stroke-linecap:round;}.cls-7{stroke-width:16px;}.cls-17,.cls-8,.cls-9{stroke:#fff;}.cls-8{stroke-width:12px;}.cls-9{stroke-width:12px;}.cls-10{fill:#32c2cc;}.cls-11{clip-path:url(#clip-path);}.cls-12,.cls-14,.cls-16{fill:#fff;}.cls-13{stroke:#fe6f66;}.cls-13,.cls-20{stroke-width:2px;}.cls-15{fill:url(#linear-gradient-2);}.cls-17{stroke-width:6px;}.cls-18{fill:url(#linear-gradient-3);}.cls-19{fill:url(#linear-gradient-4);}.cls-20,.cls-22,.cls-23{stroke:#000;}.cls-21{fill:#31c1cb;}.cls-24{stroke:#31c1cb;}</style><linearGradient id="linear-gradient" x1="78.5" y1="256.5" x2="78.5" y2="218.5" gradientTransform="translate(-12.5 18.5)" gradientUnits="userSpaceOnUse"><stop offset="0.02" stop-color="#32c2cc"/><stop offset="0.06" stop-color="#3ec4ce"/><stop offset="0.31" stop-color="#86d3da"/><stop offset="0.51" stop-color="#badde3"/><stop offset="0.67" stop-color="#dae4e8"/><stop offset="0.75" stop-color="#e6e6ea"/></linearGradient><clipPath id="clip-path"><rect class="cls-1" x="222.06" y="238.06" width="67.88" height="67.88" rx="2" transform="translate(-117.35 260.69) rotate(-45)"/></clipPath><linearGradient id="linear-gradient-2" x1="423.5" y1="185.3" x2="423.5" y2="147.3" gradientTransform="translate(18.7 9.7)" gradientUnits="userSpaceOnUse"><stop offset="0.02" stop-color="#fe6f66"/><stop offset="0.19" stop-color="#f7908a"/><stop offset="0.45" stop-color="#eebebe"/><stop offset="0.64" stop-color="#e8dbde"/><stop offset="0.75" stop-color="#e6e6ea"/></linearGradient><linearGradient id="linear-gradient-3" x1="480" y1="264.5" x2="480" y2="226.5" gradientTransform="matrix(1, 0, 0, 1, 0, 0)" xlink:href="#linear-gradient"/><linearGradient id="linear-gradient-4" x1="451.5" y1="557.1" x2="451.5" y2="540.1" gradientTransform="translate(-411 -340.6)" xlink:href="#linear-gradient-2"/><symbol id="bad-thing" data-name="bad-thing" viewBox="0 0 10.48 10.48"><path class="cls-2" d="M9.54,6.61,10.19,6a1,1,0,0,0,0-1.41l-.65-.66a1,1,0,0,1-.3-.71V2.24a1,1,0,0,0-1-1H7.31A1,1,0,0,1,6.61,1L6,.29a1,1,0,0,0-1.41,0L3.88,1a1,1,0,0,1-.71.29H2.24a1,1,0,0,0-1,1v.93A1,1,0,0,1,1,3.88l-.66.66A1,1,0,0,0,.29,6L1,6.61a1,1,0,0,1,.29.7v.93a1,1,0,0,0,1,1h.93a1,1,0,0,1,.71.3l.66.65a1,1,0,0,0,1.41,0l.66-.65a1,1,0,0,1,.7-.3h.93a1,1,0,0,0,1-1V7.31A1,1,0,0,1,9.54,6.61Z"/></symbol><symbol id="badthing" data-name="badthing" viewBox="0 0 10.48 10.48"><use width="10.49" height="10.49" xlink:href="#bad-thing"/></symbol></defs><title>automation-illo-vector_01</title><g id="Layer_2" data-name="Layer 2"><use width="10.49" height="10.49" transform="translate(269.51 317.51) scale(2)" xlink:href="#badthing"/><line class="cls-3" x1="200" y1="328" x2="206" y2="328"/><line class="cls-3" x1="210" y1="328" x2="216" y2="328"/><line class="cls-3" x1="248" y1="328" x2="254" y2="328"/><line class="cls-3" x1="258" y1="328" x2="264" y2="328"/><line class="cls-3" x1="296" y1="328" x2="302" y2="328"/><line class="cls-3" x1="306" y1="328" x2="312" y2="328"/><path class="cls-2" d="M336.59,330.73l1.31-1.32a2,2,0,0,0,0-2.82l-1.31-1.32a2,2,0,0,1-.59-1.41V322a2,2,0,0,0-2-2h-1.86a2,2,0,0,1-1.41-.59l-1.32-1.31a2,2,0,0,0-2.82,0l-1.32,1.31a2,2,0,0,1-1.41.59H322a2,2,0,0,0-2,2v1.86a2,2,0,0,1-.59,1.41l-1.31,1.32a2,2,0,0,0,0,2.82l1.31,1.32a2,2,0,0,1,.59,1.41V334a2,2,0,0,0,2,2h1.86a2,2,0,0,1,1.41.59l1.32,1.31a2,2,0,0,0,2.82,0l1.32-1.31a2,2,0,0,1,1.41-.59H334a2,2,0,0,0,2-2v-1.86A2,2,0,0,1,336.59,330.73Z"/><path class="cls-2" d="M240.59,330.73l1.31-1.32a2,2,0,0,0,0-2.82l-1.31-1.32a2,2,0,0,1-.59-1.41V322a2,2,0,0,0-2-2h-1.86a2,2,0,0,1-1.41-.59l-1.32-1.31a2,2,0,0,0-2.82,0l-1.32,1.31a2,2,0,0,1-1.41.59H226a2,2,0,0,0-2,2v1.86a2,2,0,0,1-.59,1.41l-1.31,1.32a2,2,0,0,0,0,2.82l1.31,1.32a2,2,0,0,1,.59,1.41V334a2,2,0,0,0,2,2h1.86a2,2,0,0,1,1.41.59l1.32,1.31a2,2,0,0,0,2.82,0l1.32-1.31a2,2,0,0,1,1.41-.59H238a2,2,0,0,0,2-2v-1.86A2,2,0,0,1,240.59,330.73Z"/></g><g id="Layer_4" data-name="Layer 4"><polyline class="cls-4" points="32 0 32 208 64 208"/><polyline class="cls-4" points="128 0 128 32 288 32 288 192 368 192 368 224 480 224 480 272"/><polyline class="cls-4" points="512 64 160 64 160 256 47 256"/><rect class="cls-5" x="65.5" y="237" width="1" height="38" transform="translate(322 190) rotate(90)"/><polyline class="cls-4" points="512 112 384 112 384 144 208 144 208 264"/><path class="cls-6" d="M127,328a20,20,0,0,1,29.32-22.5"/><path class="cls-6" d="M156.32,350.5A20,20,0,0,1,127,328"/><path class="cls-7" d="M256,272l25.28-25.28C324.51,203.49,217,135,144.71,207.29,134.85,217.15,108.15,240,72,240"/><path class="cls-8" d="M256,272l25.28-25.28C324.51,203.49,217,135,144.71,207.29,134.85,217.15,108.15,240,72,240"/><path class="cls-7" d="M256,272l29-14.5a78.24,78.24,0,0,1,70,0h0a78.32,78.32,0,0,0,59.76,4.25L432,256"/><path class="cls-9" d="M256,272l29-14.5a78.24,78.24,0,0,1,70,0h0a78.32,78.32,0,0,0,59.76,4.25L432,256"/><path class="cls-7" d="M288,272h15.88a38.92,38.92,0,0,0,27.52-11.4L384,208"/><path class="cls-8" d="M288,272h15.88a38.92,38.92,0,0,0,27.52-11.4L384,208"/><path class="cls-7" d="M256,272H100a28,28,0,0,0-28,28h0a28,28,0,0,0,28,28h26"/><path class="cls-8" d="M256,272H100a28,28,0,0,0-28,28h0a28,28,0,0,0,28,28h26"/><path class="cls-7" d="M96,208h32.79A152.62,152.62,0,0,1,236.7,252.7L256,272"/><path class="cls-8" d="M96,208h32.79A152.62,152.62,0,0,1,236.7,252.7L256,272"/><rect class="cls-10" x="222.06" y="238.06" width="67.88" height="67.88" rx="2" transform="translate(-117.35 260.69) rotate(-45)"/><g class="cls-11"><circle class="cls-2" cx="300.92" cy="221.09" r="3.29"/><circle class="cls-2" cx="303.92" cy="224.08" r="3.29"/><circle class="cls-2" cx="294.93" cy="221.09" r="3.29"/><circle class="cls-2" cx="297.93" cy="224.08" r="3.29"/><circle class="cls-2" cx="300.92" cy="227.08" r="3.29"/><circle class="cls-2" cx="303.92" cy="230.07" r="3.29"/><circle class="cls-2" cx="288.94" cy="221.09" r="3.29"/><circle class="cls-2" cx="291.94" cy="224.08" r="3.29"/><circle class="cls-2" cx="294.93" cy="227.08" r="3.29"/><circle class="cls-2" cx="297.93" cy="230.07" r="3.29"/><circle class="cls-2" cx="300.92" cy="233.07" r="3.29"/><circle class="cls-2" cx="303.92" cy="236.06" r="3.29"/><circle class="cls-2" cx="282.95" cy="221.09" r="3.29"/><circle class="cls-2" cx="285.95" cy="224.08" r="3.29"/><circle class="cls-2" cx="288.94" cy="227.08" r="3.29"/><circle class="cls-2" cx="291.94" cy="230.07" r="3.29"/><circle class="cls-2" cx="294.93" cy="233.07" r="3.29"/><circle class="cls-2" cx="297.93" cy="236.06" r="3.29"/><circle class="cls-2" cx="300.92" cy="239.06" r="3.29"/><circle class="cls-2" cx="303.92" cy="242.05" r="3.29"/><circle class="cls-2" cx="276.96" cy="221.09" r="3.29"/><circle class="cls-2" cx="279.96" cy="224.08" r="3.29"/><circle class="cls-2" cx="282.95" cy="227.08" r="3.29"/><circle class="cls-2" cx="285.95" cy="230.07" r="3.29"/><circle class="cls-2" cx="288.94" cy="233.07" r="3.29"/><circle class="cls-2" cx="291.94" cy="236.06" r="3.29"/><circle class="cls-2" cx="294.93" cy="239.06" r="3.29"/><circle class="cls-2" cx="297.93" cy="242.05" r="3.29"/><circle class="cls-2" cx="300.92" cy="245.05" r="3.29"/><circle class="cls-2" cx="303.92" cy="248.04" r="3.29"/><circle class="cls-2" cx="270.97" cy="221.09" r="3.29"/><circle class="cls-2" cx="273.97" cy="224.08" r="3.29"/><circle class="cls-2" cx="276.96" cy="227.08" r="3.29"/><circle class="cls-2" cx="279.96" cy="230.07" r="3.29"/><circle class="cls-2" cx="282.95" cy="233.07" r="3.29"/><circle class="cls-2" cx="285.95" cy="236.06" r="3.29"/><circle class="cls-2" cx="288.94" cy="239.06" r="3.29"/><circle class="cls-2" cx="291.94" cy="242.05" r="3.29"/><circle class="cls-2" cx="294.93" cy="245.05" r="3.29"/><circle class="cls-2" cx="297.93" cy="248.04" r="3.29"/><circle class="cls-2" cx="300.92" cy="251.04" r="3.29"/><circle class="cls-2" cx="303.92" cy="254.03" r="3.29"/><circle class="cls-2" cx="264.98" cy="221.09" r="3.29"/><circle class="cls-2" cx="267.98" cy="224.08" r="3.29"/><circle class="cls-2" cx="270.97" cy="227.08" r="3.29"/><circle class="cls-2" cx="273.97" cy="230.07" r="3.29"/><circle class="cls-2" cx="276.96" cy="233.07" r="3.29"/><circle class="cls-2" cx="279.96" cy="236.06" r="3.29"/><circle class="cls-2" cx="282.95" cy="239.06" r="3.29"/><circle class="cls-2" cx="285.95" cy="242.05" r="3.29"/><circle class="cls-2" cx="288.94" cy="245.05" r="3.29"/><circle class="cls-2" cx="291.94" cy="248.04" r="3.29"/><circle class="cls-2" cx="294.93" cy="251.04" r="3.29"/><circle class="cls-2" cx="297.93" cy="254.03" r="3.29"/><circle class="cls-2" cx="300.92" cy="257.03" r="3.29"/><circle class="cls-2" cx="303.92" cy="260.02" r="3.29"/><circle class="cls-2" cx="264.98" cy="227.08" r="3.29"/><circle class="cls-2" cx="270.97" cy="233.07" r="3.29"/><circle class="cls-2" cx="273.97" cy="236.06" r="3.29"/><circle class="cls-2" cx="276.96" cy="239.06" r="3.29"/><circle class="cls-2" cx="282.95" cy="245.05" r="3.29"/><circle class="cls-2" cx="285.95" cy="248.04" r="3.29"/><circle class="cls-2" cx="291.94" cy="254.03" r="3.29"/><circle class="cls-2" cx="294.93" cy="257.03" r="3.29"/><circle class="cls-2" cx="297.93" cy="260.02" r="3.29"/><circle class="cls-2" cx="303.92" cy="266.01" r="3.29"/><circle class="cls-2" cx="303.92" cy="277.99" r="3.29"/><circle class="cls-2" cx="241.03" cy="221.09" r="3.29"/><circle class="cls-2" cx="244.02" cy="224.08" r="3.29"/><circle class="cls-2" cx="300.92" cy="280.98" r="3.29"/><circle class="cls-2" cx="303.92" cy="283.98" r="3.29"/><circle class="cls-2" cx="235.04" cy="221.09" r="3.29"/><circle class="cls-2" cx="238.03" cy="224.08" r="3.29"/><circle class="cls-2" cx="241.03" cy="227.08" r="3.29"/><circle class="cls-2" cx="297.93" cy="283.98" r="3.29"/><circle class="cls-2" cx="300.92" cy="286.97" r="3.29"/><circle class="cls-2" cx="303.92" cy="289.97" r="3.29"/><circle class="cls-2" cx="229.05" cy="221.09" r="3.29"/><circle class="cls-2" cx="232.04" cy="224.08" r="3.29"/><circle class="cls-2" cx="235.04" cy="227.08" r="3.29"/><circle class="cls-2" cx="238.03" cy="230.07" r="3.29"/><circle class="cls-2" cx="241.03" cy="233.07" r="3.29"/><circle class="cls-2" cx="294.93" cy="286.97" r="3.29"/><circle class="cls-2" cx="297.93" cy="289.97" r="3.29"/><circle class="cls-2" cx="300.92" cy="292.96" r="3.29"/><circle class="cls-2" cx="303.92" cy="295.96" r="3.29"/><circle class="cls-2" cx="223.06" cy="221.09" r="3.29"/><circle class="cls-2" cx="226.05" cy="224.08" r="3.29"/><circle class="cls-2" cx="229.05" cy="227.08" r="3.29"/><circle class="cls-2" cx="232.04" cy="230.07" r="3.29"/><circle class="cls-2" cx="235.04" cy="233.07" r="3.29"/><circle class="cls-2" cx="238.03" cy="236.06" r="3.29"/><circle class="cls-2" cx="291.94" cy="289.97" r="3.29"/><circle class="cls-2" cx="294.93" cy="292.96" r="3.29"/><circle class="cls-2" cx="297.93" cy="295.96" r="3.29"/><circle class="cls-2" cx="300.92" cy="298.95" r="3.29"/><circle class="cls-2" cx="303.92" cy="301.95" r="3.29"/><circle class="cls-2" cx="217.07" cy="221.09" r="3.29"/><circle class="cls-2" cx="220.06" cy="224.08" r="3.29"/><circle class="cls-2" cx="223.06" cy="227.08" r="3.29"/><circle class="cls-2" cx="226.05" cy="230.07" r="3.29"/><circle class="cls-2" cx="229.05" cy="233.07" r="3.29"/><circle class="cls-2" cx="232.04" cy="236.06" r="3.29"/><circle class="cls-2" cx="285.95" cy="289.97" r="0.03"/><circle class="cls-2" cx="288.94" cy="292.96" r="3.29"/><circle class="cls-2" cx="291.94" cy="295.96" r="3.29"/><circle class="cls-2" cx="294.93" cy="298.95" r="3.29"/><circle class="cls-2" cx="297.93" cy="301.95" r="3.29"/><circle class="cls-2" cx="300.92" cy="304.94" r="3.29"/><circle class="cls-2" cx="303.92" cy="307.94" r="3.29"/><circle class="cls-2" cx="211.08" cy="221.09" r="3.29"/><circle class="cls-2" cx="214.07" cy="224.08" r="3.29"/><circle class="cls-2" cx="217.07" cy="227.08" r="3.29"/><circle class="cls-2" cx="220.06" cy="230.07" r="3.29"/><circle class="cls-2" cx="223.06" cy="233.07" r="3.29"/><circle class="cls-2" cx="226.05" cy="236.06" r="3.29"/><circle class="cls-2" cx="229.05" cy="239.06" r="3.29"/><circle class="cls-2" cx="267.98" cy="277.99" r="0.01"/><circle class="cls-2" cx="270.97" cy="280.98" r="0.06"/><circle class="cls-2" cx="276.96" cy="286.97" r="0.04"/><circle class="cls-2" cx="279.96" cy="289.97" r="0.22"/><circle class="cls-2" cx="282.95" cy="292.96" r="0.32"/><circle class="cls-2" cx="285.95" cy="295.96" r="3.29"/><circle class="cls-2" cx="288.94" cy="298.95" r="3.29"/><circle class="cls-2" cx="291.94" cy="301.95" r="3.29"/><circle class="cls-2" cx="294.93" cy="304.94" r="3.29"/><circle class="cls-2" cx="297.93" cy="307.94" r="3.29"/><circle class="cls-2" cx="300.92" cy="310.93" r="3.29"/><circle class="cls-2" cx="303.92" cy="313.93" r="3.29"/><circle class="cls-2" cx="208.08" cy="224.08" r="3.29"/><circle class="cls-2" cx="211.08" cy="227.08" r="3.29"/><circle class="cls-2" cx="214.07" cy="230.07" r="3.29"/><circle class="cls-2" cx="217.07" cy="233.07" r="3.29"/><circle class="cls-2" cx="220.06" cy="236.06" r="3.29"/><circle class="cls-2" cx="223.06" cy="239.06" r="3.29"/><circle class="cls-2" cx="226.05" cy="242.05" r="3.29"/><circle class="cls-2" cx="229.05" cy="245.05" r="3.29"/><circle class="cls-2" cx="256" cy="272" r="0.03"/><circle class="cls-2" cx="258.99" cy="274.99" r="0.03"/><circle class="cls-2" cx="261.99" cy="277.99" r="0.09"/><circle class="cls-2" cx="264.98" cy="280.98" r="0.17"/><circle class="cls-2" cx="267.98" cy="283.98" r="0.17"/><circle class="cls-2" cx="270.97" cy="286.97" r="0.26"/><circle class="cls-2" cx="273.97" cy="289.97" r="0.36"/><circle class="cls-2" cx="276.96" cy="292.96" r="0.48"/><circle class="cls-2" cx="279.96" cy="295.96" r="0.48"/><circle class="cls-2" cx="282.95" cy="298.95" r="3.29"/><circle class="cls-2" cx="285.95" cy="301.95" r="3.29"/><circle class="cls-2" cx="288.94" cy="304.94" r="3.29"/><circle class="cls-2" cx="291.94" cy="307.94" r="3.29"/><circle class="cls-2" cx="294.93" cy="310.93" r="3.29"/><circle class="cls-2" cx="297.93" cy="313.93" r="3.29"/><circle class="cls-2" cx="300.92" cy="316.92" r="3.29"/><circle class="cls-2" cx="303.92" cy="319.92" r="3.29"/><circle class="cls-2" cx="205.09" cy="227.08" r="3.29"/><circle class="cls-2" cx="208.08" cy="230.07" r="3.29"/><circle class="cls-2" cx="211.08" cy="233.07" r="3.29"/><circle class="cls-2" cx="214.07" cy="236.06" r="3.29"/><circle class="cls-2" cx="217.07" cy="239.06" r="3.29"/><circle class="cls-2" cx="220.06" cy="242.05" r="3.29"/><circle class="cls-2" cx="223.06" cy="245.05" r="3.29"/><circle class="cls-2" cx="238.03" cy="260.02" r="0.01"/><circle class="cls-2" cx="241.03" cy="263.02" r="0.06"/><circle class="cls-2" cx="247.02" cy="269.01" r="0.05"/><circle class="cls-2" cx="250.01" cy="272" r="0.23"/><circle class="cls-2" cx="253.01" cy="274.99" r="0.12"/><circle class="cls-2" cx="256" cy="277.99" r="0.19"/><circle class="cls-2" cx="258.99" cy="280.98" r="0.44"/><circle class="cls-2" cx="261.99" cy="283.98" r="0.3"/><circle class="cls-2" cx="264.98" cy="286.97" r="0.4"/><circle class="cls-2" cx="267.98" cy="289.97" r="0.7"/><circle class="cls-2" cx="270.97" cy="292.96" r="0.83"/><circle class="cls-2" cx="273.97" cy="295.96" r="0.65"/><circle class="cls-2" cx="276.96" cy="298.95" r="0.78"/><circle class="cls-2" cx="279.96" cy="301.95" r="3.29"/><circle class="cls-2" cx="282.95" cy="304.94" r="3.29"/><circle class="cls-2" cx="285.95" cy="307.94" r="3.29"/><circle class="cls-2" cx="288.94" cy="310.93" r="3.29"/><circle class="cls-2" cx="291.94" cy="313.93" r="3.29"/><circle class="cls-2" cx="294.93" cy="316.92" r="3.29"/><circle class="cls-2" cx="297.93" cy="319.92" r="3.29"/><circle class="cls-2" cx="205.09" cy="233.07" r="3.29"/><circle class="cls-2" cx="208.08" cy="236.06" r="3.29"/><circle class="cls-2" cx="211.08" cy="239.06" r="3.29"/><circle class="cls-2" cx="214.07" cy="242.05" r="3.29"/><circle class="cls-2" cx="217.07" cy="245.05" r="3.29"/><circle class="cls-2" cx="220.06" cy="248.04" r="3.29"/><circle class="cls-2" cx="229.05" cy="257.03" r="0.04"/><circle class="cls-2" cx="232.04" cy="260.02" r="0.09"/><circle class="cls-2" cx="235.04" cy="263.02" r="0.18"/><circle class="cls-2" cx="238.03" cy="266.01" r="0.18"/><circle class="cls-2" cx="241.03" cy="269.01" r="0.27"/><circle class="cls-2" cx="244.02" cy="272" r="0.37"/><circle class="cls-2" cx="247.02" cy="274.99" r="0.23"/><circle class="cls-2" cx="250.01" cy="277.99" r="0.49"/><circle class="cls-2" cx="253.01" cy="280.98" r="0.61"/><circle class="cls-2" cx="256" cy="283.98" r="0.44"/><circle class="cls-2" cx="258.99" cy="286.97" r="0.74"/><circle class="cls-2" cx="261.99" cy="289.97" r="0.88"/><circle class="cls-2" cx="264.98" cy="292.96" r="1.03"/><circle class="cls-2" cx="267.98" cy="295.96" r="1.03"/><circle class="cls-2" cx="270.97" cy="298.95" r="1.19"/><circle class="cls-2" cx="273.97" cy="301.95" r="1.34"/><circle class="cls-2" cx="276.96" cy="304.94" r="3.29"/><circle class="cls-2" cx="279.96" cy="307.94" r="3.29"/><circle class="cls-2" cx="282.95" cy="310.93" r="3.29"/><circle class="cls-2" cx="285.95" cy="313.93" r="3.29"/><circle class="cls-2" cx="288.94" cy="316.92" r="3.29"/><circle class="cls-2" cx="291.94" cy="319.92" r="3.29"/><circle class="cls-2" cx="205.09" cy="239.06" r="3.29"/><circle class="cls-2" cx="208.08" cy="242.05" r="3.29"/><circle class="cls-2" cx="211.08" cy="245.05" r="3.29"/><circle class="cls-2" cx="214.07" cy="248.04" r="3.29"/><circle class="cls-2" cx="217.07" cy="251.04" r="3.29"/><circle class="cls-2" cx="220.06" cy="254.03" r="3.29"/><circle class="cls-2" cx="223.06" cy="257.03" r="0.13"/><circle class="cls-2" cx="226.05" cy="260.02" r="0.21"/><circle class="cls-2" cx="229.05" cy="263.02" r="0.45"/><circle class="cls-2" cx="232.04" cy="266.01" r="0.31"/><circle class="cls-2" cx="235.04" cy="269.01" r="0.41"/><circle class="cls-2" cx="238.03" cy="272" r="0.71"/><circle class="cls-2" cx="241.03" cy="274.99" r="0.53"/><circle class="cls-2" cx="244.02" cy="277.99" r="0.66"/><circle class="cls-2" cx="247.02" cy="280.98" r="0.79"/><circle class="cls-2" cx="250.01" cy="283.98" r="0.79"/><circle class="cls-2" cx="253.01" cy="286.97" r="0.93"/><circle class="cls-2" cx="256" cy="289.97" r="1.09"/><circle class="cls-2" cx="258.99" cy="292.96" r="1.46"/><circle class="cls-2" cx="261.99" cy="295.96" r="1.24"/><circle class="cls-2" cx="264.98" cy="298.95" r="1.41"/><circle class="cls-2" cx="267.98" cy="301.95" r="1.81"/><circle class="cls-2" cx="270.97" cy="304.94" r="1.58"/><circle class="cls-2" cx="273.97" cy="307.94" r="3.29"/><circle class="cls-2" cx="276.96" cy="310.93" r="3.29"/><circle class="cls-2" cx="279.96" cy="313.93" r="3.29"/><circle class="cls-2" cx="282.95" cy="316.92" r="3.29"/><circle class="cls-2" cx="285.95" cy="319.92" r="3.29"/><circle class="cls-2" cx="205.09" cy="245.05" r="3.29"/><circle class="cls-2" cx="208.08" cy="248.04" r="3.29"/><circle class="cls-2" cx="211.08" cy="251.04" r="3.29"/><circle class="cls-2" cx="214.07" cy="254.03" r="3.29"/><circle class="cls-2" cx="217.07" cy="257.03" r="3.29"/><circle class="cls-2" cx="220.06" cy="260.02" r="0.49"/><circle class="cls-2" cx="223.06" cy="263.02" r="0.62"/><circle class="cls-2" cx="226.05" cy="266.01" r="0.45"/><circle class="cls-2" cx="229.05" cy="269.01" r="0.76"/><circle class="cls-2" cx="232.04" cy="272" r="0.89"/><circle class="cls-2" cx="235.04" cy="274.99" r="0.71"/><circle class="cls-2" cx="238.03" cy="277.99" r="1.05"/><circle class="cls-2" cx="241.03" cy="280.98" r="1.2"/><circle class="cls-2" cx="244.02" cy="283.98" r="0.99"/><circle class="cls-2" cx="247.02" cy="286.97" r="1.14"/><circle class="cls-2" cx="250.01" cy="289.97" r="1.52"/><circle class="cls-2" cx="253.01" cy="292.96" r="1.71"/><circle class="cls-2" cx="256" cy="295.96" r="1.46"/><circle class="cls-2" cx="258.99" cy="298.95" r="1.87"/><circle class="cls-2" cx="261.99" cy="301.95" r="2.07"/><circle class="cls-2" cx="264.98" cy="304.94" r="1.81"/><circle class="cls-2" cx="267.98" cy="307.94" r="2.25"/><circle class="cls-2" cx="270.97" cy="310.93" r="3.29"/><circle class="cls-2" cx="273.97" cy="313.93" r="3.29"/><circle class="cls-2" cx="276.96" cy="316.92" r="3.29"/><circle class="cls-2" cx="279.96" cy="319.92" r="3.29"/><circle class="cls-2" cx="205.09" cy="251.04" r="3.29"/><circle class="cls-2" cx="208.08" cy="254.03" r="3.29"/><circle class="cls-2" cx="211.08" cy="257.03" r="3.29"/><circle class="cls-2" cx="214.07" cy="260.02" r="0.67"/><circle class="cls-2" cx="217.07" cy="263.02" r="1.01"/><circle class="cls-2" cx="220.06" cy="266.01" r="0.8"/><circle class="cls-2" cx="223.06" cy="269.01" r="0.96"/><circle class="cls-2" cx="226.05" cy="272" r="1.1"/><circle class="cls-2" cx="229.05" cy="274.99" r="1.1"/><circle class="cls-2" cx="232.04" cy="277.99" r="1.25"/><circle class="cls-2" cx="235.04" cy="280.98" r="1.42"/><circle class="cls-2" cx="238.03" cy="283.98" r="1.42"/><circle class="cls-2" cx="241.03" cy="286.97" r="1.59"/><circle class="cls-2" cx="244.02" cy="289.97" r="1.77"/><circle class="cls-2" cx="247.02" cy="292.96" r="1.95"/><circle class="cls-2" cx="250.01" cy="295.96" r="1.95"/><circle class="cls-2" cx="253.01" cy="298.95" r="2.13"/><circle class="cls-2" cx="256" cy="301.95" r="2.33"/><circle class="cls-2" cx="258.99" cy="304.94" r="2.33"/><circle class="cls-2" cx="261.99" cy="307.94" r="2.52"/><circle class="cls-2" cx="264.98" cy="310.93" r="2.73"/><circle class="cls-2" cx="267.98" cy="313.93" r="3.29"/><circle class="cls-2" cx="270.97" cy="316.92" r="3.29"/><circle class="cls-2" cx="273.97" cy="319.92" r="3.29"/><circle class="cls-2" cx="205.09" cy="257.03" r="3.29"/><circle class="cls-2" cx="208.08" cy="260.02" r="3.29"/><circle class="cls-2" cx="211.08" cy="263.02" r="1.21"/><circle class="cls-2" cx="214.07" cy="266.01" r="1.01"/><circle class="cls-2" cx="217.07" cy="269.01" r="1.38"/><circle class="cls-2" cx="220.06" cy="272" r="1.55"/><circle class="cls-2" cx="223.06" cy="274.99" r="1.32"/><circle class="cls-2" cx="226.05" cy="277.99" r="1.49"/><circle class="cls-2" cx="229.05" cy="280.98" r="1.9"/><circle class="cls-2" cx="232.04" cy="283.98" r="1.65"/><circle class="cls-2" cx="235.04" cy="286.97" r="1.83"/><circle class="cls-2" cx="238.03" cy="289.97" r="2.27"/><circle class="cls-2" cx="241.03" cy="292.96" r="2.47"/><circle class="cls-2" cx="244.02" cy="295.96" r="2.2"/><circle class="cls-2" cx="247.02" cy="298.95" r="2.39"/><circle class="cls-2" cx="250.01" cy="301.95" r="2.87"/><circle class="cls-2" cx="253.01" cy="304.94" r="2.6"/><circle class="cls-2" cx="256" cy="307.94" r="2.8"/><circle class="cls-2" cx="258.99" cy="310.93" r="3.29"/><circle class="cls-2" cx="261.99" cy="313.93" r="3.29"/><circle class="cls-2" cx="264.98" cy="316.92" r="3.29"/><circle class="cls-2" cx="267.98" cy="319.92" r="3.29"/><circle class="cls-2" cx="205.09" cy="263.02" r="1.21"/><circle class="cls-2" cx="208.08" cy="266.01" r="1.21"/><circle class="cls-2" cx="211.08" cy="269.01" r="1.6"/><circle class="cls-2" cx="214.07" cy="272" r="1.78"/><circle class="cls-2" cx="217.07" cy="274.99" r="1.78"/><circle class="cls-2" cx="220.06" cy="277.99" r="1.96"/><circle class="cls-2" cx="223.06" cy="280.98" r="2.14"/><circle class="cls-2" cx="226.05" cy="283.98" r="1.9"/><circle class="cls-2" cx="229.05" cy="286.97" r="2.34"/><circle class="cls-2" cx="232.04" cy="289.97" r="2.53"/><circle class="cls-2" cx="235.04" cy="292.96" r="2.74"/><circle class="cls-2" cx="238.03" cy="295.96" r="2.74"/><circle class="cls-2" cx="241.03" cy="298.95" r="2.95"/><circle class="cls-2" cx="244.02" cy="301.95" r="3.15"/><circle class="cls-2" cx="247.02" cy="304.94" r="2.87"/><circle class="cls-2" cx="250.01" cy="307.94" r="3.29"/><circle class="cls-2" cx="253.01" cy="310.93" r="3.29"/><circle class="cls-2" cx="256" cy="313.93" r="3.29"/><circle class="cls-2" cx="258.99" cy="316.92" r="3.29"/><circle class="cls-2" cx="261.99" cy="319.92" r="3.29"/><circle class="cls-2" cx="205.09" cy="269.01" r="1.6"/><circle class="cls-2" cx="208.08" cy="272" r="2.03"/><circle class="cls-2" cx="211.08" cy="274.99" r="2.03"/><circle class="cls-2" cx="214.07" cy="277.99" r="2.22"/><circle class="cls-2" cx="217.07" cy="280.98" r="2.69"/><circle class="cls-2" cx="220.06" cy="283.98" r="2.42"/><circle class="cls-2" cx="223.06" cy="286.97" r="2.61"/><circle class="cls-2" cx="226.05" cy="289.97" r="2.82"/><circle class="cls-2" cx="229.05" cy="292.96" r="3.29"/><circle class="cls-2" cx="232.04" cy="295.96" r="3.02"/><circle class="cls-2" cx="235.04" cy="298.95" r="3.23"/><circle class="cls-2" cx="238.03" cy="301.95" r="3.29"/><circle class="cls-2" cx="241.03" cy="304.94" r="3.29"/><circle class="cls-2" cx="244.02" cy="307.94" r="3.29"/><circle class="cls-2" cx="247.02" cy="310.93" r="3.29"/><circle class="cls-2" cx="250.01" cy="313.93" r="3.29"/><circle class="cls-2" cx="253.01" cy="316.92" r="3.29"/><circle class="cls-2" cx="256" cy="319.92" r="3.29"/><circle class="cls-2" cx="205.09" cy="274.99" r="2.03"/><circle class="cls-2" cx="208.08" cy="277.99" r="2.48"/><circle class="cls-2" cx="211.08" cy="280.98" r="3.29"/><circle class="cls-2" cx="214.07" cy="283.98" r="2.69"/><circle class="cls-2" cx="217.07" cy="286.97" r="3.29"/><circle class="cls-2" cx="220.06" cy="289.97" r="3.29"/><circle class="cls-2" cx="223.06" cy="292.96" r="3.29"/><circle class="cls-2" cx="226.05" cy="295.96" r="3.29"/><circle class="cls-2" cx="229.05" cy="298.95" r="3.29"/><circle class="cls-2" cx="232.04" cy="301.95" r="3.29"/><circle class="cls-2" cx="235.04" cy="304.94" r="3.29"/><circle class="cls-2" cx="238.03" cy="307.94" r="3.29"/><circle class="cls-2" cx="241.03" cy="310.93" r="3.29"/><circle class="cls-2" cx="244.02" cy="313.93" r="3.29"/><circle class="cls-2" cx="247.02" cy="316.92" r="3.29"/><circle class="cls-2" cx="250.01" cy="319.92" r="3.29"/><circle class="cls-2" cx="205.09" cy="280.98" r="3.29"/><circle class="cls-2" cx="208.08" cy="283.98" r="3.29"/><circle class="cls-2" cx="211.08" cy="286.97" r="3.29"/><circle class="cls-2" cx="214.07" cy="289.97" r="3.29"/><circle class="cls-2" cx="217.07" cy="292.96" r="3.29"/><circle class="cls-2" cx="220.06" cy="295.96" r="3.29"/><circle class="cls-2" cx="223.06" cy="298.95" r="3.29"/><circle class="cls-2" cx="226.05" cy="301.95" r="3.29"/><circle class="cls-2" cx="229.05" cy="304.94" r="3.29"/><circle class="cls-2" cx="232.04" cy="307.94" r="3.29"/><circle class="cls-2" cx="235.04" cy="310.93" r="3.29"/><circle class="cls-2" cx="238.03" cy="313.93" r="3.29"/><circle class="cls-2" cx="241.03" cy="316.92" r="3.29"/><circle class="cls-2" cx="244.02" cy="319.92" r="3.29"/><circle class="cls-2" cx="205.09" cy="286.97" r="3.29"/><circle class="cls-2" cx="208.08" cy="289.97" r="3.29"/><circle class="cls-2" cx="211.08" cy="292.96" r="3.29"/><circle class="cls-2" cx="214.07" cy="295.96" r="3.29"/><circle class="cls-2" cx="217.07" cy="298.95" r="3.29"/><circle class="cls-2" cx="220.06" cy="301.95" r="3.29"/><circle class="cls-2" cx="223.06" cy="304.94" r="3.29"/><circle class="cls-2" cx="226.05" cy="307.94" r="3.29"/><circle class="cls-2" cx="229.05" cy="310.93" r="3.29"/><circle class="cls-2" cx="232.04" cy="313.93" r="3.29"/><circle class="cls-2" cx="235.04" cy="316.92" r="3.29"/><circle class="cls-2" cx="238.03" cy="319.92" r="3.29"/><circle class="cls-2" cx="205.09" cy="292.96" r="3.29"/><circle class="cls-2" cx="208.08" cy="295.96" r="3.29"/><circle class="cls-2" cx="211.08" cy="298.95" r="3.29"/><circle class="cls-2" cx="214.07" cy="301.95" r="3.29"/><circle class="cls-2" cx="217.07" cy="304.94" r="3.29"/><circle class="cls-2" cx="220.06" cy="307.94" r="3.29"/><circle class="cls-2" cx="223.06" cy="310.93" r="3.29"/><circle class="cls-2" cx="226.05" cy="313.93" r="3.29"/><circle class="cls-2" cx="229.05" cy="316.92" r="3.29"/><circle class="cls-2" cx="232.04" cy="319.92" r="3.29"/><circle class="cls-2" cx="205.09" cy="298.95" r="3.29"/><circle class="cls-2" cx="208.08" cy="301.95" r="3.29"/><circle class="cls-2" cx="211.08" cy="304.94" r="3.29"/><circle class="cls-2" cx="214.07" cy="307.94" r="3.29"/><circle class="cls-2" cx="217.07" cy="310.93" r="3.29"/><circle class="cls-2" cx="220.06" cy="313.93" r="3.29"/><circle class="cls-2" cx="223.06" cy="316.92" r="3.29"/><circle class="cls-2" cx="226.05" cy="319.92" r="3.29"/><circle class="cls-2" cx="205.09" cy="304.94" r="3.29"/><circle class="cls-2" cx="208.08" cy="307.94" r="3.29"/><circle class="cls-2" cx="211.08" cy="310.93" r="3.29"/><circle class="cls-2" cx="214.07" cy="313.93" r="3.29"/><circle class="cls-2" cx="217.07" cy="316.92" r="3.29"/><circle class="cls-2" cx="220.06" cy="319.92" r="3.29"/><circle class="cls-2" cx="205.09" cy="310.93" r="3.29"/><circle class="cls-2" cx="208.08" cy="313.93" r="3.29"/><circle class="cls-2" cx="211.08" cy="316.92" r="3.29"/><circle class="cls-2" cx="214.07" cy="319.92" r="3.29"/><circle class="cls-2" cx="205.09" cy="316.92" r="3.29"/><circle class="cls-2" cx="208.08" cy="319.92" r="3.29"/></g><circle class="cls-12" cx="126" cy="328" r="7"/><circle class="cls-12" cx="126" cy="328" r="3"/><line class="cls-13" x1="160" y1="304" x2="160" y2="300"/><line class="cls-13" x1="172" y1="307.22" x2="174" y2="303.75"/><line class="cls-13" x1="180.78" y1="316" x2="184.25" y2="314"/><line class="cls-13" x1="184.25" y1="328" x2="188" y2="328"/><line class="cls-13" x1="181" y1="340.12" x2="184.25" y2="342"/><line class="cls-13" x1="172.12" y1="349" x2="174" y2="352.25"/><line class="cls-13" x1="160" y1="352.25" x2="160" y2="356"/><path class="cls-2" d="M177.17,333.46l2.63-2.63a4,4,0,0,0,0-5.66l-2.63-2.63a4,4,0,0,1-1.17-2.82V316a4,4,0,0,0-4-4h-3.72a4,4,0,0,1-2.82-1.17l-2.63-2.63a4,4,0,0,0-5.66,0l-2.63,2.63a4,4,0,0,1-2.82,1.17H148a4,4,0,0,0-4,4v3.72a4,4,0,0,1-1.17,2.82l-2.63,2.63a4,4,0,0,0,0,5.66l2.63,2.63a4,4,0,0,1,1.17,2.82V340a4,4,0,0,0,4,4h3.72a4,4,0,0,1,2.82,1.17l2.63,2.63a4,4,0,0,0,5.66,0l2.63-2.63a4,4,0,0,1,2.82-1.17H172a4,4,0,0,0,4-4v-3.72A4,4,0,0,1,177.17,333.46Z"/><line class="cls-4" x1="512" y1="176" x2="416" y2="176"/><path class="cls-14" d="M60.86,193.86a20,20,0,1,1,0,28.28"/><circle class="cls-12" cx="96" cy="208" r="7"/><circle class="cls-12" cx="96" cy="208" r="3"/><path class="cls-6" d="M36.76,238.87a20,20,0,1,1,7.11,27.37"/><circle class="cls-10" cx="40" cy="256" r="8"/><circle class="cls-2" cx="56" cy="208" r="8"/><path class="cls-14" d="M417,194a20,20,0,1,1-20-20"/><circle class="cls-12" cx="384" cy="208" r="7"/><circle class="cls-12" cx="384" cy="208" r="3"/><circle class="cls-2" cx="416" cy="176" r="8"/><rect class="cls-15" x="441.7" y="157" width="1" height="38" transform="translate(618.2 -266.2) rotate(90)"/><path class="cls-14" d="M459.94,278.89a20,20,0,1,1,8.95-26.83"/><circle class="cls-12" cx="432" cy="256" r="7"/><circle class="cls-12" cx="432" cy="256" r="3"/><circle class="cls-10" cx="480" cy="272" r="8"/><circle class="cls-12" cx="72" cy="240" r="7"/><circle class="cls-12" cx="72" cy="240" r="3"/><polygon class="cls-16" points="163 318 162 332 158 332 157 318 163 318"/><line class="cls-17" x1="160" y1="338" x2="160" y2="334"/><rect class="cls-18" x="479.5" y="226.5" width="1" height="38"/><rect class="cls-19" x="40" y="199.5" width="1" height="17" transform="translate(-167.5 248.5) rotate(-90)"/><line class="cls-20" x1="256" y1="279" x2="256" y2="249"/><line class="cls-20" x1="256" y1="279" x2="271.48" y2="253.15"/><line class="cls-20" x1="256" y1="279" x2="282.82" y2="264.48"/><line class="cls-20" x1="256" y1="279" x2="286.97" y2="279"/><line class="cls-20" x1="256" y1="279" x2="225.03" y2="279"/><line class="cls-20" x1="256" y1="279" x2="229.18" y2="264.48"/><line class="cls-20" x1="256" y1="279" x2="240.52" y2="253.15"/><path class="cls-16" d="M256,252a28,28,0,0,0-27.92,25.85,2,2,0,0,0,2,2.15h51.84a2,2,0,0,0,2-2.15A28,28,0,0,0,256,252Z"/><path d="M236,280a8,8,0,0,1,16,0"/><rect class="cls-10" x="352" y="288" width="64" height="64" rx="2"/><path class="cls-16" d="M390.09,288,386,296l-2.21,6.63a9.15,9.15,0,0,0,.93,7.77,3.22,3.22,0,0,1-.25,3.64L380.76,319a3.79,3.79,0,0,0,1.83,5.87L386,326l-1.2,2.39A2.5,2.5,0,0,0,387,332h7v2l-6,4v2l2,2-.39.79a5,5,0,0,0,4.45,7.21h1.71a17.6,17.6,0,0,0,13.5-6.32L414,338V288Z"/><rect class="cls-21" x="384" y="296" width="18" height="2"/><path class="cls-22" d="M391,315a2,2,0,0,1,0-4C392.1,311,392.1,315,391,315Z"/><path class="cls-23" d="M386.05,308.05a7,7,0,0,1,9.9,0"/><path class="cls-23" d="M391,311a6,6,0,0,1,5.66,4"/><path class="cls-24" d="M386.41,322a3,3,0,0,1,2.84,2"/><path class="cls-24" d="M397.54,331.29a3,3,0,0,1,.58,3.42"/><path d="M416,296H385.58a5.58,5.58,0,0,1-5.58-5.58V288h34a2,2,0,0,1,2,2Z"/><path d="M406,296v-2h-6l2,14,6,10,1.66-.17A8,8,0,0,1,416,313.1V296Z"/><circle class="cls-22" cx="386" cy="340" r="3"/><path class="cls-23" d="M384.7,339.75A27.66,27.66,0,0,0,415,330h1"/></g></svg>