<svg xmlns="http://www.w3.org/2000/svg" xmlns:xlink="http://www.w3.org/1999/xlink" viewBox="0 0 512 512"><defs><style>.cls-1,.cls-14,.cls-18,.cls-22,.cls-23,.cls-3,.cls-5,.cls-6,.cls-7,.cls-9{fill:none;}.cls-2{fill:#fe6f66;}.cls-3,.cls-9{stroke:#e6e6ea;}.cls-10,.cls-14,.cls-18,.cls-21,.cls-22,.cls-23,.cls-24,.cls-3,.cls-5,.cls-6,.cls-7,.cls-8,.cls-9{stroke-miterlimit:10;}.cls-4{fill:url(#linear-gradient);}.cls-10,.cls-5,.cls-6,.cls-8{stroke:#c1c1ca;}.cls-10,.cls-18,.cls-5,.cls-9{stroke-linecap:round;}.cls-10,.cls-21,.cls-22,.cls-23,.cls-24,.cls-5,.cls-8{stroke-width:2px;}.cls-6{stroke-width:16px;}.cls-14,.cls-7{stroke:#fff;}.cls-7{stroke-width:12px;}.cls-10,.cls-13,.cls-8{fill:#fff;}.cls-18,.cls-9{stroke-width:2px;}.cls-11{fill:#32c2cc;}.cls-12{fill:url(#linear-gradient-2);}.cls-14{stroke-width:6px;}.cls-15{fill:url(#linear-gradient-3);}.cls-16{fill:url(#linear-gradient-4);}.cls-17{clip-path:url(#clip-path);}.cls-18,.cls-21,.cls-22,.cls-24{stroke:#00084e;}.cls-19,.cls-24{fill:#00084e;}.cls-20{fill:#31c1cb;}.cls-23{stroke:#31c1cb;}</style><linearGradient id="linear-gradient" x1="78.5" y1="256.5" x2="78.5" y2="218.5" gradientTransform="translate(-12.5 18.5)" gradientUnits="userSpaceOnUse"><stop offset="0.02" stop-color="#32c2cc"/><stop offset="0.06" stop-color="#3ec4ce"/><stop offset="0.31" stop-color="#86d3da"/><stop offset="0.51" stop-color="#badde3"/><stop offset="0.67" stop-color="#dae4e8"/><stop offset="0.75" stop-color="#e6e6ea"/></linearGradient><linearGradient id="linear-gradient-2" x1="423.5" y1="185.3" x2="423.5" y2="147.3" gradientTransform="translate(18.7 9.7)" gradientUnits="userSpaceOnUse"><stop offset="0.02" stop-color="#fe6f66"/><stop offset="0.19" stop-color="#f7908a"/><stop offset="0.45" stop-color="#eebebe"/><stop offset="0.64" stop-color="#e8dbde"/><stop offset="0.75" stop-color="#e6e6ea"/></linearGradient><linearGradient id="linear-gradient-3" x1="480" y1="264.5" x2="480" y2="226.5" gradientTransform="matrix(1, 0, 0, 1, 0, 0)" xlink:href="#linear-gradient"/><linearGradient id="linear-gradient-4" x1="451.5" y1="557.1" x2="451.5" y2="540.1" gradientTransform="translate(-411 -340.6)" xlink:href="#linear-gradient-2"/><clipPath id="clip-path"><rect class="cls-1" x="222.06" y="222.06" width="67.88" height="67.88" rx="2" transform="translate(-106.04 256) rotate(-45)"/></clipPath><symbol id="bad-thing" data-name="bad-thing" viewBox="0 0 10.48 10.48"><path class="cls-2" d="M9.54,6.61,10.19,6a1,1,0,0,0,0-1.41l-.65-.66a1,1,0,0,1-.3-.71V2.24a1,1,0,0,0-1-1H7.31A1,1,0,0,1,6.61,1L6,.29a1,1,0,0,0-1.41,0L3.88,1a1,1,0,0,1-.71.29H2.24a1,1,0,0,0-1,1v.93A1,1,0,0,1,1,3.88l-.66.66A1,1,0,0,0,.29,6L1,6.61a1,1,0,0,1,.29.7v.93a1,1,0,0,0,1,1h.93a1,1,0,0,1,.71.3l.66.65a1,1,0,0,0,1.41,0l.66-.65a1,1,0,0,1,.7-.3h.93a1,1,0,0,0,1-1V7.31A1,1,0,0,1,9.54,6.61Z"/></symbol><symbol id="badthing" data-name="badthing" viewBox="0 0 10.48 10.48"><use width="10.49" height="10.49" xlink:href="#bad-thing"/></symbol></defs><title>automation-illo-vector_01</title><g id="Layer_4" data-name="Layer 4"><polyline class="cls-3" points="32 0 32 208 64 208"/><polyline class="cls-3" points="128 0 128 32 288 32 288 192 368 192 368 224 480 224 480 272"/><polyline class="cls-3" points="512 64 160 64 160 256 47 256"/><rect class="cls-4" x="65.5" y="237" width="1" height="38" transform="translate(322 190) rotate(90)"/><polyline class="cls-3" points="512 112 384 112 384 144 208 144 208 264"/><path class="cls-5" d="M127,328a20,20,0,0,1,29.32-22.5"/><path class="cls-5" d="M156.32,350.5A20,20,0,0,1,127,328"/><path class="cls-6" d="M256,272l25.28-25.28C324.51,203.49,217,135,144.71,207.29,134.85,217.15,108.15,240,72,240"/><path class="cls-7" d="M256,272l25.28-25.28C324.51,203.49,217,135,144.71,207.29,134.85,217.15,108.15,240,72,240"/><path class="cls-6" d="M256,272l29-14.5a78.24,78.24,0,0,1,70,0h0a78.32,78.32,0,0,0,59.76,4.25L432,256"/><path class="cls-7" d="M256,272l29-14.5a78.24,78.24,0,0,1,70,0h0a78.32,78.32,0,0,0,59.76,4.25L432,256"/><path class="cls-6" d="M278,272h25.88a38.92,38.92,0,0,0,27.52-11.4L384,208"/><path class="cls-7" d="M278,272h25.88a38.92,38.92,0,0,0,27.52-11.4L384,208"/><path class="cls-6" d="M256,272H100a28,28,0,0,0-28,28h0a28,28,0,0,0,28,28h26"/><path class="cls-7" d="M256,272H100a28,28,0,0,0-28,28h0a28,28,0,0,0,28,28h26"/><path class="cls-6" d="M96,208h32.79A152.62,152.62,0,0,1,236.7,252.7L256,272"/><path class="cls-7" d="M96,208h32.79A152.62,152.62,0,0,1,236.7,252.7L256,272"/><circle class="cls-8" cx="126" cy="328" r="7"/><circle class="cls-8" cx="126" cy="328" r="3"/><line class="cls-9" x1="160" y1="304" x2="160" y2="300"/><line class="cls-9" x1="172" y1="307.22" x2="174" y2="303.75"/><line class="cls-9" x1="180.78" y1="316" x2="184.25" y2="314"/><line class="cls-9" x1="184.25" y1="328" x2="188" y2="328"/><line class="cls-9" x1="181" y1="340.12" x2="184.25" y2="342"/><line class="cls-9" x1="172.12" y1="349" x2="174" y2="352.25"/><line class="cls-9" x1="160" y1="352.25" x2="160" y2="356"/><path class="cls-2" d="M176.59,334l4.62-4.63a2,2,0,0,0,0-2.82L176.59,322a2,2,0,0,1-.59-1.42V314a2,2,0,0,0-2-2h-6.54a2,2,0,0,1-1.42-.59l-4.63-4.62a2,2,0,0,0-2.82,0L154,311.41a2,2,0,0,1-1.42.59H146a2,2,0,0,0-2,2v6.54a2,2,0,0,1-.59,1.42l-4.62,4.63a2,2,0,0,0,0,2.82l4.62,4.63a2,2,0,0,1,.59,1.42V342a2,2,0,0,0,2,2h6.54a2,2,0,0,1,1.42.59l4.63,4.62a2,2,0,0,0,2.82,0l4.63-4.62a2,2,0,0,1,1.42-.59H174a2,2,0,0,0,2-2v-6.54A2,2,0,0,1,176.59,334Z"/><line class="cls-3" x1="512" y1="176" x2="416" y2="176"/><path class="cls-10" d="M60.86,193.86a20,20,0,1,1,0,28.28"/><circle class="cls-8" cx="96" cy="208" r="7"/><circle class="cls-8" cx="96" cy="208" r="3"/><path class="cls-5" d="M36.76,238.87a20,20,0,1,1,7.11,27.37"/><circle class="cls-11" cx="40" cy="256" r="8"/><circle class="cls-2" cx="56" cy="208" r="8"/><path class="cls-10" d="M417,194a20,20,0,1,1-20-20"/><circle class="cls-8" cx="384" cy="208" r="7"/><circle class="cls-8" cx="384" cy="208" r="3"/><circle class="cls-2" cx="416" cy="176" r="8"/><rect class="cls-12" x="441.7" y="157" width="1" height="38" transform="translate(618.2 -266.2) rotate(90)"/><path class="cls-10" d="M459.94,278.89a20,20,0,1,1,8.95-26.83"/><circle class="cls-8" cx="432" cy="256" r="7"/><circle class="cls-8" cx="432" cy="256" r="3"/><circle class="cls-11" cx="480" cy="272" r="8"/><circle class="cls-8" cx="72" cy="240" r="7"/><circle class="cls-8" cx="72" cy="240" r="3"/><polygon class="cls-13" points="163 318 162 332 158 332 157 318 163 318"/><line class="cls-14" x1="160" y1="338" x2="160" y2="334"/><rect class="cls-15" x="479.5" y="226.5" width="1" height="38"/><rect class="cls-16" x="40" y="199.5" width="1" height="17" transform="translate(-167.5 248.5) rotate(-90)"/><rect class="cls-11" x="222.06" y="222.06" width="67.88" height="67.88" rx="2" transform="translate(-106.04 256) rotate(-45)"/><g class="cls-17"><circle class="cls-2" cx="300.92" cy="205.09" r="3.29"/><circle class="cls-2" cx="303.92" cy="208.08" r="3.29"/><circle class="cls-2" cx="294.93" cy="205.09" r="3.29"/><circle class="cls-2" cx="297.93" cy="208.08" r="3.29"/><circle class="cls-2" cx="300.92" cy="211.08" r="3.29"/><circle class="cls-2" cx="303.92" cy="214.07" r="3.29"/><circle class="cls-2" cx="288.94" cy="205.09" r="3.29"/><circle class="cls-2" cx="291.94" cy="208.08" r="3.29"/><circle class="cls-2" cx="294.93" cy="211.08" r="3.29"/><circle class="cls-2" cx="297.93" cy="214.07" r="3.29"/><circle class="cls-2" cx="300.92" cy="217.07" r="3.29"/><circle class="cls-2" cx="303.92" cy="220.06" r="3.29"/><circle class="cls-2" cx="282.95" cy="205.09" r="3.29"/><circle class="cls-2" cx="285.95" cy="208.08" r="3.29"/><circle class="cls-2" cx="288.94" cy="211.08" r="3.29"/><circle class="cls-2" cx="291.94" cy="214.07" r="3.29"/><circle class="cls-2" cx="294.93" cy="217.07" r="3.29"/><circle class="cls-2" cx="297.93" cy="220.06" r="3.29"/><circle class="cls-2" cx="300.92" cy="223.06" r="3.29"/><circle class="cls-2" cx="303.92" cy="226.05" r="3.29"/><circle class="cls-2" cx="276.96" cy="205.09" r="3.29"/><circle class="cls-2" cx="279.96" cy="208.08" r="3.29"/><circle class="cls-2" cx="282.95" cy="211.08" r="3.29"/><circle class="cls-2" cx="285.95" cy="214.07" r="3.29"/><circle class="cls-2" cx="288.94" cy="217.07" r="3.29"/><circle class="cls-2" cx="291.94" cy="220.06" r="3.29"/><circle class="cls-2" cx="294.93" cy="223.06" r="3.29"/><circle class="cls-2" cx="297.93" cy="226.05" r="3.29"/><circle class="cls-2" cx="300.92" cy="229.05" r="3.29"/><circle class="cls-2" cx="303.92" cy="232.04" r="3.29"/><circle class="cls-2" cx="270.97" cy="205.09" r="3.29"/><circle class="cls-2" cx="273.97" cy="208.08" r="3.29"/><circle class="cls-2" cx="276.96" cy="211.08" r="3.29"/><circle class="cls-2" cx="279.96" cy="214.07" r="3.29"/><circle class="cls-2" cx="282.95" cy="217.07" r="3.29"/><circle class="cls-2" cx="285.95" cy="220.06" r="3.29"/><circle class="cls-2" cx="288.94" cy="223.06" r="3.29"/><circle class="cls-2" cx="291.94" cy="226.05" r="3.29"/><circle class="cls-2" cx="294.93" cy="229.05" r="3.29"/><circle class="cls-2" cx="297.93" cy="232.04" r="3.29"/><circle class="cls-2" cx="300.92" cy="235.04" r="3.29"/><circle class="cls-2" cx="303.92" cy="238.03" r="3.29"/><circle class="cls-2" cx="264.98" cy="205.09" r="3.29"/><circle class="cls-2" cx="267.98" cy="208.08" r="3.29"/><circle class="cls-2" cx="270.97" cy="211.08" r="3.29"/><circle class="cls-2" cx="273.97" cy="214.07" r="3.29"/><circle class="cls-2" cx="276.96" cy="217.07" r="3.29"/><circle class="cls-2" cx="279.96" cy="220.06" r="3.29"/><circle class="cls-2" cx="282.95" cy="223.06" r="3.29"/><circle class="cls-2" cx="285.95" cy="226.05" r="3.29"/><circle class="cls-2" cx="288.94" cy="229.05" r="3.29"/><circle class="cls-2" cx="291.94" cy="232.04" r="3.29"/><circle class="cls-2" cx="294.93" cy="235.04" r="3.29"/><circle class="cls-2" cx="297.93" cy="238.03" r="3.29"/><circle class="cls-2" cx="300.92" cy="241.03" r="3.29"/><circle class="cls-2" cx="303.92" cy="244.02" r="3.29"/><circle class="cls-2" cx="264.98" cy="211.08" r="3.29"/><circle class="cls-2" cx="270.97" cy="217.07" r="3.29"/><circle class="cls-2" cx="273.97" cy="220.06" r="3.29"/><circle class="cls-2" cx="276.96" cy="223.06" r="3.29"/><circle class="cls-2" cx="282.95" cy="229.05" r="3.29"/><circle class="cls-2" cx="285.95" cy="232.04" r="3.29"/><circle class="cls-2" cx="291.94" cy="238.03" r="3.29"/><circle class="cls-2" cx="294.93" cy="241.03" r="3.29"/><circle class="cls-2" cx="297.93" cy="244.02" r="3.29"/><circle class="cls-2" cx="303.92" cy="250.01" r="3.29"/><circle class="cls-2" cx="303.92" cy="261.99" r="3.29"/><circle class="cls-2" cx="241.03" cy="205.09" r="3.29"/><circle class="cls-2" cx="244.02" cy="208.08" r="3.29"/><circle class="cls-2" cx="300.92" cy="264.98" r="3.29"/><circle class="cls-2" cx="303.92" cy="267.98" r="3.29"/><circle class="cls-2" cx="235.04" cy="205.09" r="3.29"/><circle class="cls-2" cx="238.03" cy="208.08" r="3.29"/><circle class="cls-2" cx="241.03" cy="211.08" r="3.29"/><circle class="cls-2" cx="297.93" cy="267.98" r="3.29"/><circle class="cls-2" cx="300.92" cy="270.97" r="3.29"/><circle class="cls-2" cx="303.92" cy="273.97" r="3.29"/><circle class="cls-2" cx="229.05" cy="205.09" r="3.29"/><circle class="cls-2" cx="232.04" cy="208.08" r="3.29"/><circle class="cls-2" cx="235.04" cy="211.08" r="3.29"/><circle class="cls-2" cx="238.03" cy="214.07" r="3.29"/><circle class="cls-2" cx="241.03" cy="217.07" r="3.29"/><circle class="cls-2" cx="294.93" cy="270.97" r="3.29"/><circle class="cls-2" cx="297.93" cy="273.97" r="3.29"/><circle class="cls-2" cx="300.92" cy="276.96" r="3.29"/><circle class="cls-2" cx="303.92" cy="279.96" r="3.29"/><circle class="cls-2" cx="223.06" cy="205.09" r="3.29"/><circle class="cls-2" cx="226.05" cy="208.08" r="3.29"/><circle class="cls-2" cx="229.05" cy="211.08" r="3.29"/><circle class="cls-2" cx="232.04" cy="214.07" r="3.29"/><circle class="cls-2" cx="235.04" cy="217.07" r="3.29"/><circle class="cls-2" cx="238.03" cy="220.06" r="3.29"/><circle class="cls-2" cx="291.94" cy="273.97" r="3.29"/><circle class="cls-2" cx="294.93" cy="276.96" r="3.29"/><circle class="cls-2" cx="297.93" cy="279.96" r="3.29"/><circle class="cls-2" cx="300.92" cy="282.95" r="3.29"/><circle class="cls-2" cx="303.92" cy="285.95" r="3.29"/><circle class="cls-2" cx="217.07" cy="205.09" r="3.29"/><circle class="cls-2" cx="220.06" cy="208.08" r="3.29"/><circle class="cls-2" cx="223.06" cy="211.08" r="3.29"/><circle class="cls-2" cx="226.05" cy="214.07" r="3.29"/><circle class="cls-2" cx="229.05" cy="217.07" r="3.29"/><circle class="cls-2" cx="232.04" cy="220.06" r="3.29"/><circle class="cls-2" cx="285.95" cy="273.97" r="0.03"/><circle class="cls-2" cx="288.94" cy="276.96" r="3.29"/><circle class="cls-2" cx="291.94" cy="279.96" r="3.29"/><circle class="cls-2" cx="294.93" cy="282.95" r="3.29"/><circle class="cls-2" cx="297.93" cy="285.95" r="3.29"/><circle class="cls-2" cx="300.92" cy="288.94" r="3.29"/><circle class="cls-2" cx="303.92" cy="291.94" r="3.29"/><circle class="cls-2" cx="211.08" cy="205.09" r="3.29"/><circle class="cls-2" cx="214.07" cy="208.08" r="3.29"/><circle class="cls-2" cx="217.07" cy="211.08" r="3.29"/><circle class="cls-2" cx="220.06" cy="214.07" r="3.29"/><circle class="cls-2" cx="223.06" cy="217.07" r="3.29"/><circle class="cls-2" cx="226.05" cy="220.06" r="3.29"/><circle class="cls-2" cx="229.05" cy="223.06" r="3.29"/><circle class="cls-2" cx="267.98" cy="261.99" r="0.01"/><circle class="cls-2" cx="270.97" cy="264.98" r="0.06"/><circle class="cls-2" cx="276.96" cy="270.97" r="0.04"/><circle class="cls-2" cx="279.96" cy="273.97" r="0.22"/><circle class="cls-2" cx="282.95" cy="276.96" r="0.32"/><circle class="cls-2" cx="285.95" cy="279.96" r="3.29"/><circle class="cls-2" cx="288.94" cy="282.95" r="3.29"/><circle class="cls-2" cx="291.94" cy="285.95" r="3.29"/><circle class="cls-2" cx="294.93" cy="288.94" r="3.29"/><circle class="cls-2" cx="297.93" cy="291.94" r="3.29"/><circle class="cls-2" cx="300.92" cy="294.93" r="3.29"/><circle class="cls-2" cx="303.92" cy="297.93" r="3.29"/><circle class="cls-2" cx="208.08" cy="208.08" r="3.29"/><circle class="cls-2" cx="211.08" cy="211.08" r="3.29"/><circle class="cls-2" cx="214.07" cy="214.07" r="3.29"/><circle class="cls-2" cx="217.07" cy="217.07" r="3.29"/><circle class="cls-2" cx="220.06" cy="220.06" r="3.29"/><circle class="cls-2" cx="223.06" cy="223.06" r="3.29"/><circle class="cls-2" cx="226.05" cy="226.05" r="3.29"/><circle class="cls-2" cx="229.05" cy="229.05" r="3.29"/><circle class="cls-2" cx="256" cy="256" r="0.03"/><circle class="cls-2" cx="258.99" cy="258.99" r="0.03"/><circle class="cls-2" cx="261.99" cy="261.99" r="0.09"/><circle class="cls-2" cx="264.98" cy="264.98" r="0.17"/><circle class="cls-2" cx="267.98" cy="267.98" r="0.17"/><circle class="cls-2" cx="270.97" cy="270.97" r="0.26"/><circle class="cls-2" cx="273.97" cy="273.97" r="0.36"/><circle class="cls-2" cx="276.96" cy="276.96" r="0.48"/><circle class="cls-2" cx="279.96" cy="279.96" r="0.48"/><circle class="cls-2" cx="282.95" cy="282.95" r="3.29"/><circle class="cls-2" cx="285.95" cy="285.95" r="3.29"/><circle class="cls-2" cx="288.94" cy="288.94" r="3.29"/><circle class="cls-2" cx="291.94" cy="291.94" r="3.29"/><circle class="cls-2" cx="294.93" cy="294.93" r="3.29"/><circle class="cls-2" cx="297.93" cy="297.93" r="3.29"/><circle class="cls-2" cx="300.92" cy="300.92" r="3.29"/><circle class="cls-2" cx="303.92" cy="303.92" r="3.29"/><circle class="cls-2" cx="205.09" cy="211.08" r="3.29"/><circle class="cls-2" cx="208.08" cy="214.07" r="3.29"/><circle class="cls-2" cx="211.08" cy="217.07" r="3.29"/><circle class="cls-2" cx="214.07" cy="220.06" r="3.29"/><circle class="cls-2" cx="217.07" cy="223.06" r="3.29"/><circle class="cls-2" cx="220.06" cy="226.05" r="3.29"/><circle class="cls-2" cx="223.06" cy="229.05" r="3.29"/><circle class="cls-2" cx="238.03" cy="244.02" r="0.01"/><circle class="cls-2" cx="241.03" cy="247.02" r="0.06"/><circle class="cls-2" cx="247.02" cy="253.01" r="0.05"/><circle class="cls-2" cx="250.01" cy="256" r="0.23"/><circle class="cls-2" cx="253.01" cy="258.99" r="0.12"/><circle class="cls-2" cx="256" cy="261.99" r="0.19"/><circle class="cls-2" cx="258.99" cy="264.98" r="0.44"/><circle class="cls-2" cx="261.99" cy="267.98" r="0.3"/><circle class="cls-2" cx="264.98" cy="270.97" r="0.4"/><circle class="cls-2" cx="267.98" cy="273.97" r="0.7"/><circle class="cls-2" cx="270.97" cy="276.96" r="0.83"/><circle class="cls-2" cx="273.97" cy="279.96" r="0.65"/><circle class="cls-2" cx="276.96" cy="282.95" r="0.78"/><circle class="cls-2" cx="279.96" cy="285.95" r="3.29"/><circle class="cls-2" cx="282.95" cy="288.94" r="3.29"/><circle class="cls-2" cx="285.95" cy="291.94" r="3.29"/><circle class="cls-2" cx="288.94" cy="294.93" r="3.29"/><circle class="cls-2" cx="291.94" cy="297.93" r="3.29"/><circle class="cls-2" cx="294.93" cy="300.92" r="3.29"/><circle class="cls-2" cx="297.93" cy="303.92" r="3.29"/><circle class="cls-2" cx="205.09" cy="217.07" r="3.29"/><circle class="cls-2" cx="208.08" cy="220.06" r="3.29"/><circle class="cls-2" cx="211.08" cy="223.06" r="3.29"/><circle class="cls-2" cx="214.07" cy="226.05" r="3.29"/><circle class="cls-2" cx="217.07" cy="229.05" r="3.29"/><circle class="cls-2" cx="220.06" cy="232.04" r="3.29"/><circle class="cls-2" cx="229.05" cy="241.03" r="0.04"/><circle class="cls-2" cx="232.04" cy="244.02" r="0.09"/><circle class="cls-2" cx="235.04" cy="247.02" r="0.18"/><circle class="cls-2" cx="238.03" cy="250.01" r="0.18"/><circle class="cls-2" cx="241.03" cy="253.01" r="0.27"/><circle class="cls-2" cx="244.02" cy="256" r="0.37"/><circle class="cls-2" cx="247.02" cy="258.99" r="0.23"/><circle class="cls-2" cx="250.01" cy="261.99" r="0.49"/><circle class="cls-2" cx="253.01" cy="264.98" r="0.61"/><circle class="cls-2" cx="256" cy="267.98" r="0.44"/><circle class="cls-2" cx="258.99" cy="270.97" r="0.74"/><circle class="cls-2" cx="261.99" cy="273.97" r="0.88"/><circle class="cls-2" cx="264.98" cy="276.96" r="1.03"/><circle class="cls-2" cx="267.98" cy="279.96" r="1.03"/><circle class="cls-2" cx="270.97" cy="282.95" r="1.19"/><circle class="cls-2" cx="273.97" cy="285.95" r="1.34"/><circle class="cls-2" cx="276.96" cy="288.94" r="3.29"/><circle class="cls-2" cx="279.96" cy="291.94" r="3.29"/><circle class="cls-2" cx="282.95" cy="294.93" r="3.29"/><circle class="cls-2" cx="285.95" cy="297.93" r="3.29"/><circle class="cls-2" cx="288.94" cy="300.92" r="3.29"/><circle class="cls-2" cx="291.94" cy="303.92" r="3.29"/><circle class="cls-2" cx="205.09" cy="223.06" r="3.29"/><circle class="cls-2" cx="208.08" cy="226.05" r="3.29"/><circle class="cls-2" cx="211.08" cy="229.05" r="3.29"/><circle class="cls-2" cx="214.07" cy="232.04" r="3.29"/><circle class="cls-2" cx="217.07" cy="235.04" r="3.29"/><circle class="cls-2" cx="220.06" cy="238.03" r="3.29"/><circle class="cls-2" cx="223.06" cy="241.03" r="0.13"/><circle class="cls-2" cx="226.05" cy="244.02" r="0.21"/><circle class="cls-2" cx="229.05" cy="247.02" r="0.45"/><circle class="cls-2" cx="232.04" cy="250.01" r="0.31"/><circle class="cls-2" cx="235.04" cy="253.01" r="0.41"/><circle class="cls-2" cx="238.03" cy="256" r="0.71"/><circle class="cls-2" cx="241.03" cy="258.99" r="0.53"/><circle class="cls-2" cx="244.02" cy="261.99" r="0.66"/><circle class="cls-2" cx="247.02" cy="264.98" r="0.79"/><circle class="cls-2" cx="250.01" cy="267.98" r="0.79"/><circle class="cls-2" cx="253.01" cy="270.97" r="0.93"/><circle class="cls-2" cx="256" cy="273.97" r="1.09"/><circle class="cls-2" cx="258.99" cy="276.96" r="1.46"/><circle class="cls-2" cx="261.99" cy="279.96" r="1.24"/><circle class="cls-2" cx="264.98" cy="282.95" r="1.41"/><circle class="cls-2" cx="267.98" cy="285.95" r="1.81"/><circle class="cls-2" cx="270.97" cy="288.94" r="1.58"/><circle class="cls-2" cx="273.97" cy="291.94" r="3.29"/><circle class="cls-2" cx="276.96" cy="294.93" r="3.29"/><circle class="cls-2" cx="279.96" cy="297.93" r="3.29"/><circle class="cls-2" cx="282.95" cy="300.92" r="3.29"/><circle class="cls-2" cx="285.95" cy="303.92" r="3.29"/><circle class="cls-2" cx="205.09" cy="229.05" r="3.29"/><circle class="cls-2" cx="208.08" cy="232.04" r="3.29"/><circle class="cls-2" cx="211.08" cy="235.04" r="3.29"/><circle class="cls-2" cx="214.07" cy="238.03" r="3.29"/><circle class="cls-2" cx="217.07" cy="241.03" r="3.29"/><circle class="cls-2" cx="220.06" cy="244.02" r="0.49"/><circle class="cls-2" cx="223.06" cy="247.02" r="0.62"/><circle class="cls-2" cx="226.05" cy="250.01" r="0.45"/><circle class="cls-2" cx="229.05" cy="253.01" r="0.76"/><circle class="cls-2" cx="232.04" cy="256" r="0.89"/><circle class="cls-2" cx="235.04" cy="258.99" r="0.71"/><circle class="cls-2" cx="238.03" cy="261.99" r="1.05"/><circle class="cls-2" cx="241.03" cy="264.98" r="1.2"/><circle class="cls-2" cx="244.02" cy="267.98" r="0.99"/><circle class="cls-2" cx="247.02" cy="270.97" r="1.14"/><circle class="cls-2" cx="250.01" cy="273.97" r="1.52"/><circle class="cls-2" cx="253.01" cy="276.96" r="1.71"/><circle class="cls-2" cx="256" cy="279.96" r="1.46"/><circle class="cls-2" cx="258.99" cy="282.95" r="1.87"/><circle class="cls-2" cx="261.99" cy="285.95" r="2.07"/><circle class="cls-2" cx="264.98" cy="288.94" r="1.81"/><circle class="cls-2" cx="267.98" cy="291.94" r="2.25"/><circle class="cls-2" cx="270.97" cy="294.93" r="3.29"/><circle class="cls-2" cx="273.97" cy="297.93" r="3.29"/><circle class="cls-2" cx="276.96" cy="300.92" r="3.29"/><circle class="cls-2" cx="279.96" cy="303.92" r="3.29"/><circle class="cls-2" cx="205.09" cy="235.04" r="3.29"/><circle class="cls-2" cx="208.08" cy="238.03" r="3.29"/><circle class="cls-2" cx="211.08" cy="241.03" r="3.29"/><circle class="cls-2" cx="214.07" cy="244.02" r="0.67"/><circle class="cls-2" cx="217.07" cy="247.02" r="1.01"/><circle class="cls-2" cx="220.06" cy="250.01" r="0.8"/><circle class="cls-2" cx="223.06" cy="253.01" r="0.96"/><circle class="cls-2" cx="226.05" cy="256" r="1.1"/><circle class="cls-2" cx="229.05" cy="258.99" r="1.1"/><circle class="cls-2" cx="232.04" cy="261.99" r="1.25"/><circle class="cls-2" cx="235.04" cy="264.98" r="1.42"/><circle class="cls-2" cx="238.03" cy="267.98" r="1.42"/><circle class="cls-2" cx="241.03" cy="270.97" r="1.59"/><circle class="cls-2" cx="244.02" cy="273.97" r="1.77"/><circle class="cls-2" cx="247.02" cy="276.96" r="1.95"/><circle class="cls-2" cx="250.01" cy="279.96" r="1.95"/><circle class="cls-2" cx="253.01" cy="282.95" r="2.13"/><circle class="cls-2" cx="256" cy="285.95" r="2.33"/><circle class="cls-2" cx="258.99" cy="288.94" r="2.33"/><circle class="cls-2" cx="261.99" cy="291.94" r="2.52"/><circle class="cls-2" cx="264.98" cy="294.93" r="2.73"/><circle class="cls-2" cx="267.98" cy="297.93" r="3.29"/><circle class="cls-2" cx="270.97" cy="300.92" r="3.29"/><circle class="cls-2" cx="273.97" cy="303.92" r="3.29"/><circle class="cls-2" cx="205.09" cy="241.03" r="3.29"/><circle class="cls-2" cx="208.08" cy="244.02" r="3.29"/><circle class="cls-2" cx="211.08" cy="247.02" r="1.21"/><circle class="cls-2" cx="214.07" cy="250.01" r="1.01"/><circle class="cls-2" cx="217.07" cy="253.01" r="1.38"/><circle class="cls-2" cx="220.06" cy="256" r="1.55"/><circle class="cls-2" cx="223.06" cy="258.99" r="1.32"/><circle class="cls-2" cx="226.05" cy="261.99" r="1.49"/><circle class="cls-2" cx="229.05" cy="264.98" r="1.9"/><circle class="cls-2" cx="232.04" cy="267.98" r="1.65"/><circle class="cls-2" cx="235.04" cy="270.97" r="1.83"/><circle class="cls-2" cx="238.03" cy="273.97" r="2.27"/><circle class="cls-2" cx="241.03" cy="276.96" r="2.47"/><circle class="cls-2" cx="244.02" cy="279.96" r="2.2"/><circle class="cls-2" cx="247.02" cy="282.95" r="2.39"/><circle class="cls-2" cx="250.01" cy="285.95" r="2.87"/><circle class="cls-2" cx="253.01" cy="288.94" r="2.6"/><circle class="cls-2" cx="256" cy="291.94" r="2.8"/><circle class="cls-2" cx="258.99" cy="294.93" r="3.29"/><circle class="cls-2" cx="261.99" cy="297.93" r="3.29"/><circle class="cls-2" cx="264.98" cy="300.92" r="3.29"/><circle class="cls-2" cx="267.98" cy="303.92" r="3.29"/><circle class="cls-2" cx="205.09" cy="247.02" r="1.21"/><circle class="cls-2" cx="208.08" cy="250.01" r="1.21"/><circle class="cls-2" cx="211.08" cy="253.01" r="1.6"/><circle class="cls-2" cx="214.07" cy="256" r="1.78"/><circle class="cls-2" cx="217.07" cy="258.99" r="1.78"/><circle class="cls-2" cx="220.06" cy="261.99" r="1.96"/><circle class="cls-2" cx="223.06" cy="264.98" r="2.14"/><circle class="cls-2" cx="226.05" cy="267.98" r="1.9"/><circle class="cls-2" cx="229.05" cy="270.97" r="2.34"/><circle class="cls-2" cx="232.04" cy="273.97" r="2.53"/><circle class="cls-2" cx="235.04" cy="276.96" r="2.74"/><circle class="cls-2" cx="238.03" cy="279.96" r="2.74"/><circle class="cls-2" cx="241.03" cy="282.95" r="2.95"/><circle class="cls-2" cx="244.02" cy="285.95" r="3.15"/><circle class="cls-2" cx="247.02" cy="288.94" r="2.87"/><circle class="cls-2" cx="250.01" cy="291.94" r="3.29"/><circle class="cls-2" cx="253.01" cy="294.93" r="3.29"/><circle class="cls-2" cx="256" cy="297.93" r="3.29"/><circle class="cls-2" cx="258.99" cy="300.92" r="3.29"/><circle class="cls-2" cx="261.99" cy="303.92" r="3.29"/><circle class="cls-2" cx="205.09" cy="253.01" r="1.6"/><circle class="cls-2" cx="208.08" cy="256" r="2.03"/><circle class="cls-2" cx="211.08" cy="258.99" r="2.03"/><circle class="cls-2" cx="214.07" cy="261.99" r="2.22"/><circle class="cls-2" cx="217.07" cy="264.98" r="2.69"/><circle class="cls-2" cx="220.06" cy="267.98" r="2.42"/><circle class="cls-2" cx="223.06" cy="270.97" r="2.61"/><circle class="cls-2" cx="226.05" cy="273.97" r="2.82"/><circle class="cls-2" cx="229.05" cy="276.96" r="3.29"/><circle class="cls-2" cx="232.04" cy="279.96" r="3.02"/><circle class="cls-2" cx="235.04" cy="282.95" r="3.23"/><circle class="cls-2" cx="238.03" cy="285.95" r="3.29"/><circle class="cls-2" cx="241.03" cy="288.94" r="3.29"/><circle class="cls-2" cx="244.02" cy="291.94" r="3.29"/><circle class="cls-2" cx="247.02" cy="294.93" r="3.29"/><circle class="cls-2" cx="250.01" cy="297.93" r="3.29"/><circle class="cls-2" cx="253.01" cy="300.92" r="3.29"/><circle class="cls-2" cx="256" cy="303.92" r="3.29"/><circle class="cls-2" cx="205.09" cy="258.99" r="2.03"/><circle class="cls-2" cx="208.08" cy="261.99" r="2.48"/><circle class="cls-2" cx="211.08" cy="264.98" r="3.29"/><circle class="cls-2" cx="214.07" cy="267.98" r="2.69"/><circle class="cls-2" cx="217.07" cy="270.97" r="3.29"/><circle class="cls-2" cx="220.06" cy="273.97" r="3.29"/><circle class="cls-2" cx="223.06" cy="276.96" r="3.29"/><circle class="cls-2" cx="226.05" cy="279.96" r="3.29"/><circle class="cls-2" cx="229.05" cy="282.95" r="3.29"/><circle class="cls-2" cx="232.04" cy="285.95" r="3.29"/><circle class="cls-2" cx="235.04" cy="288.94" r="3.29"/><circle class="cls-2" cx="238.03" cy="291.94" r="3.29"/><circle class="cls-2" cx="241.03" cy="294.93" r="3.29"/><circle class="cls-2" cx="244.02" cy="297.93" r="3.29"/><circle class="cls-2" cx="247.02" cy="300.92" r="3.29"/><circle class="cls-2" cx="250.01" cy="303.92" r="3.29"/><circle class="cls-2" cx="205.09" cy="264.98" r="3.29"/><circle class="cls-2" cx="208.08" cy="267.98" r="3.29"/><circle class="cls-2" cx="211.08" cy="270.97" r="3.29"/><circle class="cls-2" cx="214.07" cy="273.97" r="3.29"/><circle class="cls-2" cx="217.07" cy="276.96" r="3.29"/><circle class="cls-2" cx="220.06" cy="279.96" r="3.29"/><circle class="cls-2" cx="223.06" cy="282.95" r="3.29"/><circle class="cls-2" cx="226.05" cy="285.95" r="3.29"/><circle class="cls-2" cx="229.05" cy="288.94" r="3.29"/><circle class="cls-2" cx="232.04" cy="291.94" r="3.29"/><circle class="cls-2" cx="235.04" cy="294.93" r="3.29"/><circle class="cls-2" cx="238.03" cy="297.93" r="3.29"/><circle class="cls-2" cx="241.03" cy="300.92" r="3.29"/><circle class="cls-2" cx="244.02" cy="303.92" r="3.29"/><circle class="cls-2" cx="205.09" cy="270.97" r="3.29"/><circle class="cls-2" cx="208.08" cy="273.97" r="3.29"/><circle class="cls-2" cx="211.08" cy="276.96" r="3.29"/><circle class="cls-2" cx="214.07" cy="279.96" r="3.29"/><circle class="cls-2" cx="217.07" cy="282.95" r="3.29"/><circle class="cls-2" cx="220.06" cy="285.95" r="3.29"/><circle class="cls-2" cx="223.06" cy="288.94" r="3.29"/><circle class="cls-2" cx="226.05" cy="291.94" r="3.29"/><circle class="cls-2" cx="229.05" cy="294.93" r="3.29"/><circle class="cls-2" cx="232.04" cy="297.93" r="3.29"/><circle class="cls-2" cx="235.04" cy="300.92" r="3.29"/><circle class="cls-2" cx="238.03" cy="303.92" r="3.29"/><circle class="cls-2" cx="205.09" cy="276.96" r="3.29"/><circle class="cls-2" cx="208.08" cy="279.96" r="3.29"/><circle class="cls-2" cx="211.08" cy="282.95" r="3.29"/><circle class="cls-2" cx="214.07" cy="285.95" r="3.29"/><circle class="cls-2" cx="217.07" cy="288.94" r="3.29"/><circle class="cls-2" cx="220.06" cy="291.94" r="3.29"/><circle class="cls-2" cx="223.06" cy="294.93" r="3.29"/><circle class="cls-2" cx="226.05" cy="297.93" r="3.29"/><circle class="cls-2" cx="229.05" cy="300.92" r="3.29"/><circle class="cls-2" cx="232.04" cy="303.92" r="3.29"/><circle class="cls-2" cx="205.09" cy="282.95" r="3.29"/><circle class="cls-2" cx="208.08" cy="285.95" r="3.29"/><circle class="cls-2" cx="211.08" cy="288.94" r="3.29"/><circle class="cls-2" cx="214.07" cy="291.94" r="3.29"/><circle class="cls-2" cx="217.07" cy="294.93" r="3.29"/><circle class="cls-2" cx="220.06" cy="297.93" r="3.29"/><circle class="cls-2" cx="223.06" cy="300.92" r="3.29"/><circle class="cls-2" cx="226.05" cy="303.92" r="3.29"/><circle class="cls-2" cx="205.09" cy="288.94" r="3.29"/><circle class="cls-2" cx="208.08" cy="291.94" r="3.29"/><circle class="cls-2" cx="211.08" cy="294.93" r="3.29"/><circle class="cls-2" cx="214.07" cy="297.93" r="3.29"/><circle class="cls-2" cx="217.07" cy="300.92" r="3.29"/><circle class="cls-2" cx="220.06" cy="303.92" r="3.29"/><circle class="cls-2" cx="205.09" cy="294.93" r="3.29"/><circle class="cls-2" cx="208.08" cy="297.93" r="3.29"/><circle class="cls-2" cx="211.08" cy="300.92" r="3.29"/><circle class="cls-2" cx="214.07" cy="303.92" r="3.29"/><circle class="cls-2" cx="205.09" cy="300.92" r="3.29"/><circle class="cls-2" cx="208.08" cy="303.92" r="3.29"/></g><line class="cls-18" x1="256" y1="263" x2="256" y2="233"/><line class="cls-18" x1="256" y1="263" x2="271.48" y2="237.15"/><line class="cls-18" x1="256" y1="263" x2="282.82" y2="248.48"/><line class="cls-18" x1="256" y1="263" x2="286.97" y2="263"/><line class="cls-18" x1="256" y1="263" x2="225.03" y2="263"/><line class="cls-18" x1="256" y1="263" x2="229.18" y2="248.48"/><line class="cls-18" x1="256" y1="263" x2="240.52" y2="237.15"/><path class="cls-13" d="M256,236a28,28,0,0,0-27.92,25.85,2,2,0,0,0,2,2.15h51.84a2,2,0,0,0,2-2.15A28,28,0,0,0,256,236Z"/><path class="cls-19" d="M236,264a8,8,0,0,1,16,0"/><rect class="cls-11" x="352" y="304" width="48" height="48" rx="2"/><path class="cls-13" d="M380.57,304l-3.07,6-1.66,5a6.85,6.85,0,0,0,.7,5.82,2.42,2.42,0,0,1-.19,2.73l-2.78,3.71a2.85,2.85,0,0,0,1.38,4.41l2.55.85-.9,1.8a1.86,1.86,0,0,0,.35,2.15,1.88,1.88,0,0,0,1.32.55H384v1.5l-5,3v.92l1.54,1.52-.57,1.11a1.66,1.66,0,0,0-.18.66,3.91,3.91,0,0,0,3.87,4.29h5.06a5.56,5.56,0,0,0,4.26-2l5-7.12V304Z"/><rect class="cls-20" x="376" y="310" width="14" height="2"/><path class="cls-21" d="M381.25,324.25a1.5,1.5,0,0,1,0-3C382.08,321.25,382.08,324.25,381.25,324.25Z"/><path class="cls-22" d="M377.54,319a5.24,5.24,0,0,1,7.42,0"/><path class="cls-22" d="M381.25,321.25a4.49,4.49,0,0,1,4.24,3"/><path class="cls-23" d="M377.81,329.5a2.25,2.25,0,0,1,2.12,1.5"/><path class="cls-23" d="M386.15,336.47a2.25,2.25,0,0,1,.44,2.56"/><path class="cls-19" d="M400,310H377.19a4.18,4.18,0,0,1-4.19-4.19V304h25a2,2,0,0,1,2,2Z"/><path class="cls-19" d="M392.5,309H388l2,11,4,7h2a4.37,4.37,0,0,1,4-3V309Z"/><circle class="cls-24" cx="377.5" cy="343.5" r="2.5"/><path class="cls-22" d="M376.53,343.31a20.9,20.9,0,0,0,6.22.94,21.18,21.18,0,0,0,16.5-8.25H400"/><use width="10.49" height="10.49" transform="translate(269.51 317.51) scale(2)" xlink:href="#badthing"/><line class="cls-3" x1="200" y1="328" x2="206" y2="328"/><line class="cls-3" x1="210" y1="328" x2="216" y2="328"/><line class="cls-3" x1="248" y1="328" x2="254" y2="328"/><line class="cls-3" x1="258" y1="328" x2="264" y2="328"/><line class="cls-3" x1="296" y1="328" x2="302" y2="328"/><line class="cls-3" x1="306" y1="328" x2="312" y2="328"/><path class="cls-2" d="M336.59,330.73l1.31-1.32a2,2,0,0,0,0-2.82l-1.31-1.32a2,2,0,0,1-.59-1.41V322a2,2,0,0,0-2-2h-1.86a2,2,0,0,1-1.41-.59l-1.32-1.31a2,2,0,0,0-2.82,0l-1.32,1.31a2,2,0,0,1-1.41.59H322a2,2,0,0,0-2,2v1.86a2,2,0,0,1-.59,1.41l-1.31,1.32a2,2,0,0,0,0,2.82l1.31,1.32a2,2,0,0,1,.59,1.41V334a2,2,0,0,0,2,2h1.86a2,2,0,0,1,1.41.59l1.32,1.31a2,2,0,0,0,2.82,0l1.32-1.31a2,2,0,0,1,1.41-.59H334a2,2,0,0,0,2-2v-1.86A2,2,0,0,1,336.59,330.73Z"/><path class="cls-2" d="M240.59,330.73l1.31-1.32a2,2,0,0,0,0-2.82l-1.31-1.32a2,2,0,0,1-.59-1.41V322a2,2,0,0,0-2-2h-1.86a2,2,0,0,1-1.41-.59l-1.32-1.31a2,2,0,0,0-2.82,0l-1.32,1.31a2,2,0,0,1-1.41.59H226a2,2,0,0,0-2,2v1.86a2,2,0,0,1-.59,1.41l-1.31,1.32a2,2,0,0,0,0,2.82l1.31,1.32a2,2,0,0,1,.59,1.41V334a2,2,0,0,0,2,2h1.86a2,2,0,0,1,1.41.59l1.32,1.31a2,2,0,0,0,2.82,0l1.32-1.31a2,2,0,0,1,1.41-.59H238a2,2,0,0,0,2-2v-1.86A2,2,0,0,1,240.59,330.73Z"/></g></svg>