<svg width="40" height="40" viewBox="0 0 40 40" fill="none" xmlns="http://www.w3.org/2000/svg">
<circle cx="20" cy="20" r="20" fill="#0DC0C9"/>
<path fill-rule="evenodd" clip-rule="evenodd" d="M17.2682 12C17.5141 12.0004 17.7469 12.1071 17.9036 12.291L30.1639 26.6871C30.4546 27.0285 30.4052 27.5339 30.0535 27.8161C29.7019 28.0983 29.1811 28.0504 28.8904 27.709L17.2646 14.0579L9.61563 22.9769C9.32371 23.3173 8.8028 23.3635 8.45214 23.0801C8.10148 22.7968 8.05386 22.2911 8.34577 21.9507L16.6319 12.2889C16.7892 12.1055 17.0224 11.9996 17.2682 12Z" fill="white"/>
<path fill-rule="evenodd" clip-rule="evenodd" d="M27.6264 19.4691C27.9779 19.7515 28.027 20.257 27.7361 20.5982L21.698 27.6793C21.5412 27.8631 21.3083 27.9696 21.0624 27.9699C20.8166 27.9701 20.5834 27.8641 20.4263 27.6806L18.5411 25.4794C18.2494 25.1388 18.2974 24.6332 18.6483 24.35C18.9991 24.0669 19.52 24.1135 19.8117 24.4541L21.0602 25.9119L26.4633 19.5755C26.7542 19.2344 27.2749 19.1867 27.6264 19.4691Z" fill="white"/>
<path fill-rule="evenodd" clip-rule="evenodd" d="M12.9415 17.6105C13.2944 17.3297 13.8149 17.3797 14.1042 17.7222L17.7107 21.9921C18 22.3346 17.9485 22.8399 17.5956 23.1207C17.2428 23.4015 16.7223 23.3515 16.433 23.009L12.8265 18.7391C12.5372 18.3966 12.5887 17.8913 12.9415 17.6105Z" fill="white"/>
<path d="M11.7707 15.2618C11.7707 15.7047 11.4008 16.0637 10.9445 16.0637C10.4883 16.0637 10.1184 15.7047 10.1184 15.2618C10.1184 14.8189 10.4883 14.4599 10.9445 14.4599C11.4008 14.4599 11.7707 14.8189 11.7707 15.2618Z" fill="white"/>
<path d="M29.9192 17.756C29.9192 18.1989 29.5494 18.5579 29.0931 18.5579C28.6368 18.5579 28.267 18.1989 28.267 17.756C28.267 17.3131 28.6368 16.9541 29.0931 16.9541C29.5494 16.9541 29.9192 17.3131 29.9192 17.756Z" fill="white"/>
<path d="M32.0001 15.2951C32.0001 15.738 31.6302 16.0971 31.1739 16.0971C30.7177 16.0971 30.3478 15.738 30.3478 15.2951C30.3478 14.8523 30.7177 14.4932 31.1739 14.4932C31.6302 14.4932 32.0001 14.8523 32.0001 15.2951Z" fill="white"/>
<path d="M9.65228 12.8019C9.65228 13.2448 9.2824 13.6038 8.82614 13.6038C8.36987 13.6038 8 13.2448 8 12.8019C8 12.359 8.36987 12 8.82614 12C9.2824 12 9.65228 12.359 9.65228 12.8019Z" fill="white"/>
</svg>
