<svg width="437" height="112" viewBox="0 0 437 112" fill="none" xmlns="http://www.w3.org/2000/svg">
<path d="M15.5925 81.2866C14.7527 85.2858 13.5929 89.9247 11.9933 96.2834C10.4337 102.682 9.27393 107.161 8.1142 111.28H40.4268C40.6267 110.28 41.0266 108.641 41.3466 107.361C41.7065 105.881 42.1464 104.162 42.4663 103.162C36.7876 103.202 28.1896 103.242 22.8308 103.242L23.8706 99.0428C29.9892 99.0428 38.1873 99.1227 42.9862 99.2027C43.3861 97.5631 44.2659 94.1638 44.7058 92.6042C39.7069 92.7241 31.5888 92.7241 25.4302 92.7241L26.43 88.685C31.7488 88.685 39.9069 88.685 46.0255 88.765C46.2254 87.8852 46.6253 86.2056 46.9053 84.9258C47.2252 83.6861 47.6651 82.1664 47.9051 81.2866H15.5925Z" fill="white"/>
<path d="M84.8634 81.2866C84.4635 83.4862 83.4238 88.2051 82.304 92.6841C81.9041 94.4438 81.5042 96.5233 81.1443 98.7228L81.0243 98.7628C80.7044 97.2032 80.1445 95.7235 79.5447 94.3638C77.1852 90.1247 72.6662 83.1262 72.1863 81.2866H58.1096C57.1898 85.3258 56.0301 89.9247 54.4304 96.2834C52.8708 102.682 51.6311 107.241 50.6313 111.28H62.0687C62.3486 109.68 63.3084 105.881 64.6281 100.362C65.108 98.003 65.5879 95.7635 65.9878 93.324C66.5077 95.0436 67.1875 96.7233 68.0273 98.4429C70.7067 102.762 74.6658 108.681 75.5856 111.28H88.5826C89.4224 107.401 90.5821 102.882 92.2217 96.2434C93.7814 89.8848 95.2211 84.4859 96.1408 81.2866H84.8634Z" fill="white"/>
<path d="M104.158 81.2866C103.918 82.5264 103.438 84.366 103.038 86.0456C102.598 87.6852 102.118 89.6848 101.718 91.0045C105.118 90.9245 108.477 90.9245 111.556 90.8845C109.157 100.402 106.917 109.201 106.237 111.32C108.117 111.2 110.916 111.2 112.956 111.2C114.995 111.2 117.875 111.2 119.634 111.32C120.074 109.161 122.194 100.362 124.553 90.8845C127.592 90.9245 130.912 90.9245 134.271 91.0045C134.551 89.6848 135.031 87.6852 135.431 86.0456C135.83 84.366 136.31 82.4864 136.71 81.2866H104.158Z" fill="white"/>
<path d="M144.7 81.2866C143.861 85.2858 142.701 89.9247 141.101 96.2834C139.541 102.682 138.382 107.161 137.222 111.28H169.535C169.735 110.28 170.134 108.641 170.454 107.361C170.814 105.881 171.254 104.162 171.574 103.162C165.895 103.202 157.297 103.242 151.939 103.242L152.978 99.0428C159.097 99.0428 167.295 99.1227 172.094 99.2027C172.494 97.5631 173.374 94.1638 173.814 92.6042C168.815 92.7241 160.697 92.7241 154.538 92.7241L155.538 88.685C160.857 88.685 169.015 88.685 175.133 88.765C175.333 87.8852 175.733 86.2056 176.013 84.9258C176.333 83.6861 176.773 82.1664 177.013 81.2866H144.7Z" fill="white"/>
<path d="M203.774 95.5235C200.534 95.5235 197.575 95.4835 195.815 95.4435C196.375 93.204 196.935 90.8845 197.495 88.565C199.974 88.4451 203.734 88.4051 205.213 88.4051C208.453 88.4051 209.932 89.4449 209.132 92.4842C208.612 94.5637 207.013 95.5235 203.774 95.5235ZM187.137 81.2866C186.178 85.6057 185.178 89.9247 183.578 96.2834C181.979 102.682 180.819 106.921 179.659 111.28H192.456C192.736 109.041 193.416 105.841 194.256 102.082H200.574C204.533 102.082 204.893 102.922 204.933 107.401C205.093 110.76 205.453 111.28 207.413 111.28H218.01C217.81 109.96 217.73 107.521 217.57 105.281C217.37 100.962 215.691 99.7226 210.732 99.1227L210.812 98.8428C217.211 98.163 220.37 96.1234 221.49 91.5644C223.169 84.8059 218.57 81.2866 209.892 81.2866H187.137Z" fill="white"/>
<path d="M255.459 93.444C254.739 96.3633 253.059 97.3231 248.94 97.3231C246.221 97.3231 243.782 97.2831 242.302 97.2831C242.942 94.6437 243.662 91.7643 244.381 88.805C246.581 88.765 249.9 88.725 251.26 88.725C254.819 88.725 256.299 90.0447 255.459 93.444ZM234.024 81.2866C233.104 85.4857 232.064 89.9247 230.465 96.2834C228.865 102.682 227.745 106.921 226.546 111.28H239.303C239.583 109.441 240.022 107.241 240.582 104.682C243.942 104.762 246.581 104.762 249.82 104.762C260.418 104.762 265.337 101.802 267.216 94.2838C269.536 84.8858 264.177 81.2866 254.939 81.2866H234.024Z" fill="white"/>
<path d="M295.56 95.5235C292.321 95.5235 289.362 95.4835 287.602 95.4435C288.162 93.204 288.722 90.8845 289.282 88.565C291.761 88.4451 295.52 88.4051 297 88.4051C300.239 88.4051 301.719 89.4449 300.919 92.4842C300.399 94.5637 298.8 95.5235 295.56 95.5235ZM278.924 81.2866C277.964 85.6057 276.965 89.9247 275.365 96.2834C273.765 102.682 272.606 106.921 271.446 111.28H284.243C284.523 109.041 285.203 105.841 286.043 102.082H292.361C296.32 102.082 296.68 102.922 296.72 107.401C296.88 110.76 297.24 111.28 299.199 111.28H309.797C309.597 109.96 309.517 107.521 309.357 105.281C309.157 100.962 307.478 99.7226 302.519 99.1227L302.599 98.8428C308.997 98.163 312.157 96.1234 313.276 91.5644C314.956 84.8059 310.357 81.2866 301.679 81.2866H278.924Z" fill="white"/>
<path d="M331.249 111.28C332.289 106.761 333.289 102.602 334.888 96.2434C336.488 89.8448 337.528 85.6857 338.728 81.2866H325.931C324.971 85.7257 323.891 89.9247 322.291 96.2834C320.732 102.642 319.692 106.801 318.452 111.28H331.249Z" fill="white"/>
<path d="M360.11 104.802C354.951 104.802 353.751 103.842 354.231 101.882C354.271 101.722 354.351 101.562 354.351 101.402C353.231 101.482 351.792 101.522 350.232 101.522C347.713 101.522 345.113 101.362 343.314 101.202C343.114 101.722 342.994 102.242 342.874 102.722C341.474 108.401 345.473 112 360.23 112C373.107 112 377.226 109.68 378.746 103.602C380.305 97.2831 377.626 93.8039 366.668 92.6042C358.63 91.7644 358.19 90.7246 358.51 89.3249C358.79 88.2051 359.99 87.6452 364.709 87.6452C370.228 87.6452 370.987 88.605 370.587 90.2047C370.507 90.4046 370.467 90.6846 370.388 90.9245C371.387 90.8845 373.067 90.8445 374.747 90.8445C377.066 90.8445 379.705 90.9245 381.225 91.0445C381.385 90.4846 381.545 89.9647 381.705 89.4449C383.105 83.8461 379.145 80.5668 364.869 80.5668C352.592 80.5668 347.793 82.9663 346.313 89.0449C344.993 94.3638 347.113 98.6029 359.03 99.6026C366.188 100.203 366.988 101.282 366.588 103.002C366.268 104.282 365.149 104.802 360.11 104.802Z" fill="white"/>
<path d="M393.387 81.2866C392.547 85.2858 391.387 89.9247 389.788 96.2834C388.228 102.682 387.068 107.161 385.909 111.28H418.221C418.421 110.28 418.821 108.641 419.141 107.361C419.501 105.881 419.941 104.162 420.261 103.162C414.582 103.202 405.984 103.242 400.625 103.242L401.665 99.0428C407.784 99.0428 415.982 99.1227 420.781 99.2027C421.181 97.5631 422.06 94.1638 422.5 92.6042C417.501 92.7241 409.383 92.7241 403.225 92.7241L404.224 88.685C409.543 88.685 417.701 88.685 423.82 88.765C424.02 87.8852 424.42 86.2056 424.7 84.9258C425.02 83.6861 425.46 82.1664 425.7 81.2866H393.387Z" fill="white"/>
<g clip-path="url(#clip0)">
<path d="M342.244 15.5345C343.519 15.5349 344.766 15.1577 345.826 14.4507C346.887 13.7436 347.713 12.7384 348.202 11.5622C348.69 10.3861 348.818 9.09176 348.569 7.84303C348.32 6.5943 347.706 5.44726 346.805 4.547C345.903 3.64673 344.754 3.03369 343.503 2.78541C342.252 2.53713 340.956 2.66478 339.778 3.1522C338.6 3.63962 337.593 4.46492 336.885 5.5237C336.177 6.58248 335.799 7.82718 335.799 9.10034C335.8 10.8066 336.479 12.4428 337.688 13.6493C338.896 14.8558 340.535 15.5339 342.244 15.5345Z" fill="white"/>
<path d="M436.434 55.8727L431.387 51.0706C431.031 50.7334 430.555 50.5514 430.064 50.5645C429.573 50.5777 429.107 50.7849 428.769 51.1407C428.723 51.1911 428.679 51.2415 428.64 51.2941C427.504 52.8336 426.219 54.2578 424.804 55.5462C420.775 59.1654 415.56 61.1909 410.14 61.2421C408.433 61.2671 406.731 61.0337 405.094 60.5498C410.546 56.9001 420.135 49.6335 422.235 42.4589C423.701 37.4422 422.974 32.4978 420.26 28.8656C417.847 25.6584 414.083 23.7415 409.824 23.5224V23.4918H409.006C403.667 23.4918 397.879 25.8446 393.517 29.7857C389.628 33.3429 387.005 38.0671 386.043 43.2444C385.081 48.4217 385.833 53.771 388.185 58.484C384.992 60.5542 380.573 61.2925 376.044 61.2925C372.454 61.2925 369.222 60.2212 366.328 57.7041L366.455 57.5529C373.751 48.7529 379.608 37.1399 382.941 24.8544C385.238 16.3741 384.556 8.62561 381.113 4.13465C380.149 2.84254 378.895 1.79487 377.451 1.07635C376.007 0.357833 374.414 -0.0113722 372.801 -0.00141356C368.47 -0.00141356 364.658 1.81469 361.477 5.3965C358.295 8.97831 355.657 14.5274 353.56 22.1423C349.65 36.8376 349.505 48.479 353.121 56.8738C348.976 60.1862 345.406 61.2399 343.185 61.2399C341.897 61.2399 339.534 60.9748 338.161 59.1872C336.469 56.9768 336.348 52.7531 337.838 47.3048C339.095 42.7043 342.257 31.1571 343.738 25.7526C343.793 25.5518 343.808 25.3421 343.781 25.1357C343.755 24.9293 343.688 24.7301 343.584 24.5495C343.48 24.369 343.342 24.2107 343.177 24.0837C343.011 23.9567 342.823 23.8635 342.621 23.8094C342.486 23.7718 342.347 23.7527 342.207 23.7525H334.942C334.478 23.7529 334.028 23.9054 333.659 24.1864C333.291 24.4674 333.025 24.8614 332.903 25.3079L326.307 49.2896C323.823 58.0984 320.997 61.3078 317.732 61.3078C315.861 61.3078 313.434 60.8259 314.79 55.5944C315.65 52.2558 318.456 42.3012 318.456 42.3012C318.761 41.1927 319.218 38.8684 319.176 37.2341C319.093 33.948 318.268 30.9709 316.457 28.6049C313.976 25.3626 310.079 23.4983 305.741 23.4983C301.017 23.4983 296.964 25.3473 293.65 28.5589C291.138 25.3473 287.221 23.4983 282.881 23.4983C280.301 23.4983 277.328 23.954 275.111 25.6606C275.163 25.4654 275.176 25.2618 275.149 25.0617C275.122 24.8616 275.055 24.6687 274.953 24.4943C274.852 24.3198 274.716 24.1672 274.555 24.0452C274.394 23.9231 274.21 23.8341 274.014 23.7831C273.886 23.7501 273.754 23.7332 273.621 23.7327H266.745C266.303 23.733 265.873 23.871 265.514 24.1275C265.155 24.384 264.886 24.7462 264.744 25.1633C264.603 25.6847 264.366 26.5653 264.05 27.7242C263.063 30.237 261.114 31.9786 258.233 32.9031C252.748 34.6556 245.156 32.8592 240.412 28.7407C238.047 26.593 235.206 25.0366 232.122 24.1994C220.427 21.0294 208.073 28.9028 204.58 41.7513C204.285 42.8358 204.059 43.9377 203.904 45.0506V45.0506C200.577 60.2388 196.485 61.2618 194.539 61.2618C194.041 61.2618 192.808 61.1676 192.125 60.265C191.443 59.3625 191.092 57.5924 191.686 55.4564C192.871 51.1429 195.307 42.253 196.43 38.1717C196.64 37.435 196.697 36.6632 196.597 35.9038C196.498 35.1443 196.244 34.4132 195.851 33.7552C194.495 31.5251 192.314 31.0497 190.203 30.5875C185.573 29.5754 181.924 28.3551 181.231 23.3581C181.166 22.8478 180.917 22.3785 180.531 22.0385C180.144 21.6985 179.646 21.511 179.131 21.5114H172.109C171.649 21.511 171.201 21.6605 170.834 21.9372C170.466 22.214 170.199 22.6029 170.073 23.0449C168.702 27.9367 164.445 43.114 162.887 48.7178C160.693 56.6394 156.706 61.1786 151.536 61.1786C150.268 61.1786 149.039 60.6506 148.401 59.805C147.481 58.5979 147.468 56.738 147.841 55.371H147.808L155.558 27.1831H162.009C162.472 27.1834 162.922 27.0321 163.29 26.7523C163.659 26.4724 163.925 26.0797 164.048 25.6343L165.987 18.624C166.1 18.2202 166.047 17.7886 165.842 17.4232C165.636 17.0579 165.294 16.7887 164.89 16.6743C164.752 16.6368 164.61 16.6176 164.467 16.6173H158.446L162.396 2.25502C162.508 1.85095 162.456 1.4187 162.251 1.05289C162.045 0.687067 161.703 0.41747 161.298 0.303095C161.156 0.262627 161.008 0.243433 160.86 0.246137H153.597C153.133 0.247328 152.682 0.400636 152.314 0.682466C151.947 0.964297 151.682 1.35903 151.56 1.80592L147.475 16.6348H139.137C138.674 16.6339 138.223 16.7848 137.855 17.0642C137.486 17.3436 137.219 17.7361 137.096 18.1815L135.165 25.1918C135.11 25.3924 135.095 25.602 135.121 25.8085C135.146 26.015 135.213 26.2144 135.316 26.3952C135.419 26.5761 135.557 26.7349 135.721 26.8626C135.886 26.9903 136.074 27.0843 136.275 27.1393C136.412 27.1777 136.554 27.1969 136.697 27.1963H144.565L142.288 35.521C139.861 44.1962 135.988 51.1166 131.097 55.5375C127.067 59.1669 121.847 61.199 116.42 61.2509C114.712 61.2777 113.01 61.045 111.373 60.5608C116.826 56.9001 126.421 49.6335 128.514 42.4589C129.98 37.4422 129.254 32.4978 126.529 28.8656C124.115 25.6584 120.352 23.7547 116.106 23.5224V23.4918H115.287C109.949 23.4918 104.16 25.8446 99.8005 29.7857C97.2976 32.0372 95.3009 34.7926 93.942 37.8704C92.5831 40.9483 91.8928 44.2787 91.9166 47.6422C91.9066 51.4077 92.7806 55.1232 94.4685 58.4906C90.3763 60.6813 85.911 61.8139 83.0804 61.8139C81.2065 61.8139 78.6744 60.7996 80.026 55.5682C80.8906 52.2317 83.697 42.2771 83.697 42.2771C83.9998 41.1664 84.4584 38.8443 84.4167 37.21C84.3311 33.9108 83.5039 30.9446 81.6959 28.5786C79.2142 25.3561 75.3084 23.4918 70.977 23.4918C66.2528 23.4918 62.2001 25.3407 58.8868 28.5523C56.3722 25.3407 52.4576 23.4918 48.1152 23.4918C45.9495 23.4918 43.3362 24.1753 40.7316 25.3736C40.7777 24.7054 40.8413 23.6955 40.8413 23.0952C40.783 17.7246 38.6046 12.5939 34.7792 8.81768C30.9538 5.04143 25.7905 2.92468 20.4109 2.92728C15.0313 2.92987 9.87008 5.0516 6.04834 8.83155C2.2266 12.6115 0.0531 17.7443 0 23.115C0 31.4747 5.65674 38.623 13.5889 41.403C13.8184 41.4835 14.0616 41.518 14.3044 41.5046C14.5473 41.4912 14.7852 41.4302 15.0044 41.325C15.2237 41.2198 15.42 41.0726 15.5822 40.8916C15.7445 40.7107 15.8694 40.4996 15.9499 40.2704C15.9631 40.231 15.9762 40.1894 15.9872 40.1477L17.8084 33.5318C17.9268 33.0894 17.8766 32.6188 17.6674 32.2113C17.4583 31.8037 17.1051 31.4882 16.6762 31.3258C12.8275 29.8207 10.5762 26.3747 10.5762 23.1215C10.5826 21.7285 10.8855 20.3527 11.4649 19.0854C12.0443 17.8182 12.8869 16.6884 13.9369 15.7709C14.9869 14.8535 16.2202 14.1694 17.5551 13.764C18.89 13.3587 20.296 13.2413 21.6798 13.4196C23.0637 13.598 24.3937 14.0681 25.5817 14.7986C26.7697 15.5292 27.7886 16.5036 28.5708 17.6572C29.353 18.8108 29.8805 20.1172 30.1186 21.4899C30.3566 22.8625 30.2996 24.27 29.9513 25.6189L27.7198 33.7355L26.3594 38.6931L25.2337 42.7766L17.894 69.4835C17.8391 69.6844 17.8245 69.894 17.8508 70.1005C17.8771 70.3069 17.944 70.5062 18.0475 70.6869C18.151 70.8676 18.2892 71.0261 18.4541 71.1534C18.619 71.2807 18.8075 71.3743 19.0087 71.4289C19.1439 71.4655 19.2833 71.4846 19.4234 71.4859H26.7126C27.1759 71.4846 27.626 71.3321 27.9944 71.0517C28.3629 70.7713 28.6293 70.3783 28.7533 69.9326L35.1758 46.5293C37.7431 37.3436 43.2704 34.0729 47.5864 34.0729C50.6013 34.0729 50.8931 36.6689 50.4389 39.002L42.0526 69.4835C41.9889 69.719 41.9804 69.9659 42.0277 70.2052C42.075 70.4445 42.1769 70.6697 42.3254 70.8633C42.4739 71.0569 42.6651 71.2138 42.8842 71.3218C43.1032 71.4297 43.3442 71.4859 43.5885 71.4859H50.8646C51.3277 71.486 51.778 71.3343 52.1463 71.0541C52.5146 70.7739 52.7805 70.3806 52.9031 69.9348C54.1691 65.319 57.9125 51.6709 59.341 46.5227C61.5352 38.6011 65.7942 34.0729 70.9704 34.0729C73.3512 34.0729 74.4088 36.0117 73.6869 38.726C72.6051 42.7766 69.8206 52.7027 69.8206 52.7027C68.3308 58.1181 68.6753 63.3649 71.4378 66.9818C73.9414 70.2678 78.2399 71.867 82.6284 71.867C88.6011 71.867 95.5327 69.2053 101.021 66.5129C105.42 69.9458 110.974 71.8123 116.935 71.8123C124.31 71.8123 132.585 68.3071 138.27 62.5697C138.566 63.7654 139.047 64.9079 139.694 65.9565C141.963 69.5756 146.654 71.7509 151.24 71.7509C161.266 71.7509 169.421 64.3704 172.928 51.9469C173.852 48.6828 175.627 42.2771 177.222 36.4914C177.362 36.601 177.498 36.7105 177.637 36.8025C179.814 38.3422 182.248 39.4844 184.825 40.1762C184.825 40.1762 182.207 49.7452 181.352 52.9437C179.934 58.2496 180.676 63.1283 183.394 66.686C185.896 69.9721 189.845 71.8408 194.238 71.8408C199.336 71.8408 203.057 69.891 206.265 66.077C207.007 65.1296 207.673 64.1262 208.259 63.0757C210.15 65.6842 212.633 67.8082 215.505 69.2735C218.376 70.7388 221.555 71.5037 224.78 71.5056C228.855 71.5056 232.912 70.2744 236.57 67.8734C241.632 64.5523 245.336 59.3559 246.997 53.2438C247.945 49.7909 248.169 46.1798 247.655 42.6364C249.554 43.1792 251.519 43.4578 253.494 43.4645C255.675 43.4697 257.849 43.1988 259.962 42.6583C256.541 55.1278 252.594 69.4814 252.594 69.4814C252.539 69.6822 252.525 69.8918 252.551 70.0983C252.577 70.3048 252.644 70.504 252.748 70.6847C252.851 70.8654 252.989 71.0239 253.154 71.1512C253.319 71.2785 253.508 71.3721 253.709 71.4267C253.844 71.4636 253.983 71.482 254.123 71.4815H261.459C261.922 71.4817 262.372 71.33 262.74 71.0497C263.109 70.7695 263.375 70.3763 263.497 69.9305L269.933 46.5249C272.498 37.3414 278.025 34.0707 282.344 34.0707C285.356 34.0707 285.648 36.6623 285.196 38.9976L276.818 69.4814C276.763 69.682 276.748 69.8916 276.774 70.0981C276.8 70.3045 276.867 70.5038 276.97 70.6845C277.074 70.8653 277.212 71.0238 277.377 71.1512C277.541 71.2785 277.73 71.3722 277.931 71.4267C278.066 71.4635 278.206 71.4819 278.346 71.4815H285.622C286.085 71.4814 286.535 71.3297 286.904 71.0495C287.273 70.7694 287.539 70.3763 287.662 69.9305C288.928 65.3146 292.687 51.6665 294.098 46.5205C296.292 38.5989 300.556 34.0707 305.728 34.0707C308.108 34.0707 309.166 36.0095 308.444 38.7238C307.36 42.7832 304.584 52.7005 304.584 52.7005C303.097 58.116 303.792 63.0911 306.559 66.6948C309.061 69.9808 313.01 71.8517 317.403 71.8517C320.203 71.8517 325.177 71.3982 329.691 65.514L329.752 65.5972C332.824 69.5909 337.581 71.7947 343.174 71.7947C348.199 71.7947 353.601 69.4704 358.936 65.124C364.27 70.0071 371.103 71.7947 376.127 71.7947C382.449 71.7947 389.262 69.1988 394.752 66.5129C399.141 69.9458 404.703 71.8123 410.663 71.8123C420.385 71.8123 429.851 67.1263 436.618 58.3241C436.894 57.9639 437.027 57.5153 436.993 57.0634C436.959 56.6114 436.76 56.1877 436.434 55.8727V55.8727ZM103.638 53.7302C102.711 51.5928 102.321 49.2612 102.504 46.9389C102.929 39.9287 109.87 33.247 115.623 33.8166C119.217 34.1737 119.103 37.9548 118.386 39.8016C117.264 42.6955 112.281 48.1942 103.719 53.671L103.638 53.7302ZM237.267 50.604C236.251 54.3392 234.04 57.4828 231.038 59.4523C228.229 61.2947 225.059 61.8621 222.11 61.069C219.16 60.276 216.716 58.1751 215.226 55.1694C213.633 51.9535 213.315 48.1263 214.331 44.389C216.352 36.9055 223.154 32.202 229.48 33.9239C235.806 35.6458 239.293 43.1205 237.259 50.604H237.267ZM360.992 48.2775C360.031 42.5553 361.154 34.7827 363.796 24.8566C367.179 12.6302 369.562 10.5622 371.958 10.5622C372.307 10.5557 372.648 10.6668 372.926 10.8777C374.506 12.0738 374.243 16.5845 372.753 22.1182C370.558 30.2238 367.267 38.3163 363.098 45.0856C362.405 46.1832 361.707 47.2522 360.983 48.2775H360.992ZM397.504 53.671L397.425 53.7214C396.494 51.5848 396.104 49.2527 396.288 46.9302C396.727 39.9199 403.145 33.0126 409.405 33.8078C409.473 33.8078 409.539 33.8297 409.605 33.8407C412.982 34.4081 412.872 37.9811 412.172 39.7907C411.132 42.4677 406.783 47.3837 399.356 52.4442C398.757 52.8604 398.142 53.2679 397.504 53.671Z" fill="white"/>
</g>
<defs>
<clipPath id="clip0">
<rect width="437" height="71.8685" fill="white"/>
</clipPath>
</defs>
</svg>
