<?xml version="1.0" encoding="utf-8"?>
<!-- Generator: Adobe Illustrator 19.1.0, SVG Export Plug-In . SVG Version: 6.00 Build 0)  -->
<svg version="1.1" id="Layer_1" xmlns:sketch="http://www.bohemiancoding.com/sketch/ns"
	 xmlns="http://www.w3.org/2000/svg" xmlns:xlink="http://www.w3.org/1999/xlink" x="0px" y="0px" viewBox="-391 288.5 25 25"
	 style="enable-background:new -391 288.5 25 25;" xml:space="preserve">
<style type="text/css">
	.st0{fill:#FFFFFF;}
</style>
<g id="_x30_1_x2F_25_x2F_2016" sketch:type="MSPage">
	<g id="Desktop-Form-A" transform="translate(-174.000000, -3382.000000)" sketch:type="MSArtboardGroup">
		<g id="Footer" transform="translate(0.000000, 3160.000000)" sketch:type="MSLayerGroup">
			<g id="Twitter-_x2B_-Linkedin-_x2B_-Facebook" transform="translate(120.000000, 222.000000)" sketch:type="MSShapeGroup">
				<path id="Facebook" class="st0" d="M-314.4,309.9c0,0.6-0.5,1.1-1.1,1.1h-5.1v-7.7h2.6l0.4-3h-3v-1.9c0-0.9,0.2-1.5,1.5-1.5
					l1.6,0v-2.7c-0.3,0-1.2-0.1-2.3-0.1c-2.3,0-3.9,1.4-3.9,4v2.2h-2.6v3h2.6v7.7h-9.6c-0.6,0-1.1-0.5-1.1-1.1v-17.8
					c0-0.6,0.5-1.1,1.1-1.1h17.7c0.6,0,1.1,0.5,1.1,1.1V309.9"/>
			</g>
		</g>
	</g>
</g>
</svg>
