<svg xmlns="http://www.w3.org/2000/svg" xmlns:xlink="http://www.w3.org/1999/xlink" viewBox="0 0 512 512"><defs><style>.cls-1,.cls-14,.cls-15,.cls-18,.cls-2{fill:none;}.cls-2{stroke:#e6e6ea;}.cls-14,.cls-15,.cls-18,.cls-2{stroke-miterlimit:10;}.cls-3{fill:url(#linear-gradient);}.cls-4{fill:#32c2cc;}.cls-5{fill:url(#linear-gradient-2);}.cls-6{fill:#fe6f66;}.cls-7{fill:url(#linear-gradient-3);}.cls-8{fill:url(#linear-gradient-4);}.cls-9{fill:url(#linear-gradient-5);}.cls-10{fill:#05c4d1;}.cls-11{clip-path:url(#clip-path);}.cls-12{fill:#fff;}.cls-13{fill:#00084e;}.cls-14,.cls-15{stroke:#fe6f66;}.cls-15,.cls-18{stroke-linecap:round;}.cls-15{stroke-width:2px;}.cls-16{clip-path:url(#clip-path-3);}.cls-17{clip-path:url(#clip-path-4);}.cls-18{stroke:#c1c1ca;stroke-width:2px;stroke-dasharray:11.73 11.73;}</style><linearGradient id="linear-gradient" x1="-519.5" y1="-1413.5" x2="-519.5" y2="-1438.5" gradientTransform="translate(583.5 1598.5)" gradientUnits="userSpaceOnUse"><stop offset="0.02" stop-color="#32c2cc"/><stop offset="0.06" stop-color="#3ec4ce"/><stop offset="0.31" stop-color="#86d3da"/><stop offset="0.51" stop-color="#badde3"/><stop offset="0.67" stop-color="#dae4e8"/><stop offset="0.75" stop-color="#e6e6ea"/></linearGradient><linearGradient id="linear-gradient-2" x1="-231.5" y1="-1431.5" x2="-231.5" y2="-1456.5" gradientTransform="translate(583.5 1598.5)" gradientUnits="userSpaceOnUse"><stop offset="0.02" stop-color="#fe6f66"/><stop offset="0.19" stop-color="#f7908a"/><stop offset="0.45" stop-color="#eebebe"/><stop offset="0.64" stop-color="#e8dbde"/><stop offset="0.75" stop-color="#e6e6ea"/></linearGradient><linearGradient id="linear-gradient-3" x1="-140.5" y1="-1316.5" x2="-140.5" y2="-1351.5" gradientTransform="translate(533 1670)" xlink:href="#linear-gradient"/><linearGradient id="linear-gradient-4" x1="-380.5" y1="-1396.5" x2="-380.5" y2="-1431.5" gradientTransform="translate(853 1510)" xlink:href="#linear-gradient"/><linearGradient id="linear-gradient-5" x1="-423.5" y1="-1196.5" x2="-423.5" y2="-1241.5" gradientTransform="translate(583.5 1564.5)" gradientUnits="userSpaceOnUse"><stop offset="0.25" stop-color="#e6e6ea"/><stop offset="0.66" stop-color="#f2f2f4"/><stop offset="0.98" stop-color="#fff"/></linearGradient><clipPath id="clip-path"><circle class="cls-1" cx="256" cy="256" r="48"/></clipPath><clipPath id="clip-path-3"><polygon class="cls-1" points="236 268 205 268 205 244 227 244 236 254 236 268"/></clipPath><clipPath id="clip-path-4"><path class="cls-1" d="M300.67,275.53,280.3,245a7.59,7.59,0,0,0-4.45-3.14l-18.22-4.59a2.78,2.78,0,0,0-3.38,2.09h0a2.77,2.77,0,0,0,1.95,3.25L273,247.38l1.12,33.21a6.32,6.32,0,0,0,6.31,6.1H283l5.16,6.16S296.5,288.69,300.67,275.53Z"/></clipPath></defs><title>fnol-illustration-vector-01</title><g id="Layer_4" data-name="Layer 4"><polyline class="cls-2" points="0 160 64 160 64 256 352 256 352 0"/><polyline class="cls-2" points="320 0 320 224 512 224"/><polyline class="cls-2" points="512 96 224 96 224 192 96 192 96 304 0 304"/><polyline class="cls-2" points="0 336 416 336 416 160 512 160"/><rect class="cls-3" x="63.5" y="160" width="1" height="25"/><circle class="cls-4" cx="64" cy="192" r="8"/><rect class="cls-5" x="351.5" y="142" width="1" height="25"/><circle class="cls-6" cx="352" cy="174" r="8"/><rect class="cls-7" x="392" y="318.5" width="1" height="35" transform="translate(728.5 -56.5) rotate(90)"/><circle class="cls-4" cx="368" cy="336" r="8"/><rect class="cls-8" x="472" y="78.5" width="1" height="35" transform="translate(568.5 -376.5) rotate(90)"/><circle class="cls-4" cx="448" cy="96" r="8"/><polyline class="cls-2" points="224 0 224 64 0 64"/><polyline class="cls-2" points="0 128 160 128 160 368"/><rect class="cls-9" x="159.5" y="323" width="1" height="45" transform="translate(320 691) rotate(180)"/><circle class="cls-10" cx="256" cy="256" r="48"/><g class="cls-11"><circle class="cls-6" cx="301.25" cy="205.09" r="2.83"/><circle class="cls-6" cx="295.6" cy="205.09" r="2.83"/><circle class="cls-6" cx="298.43" cy="207.92" r="2.83"/><circle class="cls-6" cx="301.25" cy="210.75" r="2.83"/><circle class="cls-6" cx="289.94" cy="205.09" r="2.83"/><circle class="cls-6" cx="292.77" cy="207.92" r="2.83"/><circle class="cls-6" cx="295.6" cy="210.75" r="2.83"/><circle class="cls-6" cx="298.43" cy="213.57" r="2.83"/><circle class="cls-6" cx="301.25" cy="216.4" r="2.83"/><circle class="cls-6" cx="284.28" cy="205.09" r="2.83"/><circle class="cls-6" cx="287.11" cy="207.92" r="2.83"/><circle class="cls-6" cx="289.94" cy="210.75" r="2.83"/><circle class="cls-6" cx="292.77" cy="213.57" r="2.83"/><circle class="cls-6" cx="295.6" cy="216.4" r="2.83"/><circle class="cls-6" cx="298.43" cy="219.23" r="2.83"/><circle class="cls-6" cx="301.25" cy="222.06" r="2.83"/><circle class="cls-6" cx="278.63" cy="205.09" r="2.83"/><circle class="cls-6" cx="281.46" cy="207.92" r="2.83"/><circle class="cls-6" cx="284.28" cy="210.75" r="2.83"/><circle class="cls-6" cx="287.11" cy="213.57" r="2.83"/><circle class="cls-6" cx="289.94" cy="216.4" r="2.83"/><circle class="cls-6" cx="292.77" cy="219.23" r="2.83"/><circle class="cls-6" cx="295.6" cy="222.06" r="2.83"/><circle class="cls-6" cx="298.43" cy="224.89" r="2.83"/><circle class="cls-6" cx="301.25" cy="227.72" r="2.83"/><circle class="cls-6" cx="278.63" cy="210.75" r="2.83"/><circle class="cls-6" cx="301.25" cy="233.37" r="2.83"/><circle class="cls-6" cx="233.37" cy="205.09" r="2.83"/><circle class="cls-6" cx="227.72" cy="205.09" r="2.83"/><circle class="cls-6" cx="230.54" cy="207.92" r="2.83"/><circle class="cls-6" cx="233.37" cy="210.75" r="2.83"/><circle class="cls-6" cx="301.25" cy="278.63" r="2.83"/><circle class="cls-6" cx="222.06" cy="205.09" r="2.83"/><circle class="cls-6" cx="224.89" cy="207.92" r="2.83"/><circle class="cls-6" cx="227.72" cy="210.75" r="2.83"/><circle class="cls-6" cx="230.54" cy="213.57" r="0.06"/><circle class="cls-6" cx="301.25" cy="284.28" r="2.83"/><circle class="cls-6" cx="216.4" cy="205.09" r="2.83"/><circle class="cls-6" cx="219.23" cy="207.92" r="2.83"/><circle class="cls-6" cx="222.06" cy="210.75" r="2.83"/><circle class="cls-6" cx="224.89" cy="213.57" r="2.83"/><circle class="cls-6" cx="227.72" cy="216.4" r="0.78"/><circle class="cls-6" cx="230.54" cy="219.23" r="0.32"/><circle class="cls-6" cx="233.37" cy="222.06" r="0.12"/><circle class="cls-6" cx="298.43" cy="287.11" r="2.83"/><circle class="cls-6" cx="301.25" cy="289.94" r="2.83"/><circle class="cls-6" cx="210.75" cy="205.09" r="2.83"/><circle class="cls-6" cx="213.57" cy="207.92" r="2.83"/><circle class="cls-6" cx="216.4" cy="210.75" r="2.83"/><circle class="cls-6" cx="219.23" cy="213.57" r="2.83"/><circle class="cls-6" cx="222.06" cy="216.4" r="2.83"/><circle class="cls-6" cx="224.89" cy="219.23" r="0.78"/><circle class="cls-6" cx="227.72" cy="222.06" r="1.02"/><circle class="cls-6" cx="230.54" cy="224.89" r="0.84"/><circle class="cls-6" cx="233.37" cy="227.72" r="0.39"/><circle class="cls-6" cx="236.2" cy="230.54" r="0.2"/><circle class="cls-6" cx="239.03" cy="233.37" r="0.47"/><circle class="cls-6" cx="241.86" cy="236.2" r="0.27"/><circle class="cls-6" cx="247.51" cy="241.86" r="0.08"/><circle class="cls-6" cx="295.6" cy="289.94" r="2.83"/><circle class="cls-6" cx="298.43" cy="292.77" r="2.83"/><circle class="cls-6" cx="301.25" cy="295.6" r="2.83"/><circle class="cls-6" cx="207.92" cy="207.92" r="2.83"/><circle class="cls-6" cx="210.75" cy="210.75" r="2.83"/><circle class="cls-6" cx="213.57" cy="213.57" r="2.83"/><circle class="cls-6" cx="216.4" cy="216.4" r="2.83"/><circle class="cls-6" cx="219.23" cy="219.23" r="2.83"/><circle class="cls-6" cx="222.06" cy="222.06" r="1.44"/><circle class="cls-6" cx="224.89" cy="224.89" r="1.26"/><circle class="cls-6" cx="227.72" cy="227.72" r="1.26"/><circle class="cls-6" cx="230.54" cy="230.54" r="1.09"/><circle class="cls-6" cx="233.37" cy="233.37" r="0.91"/><circle class="cls-6" cx="236.2" cy="236.2" r="0.72"/><circle class="cls-6" cx="239.03" cy="239.03" r="0.72"/><circle class="cls-6" cx="241.86" cy="241.86" r="0.53"/><circle class="cls-6" cx="244.69" cy="244.69" r="0.34"/><circle class="cls-6" cx="247.51" cy="247.51" r="0.34"/><circle class="cls-6" cx="250.34" cy="250.34" r="0.14"/><circle class="cls-6" cx="292.77" cy="292.77" r="2.83"/><circle class="cls-6" cx="295.6" cy="295.6" r="2.83"/><circle class="cls-6" cx="298.43" cy="298.43" r="2.83"/><circle class="cls-6" cx="301.25" cy="301.25" r="2.83"/><circle class="cls-6" cx="205.09" cy="210.75" r="2.83"/><circle class="cls-6" cx="207.92" cy="213.57" r="2.83"/><circle class="cls-6" cx="210.75" cy="216.4" r="2.83"/><circle class="cls-6" cx="213.57" cy="219.23" r="2.83"/><circle class="cls-6" cx="216.4" cy="222.06" r="2.83"/><circle class="cls-6" cx="219.23" cy="224.89" r="2.04"/><circle class="cls-6" cx="222.06" cy="227.72" r="1.67"/><circle class="cls-6" cx="224.89" cy="230.54" r="1.51"/><circle class="cls-6" cx="227.72" cy="233.37" r="1.73"/><circle class="cls-6" cx="230.54" cy="236.2" r="1.56"/><circle class="cls-6" cx="233.37" cy="239.03" r="1.15"/><circle class="cls-6" cx="236.2" cy="241.86" r="0.98"/><circle class="cls-6" cx="239.03" cy="244.69" r="1.22"/><circle class="cls-6" cx="241.86" cy="247.51" r="0.79"/><circle class="cls-6" cx="244.69" cy="250.34" r="0.6"/><circle class="cls-6" cx="247.51" cy="253.17" r="0.87"/><circle class="cls-6" cx="250.34" cy="256" r="0.68"/><circle class="cls-6" cx="253.17" cy="258.83" r="0.22"/><circle class="cls-6" cx="256" cy="261.66" r="0.02"/><circle class="cls-6" cx="258.83" cy="264.49" r="0.29"/><circle class="cls-6" cx="289.94" cy="295.6" r="2.83"/><circle class="cls-6" cx="292.77" cy="298.43" r="2.83"/><circle class="cls-6" cx="295.6" cy="301.25" r="2.83"/><circle class="cls-6" cx="205.09" cy="216.4" r="2.83"/><circle class="cls-6" cx="207.92" cy="219.23" r="2.83"/><circle class="cls-6" cx="210.75" cy="222.06" r="2.83"/><circle class="cls-6" cx="213.57" cy="224.89" r="2.83"/><circle class="cls-6" cx="216.4" cy="227.72" r="2.04"/><circle class="cls-6" cx="219.23" cy="230.54" r="2.24"/><circle class="cls-6" cx="222.06" cy="233.37" r="2.1"/><circle class="cls-6" cx="224.89" cy="236.2" r="1.95"/><circle class="cls-6" cx="227.72" cy="239.03" r="1.95"/><circle class="cls-6" cx="230.54" cy="241.86" r="1.79"/><circle class="cls-6" cx="233.37" cy="244.69" r="1.63"/><circle class="cls-6" cx="236.2" cy="247.51" r="1.22"/><circle class="cls-6" cx="239.03" cy="250.34" r="1.46"/><circle class="cls-6" cx="241.86" cy="253.17" r="1.29"/><circle class="cls-6" cx="244.69" cy="256" r="1.11"/><circle class="cls-6" cx="247.51" cy="258.83" r="1.11"/><circle class="cls-6" cx="250.34" cy="261.66" r="0.93"/><circle class="cls-6" cx="253.17" cy="264.49" r="0.74"/><circle class="cls-6" cx="256" cy="267.31" r="0.29"/><circle class="cls-6" cx="258.83" cy="270.14" r="0.55"/><circle class="cls-6" cx="261.66" cy="272.97" r="0.37"/><circle class="cls-6" cx="267.31" cy="278.63" r="0.17"/><circle class="cls-6" cx="287.11" cy="298.43" r="2.83"/><circle class="cls-6" cx="289.94" cy="301.25" r="2.83"/><circle class="cls-6" cx="205.09" cy="222.06" r="2.83"/><circle class="cls-6" cx="207.92" cy="224.89" r="2.83"/><circle class="cls-6" cx="210.75" cy="227.72" r="2.83"/><circle class="cls-6" cx="213.57" cy="230.54" r="2.55"/><circle class="cls-6" cx="216.4" cy="233.37" r="2.43"/><circle class="cls-6" cx="219.23" cy="236.2" r="2.6"/><circle class="cls-6" cx="222.06" cy="239.03" r="2.3"/><circle class="cls-6" cx="224.89" cy="241.86" r="2.15"/><circle class="cls-6" cx="227.72" cy="244.69" r="2.35"/><circle class="cls-6" cx="230.54" cy="247.51" r="2.01"/><circle class="cls-6" cx="233.37" cy="250.34" r="1.85"/><circle class="cls-6" cx="236.2" cy="253.17" r="1.69"/><circle class="cls-6" cx="239.03" cy="256" r="1.91"/><circle class="cls-6" cx="241.86" cy="258.83" r="1.52"/><circle class="cls-6" cx="244.69" cy="261.66" r="1.35"/><circle class="cls-6" cx="247.51" cy="264.49" r="1.59"/><circle class="cls-6" cx="250.34" cy="267.31" r="1.18"/><circle class="cls-6" cx="253.17" cy="270.14" r="1"/><circle class="cls-6" cx="256" cy="272.97" r="0.81"/><circle class="cls-6" cx="258.83" cy="275.8" r="0.81"/><circle class="cls-6" cx="261.66" cy="278.63" r="0.62"/><circle class="cls-6" cx="264.49" cy="281.46" r="0.43"/><circle class="cls-6" cx="267.31" cy="284.28" r="0.7"/><circle class="cls-6" cx="270.14" cy="287.11" r="0.24"/><circle class="cls-6" cx="272.97" cy="289.94" r="0.04"/><circle class="cls-6" cx="275.8" cy="292.77" r="0.31"/><circle class="cls-6" cx="284.28" cy="301.25" r="2.83"/><circle class="cls-6" cx="205.09" cy="227.72" r="2.83"/><circle class="cls-6" cx="207.92" cy="230.54" r="2.83"/><circle class="cls-6" cx="210.75" cy="233.37" r="2.83"/><circle class="cls-6" cx="213.57" cy="236.2" r="2.82"/><circle class="cls-6" cx="216.4" cy="239.03" r="2.6"/><circle class="cls-6" cx="219.23" cy="241.86" r="2.74"/><circle class="cls-6" cx="222.06" cy="244.69" r="2.64"/><circle class="cls-6" cx="224.89" cy="247.51" r="2.35"/><circle class="cls-6" cx="227.72" cy="250.34" r="2.53"/><circle class="cls-6" cx="230.54" cy="253.17" r="2.4"/><circle class="cls-6" cx="233.37" cy="256" r="2.26"/><circle class="cls-6" cx="236.2" cy="258.83" r="1.91"/><circle class="cls-6" cx="239.03" cy="261.66" r="2.12"/><circle class="cls-6" cx="241.86" cy="264.49" r="1.96"/><circle class="cls-6" cx="244.69" cy="267.31" r="1.59"/><circle class="cls-6" cx="247.51" cy="270.14" r="1.81"/><circle class="cls-6" cx="250.34" cy="272.97" r="1.64"/><circle class="cls-6" cx="253.17" cy="275.8" r="1.24"/><circle class="cls-6" cx="256" cy="278.63" r="1.06"/><circle class="cls-6" cx="258.83" cy="281.46" r="1.31"/><circle class="cls-6" cx="261.66" cy="284.28" r="1.13"/><circle class="cls-6" cx="264.49" cy="287.11" r="0.7"/><circle class="cls-6" cx="267.31" cy="289.94" r="0.94"/><circle class="cls-6" cx="270.14" cy="292.77" r="0.77"/><circle class="cls-6" cx="272.97" cy="295.6" r="0.31"/><circle class="cls-6" cx="275.8" cy="298.43" r="0.58"/><circle class="cls-6" cx="278.63" cy="301.25" r="2.83"/><circle class="cls-6" cx="205.09" cy="233.37" r="2.83"/><circle class="cls-6" cx="207.92" cy="236.2" r="2.83"/><circle class="cls-6" cx="210.75" cy="239.03" r="2.83"/><circle class="cls-6" cx="213.57" cy="241.86" r="2.83"/><circle class="cls-6" cx="216.4" cy="244.69" r="2.83"/><circle class="cls-6" cx="219.23" cy="247.51" r="2.83"/><circle class="cls-6" cx="222.06" cy="250.34" r="2.77"/><circle class="cls-6" cx="224.89" cy="253.17" r="2.68"/><circle class="cls-6" cx="227.72" cy="256" r="2.81"/><circle class="cls-6" cx="230.54" cy="258.83" r="2.57"/><circle class="cls-6" cx="233.37" cy="261.66" r="2.44"/><circle class="cls-6" cx="236.2" cy="264.49" r="2.31"/><circle class="cls-6" cx="239.03" cy="267.31" r="2.31"/><circle class="cls-6" cx="241.86" cy="270.14" r="2.17"/><circle class="cls-6" cx="244.69" cy="272.97" r="2.02"/><circle class="cls-6" cx="247.51" cy="275.8" r="2.02"/><circle class="cls-6" cx="250.34" cy="278.63" r="1.86"/><circle class="cls-6" cx="253.17" cy="281.46" r="1.71"/><circle class="cls-6" cx="256" cy="284.28" r="1.54"/><circle class="cls-6" cx="258.83" cy="287.11" r="1.54"/><circle class="cls-6" cx="261.66" cy="289.94" r="1.36"/><circle class="cls-6" cx="264.49" cy="292.77" r="1.2"/><circle class="cls-6" cx="267.31" cy="295.6" r="1.2"/><circle class="cls-6" cx="270.14" cy="298.43" r="1.01"/><circle class="cls-6" cx="272.97" cy="301.25" r="0.83"/><circle class="cls-6" cx="205.09" cy="239.03" r="2.83"/><circle class="cls-6" cx="207.92" cy="241.86" r="2.83"/><circle class="cls-6" cx="210.75" cy="244.69" r="2.83"/><circle class="cls-6" cx="213.57" cy="247.51" r="2.83"/><circle class="cls-6" cx="216.4" cy="250.34" r="2.83"/><circle class="cls-6" cx="219.23" cy="253.17" r="2.83"/><circle class="cls-6" cx="222.06" cy="256" r="2.83"/><circle class="cls-6" cx="224.89" cy="258.83" r="2.81"/><circle class="cls-6" cx="227.72" cy="261.66" r="2.83"/><circle class="cls-6" cx="230.54" cy="264.49" r="2.83"/><circle class="cls-6" cx="233.37" cy="267.31" r="2.61"/><circle class="cls-6" cx="236.2" cy="270.14" r="2.5"/><circle class="cls-6" cx="239.03" cy="272.97" r="2.65"/><circle class="cls-6" cx="241.86" cy="275.8" r="2.36"/><circle class="cls-6" cx="244.69" cy="278.63" r="2.22"/><circle class="cls-6" cx="247.51" cy="281.46" r="2.41"/><circle class="cls-6" cx="250.34" cy="284.28" r="2.27"/><circle class="cls-6" cx="253.17" cy="287.11" r="1.92"/><circle class="cls-6" cx="256" cy="289.94" r="1.76"/><circle class="cls-6" cx="258.83" cy="292.77" r="1.99"/><circle class="cls-6" cx="261.66" cy="295.6" r="1.6"/><circle class="cls-6" cx="264.49" cy="298.43" r="1.43"/><circle class="cls-6" cx="267.31" cy="301.25" r="1.66"/><circle class="cls-6" cx="205.09" cy="244.69" r="2.83"/><circle class="cls-6" cx="207.92" cy="247.51" r="2.83"/><circle class="cls-6" cx="210.75" cy="250.34" r="2.83"/><circle class="cls-6" cx="213.57" cy="253.17" r="2.83"/><circle class="cls-6" cx="216.4" cy="256" r="2.83"/><circle class="cls-6" cx="219.23" cy="258.83" r="2.83"/><circle class="cls-6" cx="222.06" cy="261.66" r="2.83"/><circle class="cls-6" cx="224.89" cy="264.49" r="2.83"/><circle class="cls-6" cx="227.72" cy="267.31" r="2.83"/><circle class="cls-6" cx="230.54" cy="270.14" r="2.83"/><circle class="cls-6" cx="233.37" cy="272.97" r="2.83"/><circle class="cls-6" cx="236.2" cy="275.8" r="2.65"/><circle class="cls-6" cx="239.03" cy="278.63" r="2.78"/><circle class="cls-6" cx="241.86" cy="281.46" r="2.7"/><circle class="cls-6" cx="244.69" cy="284.28" r="2.58"/><circle class="cls-6" cx="247.51" cy="287.11" r="2.58"/><circle class="cls-6" cx="250.34" cy="289.94" r="2.46"/><circle class="cls-6" cx="253.17" cy="292.77" r="2.33"/><circle class="cls-6" cx="256" cy="295.6" r="1.99"/><circle class="cls-6" cx="258.83" cy="298.43" r="2.19"/><circle class="cls-6" cx="261.66" cy="301.25" r="2.04"/><circle class="cls-6" cx="205.09" cy="250.34" r="2.83"/><circle class="cls-6" cx="207.92" cy="253.17" r="2.83"/><circle class="cls-6" cx="210.75" cy="256" r="2.83"/><circle class="cls-6" cx="213.57" cy="258.83" r="2.83"/><circle class="cls-6" cx="216.4" cy="261.66" r="2.83"/><circle class="cls-6" cx="219.23" cy="264.49" r="2.83"/><circle class="cls-6" cx="222.06" cy="267.31" r="2.83"/><circle class="cls-6" cx="224.89" cy="270.14" r="2.83"/><circle class="cls-6" cx="227.72" cy="272.97" r="2.83"/><circle class="cls-6" cx="230.54" cy="275.8" r="2.83"/><circle class="cls-6" cx="233.37" cy="278.63" r="2.83"/><circle class="cls-6" cx="236.2" cy="281.46" r="2.83"/><circle class="cls-6" cx="239.03" cy="284.28" r="2.83"/><circle class="cls-6" cx="241.86" cy="287.11" r="2.81"/><circle class="cls-6" cx="244.69" cy="289.94" r="2.73"/><circle class="cls-6" cx="247.51" cy="292.77" r="2.83"/><circle class="cls-6" cx="250.34" cy="295.6" r="2.63"/><circle class="cls-6" cx="253.17" cy="298.43" r="2.51"/><circle class="cls-6" cx="256" cy="301.25" r="2.37"/><circle class="cls-6" cx="205.09" cy="256" r="2.83"/><circle class="cls-6" cx="207.92" cy="258.83" r="2.83"/><circle class="cls-6" cx="210.75" cy="261.66" r="2.83"/><circle class="cls-6" cx="213.57" cy="264.49" r="2.83"/><circle class="cls-6" cx="216.4" cy="267.31" r="2.83"/><circle class="cls-6" cx="219.23" cy="270.14" r="2.83"/><circle class="cls-6" cx="222.06" cy="272.97" r="2.83"/><circle class="cls-6" cx="224.89" cy="275.8" r="2.83"/><circle class="cls-6" cx="227.72" cy="278.63" r="2.83"/><circle class="cls-6" cx="230.54" cy="281.46" r="2.83"/><circle class="cls-6" cx="233.37" cy="284.28" r="2.83"/><circle class="cls-6" cx="236.2" cy="287.11" r="2.83"/><circle class="cls-6" cx="239.03" cy="289.94" r="2.83"/><circle class="cls-6" cx="241.86" cy="292.77" r="2.83"/><circle class="cls-6" cx="244.69" cy="295.6" r="2.83"/><circle class="cls-6" cx="247.51" cy="298.43" r="2.83"/><circle class="cls-6" cx="250.34" cy="301.25" r="2.83"/><circle class="cls-6" cx="205.09" cy="261.66" r="2.83"/><circle class="cls-6" cx="207.92" cy="264.49" r="2.83"/><circle class="cls-6" cx="210.75" cy="267.31" r="2.83"/><circle class="cls-6" cx="213.57" cy="270.14" r="2.83"/><circle class="cls-6" cx="216.4" cy="272.97" r="2.83"/><circle class="cls-6" cx="219.23" cy="275.8" r="2.83"/><circle class="cls-6" cx="222.06" cy="278.63" r="2.83"/><circle class="cls-6" cx="224.89" cy="281.46" r="2.83"/><circle class="cls-6" cx="227.72" cy="284.28" r="2.83"/><circle class="cls-6" cx="230.54" cy="287.11" r="2.83"/><circle class="cls-6" cx="233.37" cy="289.94" r="2.83"/><circle class="cls-6" cx="236.2" cy="292.77" r="2.83"/><circle class="cls-6" cx="239.03" cy="295.6" r="2.83"/><circle class="cls-6" cx="241.86" cy="298.43" r="2.83"/><circle class="cls-6" cx="244.69" cy="301.25" r="2.83"/><circle class="cls-6" cx="205.09" cy="267.31" r="2.83"/><circle class="cls-6" cx="207.92" cy="270.14" r="2.83"/><circle class="cls-6" cx="210.75" cy="272.97" r="2.83"/><circle class="cls-6" cx="213.57" cy="275.8" r="2.83"/><circle class="cls-6" cx="216.4" cy="278.63" r="2.83"/><circle class="cls-6" cx="219.23" cy="281.46" r="2.83"/><circle class="cls-6" cx="222.06" cy="284.28" r="2.83"/><circle class="cls-6" cx="224.89" cy="287.11" r="2.83"/><circle class="cls-6" cx="227.72" cy="289.94" r="2.83"/><circle class="cls-6" cx="230.54" cy="292.77" r="2.83"/><circle class="cls-6" cx="233.37" cy="295.6" r="2.83"/><circle class="cls-6" cx="236.2" cy="298.43" r="2.83"/><circle class="cls-6" cx="239.03" cy="301.25" r="2.83"/><circle class="cls-6" cx="205.09" cy="272.97" r="2.83"/><circle class="cls-6" cx="207.92" cy="275.8" r="2.83"/><circle class="cls-6" cx="210.75" cy="278.63" r="2.83"/><circle class="cls-6" cx="213.57" cy="281.46" r="2.83"/><circle class="cls-6" cx="216.4" cy="284.28" r="2.83"/><circle class="cls-6" cx="219.23" cy="287.11" r="2.83"/><circle class="cls-6" cx="222.06" cy="289.94" r="2.83"/><circle class="cls-6" cx="224.89" cy="292.77" r="2.83"/><circle class="cls-6" cx="227.72" cy="295.6" r="2.83"/><circle class="cls-6" cx="230.54" cy="298.43" r="2.83"/><circle class="cls-6" cx="233.37" cy="301.25" r="2.83"/><circle class="cls-6" cx="205.09" cy="278.63" r="2.83"/><circle class="cls-6" cx="207.92" cy="281.46" r="2.83"/><circle class="cls-6" cx="210.75" cy="284.28" r="2.83"/><circle class="cls-6" cx="213.57" cy="287.11" r="2.83"/><circle class="cls-6" cx="216.4" cy="289.94" r="2.83"/><circle class="cls-6" cx="219.23" cy="292.77" r="2.83"/><circle class="cls-6" cx="222.06" cy="295.6" r="2.83"/><circle class="cls-6" cx="224.89" cy="298.43" r="2.83"/><circle class="cls-6" cx="227.72" cy="301.25" r="2.83"/><circle class="cls-6" cx="205.09" cy="284.28" r="2.83"/><circle class="cls-6" cx="207.92" cy="287.11" r="2.83"/><circle class="cls-6" cx="210.75" cy="289.94" r="2.83"/><circle class="cls-6" cx="213.57" cy="292.77" r="2.83"/><circle class="cls-6" cx="216.4" cy="295.6" r="2.83"/><circle class="cls-6" cx="219.23" cy="298.43" r="2.83"/><circle class="cls-6" cx="222.06" cy="301.25" r="2.83"/><circle class="cls-6" cx="205.09" cy="289.94" r="2.83"/><circle class="cls-6" cx="207.92" cy="292.77" r="2.83"/><circle class="cls-6" cx="210.75" cy="295.6" r="2.83"/><circle class="cls-6" cx="213.57" cy="298.43" r="2.83"/><circle class="cls-6" cx="216.4" cy="301.25" r="2.83"/><circle class="cls-6" cx="205.09" cy="295.6" r="2.83"/><circle class="cls-6" cx="207.92" cy="298.43" r="2.83"/><circle class="cls-6" cx="210.75" cy="301.25" r="2.83"/><circle class="cls-6" cx="205.09" cy="301.25" r="2.83"/></g><g class="cls-11"><path class="cls-12" d="M237.63,231.4a6.9,6.9,0,0,0-2.76,6.92c.38,2.12,1.83,4.19,3.94,4.62.65.13,1.48.21,1.7.83A1.26,1.26,0,0,1,240,245a12.39,12.39,0,0,0-1.13.9,1.9,1.9,0,0,0,.29,2.68,8.65,8.65,0,0,0,1.68.71c.56.26,1.08.81.94,1.4a3.66,3.66,0,0,1-.37.74.67.67,0,0,0,.07.77.7.7,0,0,0,.47.11,2.11,2.11,0,0,0,1.49-3.49c.39-.1.8-.08,1.18-.21a1.66,1.66,0,0,0,.73-2.48c-.18-.24-.46-.54-.29-.79a.69.69,0,0,1,.3-.2,7.45,7.45,0,0,0,2.82-1.85,7,7,0,0,0,1.11-1.82,9.45,9.45,0,0,0,.63-5.81,7,7,0,0,0-3.47-4.6A9.39,9.39,0,0,0,237.63,231.4Z"/><path class="cls-12" d="M300.67,275.53,280.3,245a7.59,7.59,0,0,0-4.45-3.14l-18.22-4.59a2.78,2.78,0,0,0-3.38,2.09h0a2.77,2.77,0,0,0,1.95,3.25L273,247.38l1.12,33.21a6.32,6.32,0,0,0,6.31,6.1H283l5.16,6.16S296.5,288.69,300.67,275.53Z"/><path class="cls-12" d="M263.52,261.54l-4.83,2.15a12.07,12.07,0,0,0-4.49,3.45h0a3.11,3.11,0,0,0,.11,4h0a3.12,3.12,0,0,0,3.63.71l4.92-2.35Z"/><path class="cls-12" d="M262.86,269.53l-3,2.71a3.59,3.59,0,0,0-.65,4.57h0a3.59,3.59,0,0,0,4.33,1.48l3.64-1.37Z"/><rect class="cls-13" x="257.11" y="240.6" width="24.16" height="39.4" rx="2" transform="translate(-84.92 138.54) rotate(-25.06)"/><rect class="cls-10" x="258.17" y="243.23" width="20.32" height="30.46" transform="translate(-84.22 138) rotate(-25.06)"/><polygon class="cls-12" points="259.7 263.98 252.68 248.97 268.18 241.72 271.08 240.36 259.7 263.98"/><path class="cls-12" d="M288.33,264.22l-6.66-.89a23.45,23.45,0,0,0-8.14.32h0a3.33,3.33,0,0,0-2.61,3.24h0a3.33,3.33,0,0,0,2.14,3.1l15.76,6S294.38,269.66,288.33,264.22Z"/><polygon class="cls-12" points="236 268 205 268 205 244 227 244 236 254 236 268"/><polygon class="cls-12" points="247 268 232 268 232 251 247 255 247 268"/><path class="cls-10" d="M220,246l-.86,6.88a1,1,0,0,0,1,1.12H230.8a1,1,0,0,0,.75-1.66L226,246Z"/><path class="cls-10" d="M218,246l-.89,7.12a1,1,0,0,1-1,.88h-6a1,1,0,0,1-1-1.12L210,246Z"/><path class="cls-14" d="M217,256v9"/><line class="cls-14" x1="236.5" y1="254.5" x2="244.5" y2="256.5"/><path class="cls-6" d="M243.5,264a1.5,1.5,0,0,1,0-3h3.43l.07,3Z"/><circle class="cls-13" cx="231.5" cy="267.5" r="5.5"/><circle class="cls-12" cx="231.5" cy="267.5" r="2.5"/><line class="cls-14" x1="219.5" y1="257.5" x2="222.5" y2="257.5"/><path class="cls-15" d="M240.73,239.73a2.52,2.52,0,0,1,3.54,0"/><circle class="cls-6" cx="240" cy="236" r="1"/><circle class="cls-6" cx="245" cy="236" r="1"/></g><g class="cls-16"><path class="cls-10" d="M256,210a46,46,0,1,1-46,46,46.06,46.06,0,0,1,46-46m0-2a48,48,0,1,0,48,48,48,48,0,0,0-48-48Z"/></g><g class="cls-17"><path class="cls-10" d="M256,210a46,46,0,1,1-46,46,46.06,46.06,0,0,1,46-46m0-2a48,48,0,1,0,48,48,48,48,0,0,0-48-48Z"/></g><circle class="cls-18" cx="256" cy="256" r="56"/></g></svg>