<svg xmlns="http://www.w3.org/2000/svg" xmlns:xlink="http://www.w3.org/1999/xlink" viewBox="0 0 512 512"><defs><style>.cls-1,.cls-10,.cls-11,.cls-16,.cls-19,.cls-2,.cls-20,.cls-21,.cls-3{fill:none;}.cls-10,.cls-12,.cls-2{stroke:#c1c1ca;}.cls-19,.cls-2,.cls-20{stroke-linecap:round;}.cls-10,.cls-11,.cls-12,.cls-16,.cls-19,.cls-2,.cls-20,.cls-3{stroke-miterlimit:10;}.cls-12,.cls-19,.cls-2,.cls-20{stroke-width:2px;}.cls-20,.cls-3{stroke:#e6e6ea;}.cls-4{fill:url(#linear-gradient);}.cls-5{fill:#32c2cc;}.cls-6{fill:url(#linear-gradient-2);}.cls-7{fill:url(#linear-gradient-3);}.cls-8{fill:url(#linear-gradient-4);}.cls-9{fill:url(#linear-gradient-5);}.cls-10{stroke-width:16px;}.cls-11{stroke:#fff;stroke-width:12px;}.cls-12,.cls-17{fill:#fff;}.cls-13{fill:#fe6f66;}.cls-14{clip-path:url(#clip-path);}.cls-15{fill:#00084e;}.cls-16,.cls-21{stroke:#00084e;stroke-width:7px;}.cls-18{clip-path:url(#clip-path-2);}.cls-19{stroke:#32c2cc;}.cls-21{stroke-linejoin:bevel;}</style><linearGradient id="linear-gradient" x1="-519.5" y1="-1373.5" x2="-519.5" y2="-1398.5" gradientTransform="matrix(1, 0, 0, -1, 967.5, -1173.5)" gradientUnits="userSpaceOnUse"><stop offset="0.02" stop-color="#32c2cc"/><stop offset="0.06" stop-color="#3ec4ce"/><stop offset="0.31" stop-color="#86d3da"/><stop offset="0.51" stop-color="#badde3"/><stop offset="0.67" stop-color="#dae4e8"/><stop offset="0.75" stop-color="#e6e6ea"/></linearGradient><linearGradient id="linear-gradient-2" x1="-231.5" y1="-1411.5" x2="-231.5" y2="-1436.5" gradientTransform="matrix(1, 0, 0, -1, 391.5, -1249.5)" gradientUnits="userSpaceOnUse"><stop offset="0.02" stop-color="#fe6f66"/><stop offset="0.19" stop-color="#f7908a"/><stop offset="0.45" stop-color="#eebebe"/><stop offset="0.64" stop-color="#e8dbde"/><stop offset="0.75" stop-color="#e6e6ea"/></linearGradient><linearGradient id="linear-gradient-3" x1="-1228.5" y1="-1052.5" x2="-1228.5" y2="-1087.5" gradientTransform="matrix(1, 0, 0, -1, 1588, -734)" xlink:href="#linear-gradient"/><linearGradient id="linear-gradient-4" x1="-1468.5" y1="-1372.5" x2="-1468.5" y2="-1407.5" gradientTransform="matrix(1, 0, 0, -1, 1508, -1294)" xlink:href="#linear-gradient"/><linearGradient id="linear-gradient-5" x1="-1487.5" y1="-84.5" x2="-1487.5" y2="-129.5" gradientTransform="matrix(1, 0, 0, -1, 1839.5, 238.5)" gradientUnits="userSpaceOnUse"><stop offset="0.25" stop-color="#e6e6ea"/><stop offset="0.66" stop-color="#f2f2f4"/><stop offset="0.98" stop-color="#fff"/></linearGradient><clipPath id="clip-path"><path class="cls-1" d="M299.69,236.66l-8.45-10a4,4,0,0,1-.93-2.92l1.1-13a4,4,0,0,0-3.65-4.33l-13-1.09a4,4,0,0,1-2.73-1.41l-8.44-10a4,4,0,0,0-5.64-.47l-10,8.44a4,4,0,0,1-2.91.93L232,201.69a4,4,0,0,0-4.32,3.65l-1.1,13a4,4,0,0,1-1.4,2.72l-10,8.45a4,4,0,0,0-1.4,2.72l86.89,7.31A4,4,0,0,0,299.69,236.66Z"/></clipPath><clipPath id="clip-path-2"><path class="cls-1" d="M222.83,284.08a4,4,0,0,1,1.17,2.83V300a4,4,0,0,0,4,4h13.09a4,4,0,0,1,2.83,1.17l9.25,9.26a4,4,0,0,0,5.66,0l9.25-9.26a4,4,0,0,1,2.83-1.17H284a4,4,0,0,0,4-4V286.91a4,4,0,0,1,1.17-2.83l9.26-9.25A4,4,0,0,0,299.6,272H212.4a4,4,0,0,0,1.17,2.83Z"/></clipPath></defs><title>fraud-illustration-vector-01</title><g id="Layer_4" data-name="Layer 4"><path class="cls-2" d="M230.28,266.06A40,40,0,0,1,157,256.41"/><polyline class="cls-3" points="512 160 448 160 448 256 160 256 160 0"/><polyline class="cls-3" points="32 0 32 224 0 224"/><polyline class="cls-3" points="0 96 288 96 288 192 416 192 416 304 512 304"/><polyline class="cls-3" points="512 336 112 336 112 160 0 160"/><rect class="cls-4" x="447.5" y="200" width="1" height="25" transform="translate(896 425) rotate(-180)"/><circle class="cls-5" cx="448" cy="232" r="8"/><rect class="cls-6" x="159.5" y="162" width="1" height="25" transform="translate(320 349) rotate(-180)"/><rect class="cls-7" x="359" y="318.5" width="1" height="35" transform="translate(695.5 -23.5) rotate(90)"/><circle class="cls-5" cx="384" cy="336" r="8"/><rect class="cls-8" x="39" y="78.5" width="1" height="35" transform="translate(135.5 56.5) rotate(90)"/><circle class="cls-5" cx="64" cy="96" r="8"/><polyline class="cls-3" points="288 0 288 64 512 64"/><polyline class="cls-3" points="512 128 352 128 352 368"/><rect class="cls-9" x="351.5" y="323" width="1" height="45"/><path class="cls-10" d="M256.38,163.38v-72a24,24,0,0,1,24-24h0a24,24,0,0,0,24-24V0"/><path class="cls-11" d="M256.38,163.38v-72a24,24,0,0,1,24-24h0a24,24,0,0,0,24-24V0"/><path class="cls-2" d="M256,165.38a40,40,0,0,1,37.52,63.69"/><path class="cls-2" d="M218.46,229.07A40,40,0,0,1,256,165.38"/><circle class="cls-12" cx="256.38" cy="163.38" r="15"/><circle class="cls-12" cx="256.38" cy="163.38" r="6"/><path class="cls-10" d="M354.83,305.59H368a40,40,0,0,0,40-40V136.5a40,40,0,0,1,40-40h64"/><path class="cls-11" d="M354.83,305.59H368a40,40,0,0,0,40-40V136.5a40,40,0,0,1,40-40h64"/><path class="cls-2" d="M351.14,304.54a40,40,0,0,1-73.91-.3"/><path class="cls-2" d="M284.85,271.91a40,40,0,0,1,66.3,32.68"/><circle class="cls-12" cx="352.9" cy="305.59" r="15"/><circle class="cls-12" cx="352.9" cy="305.59" r="6"/><path class="cls-13" d="M299.69,236.66l-8.45-10a4,4,0,0,1-.93-2.92l1.1-13a4,4,0,0,0-3.65-4.33l-13-1.09a4,4,0,0,1-2.73-1.41l-8.44-10a4,4,0,0,0-5.64-.47l-10,8.44a4,4,0,0,1-2.91.93L232,201.69a4,4,0,0,0-4.32,3.65l-1.1,13a4,4,0,0,1-1.4,2.72l-10,8.45a4,4,0,0,0-1.4,2.72l86.89,7.31A4,4,0,0,0,299.69,236.66Z"/><g class="cls-14"><circle class="cls-5" cx="299.6" cy="190.57" r="2.26"/><circle class="cls-5" cx="293.95" cy="190.57" r="2.26"/><circle class="cls-5" cx="296.78" cy="193.39" r="2.26"/><circle class="cls-5" cx="299.6" cy="196.22" r="2.26"/><circle class="cls-5" cx="288.29" cy="190.57" r="2.26"/><circle class="cls-5" cx="291.12" cy="193.39" r="2.26"/><circle class="cls-5" cx="293.95" cy="196.22" r="2.26"/><circle class="cls-5" cx="296.78" cy="199.05" r="2.26"/><circle class="cls-5" cx="299.6" cy="201.88" r="2.26"/><circle class="cls-5" cx="282.63" cy="190.57" r="2.26"/><circle class="cls-5" cx="285.46" cy="193.39" r="2.26"/><circle class="cls-5" cx="288.29" cy="196.22" r="2.26"/><circle class="cls-5" cx="291.12" cy="199.05" r="2.26"/><circle class="cls-5" cx="293.95" cy="201.88" r="2.26"/><circle class="cls-5" cx="296.78" cy="204.71" r="2.26"/><circle class="cls-5" cx="299.6" cy="207.54" r="2.26"/><circle class="cls-5" cx="276.98" cy="190.57" r="2.26"/><circle class="cls-5" cx="279.81" cy="193.39" r="2.26"/><circle class="cls-5" cx="282.63" cy="196.22" r="2.26"/><circle class="cls-5" cx="285.46" cy="199.05" r="2.26"/><circle class="cls-5" cx="288.29" cy="201.88" r="2.26"/><circle class="cls-5" cx="291.12" cy="204.71" r="2.26"/><circle class="cls-5" cx="293.95" cy="207.54" r="2.26"/><circle class="cls-5" cx="296.78" cy="210.37" r="2.26"/><circle class="cls-5" cx="299.6" cy="213.19" r="2.26"/><circle class="cls-5" cx="271.32" cy="190.57" r="2.26"/><circle class="cls-5" cx="274.15" cy="193.39" r="2.26"/><circle class="cls-5" cx="276.98" cy="196.22" r="2.26"/><circle class="cls-5" cx="279.81" cy="199.05" r="2.26"/><circle class="cls-5" cx="282.63" cy="201.88" r="2.26"/><circle class="cls-5" cx="293.95" cy="213.19" r="2.26"/><circle class="cls-5" cx="296.78" cy="216.02" r="2.26"/><circle class="cls-5" cx="299.6" cy="218.85" r="2.26"/><circle class="cls-5" cx="265.66" cy="190.57" r="1.26"/><circle class="cls-5" cx="268.49" cy="193.39" r="0.95"/><circle class="cls-5" cx="271.32" cy="196.22" r="2.26"/><circle class="cls-5" cx="274.15" cy="199.05" r="2.26"/><circle class="cls-5" cx="276.98" cy="201.88" r="2.26"/><circle class="cls-5" cx="293.95" cy="218.85" r="2.26"/><circle class="cls-5" cx="296.78" cy="221.68" r="2.26"/><circle class="cls-5" cx="299.6" cy="224.51" r="2.26"/><circle class="cls-5" cx="260.01" cy="190.57" r="1.59"/><circle class="cls-5" cx="262.84" cy="193.39" r="1.26"/><circle class="cls-5" cx="265.66" cy="196.22" r="1.26"/><circle class="cls-5" cx="268.49" cy="199.05" r="0.51"/><circle class="cls-5" cx="271.32" cy="201.88" r="0.01"/><circle class="cls-5" cx="293.95" cy="224.51" r="2.26"/><circle class="cls-5" cx="296.78" cy="227.34" r="2.26"/><circle class="cls-5" cx="299.6" cy="230.16" r="2.26"/><circle class="cls-5" cx="254.35" cy="190.57" r="1.93"/><circle class="cls-5" cx="257.18" cy="193.39" r="1.93"/><circle class="cls-5" cx="260.01" cy="196.22" r="1.59"/><circle class="cls-5" cx="262.84" cy="199.05" r="0.79"/><circle class="cls-5" cx="265.66" cy="201.88" r="0.38"/><circle class="cls-5" cx="248.69" cy="190.57" r="2.26"/><circle class="cls-5" cx="251.52" cy="193.39" r="2.26"/><circle class="cls-5" cx="254.35" cy="196.22" r="1.93"/><circle class="cls-5" cx="257.18" cy="199.05" r="1.39"/><circle class="cls-5" cx="260.01" cy="201.88" r="0.63"/><circle class="cls-5" cx="262.84" cy="204.71" r="0.07"/><circle class="cls-5" cx="265.66" cy="207.54" r="0.07"/><circle class="cls-5" cx="243.04" cy="190.57" r="2.26"/><circle class="cls-5" cx="245.86" cy="193.39" r="2.26"/><circle class="cls-5" cx="248.69" cy="196.22" r="2.26"/><circle class="cls-5" cx="251.52" cy="199.05" r="1.73"/><circle class="cls-5" cx="254.35" cy="201.88" r="0.91"/><circle class="cls-5" cx="257.18" cy="204.71" r="0.48"/><circle class="cls-5" cx="260.01" cy="207.54" r="0.25"/><circle class="cls-5" cx="237.38" cy="190.57" r="2.26"/><circle class="cls-5" cx="240.21" cy="193.39" r="2.26"/><circle class="cls-5" cx="243.04" cy="196.22" r="2.26"/><circle class="cls-5" cx="245.86" cy="199.05" r="2.09"/><circle class="cls-5" cx="248.69" cy="201.88" r="1.54"/><circle class="cls-5" cx="251.52" cy="204.71" r="0.75"/><circle class="cls-5" cx="254.35" cy="207.54" r="0.48"/><circle class="cls-5" cx="257.18" cy="210.37" r="0.13"/><circle class="cls-5" cx="231.72" cy="190.57" r="2.26"/><circle class="cls-5" cx="234.55" cy="193.39" r="2.26"/><circle class="cls-5" cx="237.38" cy="196.22" r="2.26"/><circle class="cls-5" cx="240.21" cy="199.05" r="2.26"/><circle class="cls-5" cx="243.04" cy="201.88" r="1.88"/><circle class="cls-5" cx="245.86" cy="204.71" r="1.03"/><circle class="cls-5" cx="248.69" cy="207.54" r="1.03"/><circle class="cls-5" cx="251.52" cy="210.37" r="0.35"/><circle class="cls-5" cx="226.07" cy="190.57" r="2.26"/><circle class="cls-5" cx="228.89" cy="193.39" r="2.26"/><circle class="cls-5" cx="231.72" cy="196.22" r="2.26"/><circle class="cls-5" cx="234.55" cy="199.05" r="2.26"/><circle class="cls-5" cx="237.38" cy="201.88" r="2.26"/><circle class="cls-5" cx="240.21" cy="204.71" r="1.68"/><circle class="cls-5" cx="243.04" cy="207.54" r="1.35"/><circle class="cls-5" cx="245.86" cy="210.37" r="0.59"/><circle class="cls-5" cx="248.69" cy="213.19" r="0.21"/><circle class="cls-5" cx="251.52" cy="216.02" r="0.04"/><circle class="cls-5" cx="220.41" cy="190.57" r="2.26"/><circle class="cls-5" cx="223.24" cy="193.39" r="2.26"/><circle class="cls-5" cx="226.07" cy="196.22" r="2.26"/><circle class="cls-5" cx="228.89" cy="199.05" r="2.26"/><circle class="cls-5" cx="231.72" cy="201.88" r="2.26"/><circle class="cls-5" cx="234.55" cy="204.71" r="2.03"/><circle class="cls-5" cx="237.38" cy="207.54" r="2.03"/><circle class="cls-5" cx="240.21" cy="210.37" r="1.16"/><circle class="cls-5" cx="243.04" cy="213.19" r="0.44"/><circle class="cls-5" cx="245.86" cy="216.02" r="0.21"/><circle class="cls-5" cx="214.75" cy="190.57" r="2.26"/><circle class="cls-5" cx="217.58" cy="193.39" r="2.26"/><circle class="cls-5" cx="220.41" cy="196.22" r="2.26"/><circle class="cls-5" cx="223.24" cy="199.05" r="2.26"/><circle class="cls-5" cx="226.07" cy="201.88" r="2.26"/><circle class="cls-5" cx="228.89" cy="204.71" r="2.26"/><circle class="cls-5" cx="231.72" cy="207.54" r="2.26"/><circle class="cls-5" cx="234.55" cy="210.37" r="1.48"/><circle class="cls-5" cx="237.38" cy="213.19" r="0.98"/><circle class="cls-5" cx="240.21" cy="216.02" r="0.7"/><circle class="cls-5" cx="243.04" cy="218.85" r="0.11"/><circle class="cls-5" cx="211.92" cy="193.39" r="2.26"/><circle class="cls-5" cx="214.75" cy="196.22" r="2.26"/><circle class="cls-5" cx="217.58" cy="199.05" r="2.26"/><circle class="cls-5" cx="220.41" cy="201.88" r="2.26"/><circle class="cls-5" cx="223.24" cy="204.71" r="2.26"/><circle class="cls-5" cx="226.07" cy="207.54" r="2.26"/><circle class="cls-5" cx="228.89" cy="210.37" r="2.18"/><circle class="cls-5" cx="231.72" cy="213.19" r="1.3"/><circle class="cls-5" cx="234.55" cy="216.02" r="0.98"/><circle class="cls-5" cx="237.38" cy="218.85" r="0.55"/><circle class="cls-5" cx="240.21" cy="221.68" r="0.03"/><circle class="cls-5" cx="257.18" cy="238.65" r="2.26"/><circle class="cls-5" cx="211.92" cy="199.05" r="2.26"/><circle class="cls-5" cx="214.75" cy="201.88" r="2.26"/><circle class="cls-5" cx="217.58" cy="204.71" r="2.26"/><circle class="cls-5" cx="220.41" cy="207.54" r="2.26"/><circle class="cls-5" cx="223.24" cy="210.37" r="2.26"/><circle class="cls-5" cx="226.07" cy="213.19" r="1.62"/><circle class="cls-5" cx="228.89" cy="216.02" r="1.62"/><circle class="cls-5" cx="231.72" cy="218.85" r="0.82"/><circle class="cls-5" cx="234.55" cy="221.68" r="0.19"/><circle class="cls-5" cx="251.52" cy="238.65" r="2.26"/><circle class="cls-5" cx="211.92" cy="204.71" r="2.26"/><circle class="cls-5" cx="214.75" cy="207.54" r="2.26"/><circle class="cls-5" cx="217.58" cy="210.37" r="2.26"/><circle class="cls-5" cx="220.41" cy="213.19" r="2.26"/><circle class="cls-5" cx="223.24" cy="216.02" r="2.26"/><circle class="cls-5" cx="226.07" cy="218.85" r="1.12"/><circle class="cls-5" cx="228.89" cy="221.68" r="0.66"/><circle class="cls-5" cx="231.72" cy="224.51" r="0.08"/><circle class="cls-5" cx="245.86" cy="238.65" r="2.26"/><circle class="cls-5" cx="211.92" cy="210.37" r="2.26"/><circle class="cls-5" cx="214.75" cy="213.19" r="2.26"/><circle class="cls-5" cx="217.58" cy="216.02" r="2.26"/><circle class="cls-5" cx="220.41" cy="218.85" r="2.26"/><circle class="cls-5" cx="223.24" cy="221.68" r="0.94"/><circle class="cls-5" cx="226.07" cy="224.51" r="0.28"/><circle class="cls-5" cx="228.89" cy="227.34" r="0.28"/><circle class="cls-5" cx="240.21" cy="238.65" r="2.26"/><circle class="cls-5" cx="211.92" cy="216.02" r="2.26"/><circle class="cls-5" cx="214.75" cy="218.85" r="2.26"/><circle class="cls-5" cx="217.58" cy="221.68" r="2.26"/><circle class="cls-5" cx="220.41" cy="224.51" r="0.77"/><circle class="cls-5" cx="223.24" cy="227.34" r="0.51"/><circle class="cls-5" cx="226.07" cy="230.16" r="0.01"/><circle class="cls-5" cx="234.55" cy="238.65" r="2.26"/><circle class="cls-5" cx="211.92" cy="221.68" r="2.26"/><circle class="cls-5" cx="214.75" cy="224.51" r="1.06"/><circle class="cls-5" cx="217.58" cy="227.34" r="1.06"/><circle class="cls-5" cx="220.41" cy="230.16" r="0.36"/><circle class="cls-5" cx="228.89" cy="238.65" r="2.26"/><circle class="cls-5" cx="211.92" cy="227.34" r="1.06"/><circle class="cls-5" cx="214.75" cy="230.16" r="0.61"/><circle class="cls-5" cx="217.58" cy="232.99" r="0.24"/><circle class="cls-5" cx="220.41" cy="235.82" r="0.06"/><circle class="cls-5" cx="223.24" cy="238.65" r="2.26"/><circle class="cls-5" cx="211.92" cy="232.99" r="0.24"/><circle class="cls-5" cx="214.75" cy="235.82" r="0.24"/><circle class="cls-5" cx="217.58" cy="238.65" r="2.26"/><circle class="cls-5" cx="211.92" cy="238.65" r="2.26"/></g><polygon class="cls-15" points="267 272 242 272 242 263 270 263 267 272"/><polyline class="cls-16" points="278 260 279.48 271 262 271"/><polygon class="cls-15" points="265 264 260 265 256 268 253 265 247 264 247 260 265 260 265 264"/><polygon class="cls-15" points="270 260 242 260 242 258 247.86 256 264.14 256 270 258 270 260"/><polygon class="cls-15" points="250 248 247.86 256 258.86 256 254 248 250 248"/><polygon class="cls-15" points="262 248 256 248 249.14 256 264.14 256 262 248"/><circle class="cls-17" cx="252" cy="262" r="2"/><circle class="cls-17" cx="258" cy="262" r="2"/><path class="cls-13" d="M222.83,284.08a4,4,0,0,1,1.17,2.83V300a4,4,0,0,0,4,4h13.09a4,4,0,0,1,2.83,1.17l9.25,9.26a4,4,0,0,0,5.66,0l9.25-9.26a4,4,0,0,1,2.83-1.17H284a4,4,0,0,0,4-4V286.91a4,4,0,0,1,1.17-2.83l9.26-9.25A4,4,0,0,0,299.6,272H212.4a4,4,0,0,0,1.17,2.83Z"/><circle class="cls-15" cx="221.83" cy="262.61" r="3.87"/><circle class="cls-15" cx="277.86" cy="258.47" r="3.87"/><path class="cls-13" d="M168.59,194.73l1.31-1.32a2,2,0,0,0,0-2.82l-1.31-1.32a2,2,0,0,1-.59-1.41V186a2,2,0,0,0-2-2h-1.86a2,2,0,0,1-1.41-.59l-1.32-1.31a2,2,0,0,0-2.82,0l-1.32,1.31a2,2,0,0,1-1.41.59H154a2,2,0,0,0-2,2v1.86a2,2,0,0,1-.59,1.41l-1.31,1.32a2,2,0,0,0,0,2.82l1.31,1.32a2,2,0,0,1,.59,1.41V198a2,2,0,0,0,2,2h1.86a2,2,0,0,1,1.41.59l1.32,1.31a2,2,0,0,0,2.82,0l1.32-1.31a2,2,0,0,1,1.41-.59H166a2,2,0,0,0,2-2v-1.86A2,2,0,0,1,168.59,194.73Z"/><path class="cls-10" d="M155,256H120a40,40,0,0,1-40-40V184a40,40,0,0,0-40-40H0"/><path class="cls-11" d="M155,256H120a40,40,0,0,1-40-40V184a40,40,0,0,0-40-40H0"/><path class="cls-2" d="M156.94,256.41a40,40,0,0,1,73.88,1.93"/><circle class="cls-12" cx="155" cy="256" r="15"/><circle class="cls-12" cx="155" cy="256" r="6"/><g class="cls-18"><path class="cls-19" d="M230.19,272C229,289,221,296,221,296"/><path class="cls-20" d="M230.28,266.06A40,40,0,0,1,157,256.41"/></g><polyline class="cls-21" points="252.51 268.24 236.5 262.5 224.5 262.5"/></g></svg>