<svg xmlns="http://www.w3.org/2000/svg" xmlns:xlink="http://www.w3.org/1999/xlink" viewBox="0 0 512 512"><defs><style>.cls-1,.cls-10,.cls-11,.cls-12,.cls-2{fill:none;}.cls-2{stroke:#e6e6ea;}.cls-10,.cls-11,.cls-12,.cls-13,.cls-2{stroke-miterlimit:10;}.cls-3{fill:url(#linear-gradient);}.cls-4{fill:#32c2cc;}.cls-5{fill:url(#linear-gradient-2);}.cls-6{fill:#fe6f66;}.cls-7{fill:url(#linear-gradient-3);}.cls-8{fill:url(#linear-gradient-4);}.cls-9{fill:url(#linear-gradient-5);}.cls-10,.cls-12,.cls-13{stroke:#c1c1ca;}.cls-10{stroke-width:16px;}.cls-11{stroke:#fff;stroke-width:12px;}.cls-12{stroke-linecap:round;}.cls-12,.cls-13{stroke-width:2px;}.cls-13,.cls-15{fill:#fff;}.cls-14{clip-path:url(#clip-path);}</style><linearGradient id="linear-gradient" x1="-519.5" y1="-1373.5" x2="-519.5" y2="-1398.5" gradientTransform="matrix(1, 0, 0, -1, 967.5, -1173.5)" gradientUnits="userSpaceOnUse"><stop offset="0.02" stop-color="#32c2cc"/><stop offset="0.06" stop-color="#3ec4ce"/><stop offset="0.31" stop-color="#86d3da"/><stop offset="0.51" stop-color="#badde3"/><stop offset="0.67" stop-color="#dae4e8"/><stop offset="0.75" stop-color="#e6e6ea"/></linearGradient><linearGradient id="linear-gradient-2" x1="-231.5" y1="-1411.5" x2="-231.5" y2="-1436.5" gradientTransform="matrix(1, 0, 0, -1, 391.5, -1249.5)" gradientUnits="userSpaceOnUse"><stop offset="0.02" stop-color="#fe6f66"/><stop offset="0.19" stop-color="#f7908a"/><stop offset="0.45" stop-color="#eebebe"/><stop offset="0.64" stop-color="#e8dbde"/><stop offset="0.75" stop-color="#e6e6ea"/></linearGradient><linearGradient id="linear-gradient-3" x1="-1228.5" y1="-1052.5" x2="-1228.5" y2="-1087.5" gradientTransform="matrix(1, 0, 0, -1, 1588, -734)" xlink:href="#linear-gradient"/><linearGradient id="linear-gradient-4" x1="-1468.5" y1="-1372.5" x2="-1468.5" y2="-1407.5" gradientTransform="matrix(1, 0, 0, -1, 1508, -1294)" xlink:href="#linear-gradient"/><linearGradient id="linear-gradient-5" x1="-1487.5" y1="-84.5" x2="-1487.5" y2="-129.5" gradientTransform="matrix(1, 0, 0, -1, 1839.5, 238.5)" gradientUnits="userSpaceOnUse"><stop offset="0.25" stop-color="#e6e6ea"/><stop offset="0.66" stop-color="#f2f2f4"/><stop offset="0.98" stop-color="#fff"/></linearGradient><clipPath id="clip-path"><path class="cls-1" d="M298.43,253.17l-9.26-9.25a4,4,0,0,1-1.17-2.83V228a4,4,0,0,0-4-4H270.91a4,4,0,0,1-2.83-1.17l-9.25-9.26a4,4,0,0,0-5.66,0l-9.25,9.26a4,4,0,0,1-2.83,1.17H228a4,4,0,0,0-4,4v13.09a4,4,0,0,1-1.17,2.83l-9.26,9.25a4,4,0,0,0,0,5.66l9.26,9.25a4,4,0,0,1,1.17,2.83V284a4,4,0,0,0,4,4h13.09a4,4,0,0,1,2.83,1.17l9.25,9.26a4,4,0,0,0,5.66,0l9.25-9.26a4,4,0,0,1,2.83-1.17H284a4,4,0,0,0,4-4V270.91a4,4,0,0,1,1.17-2.83l9.26-9.25A4,4,0,0,0,298.43,253.17Z"/></clipPath></defs><title>fraud-illustration-vector-01</title><g id="Layer_4" data-name="Layer 4"><polyline class="cls-2" points="512 160 448 160 448 256 160 256 160 0"/><polyline class="cls-2" points="32 0 32 224 0 224"/><polyline class="cls-2" points="0 96 288 96 288 192 416 192 416 304 512 304"/><polyline class="cls-2" points="512 336 112 336 112 160 0 160"/><rect class="cls-3" x="447.5" y="200" width="1" height="25" transform="translate(896 425) rotate(-180)"/><circle class="cls-4" cx="448" cy="232" r="8"/><rect class="cls-5" x="159.5" y="162" width="1" height="25" transform="translate(320 349) rotate(-180)"/><circle class="cls-6" cx="160" cy="194" r="8"/><rect class="cls-7" x="359" y="318.5" width="1" height="35" transform="translate(695.5 -23.5) rotate(90)"/><circle class="cls-4" cx="384" cy="336" r="8"/><rect class="cls-8" x="39" y="78.5" width="1" height="35" transform="translate(135.5 56.5) rotate(90)"/><circle class="cls-4" cx="64" cy="96" r="8"/><polyline class="cls-2" points="288 0 288 64 512 64"/><polyline class="cls-2" points="512 128 352 128 352 368"/><rect class="cls-9" x="351.5" y="323" width="1" height="45"/><path class="cls-10" d="M176,256H128a48,48,0,0,1-48-48h0a48,48,0,0,1,48-48H304a48,48,0,0,0,48-48V0"/><path class="cls-11" d="M176,256H128a48,48,0,0,1-48-48h0a48,48,0,0,1,48-48H304a48,48,0,0,0,48-48V0"/><path class="cls-12" d="M178,256.41a40,40,0,0,1,58.64-45"/><path class="cls-12" d="M236.64,301.4a40,40,0,0,1-58.64-45"/><circle class="cls-13" cx="176" cy="256" r="15"/><circle class="cls-13" cx="176" cy="256" r="6"/><path class="cls-6" d="M289.17,268.08l9.26-9.25a4,4,0,0,0,0-5.66l-9.26-9.25a4,4,0,0,1-1.17-2.83V228a4,4,0,0,0-4-4H270.91a4,4,0,0,1-2.83-1.17l-9.25-9.26a4,4,0,0,0-5.66,0l-9.25,9.26a4,4,0,0,1-2.83,1.17H228a4,4,0,0,0-4,4v13.09a4,4,0,0,1-1.17,2.83l-9.26,9.25a4,4,0,0,0,0,5.66l9.26,9.25a4,4,0,0,1,1.17,2.83V284a4,4,0,0,0,4,4h13.09a4,4,0,0,1,2.83,1.17l9.25,9.26a4,4,0,0,0,5.66,0l9.25-9.26a4,4,0,0,1,2.83-1.17H284a4,4,0,0,0,4-4V270.91A4,4,0,0,1,289.17,268.08Z"/><g class="cls-14"><circle class="cls-4" cx="295.6" cy="210.75" r="2.26"/><circle class="cls-4" cx="298.43" cy="213.57" r="2.26"/><circle class="cls-4" cx="289.94" cy="210.75" r="2.26"/><circle class="cls-4" cx="292.77" cy="213.57" r="2.26"/><circle class="cls-4" cx="295.6" cy="216.4" r="2.26"/><circle class="cls-4" cx="298.43" cy="219.23" r="2.26"/><circle class="cls-4" cx="284.28" cy="210.75" r="2.26"/><circle class="cls-4" cx="287.11" cy="213.57" r="2.26"/><circle class="cls-4" cx="289.94" cy="216.4" r="2.26"/><circle class="cls-4" cx="292.77" cy="219.23" r="2.26"/><circle class="cls-4" cx="295.6" cy="222.06" r="2.26"/><circle class="cls-4" cx="298.43" cy="224.89" r="2.26"/><circle class="cls-4" cx="278.63" cy="210.75" r="2.26"/><circle class="cls-4" cx="281.46" cy="213.57" r="2.26"/><circle class="cls-4" cx="284.28" cy="216.4" r="2.26"/><circle class="cls-4" cx="287.11" cy="219.23" r="2.26"/><circle class="cls-4" cx="289.94" cy="222.06" r="2.26"/><circle class="cls-4" cx="292.77" cy="224.89" r="2.26"/><circle class="cls-4" cx="295.6" cy="227.72" r="2.26"/><circle class="cls-4" cx="298.43" cy="230.54" r="2.26"/><circle class="cls-4" cx="272.97" cy="210.75" r="2.26"/><circle class="cls-4" cx="275.8" cy="213.57" r="2.26"/><circle class="cls-4" cx="278.63" cy="216.4" r="2.26"/><circle class="cls-4" cx="281.46" cy="219.23" r="2.26"/><circle class="cls-4" cx="284.28" cy="222.06" r="2.26"/><circle class="cls-4" cx="287.11" cy="224.89" r="2.09"/><circle class="cls-4" cx="289.94" cy="227.72" r="2.26"/><circle class="cls-4" cx="292.77" cy="230.54" r="2.26"/><circle class="cls-4" cx="295.6" cy="233.37" r="2.26"/><circle class="cls-4" cx="298.43" cy="236.2" r="2.26"/><circle class="cls-4" cx="267.31" cy="210.75" r="2.26"/><circle class="cls-4" cx="270.14" cy="213.57" r="2.26"/><circle class="cls-4" cx="272.97" cy="216.4" r="2.26"/><circle class="cls-4" cx="275.8" cy="219.23" r="2.26"/><circle class="cls-4" cx="278.63" cy="222.06" r="2.26"/><circle class="cls-4" cx="281.46" cy="224.89" r="2.09"/><circle class="cls-4" cx="284.28" cy="227.72" r="2.09"/><circle class="cls-4" cx="287.11" cy="230.54" r="1.82"/><circle class="cls-4" cx="289.94" cy="233.37" r="2.26"/><circle class="cls-4" cx="292.77" cy="236.2" r="2.26"/><circle class="cls-4" cx="295.6" cy="239.03" r="2.26"/><circle class="cls-4" cx="298.43" cy="241.86" r="2.26"/><circle class="cls-4" cx="261.66" cy="210.75" r="2.26"/><circle class="cls-4" cx="264.49" cy="213.57" r="2.26"/><circle class="cls-4" cx="267.31" cy="216.4" r="2.26"/><circle class="cls-4" cx="270.14" cy="219.23" r="2.26"/><circle class="cls-4" cx="272.97" cy="222.06" r="2.26"/><circle class="cls-4" cx="275.8" cy="224.89" r="2.09"/><circle class="cls-4" cx="278.63" cy="227.72" r="2.09"/><circle class="cls-4" cx="281.46" cy="230.54" r="1.82"/><circle class="cls-4" cx="284.28" cy="233.37" r="1.55"/><circle class="cls-4" cx="287.11" cy="236.2" r="1.55"/><circle class="cls-4" cx="289.94" cy="239.03" r="2.26"/><circle class="cls-4" cx="292.77" cy="241.86" r="2.26"/><circle class="cls-4" cx="295.6" cy="244.69" r="0.82"/><circle class="cls-4" cx="298.43" cy="247.51" r="2.26"/><circle class="cls-4" cx="256" cy="210.75" r="2.26"/><circle class="cls-4" cx="258.83" cy="213.57" r="2.26"/><circle class="cls-4" cx="261.66" cy="216.4" r="2.26"/><circle class="cls-4" cx="264.49" cy="219.23" r="2.26"/><circle class="cls-4" cx="267.31" cy="222.06" r="2.26"/><circle class="cls-4" cx="270.14" cy="224.89" r="2.09"/><circle class="cls-4" cx="272.97" cy="227.72" r="2.09"/><circle class="cls-4" cx="275.8" cy="230.54" r="1.82"/><circle class="cls-4" cx="278.63" cy="233.37" r="1.55"/><circle class="cls-4" cx="281.46" cy="236.2" r="1.55"/><circle class="cls-4" cx="284.28" cy="239.03" r="1.3"/><circle class="cls-4" cx="287.11" cy="241.86" r="1.05"/><circle class="cls-4" cx="289.94" cy="244.69" r="0.82"/><circle class="cls-4" cx="292.77" cy="247.51" r="0.82"/><circle class="cls-4" cx="295.6" cy="250.34" r="0.6"/><circle class="cls-4" cx="298.43" cy="253.17" r="0.41"/><circle class="cls-4" cx="250.34" cy="210.75" r="2.26"/><circle class="cls-4" cx="253.17" cy="213.57" r="2.26"/><circle class="cls-4" cx="256" cy="216.4" r="2.26"/><circle class="cls-4" cx="258.83" cy="219.23" r="2.26"/><circle class="cls-4" cx="261.66" cy="222.06" r="2.26"/><circle class="cls-4" cx="264.49" cy="224.89" r="2.09"/><circle class="cls-4" cx="267.31" cy="227.72" r="2.09"/><circle class="cls-4" cx="270.14" cy="230.54" r="1.82"/><circle class="cls-4" cx="272.97" cy="233.37" r="1.55"/><circle class="cls-4" cx="275.8" cy="236.2" r="1.55"/><circle class="cls-4" cx="278.63" cy="239.03" r="1.3"/><circle class="cls-4" cx="281.46" cy="241.86" r="1.05"/><circle class="cls-4" cx="284.28" cy="244.69" r="0.82"/><circle class="cls-4" cx="287.11" cy="247.51" r="0.82"/><circle class="cls-4" cx="289.94" cy="250.34" r="0.6"/><circle class="cls-4" cx="292.77" cy="253.17" r="0.41"/><circle class="cls-4" cx="295.6" cy="256" r="0.41"/><circle class="cls-4" cx="298.43" cy="258.83" r="0.23"/><circle class="cls-4" cx="244.69" cy="210.75" r="2.26"/><circle class="cls-4" cx="247.51" cy="213.57" r="2.26"/><circle class="cls-4" cx="250.34" cy="216.4" r="2.26"/><circle class="cls-4" cx="253.17" cy="219.23" r="2.26"/><circle class="cls-4" cx="256" cy="222.06" r="2.26"/><circle class="cls-4" cx="258.83" cy="224.89" r="2.09"/><circle class="cls-4" cx="261.66" cy="227.72" r="2.09"/><circle class="cls-4" cx="264.49" cy="230.54" r="1.82"/><circle class="cls-4" cx="267.31" cy="233.37" r="1.55"/><circle class="cls-4" cx="270.14" cy="236.2" r="1.55"/><circle class="cls-4" cx="272.97" cy="239.03" r="1.3"/><circle class="cls-4" cx="275.8" cy="241.86" r="1.05"/><circle class="cls-4" cx="278.63" cy="244.69" r="0.82"/><circle class="cls-4" cx="281.46" cy="247.51" r="0.82"/><circle class="cls-4" cx="284.28" cy="250.34" r="0.6"/><circle class="cls-4" cx="287.11" cy="253.17" r="0.41"/><circle class="cls-4" cx="289.94" cy="256" r="0.41"/><circle class="cls-4" cx="292.77" cy="258.83" r="0.23"/><circle class="cls-4" cx="295.6" cy="261.66" r="0.09"/><circle class="cls-4" cx="298.43" cy="264.49" r="2.26"/><circle class="cls-4" cx="239.03" cy="210.75" r="2.26"/><circle class="cls-4" cx="241.86" cy="213.57" r="2.26"/><circle class="cls-4" cx="244.69" cy="216.4" r="2.26"/><circle class="cls-4" cx="247.51" cy="219.23" r="2.26"/><circle class="cls-4" cx="250.34" cy="222.06" r="2.26"/><circle class="cls-4" cx="253.17" cy="224.89" r="2.09"/><circle class="cls-4" cx="256" cy="227.72" r="2.09"/><circle class="cls-4" cx="258.83" cy="230.54" r="1.82"/><circle class="cls-4" cx="261.66" cy="233.37" r="1.55"/><circle class="cls-4" cx="264.49" cy="236.2" r="1.55"/><circle class="cls-4" cx="267.31" cy="239.03" r="1.3"/><circle class="cls-4" cx="270.14" cy="241.86" r="1.05"/><circle class="cls-4" cx="272.97" cy="244.69" r="0.82"/><circle class="cls-4" cx="275.8" cy="247.51" r="0.82"/><circle class="cls-4" cx="278.63" cy="250.34" r="0.6"/><circle class="cls-4" cx="281.46" cy="253.17" r="0.41"/><circle class="cls-4" cx="284.28" cy="256" r="0.41"/><circle class="cls-4" cx="287.11" cy="258.83" r="0.23"/><circle class="cls-4" cx="289.94" cy="261.66" r="0.09"/><circle class="cls-4" cx="298.43" cy="270.14" r="2.26"/><circle class="cls-4" cx="233.37" cy="210.75" r="2.26"/><circle class="cls-4" cx="236.2" cy="213.57" r="2.26"/><circle class="cls-4" cx="239.03" cy="216.4" r="2.26"/><circle class="cls-4" cx="241.86" cy="219.23" r="2.26"/><circle class="cls-4" cx="244.69" cy="222.06" r="2.26"/><circle class="cls-4" cx="247.51" cy="224.89" r="2.09"/><circle class="cls-4" cx="250.34" cy="227.72" r="2.09"/><circle class="cls-4" cx="253.17" cy="230.54" r="1.82"/><circle class="cls-4" cx="256" cy="233.37" r="1.55"/><circle class="cls-4" cx="258.83" cy="236.2" r="1.55"/><circle class="cls-4" cx="261.66" cy="239.03" r="1.3"/><circle class="cls-4" cx="264.49" cy="241.86" r="1.05"/><circle class="cls-4" cx="267.31" cy="244.69" r="0.82"/><circle class="cls-4" cx="270.14" cy="247.51" r="0.82"/><circle class="cls-4" cx="272.97" cy="250.34" r="0.6"/><circle class="cls-4" cx="275.8" cy="253.17" r="0.41"/><circle class="cls-4" cx="278.63" cy="256" r="0.41"/><circle class="cls-4" cx="281.46" cy="258.83" r="0.23"/><circle class="cls-4" cx="284.28" cy="261.66" r="0.09"/><circle class="cls-4" cx="292.77" cy="270.14" r="2.26"/><circle class="cls-4" cx="295.6" cy="272.97" r="2.26"/><circle class="cls-4" cx="298.43" cy="275.8" r="2.26"/><circle class="cls-4" cx="227.72" cy="210.75" r="2.26"/><circle class="cls-4" cx="230.54" cy="213.57" r="2.26"/><circle class="cls-4" cx="233.37" cy="216.4" r="2.26"/><circle class="cls-4" cx="236.2" cy="219.23" r="2.26"/><circle class="cls-4" cx="239.03" cy="222.06" r="2.26"/><circle class="cls-4" cx="241.86" cy="224.89" r="2.09"/><circle class="cls-4" cx="244.69" cy="227.72" r="2.09"/><circle class="cls-4" cx="247.51" cy="230.54" r="1.82"/><circle class="cls-4" cx="250.34" cy="233.37" r="1.55"/><circle class="cls-4" cx="253.17" cy="236.2" r="1.55"/><circle class="cls-4" cx="256" cy="239.03" r="1.3"/><circle class="cls-4" cx="258.83" cy="241.86" r="1.05"/><circle class="cls-4" cx="261.66" cy="244.69" r="0.82"/><circle class="cls-4" cx="264.49" cy="247.51" r="0.82"/><circle class="cls-4" cx="267.31" cy="250.34" r="0.6"/><circle class="cls-4" cx="270.14" cy="253.17" r="0.41"/><circle class="cls-4" cx="272.97" cy="256" r="0.41"/><circle class="cls-4" cx="275.8" cy="258.83" r="0.23"/><circle class="cls-4" cx="278.63" cy="261.66" r="0.09"/><circle class="cls-4" cx="289.94" cy="272.97" r="2.26"/><circle class="cls-4" cx="292.77" cy="275.8" r="2.26"/><circle class="cls-4" cx="295.6" cy="278.63" r="2.26"/><circle class="cls-4" cx="298.43" cy="281.46" r="2.26"/><circle class="cls-4" cx="222.06" cy="210.75" r="2.26"/><circle class="cls-4" cx="224.89" cy="213.57" r="2.26"/><circle class="cls-4" cx="227.72" cy="216.4" r="2.26"/><circle class="cls-4" cx="230.54" cy="219.23" r="2.26"/><circle class="cls-4" cx="233.37" cy="222.06" r="2.26"/><circle class="cls-4" cx="236.2" cy="224.89" r="2.09"/><circle class="cls-4" cx="239.03" cy="227.72" r="2.09"/><circle class="cls-4" cx="241.86" cy="230.54" r="1.82"/><circle class="cls-4" cx="244.69" cy="233.37" r="1.55"/><circle class="cls-4" cx="247.51" cy="236.2" r="1.55"/><circle class="cls-4" cx="250.34" cy="239.03" r="1.3"/><circle class="cls-4" cx="253.17" cy="241.86" r="1.05"/><circle class="cls-4" cx="256" cy="244.69" r="0.82"/><circle class="cls-4" cx="258.83" cy="247.51" r="0.82"/><circle class="cls-4" cx="261.66" cy="250.34" r="0.6"/><circle class="cls-4" cx="264.49" cy="253.17" r="0.41"/><circle class="cls-4" cx="267.31" cy="256" r="0.41"/><circle class="cls-4" cx="270.14" cy="258.83" r="0.23"/><circle class="cls-4" cx="272.97" cy="261.66" r="0.09"/><circle class="cls-4" cx="289.94" cy="278.63" r="2.26"/><circle class="cls-4" cx="292.77" cy="281.46" r="2.26"/><circle class="cls-4" cx="295.6" cy="284.28" r="2.26"/><circle class="cls-4" cx="298.43" cy="287.11" r="2.26"/><circle class="cls-4" cx="216.4" cy="210.75" r="2.26"/><circle class="cls-4" cx="219.23" cy="213.57" r="2.26"/><circle class="cls-4" cx="222.06" cy="216.4" r="2.26"/><circle class="cls-4" cx="224.89" cy="219.23" r="2.26"/><circle class="cls-4" cx="227.72" cy="222.06" r="2.26"/><circle class="cls-4" cx="230.54" cy="224.89" r="2.09"/><circle class="cls-4" cx="233.37" cy="227.72" r="2.09"/><circle class="cls-4" cx="236.2" cy="230.54" r="1.82"/><circle class="cls-4" cx="239.03" cy="233.37" r="1.55"/><circle class="cls-4" cx="241.86" cy="236.2" r="1.55"/><circle class="cls-4" cx="244.69" cy="239.03" r="1.3"/><circle class="cls-4" cx="247.51" cy="241.86" r="1.05"/><circle class="cls-4" cx="250.34" cy="244.69" r="0.82"/><circle class="cls-4" cx="253.17" cy="247.51" r="0.82"/><circle class="cls-4" cx="256" cy="250.34" r="0.6"/><circle class="cls-4" cx="258.83" cy="253.17" r="0.41"/><circle class="cls-4" cx="261.66" cy="256" r="0.41"/><circle class="cls-4" cx="264.49" cy="258.83" r="0.23"/><circle class="cls-4" cx="267.31" cy="261.66" r="0.09"/><circle class="cls-4" cx="289.94" cy="284.28" r="2.26"/><circle class="cls-4" cx="292.77" cy="287.11" r="2.26"/><circle class="cls-4" cx="295.6" cy="289.94" r="2.26"/><circle class="cls-4" cx="298.43" cy="292.77" r="2.26"/><circle class="cls-4" cx="210.75" cy="210.75" r="2.26"/><circle class="cls-4" cx="213.57" cy="213.57" r="2.26"/><circle class="cls-4" cx="216.4" cy="216.4" r="2.26"/><circle class="cls-4" cx="219.23" cy="219.23" r="2.26"/><circle class="cls-4" cx="222.06" cy="222.06" r="2.26"/><circle class="cls-4" cx="224.89" cy="224.89" r="2.09"/><circle class="cls-4" cx="227.72" cy="227.72" r="2.09"/><circle class="cls-4" cx="230.54" cy="230.54" r="1.82"/><circle class="cls-4" cx="233.37" cy="233.37" r="1.55"/><circle class="cls-4" cx="236.2" cy="236.2" r="1.55"/><circle class="cls-4" cx="239.03" cy="239.03" r="1.3"/><circle class="cls-4" cx="241.86" cy="241.86" r="1.05"/><circle class="cls-4" cx="244.69" cy="244.69" r="0.82"/><circle class="cls-4" cx="247.51" cy="247.51" r="0.82"/><circle class="cls-4" cx="250.34" cy="250.34" r="0.6"/><circle class="cls-4" cx="253.17" cy="253.17" r="0.41"/><circle class="cls-4" cx="256" cy="256" r="0.41"/><circle class="cls-4" cx="258.83" cy="258.83" r="0.23"/><circle class="cls-4" cx="261.66" cy="261.66" r="0.09"/><circle class="cls-4" cx="289.94" cy="289.94" r="2.26"/><circle class="cls-4" cx="292.77" cy="292.77" r="2.26"/><circle class="cls-4" cx="295.6" cy="295.6" r="2.26"/><circle class="cls-4" cx="298.43" cy="298.43" r="2.26"/><circle class="cls-4" cx="210.75" cy="216.4" r="2.26"/><circle class="cls-4" cx="213.57" cy="219.23" r="2.26"/><circle class="cls-4" cx="216.4" cy="222.06" r="2.26"/><circle class="cls-4" cx="219.23" cy="224.89" r="2.26"/><circle class="cls-4" cx="222.06" cy="227.72" r="2.09"/><circle class="cls-4" cx="224.89" cy="230.54" r="1.82"/><circle class="cls-4" cx="227.72" cy="233.37" r="1.55"/><circle class="cls-4" cx="230.54" cy="236.2" r="1.55"/><circle class="cls-4" cx="233.37" cy="239.03" r="1.3"/><circle class="cls-4" cx="236.2" cy="241.86" r="1.05"/><circle class="cls-4" cx="239.03" cy="244.69" r="0.82"/><circle class="cls-4" cx="241.86" cy="247.51" r="0.82"/><circle class="cls-4" cx="244.69" cy="250.34" r="0.6"/><circle class="cls-4" cx="247.51" cy="253.17" r="0.41"/><circle class="cls-4" cx="250.34" cy="256" r="0.41"/><circle class="cls-4" cx="253.17" cy="258.83" r="0.23"/><circle class="cls-4" cx="256" cy="261.66" r="0.09"/><circle class="cls-4" cx="284.28" cy="289.94" r="2.26"/><circle class="cls-4" cx="287.11" cy="292.77" r="2.26"/><circle class="cls-4" cx="289.94" cy="295.6" r="2.26"/><circle class="cls-4" cx="292.77" cy="298.43" r="2.26"/><circle class="cls-4" cx="210.75" cy="222.06" r="2.26"/><circle class="cls-4" cx="213.57" cy="224.89" r="2.26"/><circle class="cls-4" cx="216.4" cy="227.72" r="2.26"/><circle class="cls-4" cx="219.23" cy="230.54" r="2.26"/><circle class="cls-4" cx="222.06" cy="233.37" r="1.55"/><circle class="cls-4" cx="224.89" cy="236.2" r="1.55"/><circle class="cls-4" cx="227.72" cy="239.03" r="1.3"/><circle class="cls-4" cx="230.54" cy="241.86" r="1.05"/><circle class="cls-4" cx="233.37" cy="244.69" r="0.82"/><circle class="cls-4" cx="236.2" cy="247.51" r="0.82"/><circle class="cls-4" cx="239.03" cy="250.34" r="0.6"/><circle class="cls-4" cx="241.86" cy="253.17" r="0.41"/><circle class="cls-4" cx="244.69" cy="256" r="0.41"/><circle class="cls-4" cx="247.51" cy="258.83" r="0.23"/><circle class="cls-4" cx="250.34" cy="261.66" r="0.09"/><circle class="cls-4" cx="278.63" cy="289.94" r="2.26"/><circle class="cls-4" cx="281.46" cy="292.77" r="2.26"/><circle class="cls-4" cx="284.28" cy="295.6" r="2.26"/><circle class="cls-4" cx="287.11" cy="298.43" r="2.26"/><circle class="cls-4" cx="210.75" cy="227.72" r="2.26"/><circle class="cls-4" cx="213.57" cy="230.54" r="2.26"/><circle class="cls-4" cx="216.4" cy="233.37" r="2.26"/><circle class="cls-4" cx="219.23" cy="236.2" r="2.26"/><circle class="cls-4" cx="222.06" cy="239.03" r="1.3"/><circle class="cls-4" cx="224.89" cy="241.86" r="1.05"/><circle class="cls-4" cx="227.72" cy="244.69" r="0.82"/><circle class="cls-4" cx="230.54" cy="247.51" r="0.82"/><circle class="cls-4" cx="233.37" cy="250.34" r="0.6"/><circle class="cls-4" cx="236.2" cy="253.17" r="0.41"/><circle class="cls-4" cx="239.03" cy="256" r="0.41"/><circle class="cls-4" cx="241.86" cy="258.83" r="0.23"/><circle class="cls-4" cx="244.69" cy="261.66" r="0.09"/><circle class="cls-4" cx="272.97" cy="289.94" r="2.26"/><circle class="cls-4" cx="275.8" cy="292.77" r="2.26"/><circle class="cls-4" cx="278.63" cy="295.6" r="2.26"/><circle class="cls-4" cx="281.46" cy="298.43" r="2.26"/><circle class="cls-4" cx="210.75" cy="233.37" r="2.26"/><circle class="cls-4" cx="213.57" cy="236.2" r="2.26"/><circle class="cls-4" cx="216.4" cy="239.03" r="2.26"/><circle class="cls-4" cx="219.23" cy="241.86" r="2.26"/><circle class="cls-4" cx="222.06" cy="244.69" r="0.82"/><circle class="cls-4" cx="224.89" cy="247.51" r="0.82"/><circle class="cls-4" cx="227.72" cy="250.34" r="0.6"/><circle class="cls-4" cx="230.54" cy="253.17" r="0.41"/><circle class="cls-4" cx="233.37" cy="256" r="0.41"/><circle class="cls-4" cx="236.2" cy="258.83" r="0.23"/><circle class="cls-4" cx="239.03" cy="261.66" r="0.09"/><circle class="cls-4" cx="270.14" cy="292.77" r="2.26"/><circle class="cls-4" cx="272.97" cy="295.6" r="2.26"/><circle class="cls-4" cx="275.8" cy="298.43" r="2.26"/><circle class="cls-4" cx="210.75" cy="239.03" r="2.26"/><circle class="cls-4" cx="213.57" cy="241.86" r="2.26"/><circle class="cls-4" cx="216.4" cy="244.69" r="0.82"/><circle class="cls-4" cx="219.23" cy="247.51" r="0.82"/><circle class="cls-4" cx="222.06" cy="250.34" r="0.6"/><circle class="cls-4" cx="224.89" cy="253.17" r="0.41"/><circle class="cls-4" cx="227.72" cy="256" r="0.41"/><circle class="cls-4" cx="230.54" cy="258.83" r="0.23"/><circle class="cls-4" cx="233.37" cy="261.66" r="0.09"/><circle class="cls-4" cx="270.14" cy="298.43" r="2.26"/><circle class="cls-4" cx="210.75" cy="244.69" r="2.26"/><circle class="cls-4" cx="213.57" cy="247.51" r="2.26"/><circle class="cls-4" cx="216.4" cy="250.34" r="0.6"/><circle class="cls-4" cx="219.23" cy="253.17" r="0.41"/><circle class="cls-4" cx="222.06" cy="256" r="0.41"/><circle class="cls-4" cx="224.89" cy="258.83" r="0.23"/><circle class="cls-4" cx="227.72" cy="261.66" r="0.09"/><circle class="cls-4" cx="264.49" cy="298.43" r="2.26"/><circle class="cls-4" cx="210.75" cy="250.34" r="0.6"/><circle class="cls-4" cx="213.57" cy="253.17" r="0.41"/><circle class="cls-4" cx="216.4" cy="256" r="0.41"/><circle class="cls-4" cx="219.23" cy="258.83" r="0.23"/><circle class="cls-4" cx="222.06" cy="261.66" r="0.09"/><circle class="cls-4" cx="210.75" cy="256" r="0.41"/><circle class="cls-4" cx="213.57" cy="258.83" r="0.23"/><circle class="cls-4" cx="216.4" cy="261.66" r="0.09"/><circle class="cls-4" cx="210.75" cy="261.66" r="0.09"/><circle class="cls-4" cx="213.57" cy="264.49" r="2.26"/><circle class="cls-4" cx="219.23" cy="270.14" r="2.26"/><circle class="cls-4" cx="239.03" cy="289.94" r="2.26"/><circle class="cls-4" cx="241.86" cy="292.77" r="2.26"/><circle class="cls-4" cx="247.51" cy="298.43" r="2.26"/><circle class="cls-4" cx="210.75" cy="267.31" r="2.26"/><circle class="cls-4" cx="213.57" cy="270.14" r="2.26"/><circle class="cls-4" cx="216.4" cy="272.97" r="2.26"/><circle class="cls-4" cx="219.23" cy="275.8" r="2.26"/><circle class="cls-4" cx="233.37" cy="289.94" r="2.26"/><circle class="cls-4" cx="236.2" cy="292.77" r="2.26"/><circle class="cls-4" cx="239.03" cy="295.6" r="2.26"/><circle class="cls-4" cx="241.86" cy="298.43" r="2.26"/><circle class="cls-4" cx="210.75" cy="272.97" r="2.26"/><circle class="cls-4" cx="213.57" cy="275.8" r="2.26"/><circle class="cls-4" cx="216.4" cy="278.63" r="2.26"/><circle class="cls-4" cx="219.23" cy="281.46" r="2.26"/><circle class="cls-4" cx="227.72" cy="289.94" r="2.26"/><circle class="cls-4" cx="230.54" cy="292.77" r="2.26"/><circle class="cls-4" cx="233.37" cy="295.6" r="2.26"/><circle class="cls-4" cx="236.2" cy="298.43" r="2.26"/><circle class="cls-4" cx="210.75" cy="278.63" r="2.26"/><circle class="cls-4" cx="213.57" cy="281.46" r="2.26"/><circle class="cls-4" cx="216.4" cy="284.28" r="2.26"/><circle class="cls-4" cx="219.23" cy="287.11" r="2.26"/><circle class="cls-4" cx="222.06" cy="289.94" r="2.26"/><circle class="cls-4" cx="224.89" cy="292.77" r="2.26"/><circle class="cls-4" cx="227.72" cy="295.6" r="2.26"/><circle class="cls-4" cx="230.54" cy="298.43" r="2.26"/><circle class="cls-4" cx="210.75" cy="284.28" r="2.26"/><circle class="cls-4" cx="213.57" cy="287.11" r="2.26"/><circle class="cls-4" cx="216.4" cy="289.94" r="2.26"/><circle class="cls-4" cx="219.23" cy="292.77" r="2.26"/><circle class="cls-4" cx="222.06" cy="295.6" r="2.26"/><circle class="cls-4" cx="224.89" cy="298.43" r="2.26"/><circle class="cls-4" cx="210.75" cy="289.94" r="2.26"/><circle class="cls-4" cx="213.57" cy="292.77" r="2.26"/><circle class="cls-4" cx="216.4" cy="295.6" r="2.26"/><circle class="cls-4" cx="219.23" cy="298.43" r="2.26"/><circle class="cls-4" cx="210.75" cy="295.6" r="2.26"/><circle class="cls-4" cx="213.57" cy="298.43" r="2.26"/></g><polygon class="cls-15" points="262 236 260 262 252 262 250 236 262 236"/><line class="cls-11" x1="256" y1="276" x2="256" y2="268"/></g></svg>