<?xml version="1.0" encoding="utf-8"?>
<!-- Generator: Adobe Illustrator 19.1.0, SVG Export Plug-In . SVG Version: 6.00 Build 0)  -->
<svg version="1.1" id="Layer_1" xmlns:sketch="http://www.bohemiancoding.com/sketch/ns"
	 xmlns="http://www.w3.org/2000/svg" xmlns:xlink="http://www.w3.org/1999/xlink" x="0px" y="0px" viewBox="-389 288.5 25 25"
	 style="enable-background:new -389 288.5 25 25;" xml:space="preserve">
<style type="text/css">
	.st0{fill:#FFFFFF;}
</style>
<g id="_x30_1_x2F_25_x2F_2016" sketch:type="MSPage">
	<g id="Desktop-Form-A" transform="translate(-225.000000, -3382.000000)" sketch:type="MSArtboardGroup">
		<g id="Footer" transform="translate(0.000000, 3160.000000)" sketch:type="MSLayerGroup">
			<g id="Twitter-_x2B_-Linkedin-_x2B_-Facebook" transform="translate(120.000000, 222.000000)" sketch:type="MSShapeGroup">
				<path id="Linkedin" class="st0" d="M-281.9,297.4h4.3V311h-4.3V297.4z M-265.9,297.3c-2.5,0-4,1.3-4.3,2.3v-2.1h-4.8
					c0.1,1.1,0,13.6,0,13.6h4.8v-7.4c0-0.4,0-0.8,0.1-1.1c0.3-0.8,1-1.7,2.3-1.7c1.7,0,2.4,1.3,2.4,3.1v7h4.9v-7.6
					C-260.5,299.2-262.9,297.3-265.9,297.3z M-279.8,291c-1.6,0-2.6,1-2.6,2.4c0,1.3,1,2.4,2.6,2.4h0c1.6,0,2.6-1,2.6-2.4
					C-277.3,292-278.3,291-279.8,291z"/>
			</g>
		</g>
	</g>
</g>
</svg>
