<svg xmlns="http://www.w3.org/2000/svg" xmlns:xlink="http://www.w3.org/1999/xlink" viewBox="0 0 512 512"><defs><style>.cls-1,.cls-11,.cls-17,.cls-2,.cls-20,.cls-21,.cls-22,.cls-23,.cls-8,.cls-9{fill:none;}.cls-10,.cls-2,.cls-8,.cls-9{stroke:#e6e6ea;}.cls-10,.cls-11,.cls-16,.cls-17,.cls-2,.cls-20,.cls-21,.cls-22,.cls-23,.cls-5,.cls-6,.cls-9{stroke-miterlimit:10;}.cls-10,.cls-16,.cls-3,.cls-5{fill:#fff;}.cls-4{fill:#e6e6ea;}.cls-11,.cls-16,.cls-17,.cls-21,.cls-22,.cls-5,.cls-6{stroke:#c1c1ca;}.cls-10,.cls-11,.cls-20,.cls-21,.cls-5,.cls-6,.cls-8,.cls-9{stroke-width:2px;}.cls-6,.cls-7{fill:#c1c1ca;}.cls-20,.cls-21,.cls-8{stroke-linecap:round;}.cls-8{stroke-linejoin:round;}.cls-12{clip-path:url(#clip-path);}.cls-13{fill:#22c4d0;}.cls-14{fill:#fe6f66;}.cls-15{fill:#00084e;}.cls-18{fill:#32c2cc;}.cls-19{clip-path:url(#clip-path-3);}.cls-20{stroke:#32c2cc;}.cls-22{stroke-width:16px;}.cls-23{stroke:#fff;stroke-width:12px;}</style><clipPath id="clip-path"><rect class="cls-1" x="150" y="282" width="64" height="64"/></clipPath><clipPath id="clip-path-3"><rect class="cls-1" x="302.76" y="185.23" width="64" height="64" transform="translate(36.9 482.81) rotate(-74.7)"/></clipPath></defs><title>reveal-illustration-vector-01 copy</title><g id="Layer_4" data-name="Layer 4"><polyline class="cls-2" points="512 0 512 208 480 208"/><polyline class="cls-2" points="416 0 416 32 256 32 256 192 176 192 176 224 64 224 64 272"/><polyline class="cls-2" points="0 64 384 64 384 256 512 256"/><polyline class="cls-2" points="0 112 160 112 160 144 336 144 336 264"/><line class="cls-2" x1="32" y1="176" x2="128" y2="176"/><rect class="cls-3" x="160" y="208" width="192" height="128"/><rect class="cls-4" x="154" y="290" width="64" height="64"/><rect class="cls-4" x="304.76" y="193.23" width="64" height="64" transform="translate(71.37 -80.88) rotate(15.3)"/><path class="cls-5" d="M315.5,285.5h-6c-7.18,0-13,7.16-13,16s5.82,16,13,16h6c7.18,0,13-7.16,13-16S322.68,285.5,315.5,285.5Z"/><ellipse class="cls-5" cx="309.5" cy="301.5" rx="13" ry="16"/><path class="cls-5" d="M250.5,285.5h-6c-7.18,0-13,7.16-13,16s5.82,16,13,16h6c7.18,0,13-7.16,13-16S257.68,285.5,250.5,285.5Z"/><ellipse class="cls-5" cx="244.5" cy="301.5" rx="13" ry="16"/><rect class="cls-6" x="202.5" y="279.5" width="129" height="24"/><path class="cls-5" d="M293.5,287.5h-6c-7.18,0-13,7.16-13,16s5.82,16,13,16h6c7.18,0,13-7.16,13-16S300.68,287.5,293.5,287.5Z"/><ellipse class="cls-5" cx="287.5" cy="303.5" rx="13" ry="16"/><path class="cls-5" d="M228.5,289h-6c-7.18,0-13,6.82-13,15.23s5.82,15.23,13,15.23h6c7.18,0,13-6.82,13-15.23S235.68,289,228.5,289Z"/><path class="cls-5" d="M235.5,304.42c0,5-2.2,10.33-6.71,13.22C224,320.71,217,320,211.58,319.22a4.79,4.79,0,0,1-1.88-.57,1.52,1.52,0,0,1-.76-1.61c.26-.93,1.56-1.17,2.24-1.89a2.46,2.46,0,0,0,.46-2.27,12,12,0,0,0-.94-2.23c-3.79-8,1.15-21.33,11.8-21.33C229.68,289.32,235.5,296.08,235.5,304.42Z"/><path class="cls-4" d="M207.08,303.5c-.05-1.26-.08-1.88-.08-2.5,0-9.94,7.16-18,16-18s16,8.06,16,18a18.67,18.67,0,0,1-.1,2l.1.51,32.58-.16c-.05-.6-.08-1.22-.08-1.84,0-9.94,7.16-18,16-18s16,8.06,16,18a18.67,18.67,0,0,1-.1,2h32.1V274.86a4,4,0,0,0-3.59-4L309,268.5c-13.5-42.5-74-42-97.5-13l-17.11,10.27a6,6,0,0,0-2.89,5.1h0a1.33,1.33,0,0,0,0,.28l.35,1.74a1.41,1.41,0,0,1-.38,1.27l-1.6,1.67a1.4,1.4,0,0,0-.4,1v3.78a1.39,1.39,0,0,0,.24.79l.73,1.1a1.44,1.44,0,0,1,0,1.59l-1.73,2.56a1.4,1.4,0,0,0-.24.8v3.74a1.43,1.43,0,0,0,.42,1l.69.68a1.43,1.43,0,0,1-.34,2.28h0a1.42,1.42,0,0,0-.77,1.26v3.08a4,4,0,0,0,4,4Z"/><path class="cls-3" d="M309,268.5H284.55a2,2,0,0,1-1.94-1.5l-5-19a2,2,0,0,1,1.94-2.5H293S305.5,254.5,309,268.5Z"/><path class="cls-7" d="M276.77,266.08l-4.29-19.74a2,2,0,0,0-1-1.33c-2-1.07-7.7-3.44-18.18-2.39a2,2,0,0,0-1.81,2V266.5a2,2,0,0,0,2,2h21.31A2,2,0,0,0,276.77,266.08Z"/><path class="cls-3" d="M272.14,268.52l-3.64-5-3,1-3-6-3,3-3-4-1,2-4.14-3.85c-.05,3,0,5.78,0,8.76,0,1.16,0,2.47.86,3.27a3.53,3.53,0,0,0,1.79.8,11,11,0,0,0,2.35.23C261.51,268.68,267,268.56,272.14,268.52Z"/><path class="cls-3" d="M252.19,243.19l1.31,1.31,2-1,2,4,3-1,2,4,2-3,2,6,4-3,3.06,1.61c-.42-1.9-.71-3.89-1.2-5.77a2.22,2.22,0,0,0-.75-1.36c-1-.65-2.35-.68-3.44-1.21a14.56,14.56,0,0,0-2-1,8.9,8.9,0,0,0-1.93-.28l-3.76-.24C257.73,242.11,254.9,243.19,252.19,243.19Z"/><path class="cls-8" d="M308,268.5H284.55a2,2,0,0,1-1.94-1.5l-5-19a2,2,0,0,1,1.94-2.5H292S304.5,254.5,308,268.5Z"/><path class="cls-9" d="M276.77,266.08l-4.29-19.74a2,2,0,0,0-1-1.33c-2-1.07-7.7-3.44-18.18-2.39a2,2,0,0,0-1.81,2V266.5a2,2,0,0,0,2,2h21.31A2,2,0,0,0,276.77,266.08Z"/><path class="cls-10" d="M246.5,245.8v20.7a2,2,0,0,1-2,2H217.69a2,2,0,0,1-1.89-2.64c1.91-5.42,8.33-17.65,28.26-22A2,2,0,0,1,246.5,245.8Z"/><path class="cls-11" d="M249,276c-1.37,8.21,1.52,21.75,1.52,21.75"/><line class="cls-11" x1="254" y1="275.5" x2="261" y2="275.5"/><rect class="cls-3" x="310.5" y="275.5" width="9" height="7" rx="2"/><rect class="cls-3" x="331.5" y="275.5" width="4" height="7" rx="2"/><line class="cls-11" x1="323.5" y1="278.5" x2="328.5" y2="278.5"/><line class="cls-11" x1="323.5" y1="282.5" x2="328.5" y2="282.5"/><line class="cls-11" x1="323.5" y1="286.5" x2="328.5" y2="286.5"/><line class="cls-11" x1="323.5" y1="290.5" x2="328.5" y2="290.5"/><rect class="cls-5" x="301.5" y="295.5" width="37" height="8" rx="2"/><line class="cls-5" x1="304" y1="299.5" x2="310.5" y2="299.5"/><rect class="cls-5" x="238.5" y="299.5" width="33" height="4"/><polygon class="cls-5" points="248.5 321.5 261.5 321.5 262.5 325.5 260.5 325.5 254.5 329.5 252.5 326.5 247.5 328.5 248.5 325.5 245.5 324.5 248.5 321.5"/><polygon class="cls-5" points="278.5 323.5 279.5 327.5 273.5 329.5 274.5 326.5 271.5 326.5 273.5 323.5 278.5 323.5"/><path class="cls-5" d="M197.17,319.33l4.25-3.07a2,2,0,0,0,.48-2.76l-11.42-16.58a2,2,0,0,0-2.89-.44l-4,3.13a2,2,0,0,0-.42,2.69l11.13,16.53A2,2,0,0,0,197.17,319.33Z"/><rect class="cls-11" x="160" y="208" width="64" height="64"/><rect class="cls-11" x="224" y="208" width="64" height="64"/><rect class="cls-11" x="288" y="208" width="64" height="64"/><rect class="cls-11" x="224" y="272" width="64" height="64"/><rect class="cls-11" x="160" y="272" width="64" height="64"/><rect class="cls-11" x="288" y="272" width="64" height="64"/><g class="cls-12"><rect class="cls-13" x="150" y="282" width="64" height="64"/><g class="cls-12"><circle class="cls-14" cx="170.69" cy="280.06" r="0.02"/><circle class="cls-14" cx="173.51" cy="282.89" r="0.02"/><circle class="cls-14" cx="165.03" cy="280.06" r="0.29"/><circle class="cls-14" cx="167.86" cy="282.89" r="0.14"/><circle class="cls-14" cx="170.69" cy="285.72" r="0.02"/><circle class="cls-14" cx="173.51" cy="288.54" r="0.09"/><circle class="cls-14" cx="176.34" cy="291.37" r="0.03"/><circle class="cls-14" cx="159.37" cy="280.06" r="0.45"/><circle class="cls-14" cx="162.2" cy="282.89" r="0.29"/><circle class="cls-14" cx="165.03" cy="285.72" r="0.29"/><circle class="cls-14" cx="167.86" cy="288.54" r="0.22"/><circle class="cls-14" cx="170.69" cy="291.37" r="0.17"/><circle class="cls-14" cx="173.51" cy="294.2" r="0.26"/><circle class="cls-14" cx="176.34" cy="297.03" r="0.11"/><circle class="cls-14" cx="179.17" cy="299.86" r="0.06"/><circle class="cls-14" cx="182" cy="302.69" r="0.01"/><circle class="cls-14" cx="184.83" cy="305.51" r="0.01"/><circle class="cls-14" cx="153.72" cy="280.06" r="0.83"/><circle class="cls-14" cx="156.54" cy="282.89" r="0.64"/><circle class="cls-14" cx="159.37" cy="285.72" r="0.45"/><circle class="cls-14" cx="162.2" cy="288.54" r="0.39"/><circle class="cls-14" cx="165.03" cy="291.37" r="0.49"/><circle class="cls-14" cx="167.86" cy="294.2" r="0.41"/><circle class="cls-14" cx="170.69" cy="297.03" r="0.26"/><circle class="cls-14" cx="173.51" cy="299.86" r="0.34"/><circle class="cls-14" cx="176.34" cy="302.69" r="0.28"/><circle class="cls-14" cx="179.17" cy="305.51" r="0.13"/><circle class="cls-14" cx="182" cy="308.34" r="0.08"/><circle class="cls-14" cx="184.83" cy="311.17" r="0.14"/><circle class="cls-14" cx="187.66" cy="314" r="0.09"/><circle class="cls-14" cx="193.31" cy="319.66" r="0.04"/><circle class="cls-14" cx="148.06" cy="280.06" r="0.83"/><circle class="cls-14" cx="150.89" cy="282.89" r="0.83"/><circle class="cls-14" cx="153.72" cy="285.72" r="0.83"/><circle class="cls-14" cx="156.54" cy="288.54" r="0.75"/><circle class="cls-14" cx="159.37" cy="291.37" r="0.67"/><circle class="cls-14" cx="162.2" cy="294.2" r="0.59"/><circle class="cls-14" cx="165.03" cy="297.03" r="0.59"/><circle class="cls-14" cx="167.86" cy="299.86" r="0.51"/><circle class="cls-14" cx="170.69" cy="302.69" r="0.44"/><circle class="cls-14" cx="173.51" cy="305.51" r="0.44"/><circle class="cls-14" cx="176.34" cy="308.34" r="0.37"/><circle class="cls-14" cx="179.17" cy="311.17" r="0.3"/><circle class="cls-14" cx="182" cy="314" r="0.23"/><circle class="cls-14" cx="184.83" cy="316.83" r="0.23"/><circle class="cls-14" cx="187.66" cy="319.66" r="0.17"/><circle class="cls-14" cx="190.49" cy="322.49" r="0.11"/><circle class="cls-14" cx="193.31" cy="325.31" r="0.11"/><circle class="cls-14" cx="196.14" cy="328.14" r="0.06"/><circle class="cls-14" cx="198.97" cy="330.97" r="0.01"/><circle class="cls-14" cx="201.8" cy="333.8" r="0.01"/><circle class="cls-14" cx="148.06" cy="285.72" r="0.83"/><circle class="cls-14" cx="150.89" cy="288.54" r="0.94"/><circle class="cls-14" cx="153.72" cy="291.37" r="1.06"/><circle class="cls-14" cx="156.54" cy="294.2" r="0.98"/><circle class="cls-14" cx="159.37" cy="297.03" r="0.78"/><circle class="cls-14" cx="162.2" cy="299.86" r="0.7"/><circle class="cls-14" cx="165.03" cy="302.69" r="0.81"/><circle class="cls-14" cx="167.86" cy="305.51" r="0.62"/><circle class="cls-14" cx="170.69" cy="308.34" r="0.54"/><circle class="cls-14" cx="173.51" cy="311.17" r="0.65"/><circle class="cls-14" cx="176.34" cy="314" r="0.57"/><circle class="cls-14" cx="179.17" cy="316.83" r="0.4"/><circle class="cls-14" cx="182" cy="319.66" r="0.32"/><circle class="cls-14" cx="184.83" cy="322.49" r="0.42"/><circle class="cls-14" cx="187.66" cy="325.31" r="0.26"/><circle class="cls-14" cx="190.49" cy="328.14" r="0.19"/><circle class="cls-14" cx="193.31" cy="330.97" r="0.28"/><circle class="cls-14" cx="196.14" cy="333.8" r="0.13"/><circle class="cls-14" cx="198.97" cy="336.63" r="0.08"/><circle class="cls-14" cx="201.8" cy="339.46" r="0.16"/><circle class="cls-14" cx="204.63" cy="342.28" r="0.1"/><circle class="cls-14" cx="148.06" cy="291.37" r="1.06"/><circle class="cls-14" cx="150.89" cy="294.2" r="1.19"/><circle class="cls-14" cx="153.72" cy="297.03" r="1.19"/><circle class="cls-14" cx="156.54" cy="299.86" r="1.1"/><circle class="cls-14" cx="159.37" cy="302.69" r="1.01"/><circle class="cls-14" cx="162.2" cy="305.51" r="0.81"/><circle class="cls-14" cx="165.03" cy="308.34" r="0.93"/><circle class="cls-14" cx="167.86" cy="311.17" r="0.84"/><circle class="cls-14" cx="170.69" cy="314" r="0.77"/><circle class="cls-14" cx="173.51" cy="316.83" r="0.77"/><circle class="cls-14" cx="176.34" cy="319.66" r="0.68"/><circle class="cls-14" cx="179.17" cy="322.49" r="0.6"/><circle class="cls-14" cx="182" cy="325.31" r="0.42"/><circle class="cls-14" cx="184.83" cy="328.14" r="0.52"/><circle class="cls-14" cx="187.66" cy="330.97" r="0.44"/><circle class="cls-14" cx="190.49" cy="333.8" r="0.28"/><circle class="cls-14" cx="193.31" cy="336.63" r="0.38"/><circle class="cls-14" cx="196.14" cy="339.46" r="0.31"/><circle class="cls-14" cx="198.97" cy="342.28" r="0.24"/><circle class="cls-14" cx="201.8" cy="345.11" r="0.24"/><circle class="cls-14" cx="148.06" cy="297.03" r="1.19"/><circle class="cls-14" cx="150.89" cy="299.86" r="1.31"/><circle class="cls-14" cx="153.72" cy="302.69" r="1.44"/><circle class="cls-14" cx="156.54" cy="305.51" r="1.22"/><circle class="cls-14" cx="159.37" cy="308.34" r="1.13"/><circle class="cls-14" cx="162.2" cy="311.17" r="1.04"/><circle class="cls-14" cx="165.03" cy="314" r="1.16"/><circle class="cls-14" cx="167.86" cy="316.83" r="0.95"/><circle class="cls-14" cx="170.69" cy="319.66" r="0.88"/><circle class="cls-14" cx="173.51" cy="322.49" r="0.99"/><circle class="cls-14" cx="176.34" cy="325.31" r="0.79"/><circle class="cls-14" cx="179.17" cy="328.14" r="0.71"/><circle class="cls-14" cx="182" cy="330.97" r="0.63"/><circle class="cls-14" cx="184.83" cy="333.8" r="0.63"/><circle class="cls-14" cx="187.66" cy="336.63" r="0.55"/><circle class="cls-14" cx="190.49" cy="339.46" r="0.48"/><circle class="cls-14" cx="193.31" cy="342.28" r="0.58"/><circle class="cls-14" cx="196.14" cy="345.11" r="0.4"/><circle class="cls-14" cx="148.06" cy="302.69" r="1.44"/><circle class="cls-14" cx="150.89" cy="305.51" r="1.44"/><circle class="cls-14" cx="153.72" cy="308.34" r="1.56"/><circle class="cls-14" cx="156.54" cy="311.17" r="1.48"/><circle class="cls-14" cx="159.37" cy="314" r="1.38"/><circle class="cls-14" cx="162.2" cy="316.83" r="1.16"/><circle class="cls-14" cx="165.03" cy="319.66" r="1.29"/><circle class="cls-14" cx="167.86" cy="322.49" r="1.2"/><circle class="cls-14" cx="170.69" cy="325.31" r="0.99"/><circle class="cls-14" cx="173.51" cy="328.14" r="1.11"/><circle class="cls-14" cx="176.34" cy="330.97" r="1.02"/><circle class="cls-14" cx="179.17" cy="333.8" r="0.82"/><circle class="cls-14" cx="182" cy="336.63" r="0.73"/><circle class="cls-14" cx="184.83" cy="339.46" r="0.85"/><circle class="cls-14" cx="187.66" cy="342.28" r="0.77"/><circle class="cls-14" cx="190.49" cy="345.11" r="0.58"/><circle class="cls-14" cx="148.06" cy="308.34" r="1.56"/><circle class="cls-14" cx="150.89" cy="311.17" r="1.7"/><circle class="cls-14" cx="153.72" cy="314" r="1.83"/><circle class="cls-14" cx="156.54" cy="316.83" r="1.6"/><circle class="cls-14" cx="159.37" cy="319.66" r="1.51"/><circle class="cls-14" cx="162.2" cy="322.49" r="1.42"/><circle class="cls-14" cx="165.03" cy="325.31" r="1.42"/><circle class="cls-14" cx="167.86" cy="328.14" r="1.32"/><circle class="cls-14" cx="170.69" cy="330.97" r="1.23"/><circle class="cls-14" cx="173.51" cy="333.8" r="1.23"/><circle class="cls-14" cx="176.34" cy="336.63" r="1.14"/><circle class="cls-14" cx="179.17" cy="339.46" r="1.05"/><circle class="cls-14" cx="182" cy="342.28" r="0.96"/><circle class="cls-14" cx="184.83" cy="345.11" r="0.96"/><circle class="cls-14" cx="148.06" cy="314" r="1.83"/><circle class="cls-14" cx="150.89" cy="316.83" r="1.83"/><circle class="cls-14" cx="153.72" cy="319.66" r="1.96"/><circle class="cls-14" cx="156.54" cy="322.49" r="1.86"/><circle class="cls-14" cx="159.37" cy="325.31" r="1.63"/><circle class="cls-14" cx="162.2" cy="328.14" r="1.54"/><circle class="cls-14" cx="165.03" cy="330.97" r="1.67"/><circle class="cls-14" cx="167.86" cy="333.8" r="1.44"/><circle class="cls-14" cx="170.69" cy="336.63" r="1.35"/><circle class="cls-14" cx="173.51" cy="339.46" r="1.48"/><circle class="cls-14" cx="176.34" cy="342.28" r="1.39"/><circle class="cls-14" cx="179.17" cy="345.11" r="1.18"/><circle class="cls-14" cx="148.06" cy="319.66" r="1.96"/><circle class="cls-14" cx="150.89" cy="322.49" r="2.1"/><circle class="cls-14" cx="153.72" cy="325.31" r="2.1"/><circle class="cls-14" cx="156.54" cy="328.14" r="2.01"/><circle class="cls-14" cx="159.37" cy="330.97" r="1.9"/><circle class="cls-14" cx="162.2" cy="333.8" r="1.67"/><circle class="cls-14" cx="165.03" cy="336.63" r="1.81"/><circle class="cls-14" cx="167.86" cy="339.46" r="1.71"/><circle class="cls-14" cx="170.69" cy="342.28" r="1.61"/><circle class="cls-14" cx="173.51" cy="345.11" r="1.61"/><circle class="cls-14" cx="148.06" cy="325.31" r="2.1"/><circle class="cls-14" cx="150.89" cy="328.14" r="2.24"/><circle class="cls-14" cx="153.72" cy="330.97" r="2.37"/><circle class="cls-14" cx="156.54" cy="333.8" r="2.14"/><circle class="cls-14" cx="159.37" cy="336.63" r="2.04"/><circle class="cls-14" cx="162.2" cy="339.46" r="1.94"/><circle class="cls-14" cx="165.03" cy="342.28" r="2.07"/><circle class="cls-14" cx="167.86" cy="345.11" r="1.84"/><circle class="cls-14" cx="148.06" cy="330.97" r="2.37"/><circle class="cls-14" cx="150.89" cy="333.8" r="2.37"/><circle class="cls-14" cx="153.72" cy="336.63" r="2.52"/><circle class="cls-14" cx="156.54" cy="339.46" r="2.42"/><circle class="cls-14" cx="159.37" cy="342.28" r="2.32"/><circle class="cls-14" cx="162.2" cy="345.11" r="2.07"/><circle class="cls-14" cx="148.06" cy="336.63" r="2.52"/><circle class="cls-14" cx="150.89" cy="339.46" r="2.66"/><circle class="cls-14" cx="153.72" cy="342.28" r="2.81"/><circle class="cls-14" cx="156.54" cy="345.11" r="2.56"/><circle class="cls-14" cx="148.06" cy="342.28" r="2.81"/><circle class="cls-14" cx="150.89" cy="345.11" r="2.81"/></g><ellipse class="cls-15" cx="204.96" cy="328.48" rx="33.45" ry="3"/><path class="cls-16" d="M305.5,295.5h-6c-7.18,0-13,7.16-13,16s5.82,16,13,16h6c7.18,0,13-7.16,13-16S312.68,295.5,305.5,295.5Z"/><ellipse class="cls-16" cx="299.5" cy="311.5" rx="13" ry="16"/><path class="cls-16" d="M240.5,295.5h-6c-7.18,0-13,7.16-13,16s5.82,16,13,16h6c7.18,0,13-7.16,13-16S247.68,295.5,240.5,295.5Z"/><ellipse class="cls-16" cx="234.5" cy="311.5" rx="13" ry="16"/><rect class="cls-15" x="192.5" y="289.5" width="129" height="24"/><path class="cls-16" d="M283.5,297.5h-6c-7.18,0-13,7.16-13,16s5.82,16,13,16h6c7.18,0,13-7.16,13-16S290.68,297.5,283.5,297.5Z"/><ellipse class="cls-16" cx="277.5" cy="313.5" rx="13" ry="16"/><path class="cls-15" d="M218.5,299h-6c-7.18,0-13,6.82-13,15.23s5.82,15.23,13,15.23h6c7.18,0,13-6.82,13-15.23S225.68,299,218.5,299Z"/><path class="cls-15" d="M225.5,314.42c0,5-2.2,10.33-6.71,13.22C214,330.71,207,330,201.58,329.22a4.79,4.79,0,0,1-1.88-.57,1.52,1.52,0,0,1-.76-1.61c.26-.93,1.56-1.17,2.24-1.89a2.46,2.46,0,0,0,.46-2.27,12,12,0,0,0-.94-2.23c-3.79-8,1.15-21.33,11.8-21.33C219.68,299.32,225.5,306.08,225.5,314.42Z"/><ellipse class="cls-13" cx="212.3" cy="313.5" rx="5.53" ry="6.81"/><path class="cls-14" d="M195.22,313.5a1.79,1.79,0,0,0,1.79-1.84c0-.24,0-.45,0-.66,0-9.94,7.16-18,16-18s16,8.06,16,18a18.67,18.67,0,0,1-.1,2l.1.51,32.58-.16c-.05-.6-.08-1.22-.08-1.84,0-9.94,7.16-18,16-18s16,8.06,16,18a18.67,18.67,0,0,1-.1,2h32.1V284.86a4,4,0,0,0-3.59-4L299,278.5c-13.5-42.5-74-42-97.5-13l-17.11,10.27a6,6,0,0,0-2.89,5.1h0a1.33,1.33,0,0,0,0,.28l.35,1.74a1.41,1.41,0,0,1-.38,1.27l-1.6,1.67a1.4,1.4,0,0,0-.4,1v3.78a1.39,1.39,0,0,0,.24.79l.73,1.1a1.44,1.44,0,0,1,0,1.59l-1.73,2.56a1.4,1.4,0,0,0-.24.8v3.74a1.43,1.43,0,0,0,.42,1l.69.68a1.43,1.43,0,0,1-.34,2.28h0a1.42,1.42,0,0,0-.77,1.26v3.08a4,4,0,0,0,4,4Z"/><path class="cls-15" d="M181.48,313.64c.16-.68.81-2,1.5-2.17s1.33-.07,1.54-.61a2.05,2.05,0,0,0,.06-.65,1.41,1.41,0,0,1,2.5-.78,2,2,0,0,0,.37.45c.41.32,1,0,1.44-.24a4.75,4.75,0,0,1,1.57-.67,1.83,1.83,0,0,1,1.6.38,2.19,2.19,0,0,1,.31,2.39.78.78,0,0,0-.07.47c.11.4.69.26,1.1.26s1.13.68,1.27,1.17Z"/><path class="cls-17" d="M283,255.5H269.59a2,2,0,0,0-1.94,2.5l5,19a2,2,0,0,0,1.94,1.5H299"/><path class="cls-17" d="M266.77,276.08l-4.29-19.74a2,2,0,0,0-1-1.33c-2-1.07-7.7-3.44-18.18-2.39a2,2,0,0,0-1.81,2V276.5a2,2,0,0,0,2,2h21.31A2,2,0,0,0,266.77,276.08Z"/><path class="cls-17" d="M236.5,255.8v20.7a2,2,0,0,1-2,2H207.69a2,2,0,0,1-1.89-2.64c1.91-5.42,8.33-17.65,28.26-22A2,2,0,0,1,236.5,255.8Z"/><path class="cls-17" d="M239,286c-1.37,8.21,1.52,21.75,1.52,21.75"/><line class="cls-17" x1="244" y1="285.5" x2="251" y2="285.5"/><rect class="cls-17" x="300.5" y="285.5" width="9" height="7" rx="2"/><rect class="cls-17" x="321.5" y="285.5" width="4" height="7" rx="2"/><line class="cls-17" x1="313.5" y1="288.5" x2="318.5" y2="288.5"/><line class="cls-17" x1="313.5" y1="292.5" x2="318.5" y2="292.5"/><line class="cls-17" x1="313.5" y1="296.5" x2="318.5" y2="296.5"/><line class="cls-17" x1="313.5" y1="300.5" x2="318.5" y2="300.5"/><polyline class="cls-17" points="242.19 253.19 243.5 254.5 245.5 253.5 247.5 257.5 250.5 256.5 252.5 260.5 254.5 257.5 256.5 263.5 260.5 260.5 263.56 262.11"/><polyline class="cls-17" points="241.36 265.65 245.5 269.5 246.5 267.5 249.5 271.5 252.5 268.5 255.5 274.5 258.5 273.5 262.14 278.52"/><rect class="cls-16" x="291.5" y="305.5" width="37" height="8" rx="2"/><line class="cls-16" x1="294" y1="309.5" x2="300.5" y2="309.5"/><rect class="cls-16" x="228.5" y="309.5" width="33" height="4"/><polygon class="cls-16" points="238.5 329.5 251.5 329.5 252.5 333.5 250.5 333.5 244.5 337.5 242.5 334.5 237.5 336.5 238.5 333.5 235.5 332.5 238.5 329.5"/><polygon class="cls-16" points="268.5 333.5 269.5 337.5 263.5 339.5 264.5 336.5 261.5 336.5 263.5 333.5 268.5 333.5"/><path class="cls-3" d="M186.69,327.91l4.26-3.08a2,2,0,0,0,.47-2.76L180,305.49a2,2,0,0,0-2.89-.44l-4,3.13a2,2,0,0,0-.42,2.69l11.12,16.53A2,2,0,0,0,186.69,327.91Z"/></g><rect class="cls-18" x="302.76" y="185.23" width="64" height="64" transform="translate(69.18 -80.64) rotate(15.3)"/><g class="cls-19"><circle class="cls-14" cx="371.53" cy="174.8" r="2.83"/><circle class="cls-14" cx="374.36" cy="177.63" r="2.83"/><circle class="cls-14" cx="365.88" cy="174.8" r="2.83"/><circle class="cls-14" cx="368.71" cy="177.63" r="2.83"/><circle class="cls-14" cx="371.53" cy="180.46" r="2.83"/><circle class="cls-14" cx="374.36" cy="183.29" r="2.83"/><circle class="cls-14" cx="360.22" cy="174.8" r="2.83"/><circle class="cls-14" cx="363.05" cy="177.63" r="2.83"/><circle class="cls-14" cx="365.88" cy="180.46" r="2.83"/><circle class="cls-14" cx="368.71" cy="183.29" r="2.83"/><circle class="cls-14" cx="371.53" cy="186.12" r="2.83"/><circle class="cls-14" cx="374.36" cy="188.95" r="2.83"/><circle class="cls-14" cx="354.56" cy="174.8" r="2.83"/><circle class="cls-14" cx="357.39" cy="177.63" r="2.83"/><circle class="cls-14" cx="360.22" cy="180.46" r="2.83"/><circle class="cls-14" cx="363.05" cy="183.29" r="2.83"/><circle class="cls-14" cx="365.88" cy="186.12" r="2.83"/><circle class="cls-14" cx="368.71" cy="188.95" r="2.83"/><circle class="cls-14" cx="371.53" cy="191.77" r="2.83"/><circle class="cls-14" cx="374.36" cy="194.6" r="2.83"/><circle class="cls-14" cx="348.91" cy="174.8" r="2.83"/><circle class="cls-14" cx="351.74" cy="177.63" r="2.83"/><circle class="cls-14" cx="354.56" cy="180.46" r="2.83"/><circle class="cls-14" cx="357.39" cy="183.29" r="2.83"/><circle class="cls-14" cx="360.22" cy="186.12" r="2.83"/><circle class="cls-14" cx="363.05" cy="188.95" r="2.83"/><circle class="cls-14" cx="365.88" cy="191.77" r="2.77"/><circle class="cls-14" cx="368.71" cy="194.6" r="2.83"/><circle class="cls-14" cx="371.53" cy="197.43" r="2.83"/><circle class="cls-14" cx="374.36" cy="200.26" r="2.83"/><circle class="cls-14" cx="343.25" cy="174.8" r="2.83"/><circle class="cls-14" cx="346.08" cy="177.63" r="2.83"/><circle class="cls-14" cx="348.91" cy="180.46" r="2.83"/><circle class="cls-14" cx="351.74" cy="183.29" r="2.83"/><circle class="cls-14" cx="354.56" cy="186.12" r="2.2"/><circle class="cls-14" cx="357.39" cy="188.95" r="2.43"/><circle class="cls-14" cx="360.22" cy="191.77" r="2.54"/><circle class="cls-14" cx="363.05" cy="194.6" r="2.4"/><circle class="cls-14" cx="365.88" cy="197.43" r="2.64"/><circle class="cls-14" cx="368.71" cy="200.26" r="2.74"/><circle class="cls-14" cx="371.53" cy="203.09" r="2.83"/><circle class="cls-14" cx="374.36" cy="205.92" r="2.83"/><circle class="cls-14" cx="337.59" cy="174.8" r="2.83"/><circle class="cls-14" cx="340.42" cy="177.63" r="2.83"/><circle class="cls-14" cx="343.25" cy="180.46" r="2.83"/><circle class="cls-14" cx="346.08" cy="183.29" r="2.83"/><circle class="cls-14" cx="348.91" cy="186.12" r="1.97"/><circle class="cls-14" cx="351.74" cy="188.95" r="2.2"/><circle class="cls-14" cx="354.56" cy="191.77" r="2.07"/><circle class="cls-14" cx="357.39" cy="194.6" r="2.16"/><circle class="cls-14" cx="360.22" cy="197.43" r="2.4"/><circle class="cls-14" cx="363.05" cy="200.26" r="2.26"/><circle class="cls-14" cx="365.88" cy="203.09" r="2.36"/><circle class="cls-14" cx="368.71" cy="205.92" r="2.6"/><circle class="cls-14" cx="371.53" cy="208.74" r="2.83"/><circle class="cls-14" cx="374.36" cy="211.57" r="2.83"/><circle class="cls-14" cx="331.94" cy="174.8" r="2.83"/><circle class="cls-14" cx="334.76" cy="177.63" r="2.83"/><circle class="cls-14" cx="337.59" cy="180.46" r="2.83"/><circle class="cls-14" cx="340.42" cy="183.29" r="1.65"/><circle class="cls-14" cx="343.25" cy="186.12" r="1.53"/><circle class="cls-14" cx="346.08" cy="188.95" r="1.75"/><circle class="cls-14" cx="348.91" cy="191.77" r="1.84"/><circle class="cls-14" cx="351.74" cy="194.6" r="1.94"/><circle class="cls-14" cx="354.56" cy="197.43" r="1.94"/><circle class="cls-14" cx="357.39" cy="200.26" r="2.03"/><circle class="cls-14" cx="360.22" cy="203.09" r="2.13"/><circle class="cls-14" cx="363.05" cy="205.92" r="2.13"/><circle class="cls-14" cx="365.88" cy="208.74" r="2.23"/><circle class="cls-14" cx="368.71" cy="211.57" r="2.33"/><circle class="cls-14" cx="371.53" cy="214.4" r="2.83"/><circle class="cls-14" cx="374.36" cy="217.23" r="2.83"/><circle class="cls-14" cx="326.28" cy="174.8" r="0.94"/><circle class="cls-14" cx="329.11" cy="177.63" r="2.83"/><circle class="cls-14" cx="331.94" cy="180.46" r="2.83"/><circle class="cls-14" cx="334.76" cy="183.29" r="1.23"/><circle class="cls-14" cx="337.59" cy="186.12" r="1.32"/><circle class="cls-14" cx="340.42" cy="188.95" r="1.53"/><circle class="cls-14" cx="343.25" cy="191.77" r="1.41"/><circle class="cls-14" cx="346.08" cy="194.6" r="1.5"/><circle class="cls-14" cx="348.91" cy="197.43" r="1.71"/><circle class="cls-14" cx="351.74" cy="200.26" r="1.81"/><circle class="cls-14" cx="354.56" cy="203.09" r="1.67"/><circle class="cls-14" cx="357.39" cy="205.92" r="1.9"/><circle class="cls-14" cx="360.22" cy="208.74" r="2"/><circle class="cls-14" cx="363.05" cy="211.57" r="1.86"/><circle class="cls-14" cx="365.88" cy="214.4" r="1.96"/><circle class="cls-14" cx="368.71" cy="217.23" r="2.19"/><circle class="cls-14" cx="371.53" cy="220.06" r="2.83"/><circle class="cls-14" cx="374.36" cy="222.89" r="2.83"/><circle class="cls-14" cx="320.62" cy="174.8" r="0.75"/><circle class="cls-14" cx="323.45" cy="177.63" r="0.75"/><circle class="cls-14" cx="326.28" cy="180.46" r="0.94"/><circle class="cls-14" cx="329.11" cy="183.29" r="1.03"/><circle class="cls-14" cx="331.94" cy="186.12" r="1.11"/><circle class="cls-14" cx="334.76" cy="188.95" r="1.11"/><circle class="cls-14" cx="337.59" cy="191.77" r="1.2"/><circle class="cls-14" cx="340.42" cy="194.6" r="1.29"/><circle class="cls-14" cx="343.25" cy="197.43" r="1.29"/><circle class="cls-14" cx="346.08" cy="200.26" r="1.38"/><circle class="cls-14" cx="348.91" cy="203.09" r="1.46"/><circle class="cls-14" cx="351.74" cy="205.92" r="1.67"/><circle class="cls-14" cx="354.56" cy="208.74" r="1.55"/><circle class="cls-14" cx="357.39" cy="211.57" r="1.64"/><circle class="cls-14" cx="360.22" cy="214.4" r="1.74"/><circle class="cls-14" cx="363.05" cy="217.23" r="1.74"/><circle class="cls-14" cx="365.88" cy="220.06" r="1.83"/><circle class="cls-14" cx="368.71" cy="222.89" r="2.83"/><circle class="cls-14" cx="371.53" cy="225.72" r="2.83"/><circle class="cls-14" cx="374.36" cy="228.54" r="2.83"/><circle class="cls-14" cx="314.97" cy="174.8" r="0.4"/><circle class="cls-14" cx="317.79" cy="177.63" r="0.57"/><circle class="cls-14" cx="320.62" cy="180.46" r="0.75"/><circle class="cls-14" cx="323.45" cy="183.29" r="0.64"/><circle class="cls-14" cx="326.28" cy="186.12" r="0.72"/><circle class="cls-14" cx="329.11" cy="188.95" r="0.91"/><circle class="cls-14" cx="331.94" cy="191.77" r="1"/><circle class="cls-14" cx="334.76" cy="194.6" r="0.89"/><circle class="cls-14" cx="337.59" cy="197.43" r="1.08"/><circle class="cls-14" cx="340.42" cy="200.26" r="1.16"/><circle class="cls-14" cx="343.25" cy="203.09" r="1.04"/><circle class="cls-14" cx="346.08" cy="205.92" r="1.25"/><circle class="cls-14" cx="348.91" cy="208.74" r="1.34"/><circle class="cls-14" cx="351.74" cy="211.57" r="1.43"/><circle class="cls-14" cx="354.56" cy="214.4" r="1.31"/><circle class="cls-14" cx="357.39" cy="217.23" r="1.52"/><circle class="cls-14" cx="360.22" cy="220.06" r="1.61"/><circle class="cls-14" cx="363.05" cy="222.89" r="1.49"/><circle class="cls-14" cx="365.88" cy="225.72" r="1.71"/><circle class="cls-14" cx="368.71" cy="228.54" r="2.83"/><circle class="cls-14" cx="371.53" cy="231.37" r="2.83"/><circle class="cls-14" cx="374.36" cy="234.2" r="2.83"/><circle class="cls-14" cx="309.31" cy="174.8" r="0.24"/><circle class="cls-14" cx="312.14" cy="177.63" r="0.4"/><circle class="cls-14" cx="314.97" cy="180.46" r="0.4"/><circle class="cls-14" cx="317.79" cy="183.29" r="0.47"/><circle class="cls-14" cx="320.62" cy="186.12" r="0.54"/><circle class="cls-14" cx="323.45" cy="188.95" r="0.54"/><circle class="cls-14" cx="326.28" cy="191.77" r="0.62"/><circle class="cls-14" cx="329.11" cy="194.6" r="0.7"/><circle class="cls-14" cx="331.94" cy="197.43" r="0.89"/><circle class="cls-14" cx="334.76" cy="200.26" r="0.78"/><circle class="cls-14" cx="337.59" cy="203.09" r="0.85"/><circle class="cls-14" cx="340.42" cy="205.92" r="1.04"/><circle class="cls-14" cx="343.25" cy="208.74" r="0.93"/><circle class="cls-14" cx="346.08" cy="211.57" r="1.02"/><circle class="cls-14" cx="348.91" cy="214.4" r="1.1"/><circle class="cls-14" cx="351.74" cy="217.23" r="1.31"/><circle class="cls-14" cx="354.56" cy="220.06" r="1.19"/><circle class="cls-14" cx="357.39" cy="222.89" r="1.28"/><circle class="cls-14" cx="360.22" cy="225.72" r="1.49"/><circle class="cls-14" cx="363.05" cy="228.54" r="1.36"/><circle class="cls-14" cx="365.88" cy="231.37" r="1.45"/><circle class="cls-14" cx="368.71" cy="234.2" r="2.83"/><circle class="cls-14" cx="371.53" cy="237.03" r="2.83"/><circle class="cls-14" cx="374.36" cy="239.86" r="2.83"/><circle class="cls-14" cx="303.65" cy="174.8" r="2.83"/><circle class="cls-14" cx="306.48" cy="177.63" r="2.83"/><circle class="cls-14" cx="309.31" cy="180.46" r="0.24"/><circle class="cls-14" cx="312.14" cy="183.29" r="0.31"/><circle class="cls-14" cx="314.97" cy="186.12" r="0.22"/><circle class="cls-14" cx="317.79" cy="188.95" r="0.38"/><circle class="cls-14" cx="320.62" cy="191.77" r="0.44"/><circle class="cls-14" cx="323.45" cy="194.6" r="0.34"/><circle class="cls-14" cx="326.28" cy="197.43" r="0.52"/><circle class="cls-14" cx="329.11" cy="200.26" r="0.59"/><circle class="cls-14" cx="331.94" cy="203.09" r="0.67"/><circle class="cls-14" cx="334.76" cy="205.92" r="0.67"/><circle class="cls-14" cx="337.59" cy="208.74" r="0.74"/><circle class="cls-14" cx="340.42" cy="211.57" r="0.82"/><circle class="cls-14" cx="343.25" cy="214.4" r="0.71"/><circle class="cls-14" cx="346.08" cy="217.23" r="0.9"/><circle class="cls-14" cx="348.91" cy="220.06" r="0.99"/><circle class="cls-14" cx="351.74" cy="222.89" r="1.06"/><circle class="cls-14" cx="354.56" cy="225.72" r="1.06"/><circle class="cls-14" cx="357.39" cy="228.54" r="1.15"/><circle class="cls-14" cx="360.22" cy="231.37" r="1.24"/><circle class="cls-14" cx="363.05" cy="234.2" r="1.12"/><circle class="cls-14" cx="365.88" cy="237.03" r="2.83"/><circle class="cls-14" cx="368.71" cy="239.86" r="2.83"/><circle class="cls-14" cx="371.53" cy="242.69" r="2.83"/><circle class="cls-14" cx="374.36" cy="245.51" r="2.83"/><circle class="cls-14" cx="297.99" cy="174.8" r="2.83"/><circle class="cls-14" cx="300.82" cy="177.63" r="2.83"/><circle class="cls-14" cx="303.65" cy="180.46" r="2.83"/><circle class="cls-14" cx="306.48" cy="183.29" r="2.83"/><circle class="cls-14" cx="309.31" cy="186.12" r="0.09"/><circle class="cls-14" cx="312.14" cy="188.95" r="0.22"/><circle class="cls-14" cx="314.97" cy="191.77" r="0.14"/><circle class="cls-14" cx="317.79" cy="194.6" r="0.2"/><circle class="cls-14" cx="320.62" cy="197.43" r="0.34"/><circle class="cls-14" cx="323.45" cy="200.26" r="0.26"/><circle class="cls-14" cx="326.28" cy="203.09" r="0.32"/><circle class="cls-14" cx="329.11" cy="205.92" r="0.49"/><circle class="cls-14" cx="331.94" cy="208.74" r="0.57"/><circle class="cls-14" cx="334.76" cy="211.57" r="0.47"/><circle class="cls-14" cx="337.59" cy="214.4" r="0.53"/><circle class="cls-14" cx="340.42" cy="217.23" r="0.71"/><circle class="cls-14" cx="343.25" cy="220.06" r="0.61"/><circle class="cls-14" cx="346.08" cy="222.89" r="0.69"/><circle class="cls-14" cx="348.91" cy="225.72" r="0.88"/><circle class="cls-14" cx="351.74" cy="228.54" r="0.95"/><circle class="cls-14" cx="354.56" cy="231.37" r="0.84"/><circle class="cls-14" cx="357.39" cy="234.2" r="0.93"/><circle class="cls-14" cx="360.22" cy="237.03" r="1.12"/><circle class="cls-14" cx="363.05" cy="239.86" r="1.01"/><circle class="cls-14" cx="365.88" cy="242.69" r="2.83"/><circle class="cls-14" cx="368.71" cy="245.51" r="2.83"/><circle class="cls-14" cx="371.53" cy="248.34" r="2.83"/><circle class="cls-14" cx="374.36" cy="251.17" r="2.83"/><circle class="cls-14" cx="295.17" cy="177.63" r="2.83"/><circle class="cls-14" cx="297.99" cy="180.46" r="2.83"/><circle class="cls-14" cx="300.82" cy="183.29" r="2.83"/><circle class="cls-14" cx="303.65" cy="186.12" r="2.83"/><circle class="cls-14" cx="306.48" cy="188.95" r="2.83"/><circle class="cls-14" cx="309.31" cy="191.77" r="0.02"/><circle class="cls-14" cx="312.14" cy="194.6" r="0.07"/><circle class="cls-14" cx="314.97" cy="197.43" r="0.07"/><circle class="cls-14" cx="317.79" cy="200.26" r="0.12"/><circle class="cls-14" cx="320.62" cy="203.09" r="0.18"/><circle class="cls-14" cx="323.45" cy="205.92" r="0.18"/><circle class="cls-14" cx="326.28" cy="208.74" r="0.23"/><circle class="cls-14" cx="329.11" cy="211.57" r="0.3"/><circle class="cls-14" cx="331.94" cy="214.4" r="0.37"/><circle class="cls-14" cx="334.76" cy="217.23" r="0.37"/><circle class="cls-14" cx="337.59" cy="220.06" r="0.43"/><circle class="cls-14" cx="340.42" cy="222.89" r="0.51"/><circle class="cls-14" cx="343.25" cy="225.72" r="0.51"/><circle class="cls-14" cx="346.08" cy="228.54" r="0.58"/><circle class="cls-14" cx="348.91" cy="231.37" r="0.65"/><circle class="cls-14" cx="351.74" cy="234.2" r="0.73"/><circle class="cls-14" cx="354.56" cy="237.03" r="0.73"/><circle class="cls-14" cx="357.39" cy="239.86" r="0.81"/><circle class="cls-14" cx="360.22" cy="242.69" r="0.9"/><circle class="cls-14" cx="363.05" cy="245.51" r="0.9"/><circle class="cls-14" cx="365.88" cy="248.34" r="2.83"/><circle class="cls-14" cx="368.71" cy="251.17" r="2.83"/><circle class="cls-14" cx="371.53" cy="254" r="2.83"/><circle class="cls-14" cx="374.36" cy="256.83" r="2.83"/><circle class="cls-14" cx="292.34" cy="180.46" r="2.83"/><circle class="cls-14" cx="295.17" cy="183.29" r="2.83"/><circle class="cls-14" cx="297.99" cy="186.12" r="2.83"/><circle class="cls-14" cx="300.82" cy="188.95" r="2.83"/><circle class="cls-14" cx="303.65" cy="191.77" r="2.83"/><circle class="cls-14" cx="312.14" cy="200.26" r="0.01"/><circle class="cls-14" cx="317.79" cy="205.92" r="0.06"/><circle class="cls-14" cx="320.62" cy="208.74" r="0.1"/><circle class="cls-14" cx="323.45" cy="211.57" r="0.03"/><circle class="cls-14" cx="326.28" cy="214.4" r="0.08"/><circle class="cls-14" cx="329.11" cy="217.23" r="0.21"/><circle class="cls-14" cx="331.94" cy="220.06" r="0.28"/><circle class="cls-14" cx="334.76" cy="222.89" r="0.19"/><circle class="cls-14" cx="337.59" cy="225.72" r="0.34"/><circle class="cls-14" cx="340.42" cy="228.54" r="0.41"/><circle class="cls-14" cx="343.25" cy="231.37" r="0.32"/><circle class="cls-14" cx="346.08" cy="234.2" r="0.39"/><circle class="cls-14" cx="348.91" cy="237.03" r="0.55"/><circle class="cls-14" cx="351.74" cy="239.86" r="0.63"/><circle class="cls-14" cx="354.56" cy="242.69" r="0.53"/><circle class="cls-14" cx="357.39" cy="245.51" r="0.71"/><circle class="cls-14" cx="360.22" cy="248.34" r="0.79"/><circle class="cls-14" cx="363.05" cy="251.17" r="2.83"/><circle class="cls-14" cx="365.88" cy="254" r="2.83"/><circle class="cls-14" cx="368.71" cy="256.83" r="2.83"/><circle class="cls-14" cx="292.34" cy="186.12" r="2.83"/><circle class="cls-14" cx="295.17" cy="188.95" r="2.83"/><circle class="cls-14" cx="297.99" cy="191.77" r="2.83"/><circle class="cls-14" cx="300.82" cy="194.6" r="2.83"/><circle class="cls-14" cx="326.28" cy="220.06" r="0.02"/><circle class="cls-14" cx="329.11" cy="222.89" r="0.07"/><circle class="cls-14" cx="331.94" cy="225.72" r="0.19"/><circle class="cls-14" cx="334.76" cy="228.54" r="0.11"/><circle class="cls-14" cx="337.59" cy="231.37" r="0.17"/><circle class="cls-14" cx="340.42" cy="234.2" r="0.23"/><circle class="cls-14" cx="343.25" cy="237.03" r="0.23"/><circle class="cls-14" cx="346.08" cy="239.86" r="0.3"/><circle class="cls-14" cx="348.91" cy="242.69" r="0.35"/><circle class="cls-14" cx="351.74" cy="245.51" r="0.53"/><circle class="cls-14" cx="354.56" cy="248.34" r="0.43"/><circle class="cls-14" cx="357.39" cy="251.17" r="0.5"/><circle class="cls-14" cx="360.22" cy="254" r="2.83"/><circle class="cls-14" cx="363.05" cy="256.83" r="2.83"/><circle class="cls-14" cx="292.34" cy="191.77" r="2.83"/><circle class="cls-14" cx="295.17" cy="194.6" r="2.83"/><circle class="cls-14" cx="297.99" cy="197.43" r="2.83"/><circle class="cls-14" cx="300.82" cy="200.26" r="2.83"/><circle class="cls-14" cx="329.11" cy="228.54" r="0.01"/><circle class="cls-14" cx="331.94" cy="231.37" r="0.04"/><circle class="cls-14" cx="337.59" cy="237.03" r="0.1"/><circle class="cls-14" cx="340.42" cy="239.86" r="0.14"/><circle class="cls-14" cx="343.25" cy="242.69" r="0.08"/><circle class="cls-14" cx="346.08" cy="245.51" r="0.21"/><circle class="cls-14" cx="348.91" cy="248.34" r="0.27"/><circle class="cls-14" cx="351.74" cy="251.17" r="0.33"/><circle class="cls-14" cx="354.56" cy="254" r="0.24"/><circle class="cls-14" cx="357.39" cy="256.83" r="0.41"/><circle class="cls-14" cx="292.34" cy="197.43" r="2.83"/><circle class="cls-14" cx="295.17" cy="200.26" r="2.83"/><circle class="cls-14" cx="297.99" cy="203.09" r="2.83"/><circle class="cls-14" cx="300.82" cy="205.92" r="2.83"/><circle class="cls-14" cx="340.42" cy="245.51" r="0.08"/><circle class="cls-14" cx="343.25" cy="248.34" r="0.01"/><circle class="cls-14" cx="346.08" cy="251.17" r="0.06"/><circle class="cls-14" cx="348.91" cy="254" r="0.11"/><circle class="cls-14" cx="351.74" cy="256.83" r="0.24"/><circle class="cls-14" cx="292.34" cy="203.09" r="2.83"/><circle class="cls-14" cx="295.17" cy="205.92" r="2.83"/><circle class="cls-14" cx="297.99" cy="208.74" r="2.83"/><circle class="cls-14" cx="343.25" cy="254" r="2.83"/><circle class="cls-14" cx="346.08" cy="256.83" r="2.83"/><circle class="cls-14" cx="292.34" cy="208.74" r="2.83"/><circle class="cls-14" cx="295.17" cy="211.57" r="2.83"/><circle class="cls-14" cx="297.99" cy="214.4" r="2.83"/><circle class="cls-14" cx="337.59" cy="254" r="2.83"/><circle class="cls-14" cx="340.42" cy="256.83" r="2.83"/><circle class="cls-14" cx="292.34" cy="214.4" r="2.83"/><circle class="cls-14" cx="295.17" cy="217.23" r="2.83"/><circle class="cls-14" cx="297.99" cy="220.06" r="2.83"/><circle class="cls-14" cx="329.11" cy="251.17" r="2.83"/><circle class="cls-14" cx="331.94" cy="254" r="2.83"/><circle class="cls-14" cx="334.76" cy="256.83" r="2.83"/><circle class="cls-14" cx="292.34" cy="220.06" r="2.83"/><circle class="cls-14" cx="323.45" cy="251.17" r="2.83"/><circle class="cls-14" cx="326.28" cy="254" r="2.83"/><circle class="cls-14" cx="329.11" cy="256.83" r="2.83"/><circle class="cls-14" cx="314.97" cy="248.34" r="2.83"/><circle class="cls-14" cx="317.79" cy="251.17" r="2.83"/><circle class="cls-14" cx="320.62" cy="254" r="2.83"/><circle class="cls-14" cx="323.45" cy="256.83" r="2.83"/><circle class="cls-14" cx="309.31" cy="248.34" r="2.83"/><circle class="cls-14" cx="312.14" cy="251.17" r="2.83"/><circle class="cls-14" cx="314.97" cy="254" r="2.83"/><circle class="cls-14" cx="317.79" cy="256.83" r="2.83"/><circle class="cls-14" cx="297.99" cy="242.69" r="2.83"/><circle class="cls-14" cx="300.82" cy="245.51" r="2.83"/><circle class="cls-14" cx="303.65" cy="248.34" r="2.83"/><circle class="cls-14" cx="306.48" cy="251.17" r="2.83"/><circle class="cls-14" cx="309.31" cy="254" r="2.83"/><circle class="cls-14" cx="312.14" cy="256.83" r="2.83"/><circle class="cls-14" cx="292.34" cy="242.69" r="2.83"/><circle class="cls-14" cx="295.17" cy="245.51" r="2.83"/><circle class="cls-14" cx="297.99" cy="248.34" r="2.83"/><circle class="cls-14" cx="300.82" cy="251.17" r="2.83"/><circle class="cls-14" cx="303.65" cy="254" r="2.83"/><circle class="cls-14" cx="306.48" cy="256.83" r="2.83"/><circle class="cls-14" cx="292.34" cy="248.34" r="2.83"/><circle class="cls-14" cx="295.17" cy="251.17" r="2.83"/><circle class="cls-14" cx="297.99" cy="254" r="2.83"/><circle class="cls-14" cx="300.82" cy="256.83" r="2.83"/><circle class="cls-14" cx="292.34" cy="254" r="2.83"/><circle class="cls-14" cx="295.17" cy="256.83" r="2.83"/></g><path class="cls-3" d="M330.83,195.14a16.19,16.19,0,0,1,7.33-2.46c5.31-.62,10.94.3,15.3,3.4s7.15,8.59,6.25,13.85-6,9.74-11.29,9.19c-1.27-.13-3.05-.2-3.31,1a2.81,2.81,0,0,0,.61,1.84,6.49,6.49,0,0,1-5.09,9.61c-1.14.1-2.47,0-3.26.81a4.6,4.6,0,0,0-.77,2.42c-.79,4.6-6.43,7.64-10.71,5.78-.62-1,1-1.93,1.69-2.94,1.59-2.32-2.21-5-2-7.81.11-1.75,1.74-3,3.35-3.67a2.67,2.67,0,0,0,1.21-.76,1.82,1.82,0,0,0-.69-2.39,16,16,0,0,0-2.54-1.1c-2.74-1.27-3.9-4.88-2.9-7.73a8.07,8.07,0,0,1,4.73-4.5c.89-.36,2-.87,2-1.83s-1-1.22-1.7-1.74C325.37,203.36,327.89,197.18,330.83,195.14Z"/><path class="cls-14" d="M302.87,212.53c10.48,8.79,13.65,27.47,13.65,27.47l22,11.43-43.05-11.78Z"/><path class="cls-3" d="M301.59,217.23l7.41,2.61s4.61,5.4,7.52,20.16l-20-4.19Z"/><line class="cls-20" x1="300.95" y1="233.06" x2="306.35" y2="225.03"/><line class="cls-20" x1="305.76" y1="234.23" x2="308.54" y2="230.58"/><line class="cls-20" x1="337.43" y1="199.35" x2="339.77" y2="203.58"/><line class="cls-20" x1="336.41" y1="203.29" x2="340.35" y2="200.22"/><line class="cls-20" x1="346.62" y1="201.1" x2="349.25" y2="205.77"/><line class="cls-20" x1="345.6" y1="205.04" x2="349.54" y2="202.41"/><path class="cls-20" d="M338,209a3.93,3.93,0,0,1,6.59,2.31"/><path class="cls-15" d="M299.94,237.67a2.52,2.52,0,0,1,4.89,0c2.44-1.39,5-2.63,7.5-3.85.13.32.21.59.33.91a28.85,28.85,0,0,1-7.11,3.93C303.73,239.37,301.75,238.42,299.94,237.67Z"/><path class="cls-21" d="M128.1,368.13a40,40,0,0,1,19.75-71.22"/><path class="cls-21" d="M199.32,348.38a40,40,0,0,1-71.22,19.75"/><path class="cls-22" d="M128,368H96a32,32,0,0,1-32-32V208a32,32,0,0,0-32-32H0"/><path class="cls-23" d="M128,368H96a32,32,0,0,1-32-32V208a32,32,0,0,0-32-32H0"/><circle class="cls-5" cx="128" cy="368" r="15"/><circle class="cls-5" cx="128" cy="368" r="6"/><path class="cls-21" d="M400.37,159.86a40,40,0,0,1-31.82,66.71"/><path class="cls-21" d="M329.14,179.61a40,40,0,0,1,71.23-19.75"/><path class="cls-22" d="M400,160l2.75-2.75A154.51,154.51,0,0,1,512,112h0"/><path class="cls-23" d="M400,160l2.75-2.75A154.51,154.51,0,0,1,512,112h0"/><circle class="cls-5" cx="400" cy="160" r="15"/><circle class="cls-5" cx="400" cy="160" r="6"/></g></svg>