<?xml version="1.0" encoding="utf-8"?>
<!-- Generator: Adobe Illustrator 19.1.0, SVG Export Plug-In . SVG Version: 6.00 Build 0)  -->
<svg version="1.1" id="Layer_1" xmlns:sketch="http://www.bohemiancoding.com/sketch/ns"
	 xmlns="http://www.w3.org/2000/svg" xmlns:xlink="http://www.w3.org/1999/xlink" x="0px" y="0px" viewBox="-387.5 288.5 25 25"
	 style="enable-background:new -387.5 288.5 25 25;" xml:space="preserve">
<style type="text/css">
	.st0{fill:#FFFFFF;}
</style>
<g id="_x30_1_x2F_25_x2F_2016" sketch:type="MSPage">
	<g id="Desktop-Form-A" transform="translate(-120.000000, -3382.000000)" sketch:type="MSArtboardGroup">
		<g id="Footer" transform="translate(0.000000, 3160.000000)" sketch:type="MSLayerGroup">
			<g id="Twitter-_x2B_-Linkedin-_x2B_-Facebook" transform="translate(120.000000, 222.000000)" sketch:type="MSShapeGroup">
				<path id="Twitter" class="st0" d="M-363.7,291.4c-0.9,0.6-2,1-3.1,1.2c-0.9-1-2.2-1.6-3.6-1.6c-2.7,0-4.9,2.3-4.9,5
					c0,0.4,0,0.8,0.1,1.2c-4.1-0.2-7.7-2.2-10.1-5.3c-0.4,0.7-0.7,1.6-0.7,2.5c0,1.8,0.9,3.3,2.2,4.2c-0.8,0-1.6-0.3-2.2-0.6v0.1
					c0,2.4,1.7,4.5,3.9,5c-0.4,0.1-0.8,0.2-1.3,0.2c-0.3,0-0.6,0-0.9-0.1c0.6,2,2.4,3.5,4.6,3.5c-1.7,1.4-3.8,2.2-6.1,2.2
					c-0.4,0-0.8,0-1.2-0.1c2.2,1.4,4.8,2.3,7.5,2.3c9,0,14-7.7,14-14.4c0-0.2,0-0.4,0-0.7c1-0.7,1.8-1.6,2.4-2.6
					c-0.9,0.4-1.8,0.7-2.8,0.8C-364.9,293.5-364.1,292.5-363.7,291.4"/>
			</g>
		</g>
	</g>
</g>
</svg>
