<svg xmlns="http://www.w3.org/2000/svg" xmlns:xlink="http://www.w3.org/1999/xlink" viewBox="0 0 512 512"><defs><style>.cls-1,.cls-13,.cls-14,.cls-16,.cls-19,.cls-3,.cls-5,.cls-6,.cls-7{fill:none;}.cls-2{fill:#fe6f66;}.cls-3{stroke:#e6e6ea;}.cls-12,.cls-13,.cls-14,.cls-15,.cls-16,.cls-17,.cls-19,.cls-3,.cls-5,.cls-6,.cls-7{stroke-miterlimit:10;}.cls-4{fill:url(#linear-gradient);}.cls-15,.cls-16,.cls-17,.cls-5,.cls-6{stroke:#c1c1ca;}.cls-17,.cls-5{stroke-linecap:round;}.cls-12,.cls-13,.cls-14,.cls-15,.cls-16,.cls-17,.cls-5{stroke-width:2px;}.cls-6{stroke-width:16px;}.cls-19,.cls-7{stroke:#fff;}.cls-7{stroke-width:12px;}.cls-8{fill:#32c2cc;}.cls-9{clip-path:url(#clip-path);}.cls-10,.cls-15,.cls-17{fill:#fff;}.cls-11{fill:#31c1cb;}.cls-12,.cls-13{stroke:#000;}.cls-14{stroke:#31c1cb;}.cls-18{fill:url(#linear-gradient-2);}.cls-19{stroke-width:6px;}.cls-20{fill:url(#linear-gradient-3);}.cls-21{fill:url(#linear-gradient-4);}</style><linearGradient id="linear-gradient" x1="643.14" y1="821.14" x2="643.14" y2="783.14" gradientTransform="translate(-577.14 -546.14)" gradientUnits="userSpaceOnUse"><stop offset="0.02" stop-color="#32c2cc"/><stop offset="0.06" stop-color="#3ec4ce"/><stop offset="0.31" stop-color="#86d3da"/><stop offset="0.51" stop-color="#badde3"/><stop offset="0.67" stop-color="#dae4e8"/><stop offset="0.75" stop-color="#e6e6ea"/></linearGradient><clipPath id="clip-path"><rect class="cls-1" x="352" y="288" width="64" height="64" rx="2"/></clipPath><linearGradient id="linear-gradient-2" x1="988.14" y1="749.94" x2="988.14" y2="711.94" gradientTransform="translate(-545.94 -554.94)" gradientUnits="userSpaceOnUse"><stop offset="0.02" stop-color="#fe6f66"/><stop offset="0.19" stop-color="#f7908a"/><stop offset="0.45" stop-color="#eebebe"/><stop offset="0.64" stop-color="#e8dbde"/><stop offset="0.75" stop-color="#e6e6ea"/></linearGradient><linearGradient id="linear-gradient-3" x1="480" y1="264.5" x2="480" y2="226.5" gradientTransform="matrix(1, 0, 0, 1, 0, 0)" xlink:href="#linear-gradient"/><linearGradient id="linear-gradient-4" x1="1016.14" y1="-7.54" x2="1016.14" y2="-24.54" gradientTransform="translate(-975.64 224.04)" xlink:href="#linear-gradient-2"/><symbol id="bad-thing" data-name="bad-thing" viewBox="0 0 10.48 10.48"><path class="cls-2" d="M9.54,6.61,10.19,6a1,1,0,0,0,0-1.41l-.65-.66a1,1,0,0,1-.3-.71V2.24a1,1,0,0,0-1-1H7.31A1,1,0,0,1,6.61,1L6,.29a1,1,0,0,0-1.41,0L3.88,1a1,1,0,0,1-.71.29H2.24a1,1,0,0,0-1,1v.93A1,1,0,0,1,1,3.88l-.66.66A1,1,0,0,0,.29,6L1,6.61a1,1,0,0,1,.29.7v.93a1,1,0,0,0,1,1h.93a1,1,0,0,1,.71.3l.66.65a1,1,0,0,0,1.41,0l.66-.65a1,1,0,0,1,.7-.3h.93a1,1,0,0,0,1-1V7.31A1,1,0,0,1,9.54,6.61Z"/></symbol><symbol id="badthing" data-name="badthing" viewBox="0 0 10.48 10.48"><use width="10.49" height="10.49" xlink:href="#bad-thing"/></symbol></defs><title>automation-illo-vector_01 copy</title><g id="Layer_4" data-name="Layer 4"><polyline class="cls-3" points="32 0 32 208 64 208"/><polyline class="cls-3" points="128 0 128 32 288 32 288 192 368 192 368 224 480 224 480 272"/><polyline class="cls-3" points="512 64 160 64 160 256 47 256"/><rect class="cls-4" x="65.5" y="237" width="1" height="38" transform="translate(322 190) rotate(90)"/><polyline class="cls-3" points="512 112 384 112 384 144 208 144 208 264"/><path class="cls-5" d="M141,328a20,20,0,0,1,29.32-22.5"/><path class="cls-5" d="M170.32,350.5A20,20,0,0,1,141,328"/><path class="cls-6" d="M256,272l25.28-25.28C324.51,203.49,217,135,144.71,207.29,134.85,217.15,108.15,240,72,240"/><path class="cls-7" d="M256,272l25.28-25.28C324.51,203.49,217,135,144.71,207.29,134.85,217.15,108.15,240,72,240"/><path class="cls-6" d="M256,272l29-14.5a78.24,78.24,0,0,1,70,0h0a78.32,78.32,0,0,0,59.76,4.25L432,256"/><path class="cls-7" d="M256,272l29-14.5a78.24,78.24,0,0,1,70,0h0a78.32,78.32,0,0,0,59.76,4.25L432,256"/><path class="cls-6" d="M288,272h15.88a38.92,38.92,0,0,0,27.52-11.4L384,208"/><path class="cls-7" d="M288,272h15.88a38.92,38.92,0,0,0,27.52-11.4L384,208"/><path class="cls-6" d="M256,272H100a28,28,0,0,0-28,28h0a28,28,0,0,0,28,28h40"/><path class="cls-7" d="M256,272H100a28,28,0,0,0-28,28h0a28,28,0,0,0,28,28h40"/><rect class="cls-8" x="352" y="288" width="64" height="64" rx="2"/><g class="cls-9"><use width="10.49" height="10.49" transform="translate(412.28 285.6) rotate(45) scale(0.06)" xlink:href="#badthing"/><use width="10.49" height="10.49" transform="translate(415.11 288.43) rotate(45) scale(0.06)" xlink:href="#badthing"/><use width="10.49" height="10.49" transform="translate(406.63 285.6) rotate(45) scale(0.06)" xlink:href="#badthing"/><use width="10.49" height="10.49" transform="translate(409.46 288.43) rotate(45) scale(0.06)" xlink:href="#badthing"/><use width="10.49" height="10.49" transform="translate(412.28 291.25) rotate(45) scale(0.06)" xlink:href="#badthing"/><use width="10.49" height="10.49" transform="translate(415.11 294.08) rotate(45) scale(0.06)" xlink:href="#badthing"/><use width="10.49" height="10.49" transform="translate(400.97 285.6) rotate(45) scale(0.06)" xlink:href="#badthing"/><use width="10.49" height="10.49" transform="translate(403.8 288.43) rotate(45) scale(0.06)" xlink:href="#badthing"/><use width="10.49" height="10.49" transform="translate(406.63 291.25) rotate(45) scale(0.06)" xlink:href="#badthing"/><use width="10.49" height="10.49" transform="translate(409.46 294.08) rotate(45) scale(0.06)" xlink:href="#badthing"/><use width="10.49" height="10.49" transform="translate(412.28 296.91) rotate(45) scale(0.06)" xlink:href="#badthing"/><use width="10.49" height="10.49" transform="translate(415.11 299.74) rotate(45) scale(0.06)" xlink:href="#badthing"/><use width="10.49" height="10.49" transform="translate(395.31 285.6) rotate(45) scale(0.06)" xlink:href="#badthing"/><use width="10.49" height="10.49" transform="translate(398.14 288.43) rotate(45) scale(0.06)" xlink:href="#badthing"/><use width="10.49" height="10.49" transform="translate(400.97 291.25) rotate(45) scale(0.06)" xlink:href="#badthing"/><use width="10.49" height="10.49" transform="translate(403.8 294.08) rotate(45) scale(0.06)" xlink:href="#badthing"/><use width="10.49" height="10.49" transform="translate(406.63 296.91) rotate(45) scale(0.06)" xlink:href="#badthing"/><use width="10.49" height="10.49" transform="translate(409.46 299.74) rotate(45) scale(0.06)" xlink:href="#badthing"/><use width="10.49" height="10.49" transform="translate(412.28 302.57) rotate(45) scale(0.06)" xlink:href="#badthing"/><use width="10.49" height="10.49" transform="translate(415.11 305.4) rotate(45) scale(0.06)" xlink:href="#badthing"/><use width="10.49" height="10.49" transform="translate(389.66 285.6) rotate(45) scale(0.06)" xlink:href="#badthing"/><use width="10.49" height="10.49" transform="translate(392.49 288.43) rotate(45) scale(0.06)" xlink:href="#badthing"/><use width="10.49" height="10.49" transform="translate(395.31 291.25) rotate(45) scale(0.06)" xlink:href="#badthing"/><use width="10.49" height="10.49" transform="translate(398.14 294.08) rotate(45) scale(0.06)" xlink:href="#badthing"/><use width="10.49" height="10.49" transform="translate(400.97 296.91) rotate(45) scale(0.06)" xlink:href="#badthing"/><use width="10.49" height="10.49" transform="translate(403.8 299.74) rotate(45) scale(0.06)" xlink:href="#badthing"/><use width="10.49" height="10.49" transform="translate(406.63 302.57) rotate(45) scale(0.06)" xlink:href="#badthing"/><use width="10.49" height="10.49" transform="translate(409.46 305.4) rotate(45) scale(0.06)" xlink:href="#badthing"/><use width="10.49" height="10.49" transform="translate(412.28 308.22) rotate(45) scale(0.06)" xlink:href="#badthing"/><use width="10.49" height="10.49" transform="translate(415.11 311.05) rotate(45) scale(0.06)" xlink:href="#badthing"/><use width="10.49" height="10.49" transform="translate(384 285.6) rotate(45) scale(0.06)" xlink:href="#badthing"/><use width="10.49" height="10.49" transform="translate(386.83 288.43) rotate(45) scale(0.06)" xlink:href="#badthing"/><use width="10.49" height="10.49" transform="translate(389.66 291.25) rotate(45) scale(0.06)" xlink:href="#badthing"/><use width="10.49" height="10.49" transform="translate(392.49 294.08) rotate(45) scale(0.06)" xlink:href="#badthing"/><use width="10.49" height="10.49" transform="translate(395.31 296.91) rotate(45) scale(0.06)" xlink:href="#badthing"/><use width="10.49" height="10.49" transform="translate(398.14 299.74) rotate(45) scale(0.06)" xlink:href="#badthing"/><use width="10.49" height="10.49" transform="translate(400.97 302.57) rotate(45) scale(0.06)" xlink:href="#badthing"/><use width="10.49" height="10.49" transform="translate(403.8 305.4) rotate(45) scale(0.06)" xlink:href="#badthing"/><use width="10.49" height="10.49" transform="translate(406.63 308.22) rotate(45) scale(0.06)" xlink:href="#badthing"/><use width="10.49" height="10.49" transform="translate(409.46 311.05) rotate(45) scale(0.06)" xlink:href="#badthing"/><use width="10.49" height="10.49" transform="translate(412.28 313.88) rotate(45) scale(0.06)" xlink:href="#badthing"/><use width="10.49" height="10.49" transform="translate(415.11 316.71) rotate(45) scale(0.06)" xlink:href="#badthing"/><use width="10.49" height="10.49" transform="translate(378.34 285.19) rotate(45) scale(0.12)" xlink:href="#badthing"/><use width="10.49" height="10.49" transform="translate(381.17 288.35) rotate(45) scale(0.07)" xlink:href="#badthing"/><use width="10.49" height="10.49" transform="translate(384 291.25) rotate(45) scale(0.06)" xlink:href="#badthing"/><use width="10.49" height="10.49" transform="translate(386.83 294.08) rotate(45) scale(0.06)" xlink:href="#badthing"/><use width="10.49" height="10.49" transform="translate(389.66 296.91) rotate(45) scale(0.06)" xlink:href="#badthing"/><use width="10.49" height="10.49" transform="translate(392.49 299.74) rotate(45) scale(0.06)" xlink:href="#badthing"/><use width="10.49" height="10.49" transform="translate(395.31 302.57) rotate(45) scale(0.06)" xlink:href="#badthing"/><use width="10.49" height="10.49" transform="translate(398.14 305.4) rotate(45) scale(0.06)" xlink:href="#badthing"/><use width="10.49" height="10.49" transform="translate(400.97 308.22) rotate(45) scale(0.06)" xlink:href="#badthing"/><use width="10.49" height="10.49" transform="translate(403.8 311.05) rotate(45) scale(0.06)" xlink:href="#badthing"/><use width="10.49" height="10.49" transform="translate(406.63 313.88) rotate(45) scale(0.06)" xlink:href="#badthing"/><use width="10.49" height="10.49" transform="translate(409.46 316.71) rotate(45) scale(0.06)" xlink:href="#badthing"/><use width="10.49" height="10.49" transform="translate(412.28 319.54) rotate(45) scale(0.06)" xlink:href="#badthing"/><use width="10.49" height="10.49" transform="translate(415.11 322.37) rotate(45) scale(0.06)" xlink:href="#badthing"/><use width="10.49" height="10.49" transform="translate(372.69 284.78) rotate(45) scale(0.17)" xlink:href="#badthing"/><use width="10.49" height="10.49" transform="translate(375.51 287.6) rotate(45) scale(0.17)" xlink:href="#badthing"/><use width="10.49" height="10.49" transform="translate(378.34 290.85) rotate(45) scale(0.12)" xlink:href="#badthing"/><use width="10.49" height="10.49" transform="translate(381.17 294.01) rotate(45) scale(0.07)" xlink:href="#badthing"/><use width="10.49" height="10.49" transform="translate(384 296.91) rotate(45) scale(0.06)" xlink:href="#badthing"/><use width="10.49" height="10.49" transform="translate(386.83 299.74) rotate(45) scale(0.06)" xlink:href="#badthing"/><use width="10.49" height="10.49" transform="translate(389.66 302.57) rotate(45) scale(0.06)" xlink:href="#badthing"/><use width="10.49" height="10.49" transform="translate(392.49 305.4) rotate(45) scale(0.06)" xlink:href="#badthing"/><use width="10.49" height="10.49" transform="translate(395.31 308.22) rotate(45) scale(0.06)" xlink:href="#badthing"/><use width="10.49" height="10.49" transform="translate(398.14 311.05) rotate(45) scale(0.06)" xlink:href="#badthing"/><use width="10.49" height="10.49" transform="translate(400.97 313.88) rotate(45) scale(0.06)" xlink:href="#badthing"/><use width="10.49" height="10.49" transform="translate(403.8 316.71) rotate(45) scale(0.06)" xlink:href="#badthing"/><use width="10.49" height="10.49" transform="translate(406.63 319.54) rotate(45) scale(0.06)" xlink:href="#badthing"/><use width="10.49" height="10.49" transform="translate(409.46 322.37) rotate(45) scale(0.06)" xlink:href="#badthing"/><use width="10.49" height="10.49" transform="translate(412.28 325.2) rotate(45) scale(0.06)" xlink:href="#badthing"/><use width="10.49" height="10.49" transform="translate(415.11 328.02) rotate(45) scale(0.06)" xlink:href="#badthing"/><use width="10.49" height="10.49" transform="translate(367.03 283.82) rotate(45) scale(0.3)" xlink:href="#badthing"/><use width="10.49" height="10.49" transform="translate(369.86 287.14) rotate(45) scale(0.24)" xlink:href="#badthing"/><use width="10.49" height="10.49" transform="translate(372.69 290.43) rotate(45) scale(0.17)" xlink:href="#badthing"/><use width="10.49" height="10.49" transform="translate(375.51 293.26) rotate(45) scale(0.17)" xlink:href="#badthing"/><use width="10.49" height="10.49" transform="translate(378.34 296.51) rotate(45) scale(0.12)" xlink:href="#badthing"/><use width="10.49" height="10.49" transform="translate(381.17 299.67) rotate(45) scale(0.07)" xlink:href="#badthing"/><use width="10.49" height="10.49" transform="translate(384 302.57) rotate(45) scale(0.06)" xlink:href="#badthing"/><use width="10.49" height="10.49" transform="translate(386.83 305.4) rotate(45) scale(0.06)" xlink:href="#badthing"/><use width="10.49" height="10.49" transform="translate(389.66 308.22) rotate(45) scale(0.06)" xlink:href="#badthing"/><use width="10.49" height="10.49" transform="translate(392.49 311.05) rotate(45) scale(0.06)" xlink:href="#badthing"/><use width="10.49" height="10.49" transform="translate(395.31 313.88) rotate(45) scale(0.06)" xlink:href="#badthing"/><use width="10.49" height="10.49" transform="translate(398.14 316.71) rotate(45) scale(0.06)" xlink:href="#badthing"/><use width="10.49" height="10.49" transform="translate(400.97 319.54) rotate(45) scale(0.06)" xlink:href="#badthing"/><use width="10.49" height="10.49" transform="translate(403.8 322.37) rotate(45) scale(0.06)" xlink:href="#badthing"/><use width="10.49" height="10.49" transform="translate(406.63 325.2) rotate(45) scale(0.06)" xlink:href="#badthing"/><use width="10.49" height="10.49" transform="translate(409.46 328.02) rotate(45) scale(0.06)" xlink:href="#badthing"/><use width="10.49" height="10.49" transform="translate(412.28 330.85) rotate(45) scale(0.06)" xlink:href="#badthing"/><use width="10.49" height="10.49" transform="translate(415.11 333.68) rotate(45) scale(0.06)" xlink:href="#badthing"/><use width="10.49" height="10.49" transform="translate(361.37 283.3) rotate(45) scale(0.37)" xlink:href="#badthing"/><use width="10.49" height="10.49" transform="translate(364.2 286.65) rotate(45) scale(0.3)" xlink:href="#badthing"/><use width="10.49" height="10.49" transform="translate(367.03 289.48) rotate(45) scale(0.3)" xlink:href="#badthing"/><use width="10.49" height="10.49" transform="translate(369.86 292.8) rotate(45) scale(0.24)" xlink:href="#badthing"/><use width="10.49" height="10.49" transform="translate(372.69 296.09) rotate(45) scale(0.17)" xlink:href="#badthing"/><use width="10.49" height="10.49" transform="translate(375.51 298.92) rotate(45) scale(0.17)" xlink:href="#badthing"/><use width="10.49" height="10.49" transform="translate(378.34 302.16) rotate(45) scale(0.12)" xlink:href="#badthing"/><use width="10.49" height="10.49" transform="translate(381.17 305.32) rotate(45) scale(0.07)" xlink:href="#badthing"/><use width="10.49" height="10.49" transform="translate(384 308.22) rotate(45) scale(0.06)" xlink:href="#badthing"/><use width="10.49" height="10.49" transform="translate(386.83 311.05) rotate(45) scale(0.06)" xlink:href="#badthing"/><use width="10.49" height="10.49" transform="translate(389.66 313.88) rotate(45) scale(0.06)" xlink:href="#badthing"/><use width="10.49" height="10.49" transform="translate(392.49 316.71) rotate(45) scale(0.06)" xlink:href="#badthing"/><use width="10.49" height="10.49" transform="translate(395.31 319.54) rotate(45) scale(0.06)" xlink:href="#badthing"/><use width="10.49" height="10.49" transform="translate(398.14 322.37) rotate(45) scale(0.06)" xlink:href="#badthing"/><use width="10.49" height="10.49" transform="translate(400.97 325.2) rotate(45) scale(0.06)" xlink:href="#badthing"/><use width="10.49" height="10.49" transform="translate(403.8 328.02) rotate(45) scale(0.06)" xlink:href="#badthing"/><use width="10.49" height="10.49" transform="translate(406.63 330.85) rotate(45) scale(0.06)" xlink:href="#badthing"/><use width="10.49" height="10.49" transform="translate(409.46 333.68) rotate(45) scale(0.06)" xlink:href="#badthing"/><use width="10.49" height="10.49" transform="translate(412.28 336.51) rotate(45) scale(0.06)" xlink:href="#badthing"/><use width="10.49" height="10.49" transform="translate(415.11 339.34) rotate(45) scale(0.06)" xlink:href="#badthing"/><use width="10.49" height="10.49" transform="translate(355.72 282.38) rotate(45) scale(0.5)" xlink:href="#badthing"/><use width="10.49" height="10.49" transform="translate(358.54 285.59) rotate(45) scale(0.45)" xlink:href="#badthing"/><use width="10.49" height="10.49" transform="translate(361.37 288.96) rotate(45) scale(0.37)" xlink:href="#badthing"/><use width="10.49" height="10.49" transform="translate(364.2 292.31) rotate(45) scale(0.3)" xlink:href="#badthing"/><use width="10.49" height="10.49" transform="translate(367.03 295.14) rotate(45) scale(0.3)" xlink:href="#badthing"/><use width="10.49" height="10.49" transform="translate(369.86 298.46) rotate(45) scale(0.24)" xlink:href="#badthing"/><use width="10.49" height="10.49" transform="translate(372.69 301.75) rotate(45) scale(0.17)" xlink:href="#badthing"/><use width="10.49" height="10.49" transform="translate(375.51 304.57) rotate(45) scale(0.17)" xlink:href="#badthing"/><use width="10.49" height="10.49" transform="translate(378.34 307.82) rotate(45) scale(0.12)" xlink:href="#badthing"/><use width="10.49" height="10.49" transform="translate(381.17 310.98) rotate(45) scale(0.07)" xlink:href="#badthing"/><use width="10.49" height="10.49" transform="translate(384 313.88) rotate(45) scale(0.06)" xlink:href="#badthing"/><use width="10.49" height="10.49" transform="translate(386.83 316.71) rotate(45) scale(0.06)" xlink:href="#badthing"/><use width="10.49" height="10.49" transform="translate(389.66 319.54) rotate(45) scale(0.06)" xlink:href="#badthing"/><use width="10.49" height="10.49" transform="translate(392.49 322.37) rotate(45) scale(0.06)" xlink:href="#badthing"/><use width="10.49" height="10.49" transform="translate(395.31 325.2) rotate(45) scale(0.06)" xlink:href="#badthing"/><use width="10.49" height="10.49" transform="translate(398.14 328.02) rotate(45) scale(0.06)" xlink:href="#badthing"/><use width="10.49" height="10.49" transform="translate(400.97 330.85) rotate(45) scale(0.06)" xlink:href="#badthing"/><use width="10.49" height="10.49" transform="translate(403.8 333.68) rotate(45) scale(0.06)" xlink:href="#badthing"/><use width="10.49" height="10.49" transform="translate(406.63 336.51) rotate(45) scale(0.06)" xlink:href="#badthing"/><use width="10.49" height="10.49" transform="translate(409.46 339.34) rotate(45) scale(0.06)" xlink:href="#badthing"/><use width="10.49" height="10.49" transform="translate(412.28 342.17) rotate(45) scale(0.06)" xlink:href="#badthing"/><use width="10.49" height="10.49" transform="translate(415.11 344.99) rotate(45) scale(0.06)" xlink:href="#badthing"/><use width="10.49" height="10.49" transform="translate(350.06 282.38) rotate(45) scale(0.5)" xlink:href="#badthing"/><use width="10.49" height="10.49" transform="translate(352.89 285.21) rotate(45) scale(0.5)" xlink:href="#badthing"/><use width="10.49" height="10.49" transform="translate(355.72 288.04) rotate(45) scale(0.5)" xlink:href="#badthing"/><use width="10.49" height="10.49" transform="translate(358.54 291.24) rotate(45) scale(0.45)" xlink:href="#badthing"/><use width="10.49" height="10.49" transform="translate(361.37 294.62) rotate(45) scale(0.37)" xlink:href="#badthing"/><use width="10.49" height="10.49" transform="translate(364.2 297.97) rotate(45) scale(0.3)" xlink:href="#badthing"/><use width="10.49" height="10.49" transform="translate(367.03 300.79) rotate(45) scale(0.3)" xlink:href="#badthing"/><use width="10.49" height="10.49" transform="translate(369.86 304.11) rotate(45) scale(0.24)" xlink:href="#badthing"/><use width="10.49" height="10.49" transform="translate(372.69 307.4) rotate(45) scale(0.17)" xlink:href="#badthing"/><use width="10.49" height="10.49" transform="translate(375.51 310.23) rotate(45) scale(0.17)" xlink:href="#badthing"/><use width="10.49" height="10.49" transform="translate(378.34 313.48) rotate(45) scale(0.12)" xlink:href="#badthing"/><use width="10.49" height="10.49" transform="translate(381.17 316.64) rotate(45) scale(0.07)" xlink:href="#badthing"/><use width="10.49" height="10.49" transform="translate(384 319.54) rotate(45) scale(0.06)" xlink:href="#badthing"/><use width="10.49" height="10.49" transform="translate(386.83 322.37) rotate(45) scale(0.06)" xlink:href="#badthing"/><use width="10.49" height="10.49" transform="translate(389.66 325.2) rotate(45) scale(0.06)" xlink:href="#badthing"/><use width="10.49" height="10.49" transform="translate(392.49 328.02) rotate(45) scale(0.06)" xlink:href="#badthing"/><use width="10.49" height="10.49" transform="translate(395.31 330.85) rotate(45) scale(0.06)" xlink:href="#badthing"/><use width="10.49" height="10.49" transform="translate(398.14 333.68) rotate(45) scale(0.06)" xlink:href="#badthing"/><use width="10.49" height="10.49" transform="translate(400.97 336.51) rotate(45) scale(0.06)" xlink:href="#badthing"/><use width="10.49" height="10.49" transform="translate(403.8 339.34) rotate(45) scale(0.06)" xlink:href="#badthing"/><use width="10.49" height="10.49" transform="translate(406.63 342.17) rotate(45) scale(0.06)" xlink:href="#badthing"/><use width="10.49" height="10.49" transform="translate(409.46 344.99) rotate(45) scale(0.06)" xlink:href="#badthing"/><use width="10.49" height="10.49" transform="translate(412.28 347.82) rotate(45) scale(0.06)" xlink:href="#badthing"/><use width="10.49" height="10.49" transform="translate(415.11 350.65) rotate(45) scale(0.06)" xlink:href="#badthing"/><use width="10.49" height="10.49" transform="translate(350.06 288.04) rotate(45) scale(0.5)" xlink:href="#badthing"/><use width="10.49" height="10.49" transform="translate(352.89 290.87) rotate(45) scale(0.5)" xlink:href="#badthing"/><use width="10.49" height="10.49" transform="translate(355.72 293.7) rotate(45) scale(0.5)" xlink:href="#badthing"/><use width="10.49" height="10.49" transform="translate(358.54 296.9) rotate(45) scale(0.45)" xlink:href="#badthing"/><use width="10.49" height="10.49" transform="translate(361.37 300.28) rotate(45) scale(0.37)" xlink:href="#badthing"/><use width="10.49" height="10.49" transform="translate(364.2 303.62) rotate(45) scale(0.3)" xlink:href="#badthing"/><use width="10.49" height="10.49" transform="translate(367.03 306.45) rotate(45) scale(0.3)" xlink:href="#badthing"/><use width="10.49" height="10.49" transform="translate(369.86 309.77) rotate(45) scale(0.24)" xlink:href="#badthing"/><use width="10.49" height="10.49" transform="translate(372.69 313.06) rotate(45) scale(0.17)" xlink:href="#badthing"/><use width="10.49" height="10.49" transform="translate(375.51 315.89) rotate(45) scale(0.17)" xlink:href="#badthing"/><use width="10.49" height="10.49" transform="translate(378.34 319.13) rotate(45) scale(0.12)" xlink:href="#badthing"/><use width="10.49" height="10.49" transform="translate(381.17 322.29) rotate(45) scale(0.07)" xlink:href="#badthing"/><use width="10.49" height="10.49" transform="translate(384 325.2) rotate(45) scale(0.06)" xlink:href="#badthing"/><use width="10.49" height="10.49" transform="translate(386.83 328.02) rotate(45) scale(0.06)" xlink:href="#badthing"/><use width="10.49" height="10.49" transform="translate(389.66 330.85) rotate(45) scale(0.06)" xlink:href="#badthing"/><use width="10.49" height="10.49" transform="translate(392.49 333.68) rotate(45) scale(0.06)" xlink:href="#badthing"/><use width="10.49" height="10.49" transform="translate(395.31 336.51) rotate(45) scale(0.06)" xlink:href="#badthing"/><use width="10.49" height="10.49" transform="translate(398.14 339.34) rotate(45) scale(0.06)" xlink:href="#badthing"/><use width="10.49" height="10.49" transform="translate(400.97 342.17) rotate(45) scale(0.06)" xlink:href="#badthing"/><use width="10.49" height="10.49" transform="translate(403.8 344.99) rotate(45) scale(0.06)" xlink:href="#badthing"/><use width="10.49" height="10.49" transform="translate(406.63 347.82) rotate(45) scale(0.06)" xlink:href="#badthing"/><use width="10.49" height="10.49" transform="translate(409.46 350.65) rotate(45) scale(0.06)" xlink:href="#badthing"/><use width="10.49" height="10.49" transform="translate(350.06 293.7) rotate(45) scale(0.5)" xlink:href="#badthing"/><use width="10.49" height="10.49" transform="translate(352.89 296.52) rotate(45) scale(0.5)" xlink:href="#badthing"/><use width="10.49" height="10.49" transform="translate(355.72 299.35) rotate(45) scale(0.5)" xlink:href="#badthing"/><use width="10.49" height="10.49" transform="translate(358.54 302.56) rotate(45) scale(0.45)" xlink:href="#badthing"/><use width="10.49" height="10.49" transform="translate(361.37 305.93) rotate(45) scale(0.37)" xlink:href="#badthing"/><use width="10.49" height="10.49" transform="translate(364.2 309.28) rotate(45) scale(0.3)" xlink:href="#badthing"/><use width="10.49" height="10.49" transform="translate(367.03 312.11) rotate(45) scale(0.3)" xlink:href="#badthing"/><use width="10.49" height="10.49" transform="translate(369.86 315.43) rotate(45) scale(0.24)" xlink:href="#badthing"/><use width="10.49" height="10.49" transform="translate(372.69 318.72) rotate(45) scale(0.17)" xlink:href="#badthing"/><use width="10.49" height="10.49" transform="translate(375.51 321.55) rotate(45) scale(0.17)" xlink:href="#badthing"/><use width="10.49" height="10.49" transform="translate(378.34 324.79) rotate(45) scale(0.12)" xlink:href="#badthing"/><use width="10.49" height="10.49" transform="translate(381.17 327.95) rotate(45) scale(0.07)" xlink:href="#badthing"/><use width="10.49" height="10.49" transform="translate(384 330.85) rotate(45) scale(0.06)" xlink:href="#badthing"/><use width="10.49" height="10.49" transform="translate(386.83 333.68) rotate(45) scale(0.06)" xlink:href="#badthing"/><use width="10.49" height="10.49" transform="translate(389.66 336.51) rotate(45) scale(0.06)" xlink:href="#badthing"/><use width="10.49" height="10.49" transform="translate(392.49 339.34) rotate(45) scale(0.06)" xlink:href="#badthing"/><use width="10.49" height="10.49" transform="translate(395.31 342.17) rotate(45) scale(0.06)" xlink:href="#badthing"/><use width="10.49" height="10.49" transform="translate(398.14 344.99) rotate(45) scale(0.06)" xlink:href="#badthing"/><use width="10.49" height="10.49" transform="translate(400.97 347.82) rotate(45) scale(0.06)" xlink:href="#badthing"/><use width="10.49" height="10.49" transform="translate(403.8 350.65) rotate(45) scale(0.06)" xlink:href="#badthing"/><use width="10.49" height="10.49" transform="translate(350.06 299.35) rotate(45) scale(0.5)" xlink:href="#badthing"/><use width="10.49" height="10.49" transform="translate(352.89 302.18) rotate(45) scale(0.5)" xlink:href="#badthing"/><use width="10.49" height="10.49" transform="translate(355.72 305.01) rotate(45) scale(0.5)" xlink:href="#badthing"/><use width="10.49" height="10.49" transform="translate(358.54 308.21) rotate(45) scale(0.45)" xlink:href="#badthing"/><use width="10.49" height="10.49" transform="translate(361.37 311.59) rotate(45) scale(0.37)" xlink:href="#badthing"/><use width="10.49" height="10.49" transform="translate(364.2 314.94) rotate(45) scale(0.3)" xlink:href="#badthing"/><use width="10.49" height="10.49" transform="translate(367.03 317.76) rotate(45) scale(0.3)" xlink:href="#badthing"/><use width="10.49" height="10.49" transform="translate(369.86 321.08) rotate(45) scale(0.24)" xlink:href="#badthing"/><use width="10.49" height="10.49" transform="translate(372.69 324.37) rotate(45) scale(0.17)" xlink:href="#badthing"/><use width="10.49" height="10.49" transform="translate(375.51 327.2) rotate(45) scale(0.17)" xlink:href="#badthing"/><use width="10.49" height="10.49" transform="translate(378.34 330.45) rotate(45) scale(0.12)" xlink:href="#badthing"/><use width="10.49" height="10.49" transform="translate(381.17 333.61) rotate(45) scale(0.07)" xlink:href="#badthing"/><use width="10.49" height="10.49" transform="translate(384 336.51) rotate(45) scale(0.06)" xlink:href="#badthing"/><use width="10.49" height="10.49" transform="translate(386.83 339.34) rotate(45) scale(0.06)" xlink:href="#badthing"/><use width="10.49" height="10.49" transform="translate(389.66 342.17) rotate(45) scale(0.06)" xlink:href="#badthing"/><use width="10.49" height="10.49" transform="translate(392.49 344.99) rotate(45) scale(0.06)" xlink:href="#badthing"/><use width="10.49" height="10.49" transform="translate(395.31 347.82) rotate(45) scale(0.06)" xlink:href="#badthing"/><use width="10.49" height="10.49" transform="translate(398.14 350.65) rotate(45) scale(0.06)" xlink:href="#badthing"/><use width="10.49" height="10.49" transform="translate(350.06 305.01) rotate(45) scale(0.5)" xlink:href="#badthing"/><use width="10.49" height="10.49" transform="translate(352.89 307.84) rotate(45) scale(0.5)" xlink:href="#badthing"/><use width="10.49" height="10.49" transform="translate(355.72 310.67) rotate(45) scale(0.5)" xlink:href="#badthing"/><use width="10.49" height="10.49" transform="translate(358.54 313.87) rotate(45) scale(0.45)" xlink:href="#badthing"/><use width="10.49" height="10.49" transform="translate(361.37 317.25) rotate(45) scale(0.37)" xlink:href="#badthing"/><use width="10.49" height="10.49" transform="translate(364.2 320.59) rotate(45) scale(0.3)" xlink:href="#badthing"/><use width="10.49" height="10.49" transform="translate(367.03 323.42) rotate(45) scale(0.3)" xlink:href="#badthing"/><use width="10.49" height="10.49" transform="translate(369.86 326.74) rotate(45) scale(0.24)" xlink:href="#badthing"/><use width="10.49" height="10.49" transform="translate(372.69 330.03) rotate(45) scale(0.17)" xlink:href="#badthing"/><use width="10.49" height="10.49" transform="translate(375.51 332.86) rotate(45) scale(0.17)" xlink:href="#badthing"/><use width="10.49" height="10.49" transform="translate(378.34 336.11) rotate(45) scale(0.12)" xlink:href="#badthing"/><use width="10.49" height="10.49" transform="translate(381.17 339.27) rotate(45) scale(0.07)" xlink:href="#badthing"/><use width="10.49" height="10.49" transform="translate(384 342.17) rotate(45) scale(0.06)" xlink:href="#badthing"/><use width="10.49" height="10.49" transform="translate(386.83 344.99) rotate(45) scale(0.06)" xlink:href="#badthing"/><use width="10.49" height="10.49" transform="translate(389.66 347.82) rotate(45) scale(0.06)" xlink:href="#badthing"/><use width="10.49" height="10.49" transform="translate(392.49 350.65) rotate(45) scale(0.06)" xlink:href="#badthing"/><use width="10.49" height="10.49" transform="translate(350.06 310.67) rotate(45) scale(0.5)" xlink:href="#badthing"/><use width="10.49" height="10.49" transform="translate(352.89 313.49) rotate(45) scale(0.5)" xlink:href="#badthing"/><use width="10.49" height="10.49" transform="translate(355.72 316.32) rotate(45) scale(0.5)" xlink:href="#badthing"/><use width="10.49" height="10.49" transform="translate(358.54 319.53) rotate(45) scale(0.45)" xlink:href="#badthing"/><use width="10.49" height="10.49" transform="translate(361.37 322.9) rotate(45) scale(0.37)" xlink:href="#badthing"/><use width="10.49" height="10.49" transform="translate(364.2 326.25) rotate(45) scale(0.3)" xlink:href="#badthing"/><use width="10.49" height="10.49" transform="translate(367.03 329.08) rotate(45) scale(0.3)" xlink:href="#badthing"/><use width="10.49" height="10.49" transform="translate(369.86 332.4) rotate(45) scale(0.24)" xlink:href="#badthing"/><use width="10.49" height="10.49" transform="translate(372.69 335.69) rotate(45) scale(0.17)" xlink:href="#badthing"/><use width="10.49" height="10.49" transform="translate(375.51 338.52) rotate(45) scale(0.17)" xlink:href="#badthing"/><use width="10.49" height="10.49" transform="translate(378.34 341.76) rotate(45) scale(0.12)" xlink:href="#badthing"/><use width="10.49" height="10.49" transform="translate(381.17 344.92) rotate(45) scale(0.07)" xlink:href="#badthing"/><use width="10.49" height="10.49" transform="translate(384 347.82) rotate(45) scale(0.06)" xlink:href="#badthing"/><use width="10.49" height="10.49" transform="translate(386.83 350.65) rotate(45) scale(0.06)" xlink:href="#badthing"/><use width="10.49" height="10.49" transform="translate(350.06 316.32) rotate(45) scale(0.5)" xlink:href="#badthing"/><use width="10.49" height="10.49" transform="translate(352.89 319.15) rotate(45) scale(0.5)" xlink:href="#badthing"/><use width="10.49" height="10.49" transform="translate(355.72 321.98) rotate(45) scale(0.5)" xlink:href="#badthing"/><use width="10.49" height="10.49" transform="translate(358.54 325.18) rotate(45) scale(0.45)" xlink:href="#badthing"/><use width="10.49" height="10.49" transform="translate(361.37 328.56) rotate(45) scale(0.37)" xlink:href="#badthing"/><use width="10.49" height="10.49" transform="translate(364.2 331.91) rotate(45) scale(0.3)" xlink:href="#badthing"/><use width="10.49" height="10.49" transform="translate(367.03 334.74) rotate(45) scale(0.3)" xlink:href="#badthing"/><use width="10.49" height="10.49" transform="translate(369.86 338.05) rotate(45) scale(0.24)" xlink:href="#badthing"/><use width="10.49" height="10.49" transform="translate(372.69 341.34) rotate(45) scale(0.17)" xlink:href="#badthing"/><use width="10.49" height="10.49" transform="translate(375.51 344.17) rotate(45) scale(0.17)" xlink:href="#badthing"/><use width="10.49" height="10.49" transform="translate(378.34 347.42) rotate(45) scale(0.12)" xlink:href="#badthing"/><use width="10.49" height="10.49" transform="translate(381.17 350.58) rotate(45) scale(0.07)" xlink:href="#badthing"/><use width="10.49" height="10.49" transform="translate(350.06 321.98) rotate(45) scale(0.5)" xlink:href="#badthing"/><use width="10.49" height="10.49" transform="translate(352.89 324.81) rotate(45) scale(0.5)" xlink:href="#badthing"/><use width="10.49" height="10.49" transform="translate(355.72 327.64) rotate(45) scale(0.5)" xlink:href="#badthing"/><use width="10.49" height="10.49" transform="translate(358.54 330.84) rotate(45) scale(0.45)" xlink:href="#badthing"/><use width="10.49" height="10.49" transform="translate(361.37 334.22) rotate(45) scale(0.37)" xlink:href="#badthing"/><use width="10.49" height="10.49" transform="translate(364.2 337.56) rotate(45) scale(0.3)" xlink:href="#badthing"/><use width="10.49" height="10.49" transform="translate(367.03 340.39) rotate(45) scale(0.3)" xlink:href="#badthing"/><use width="10.49" height="10.49" transform="translate(369.86 343.71) rotate(45) scale(0.24)" xlink:href="#badthing"/><use width="10.49" height="10.49" transform="translate(372.69 347) rotate(45) scale(0.17)" xlink:href="#badthing"/><use width="10.49" height="10.49" transform="translate(375.51 349.83) rotate(45) scale(0.17)" xlink:href="#badthing"/><use width="10.49" height="10.49" transform="translate(350.06 327.64) rotate(45) scale(0.5)" xlink:href="#badthing"/><use width="10.49" height="10.49" transform="translate(352.89 330.47) rotate(45) scale(0.5)" xlink:href="#badthing"/><use width="10.49" height="10.49" transform="translate(355.72 333.29) rotate(45) scale(0.5)" xlink:href="#badthing"/><use width="10.49" height="10.49" transform="translate(358.54 336.5) rotate(45) scale(0.45)" xlink:href="#badthing"/><use width="10.49" height="10.49" transform="translate(361.37 339.87) rotate(45) scale(0.37)" xlink:href="#badthing"/><use width="10.49" height="10.49" transform="translate(364.2 343.22) rotate(45) scale(0.3)" xlink:href="#badthing"/><use width="10.49" height="10.49" transform="translate(367.03 346.05) rotate(45) scale(0.3)" xlink:href="#badthing"/><use width="10.49" height="10.49" transform="translate(369.86 349.37) rotate(45) scale(0.24)" xlink:href="#badthing"/><use width="10.49" height="10.49" transform="translate(350.06 333.29) rotate(45) scale(0.5)" xlink:href="#badthing"/><use width="10.49" height="10.49" transform="translate(352.89 336.12) rotate(45) scale(0.5)" xlink:href="#badthing"/><use width="10.49" height="10.49" transform="translate(355.72 338.95) rotate(45) scale(0.5)" xlink:href="#badthing"/><use width="10.49" height="10.49" transform="translate(358.54 342.15) rotate(45) scale(0.45)" xlink:href="#badthing"/><use width="10.49" height="10.49" transform="translate(361.37 345.53) rotate(45) scale(0.37)" xlink:href="#badthing"/><use width="10.49" height="10.49" transform="translate(364.2 348.88) rotate(45) scale(0.3)" xlink:href="#badthing"/><use width="10.49" height="10.49" transform="translate(350.06 338.95) rotate(45) scale(0.5)" xlink:href="#badthing"/><use width="10.49" height="10.49" transform="translate(352.89 341.78) rotate(45) scale(0.5)" xlink:href="#badthing"/><use width="10.49" height="10.49" transform="translate(355.72 344.61) rotate(45) scale(0.5)" xlink:href="#badthing"/><use width="10.49" height="10.49" transform="translate(358.54 347.81) rotate(45) scale(0.45)" xlink:href="#badthing"/><use width="10.49" height="10.49" transform="translate(350.06 344.61) rotate(45) scale(0.5)" xlink:href="#badthing"/><use width="10.49" height="10.49" transform="translate(352.89 347.44) rotate(45) scale(0.5)" xlink:href="#badthing"/></g><path class="cls-10" d="M390.09,288,386,296l-2.21,6.63a9.15,9.15,0,0,0,.93,7.77,3.22,3.22,0,0,1-.25,3.64L380.76,319a3.79,3.79,0,0,0,1.83,5.87L386,326l-1.2,2.39A2.5,2.5,0,0,0,387,332h7v2l-6,4v2l2,2-.39.79a5,5,0,0,0,4.45,7.21h1.71a17.6,17.6,0,0,0,13.5-6.32L414,338V288Z"/><rect class="cls-11" x="384" y="296" width="18" height="2"/><path class="cls-12" d="M391,315a2,2,0,0,1,0-4C392.1,311,392.1,315,391,315Z"/><path class="cls-13" d="M386.05,308.05a7,7,0,0,1,9.9,0"/><path class="cls-13" d="M391,311a6,6,0,0,1,5.66,4"/><path class="cls-14" d="M386.41,322a3,3,0,0,1,2.84,2"/><path class="cls-14" d="M397.54,331.29a3,3,0,0,1,.58,3.42"/><path d="M416,296H385.58a5.58,5.58,0,0,1-5.58-5.58V288h34a2,2,0,0,1,2,2Z"/><path d="M406,296v-2h-6l2,14,6,10,1.66-.17A8,8,0,0,1,416,313.1V296Z"/><circle class="cls-12" cx="386" cy="340" r="3"/><path class="cls-13" d="M384.7,339.75A27.66,27.66,0,0,0,415,330h1"/><path class="cls-6" d="M96,208h32.79A152.62,152.62,0,0,1,236.7,252.7L256,272"/><path class="cls-7" d="M96,208h32.79A152.62,152.62,0,0,1,236.7,252.7L256,272"/><rect class="cls-8" x="222.06" y="238.06" width="67.88" height="67.88" rx="2" transform="translate(-117.35 260.69) rotate(-45)"/><path class="cls-10" d="M256,252a28,28,0,0,0-28,28h56A28,28,0,0,0,256,252Z"/><rect x="240" y="272" width="8" height="8"/><circle class="cls-15" cx="140" cy="328" r="7"/><circle class="cls-15" cx="140" cy="328" r="3"/><use width="10.49" height="10.49" transform="translate(269.51 317.51) scale(2)" xlink:href="#badthing"/><path class="cls-2" d="M174,350a5,5,0,0,1-3.54-1.46l-2.62-2.63a3,3,0,0,0-2.12-.88H162a5,5,0,0,1-5-5v-3.72a3,3,0,0,0-.88-2.12l-2.63-2.62a5,5,0,0,1,0-7.08l2.63-2.62a3,3,0,0,0,.88-2.12V316a5,5,0,0,1,5-5h3.72a3,3,0,0,0,2.12-.88l2.62-2.63a5,5,0,0,1,7.08,0l2.62,2.63a3,3,0,0,0,2.12.88H186a5,5,0,0,1,5,5v3.72a3,3,0,0,0,.88,2.12l2.63,2.62a5,5,0,0,1,0,7.08l-2.63,2.62a3,3,0,0,0-.88,2.12V340a5,5,0,0,1-5,5h-3.72a3,3,0,0,0-2.12.88l-2.62,2.63A5,5,0,0,1,174,350Z"/><path class="cls-10" d="M174,307a4,4,0,0,1,2.83,1.17l2.63,2.63a4,4,0,0,0,2.82,1.17H186a4,4,0,0,1,4,4v3.72a4,4,0,0,0,1.17,2.82l2.63,2.63a4,4,0,0,1,0,5.66l-2.63,2.63a4,4,0,0,0-1.17,2.82V340a4,4,0,0,1-4,4h-3.72a4,4,0,0,0-2.82,1.17l-2.63,2.63a4,4,0,0,1-5.66,0l-2.63-2.63a4,4,0,0,0-2.82-1.17H162a4,4,0,0,1-4-4v-3.72a4,4,0,0,0-1.17-2.82l-2.63-2.63a4,4,0,0,1,0-5.66l2.63-2.63a4,4,0,0,0,1.17-2.82V316a4,4,0,0,1,4-4h3.72a4,4,0,0,0,2.82-1.17l2.63-2.63A4,4,0,0,1,174,307m0-2a5.93,5.93,0,0,0-4.24,1.76l-2.63,2.62a2,2,0,0,1-1.41.59H162a6,6,0,0,0-6,6v3.72a2,2,0,0,1-.59,1.41l-2.62,2.63a6,6,0,0,0,0,8.48l2.62,2.63a2,2,0,0,1,.59,1.41V340a6,6,0,0,0,6,6h3.72a2,2,0,0,1,1.41.59l2.63,2.62a6,6,0,0,0,8.48,0l2.63-2.62a2,2,0,0,1,1.41-.59H186a6,6,0,0,0,6-6v-3.72a2,2,0,0,1,.59-1.41l2.62-2.63a6,6,0,0,0,0-8.48l-2.62-2.63a2,2,0,0,1-.59-1.41V316a6,6,0,0,0-6-6h-3.72a2,2,0,0,1-1.41-.59l-2.63-2.62A5.93,5.93,0,0,0,174,305Z"/><line class="cls-16" x1="200" y1="328" x2="206" y2="328"/><line class="cls-16" x1="210" y1="328" x2="216" y2="328"/><line class="cls-16" x1="248" y1="328" x2="254" y2="328"/><line class="cls-16" x1="258" y1="328" x2="264" y2="328"/><line class="cls-16" x1="296" y1="328" x2="302" y2="328"/><line class="cls-16" x1="306" y1="328" x2="312" y2="328"/><line class="cls-3" x1="512" y1="176" x2="416" y2="176"/><path class="cls-17" d="M60.86,193.86a20,20,0,1,1,0,28.28"/><circle class="cls-15" cx="96" cy="208" r="7"/><circle class="cls-15" cx="96" cy="208" r="3"/><path class="cls-5" d="M35,252a20,20,0,1,1,20,20"/><circle class="cls-8" cx="40" cy="256" r="8"/><circle class="cls-2" cx="56" cy="208" r="8"/><path class="cls-17" d="M417,194a20,20,0,1,1-20-20"/><circle class="cls-15" cx="384" cy="208" r="7"/><circle class="cls-15" cx="384" cy="208" r="3"/><circle class="cls-2" cx="416" cy="176" r="8"/><rect class="cls-18" x="441.7" y="157" width="1" height="38" transform="translate(618.2 -266.2) rotate(90)"/><path class="cls-17" d="M459.94,278.89a20,20,0,1,1,8.95-26.83"/><circle class="cls-15" cx="432" cy="256" r="7"/><circle class="cls-15" cx="432" cy="256" r="3"/><circle class="cls-8" cx="480" cy="272" r="8"/><circle class="cls-15" cx="72" cy="240" r="7"/><circle class="cls-15" cx="72" cy="240" r="3"/><path class="cls-2" d="M336.59,330.73l1.31-1.32a2,2,0,0,0,0-2.82l-1.31-1.32a2,2,0,0,1-.59-1.41V322a2,2,0,0,0-2-2h-1.86a2,2,0,0,1-1.41-.59l-1.32-1.31a2,2,0,0,0-2.82,0l-1.32,1.31a2,2,0,0,1-1.41.59H322a2,2,0,0,0-2,2v1.86a2,2,0,0,1-.59,1.41l-1.31,1.32a2,2,0,0,0,0,2.82l1.31,1.32a2,2,0,0,1,.59,1.41V334a2,2,0,0,0,2,2h1.86a2,2,0,0,1,1.41.59l1.32,1.31a2,2,0,0,0,2.82,0l1.32-1.31a2,2,0,0,1,1.41-.59H334a2,2,0,0,0,2-2v-1.86A2,2,0,0,1,336.59,330.73Z"/><path class="cls-2" d="M240.59,330.73l1.31-1.32a2,2,0,0,0,0-2.82l-1.31-1.32a2,2,0,0,1-.59-1.41V322a2,2,0,0,0-2-2h-1.86a2,2,0,0,1-1.41-.59l-1.32-1.31a2,2,0,0,0-2.82,0l-1.32,1.31a2,2,0,0,1-1.41.59H226a2,2,0,0,0-2,2v1.86a2,2,0,0,1-.59,1.41l-1.31,1.32a2,2,0,0,0,0,2.82l1.31,1.32a2,2,0,0,1,.59,1.41V334a2,2,0,0,0,2,2h1.86a2,2,0,0,1,1.41.59l1.32,1.31a2,2,0,0,0,2.82,0l1.32-1.31a2,2,0,0,1,1.41-.59H238a2,2,0,0,0,2-2v-1.86A2,2,0,0,1,240.59,330.73Z"/><polygon class="cls-10" points="177 318 176 332 172 332 171 318 177 318"/><line class="cls-19" x1="174" y1="338" x2="174" y2="334"/><rect class="cls-20" x="479.5" y="226.5" width="1" height="38"/><rect class="cls-21" x="40" y="199.5" width="1" height="17" transform="translate(-167.5 248.5) rotate(-90)"/></g></svg>