<svg width="920" height="680" viewBox="0 0 920 680" fill="none" xmlns="http://www.w3.org/2000/svg">
<path fill-rule="evenodd" clip-rule="evenodd" d="M42.3568 53.2307C65.7499 53.2307 84.7137 34.8227 84.7137 12.1153C84.7137 -10.592 65.7499 -29 42.3568 -29C18.9638 -29 0 -10.592 0 12.1153C0 34.8227 18.9638 53.2307 42.3568 53.2307ZM475.191 -28.9999C487.794 -28.9789 499.734 -23.5108 507.764 -14.0814L886.199 430.278L946.633 359.404C961.549 341.912 988.25 339.468 1006.27 353.947C1024.29 368.426 1026.81 394.344 1011.89 411.837L941.148 494.8L1136.36 724.021C1151.27 741.522 1148.73 767.439 1130.7 781.907C1112.67 796.375 1085.98 793.916 1071.07 776.414L886.158 559.289L702.313 774.89C694.276 784.315 682.333 789.776 669.729 789.789C657.125 789.802 645.169 784.366 637.112 774.958L540.457 662.098C525.503 644.637 527.963 618.714 545.952 604.197C563.941 589.681 590.647 592.069 605.601 609.531L669.613 684.275L831.208 494.767L475.004 76.5115L313.422 264.922L497.876 483.303C512.708 500.863 510.067 526.769 491.977 541.167C473.887 555.564 447.198 553 432.366 535.44L258.231 329.276L82.8343 533.794C67.8676 551.245 41.1601 553.615 23.1815 539.087C5.20284 524.559 2.76122 498.635 17.7279 481.183L442.565 -14.19C450.629 -23.5926 462.587 -29.0209 475.191 -28.9999ZM193.326 138.24C193.326 160.947 174.362 179.355 150.969 179.355C127.576 179.355 108.613 160.947 108.613 138.24C108.613 115.532 127.576 97.1243 150.969 97.1243C174.362 97.1243 193.326 115.532 193.326 138.24ZM1081.46 307.232C1104.85 307.232 1123.81 288.824 1123.81 266.117C1123.81 243.409 1104.85 225.001 1081.46 225.001C1058.06 225.001 1039.1 243.409 1039.1 266.117C1039.1 288.824 1058.06 307.232 1081.46 307.232ZM1230.5 139.942C1230.5 162.649 1211.53 181.057 1188.14 181.057C1164.75 181.057 1145.78 162.649 1145.78 139.942C1145.78 117.235 1164.75 98.8267 1188.14 98.8267C1211.53 98.8267 1230.5 117.235 1230.5 139.942Z" fill="white"/>
</svg>
