<svg width="40" height="40" viewBox="0 0 40 40" fill="none" xmlns="http://www.w3.org/2000/svg">
<path d="M28.75 32.7284C30.7709 31.0929 32.2854 28.9167 33.1167 26.4534" stroke="white" stroke-width="2" stroke-linecap="round" stroke-linejoin="round"/>
<path d="M12.5 16.875C12.6236 16.875 12.7445 16.9117 12.8472 16.9803C12.95 17.049 13.0301 17.1466 13.0774 17.2608C13.1247 17.375 13.1371 17.5007 13.113 17.6219C13.0889 17.7432 13.0293 17.8545 12.9419 17.9419C12.8545 18.0294 12.7432 18.0889 12.6219 18.113C12.5007 18.1371 12.375 18.1247 12.2608 18.0774C12.1466 18.0301 12.049 17.95 11.9803 17.8472C11.9117 17.7445 11.875 17.6236 11.875 17.5C11.875 17.3342 11.9408 17.1753 12.0581 17.0581C12.1753 16.9408 12.3342 16.875 12.5 16.875Z" stroke="white" stroke-width="2" stroke-linecap="round" stroke-linejoin="round"/>
<path d="M31.25 6.25H27.8617C27.3424 6.25036 26.8394 6.4314 26.439 6.76205C26.0386 7.09271 25.7658 7.55238 25.6672 8.06223C25.5687 8.57208 25.6506 9.10032 25.899 9.55637C26.1473 10.0124 26.5466 10.3678 27.0284 10.5617L30.4684 11.9383C30.9501 12.1322 31.3494 12.4876 31.5977 12.9436C31.8461 13.3997 31.928 13.9279 31.8295 14.4378C31.731 14.9476 31.4581 15.4073 31.0577 15.7379C30.6573 16.0686 30.1543 16.2496 29.635 16.25H26.25" stroke="white" stroke-width="2" stroke-linecap="round" stroke-linejoin="round"/>
<path d="M28.75 6.25V5" stroke="white" stroke-width="2" stroke-linecap="round" stroke-linejoin="round"/>
<path d="M28.75 17.5V16.25" stroke="white" stroke-width="2" stroke-linecap="round" stroke-linejoin="round"/>
<path d="M28.75 21.25C34.2728 21.25 38.75 16.7728 38.75 11.25C38.75 5.72715 34.2728 1.25 28.75 1.25C23.2272 1.25 18.75 5.72715 18.75 11.25C18.75 16.7728 23.2272 21.25 28.75 21.25Z" stroke="white" stroke-width="2" stroke-linecap="round" stroke-linejoin="round"/>
<path d="M15.0617 9.21847L11.7567 6.46347C11.5842 6.31995 11.3763 6.2255 11.1547 6.19003C10.9331 6.15456 10.7061 6.17939 10.4975 6.2619C10.2888 6.3444 10.1062 6.48156 9.96883 6.65896C9.83144 6.83636 9.74434 7.04747 9.71667 7.27014L9.12333 12.0101C6.8706 13.7098 5.19772 16.0638 4.33333 18.7501H1.25V28.7501H5.4C6.76167 31.0705 8.71521 32.9876 11.0608 34.3054C13.4064 35.6231 16.0599 36.2943 18.75 36.2501C21.9334 36.334 25.0595 35.3924 27.667 33.5642C30.2745 31.736 32.2253 29.1182 33.2317 26.0968" stroke="white" stroke-width="2" stroke-linecap="round" stroke-linejoin="round"/>
<path d="M10.0183 33.6733L8.75 38.75" stroke="white" stroke-width="2" stroke-linecap="round" stroke-linejoin="round"/>
<path d="M27.4834 33.6816L28.7501 38.75" stroke="white" stroke-width="2" stroke-linecap="round" stroke-linejoin="round"/>
</svg>
