<svg width="42" height="42" viewBox="0 0 42 42" fill="none" xmlns="http://www.w3.org/2000/svg">
<path d="M1 25.0012V41" stroke="white" stroke-width="2" stroke-linecap="round" stroke-linejoin="round"/>
<path d="M1 38.3336H27.6647C27.6647 36.9192 27.1028 35.5628 26.1027 34.5626C25.1026 33.5625 23.7461 33.0007 22.3317 33.0007H15.6656C15.6656 31.5863 15.1037 30.2298 14.1036 29.2297C13.1035 28.2296 11.747 27.6677 10.3326 27.6677H1" stroke="white" stroke-width="2" stroke-linecap="round" stroke-linejoin="round"/>
<path d="M10.3325 33.0006H15.6655" stroke="white" stroke-width="2" stroke-linecap="round" stroke-linejoin="round"/>
<path d="M27.6646 24.3346L16.3019 12.4813C15.3045 11.4831 14.6462 10.1967 14.42 8.80392C14.1938 7.41114 14.4113 5.9825 15.0415 4.72006C15.5179 3.76724 16.2139 2.94126 17.0721 2.31019C17.9304 1.67912 18.9263 1.26104 19.9778 1.09038C21.0294 0.919729 22.1064 1.00139 23.1202 1.32865C24.1339 1.6559 25.0554 2.21938 25.8087 2.97264L27.6646 4.82494L29.5204 2.96908C30.2737 2.21582 31.1952 1.65235 32.209 1.32509C33.2227 0.997839 34.2998 0.916173 35.3513 1.08683C36.4028 1.25748 37.3987 1.67557 38.257 2.30663C39.1152 2.9377 39.8112 3.76368 40.2876 4.71651V4.71651C40.9184 5.97882 41.1361 7.40759 40.9099 8.8005C40.6837 10.1934 40.0251 11.4799 39.0273 12.4777L27.6646 24.3346Z" stroke="white" stroke-width="2" stroke-linecap="round" stroke-linejoin="round"/>
</svg>
