<svg width="40" height="40" viewBox="0 0 40 40" fill="none" xmlns="http://www.w3.org/2000/svg">
<path d="M9.16672 38.745L15.9201 22.9883C16.0013 22.7982 16.0341 22.5909 16.0157 22.3849C15.9972 22.179 15.928 21.9808 15.8143 21.8081C15.7005 21.6355 15.5458 21.4937 15.3639 21.3954C15.1819 21.2971 14.9785 21.2454 14.7717 21.245H9.83338C9.62595 21.2458 9.4216 21.1949 9.23878 21.0969C9.05597 20.9988 8.90046 20.8568 8.78632 20.6836C8.67217 20.5104 8.60299 20.3115 8.58502 20.1048C8.56704 19.8982 8.60085 19.6903 8.68338 19.5L16.3334 2C16.4306 1.77718 16.5907 1.58756 16.7941 1.45435C16.9975 1.32114 17.2353 1.25013 17.4784 1.25H30.3117C30.5472 1.25008 30.7779 1.3167 30.9772 1.44217C31.1765 1.56763 31.3363 1.74685 31.4382 1.95918C31.5401 2.1715 31.58 2.40829 31.5531 2.64227C31.5263 2.87624 31.434 3.09789 31.2867 3.28167L24.5367 11.72C24.3899 11.9039 24.2979 12.1255 24.2714 12.3594C24.245 12.5933 24.285 12.8299 24.3871 13.0419C24.4891 13.254 24.649 13.433 24.8482 13.5583C25.0475 13.6835 25.278 13.75 25.5134 13.75H31.1501C31.3975 13.7499 31.6393 13.8232 31.8451 13.9606C32.0508 14.0981 32.2111 14.2935 32.3057 14.5221C32.4002 14.7507 32.4249 15.0023 32.3764 15.2449C32.3279 15.4875 32.2086 15.7103 32.0334 15.885L9.16672 38.745Z" stroke="#EAEFF0" stroke-width="2" stroke-linejoin="round"/>
</svg>
