<?xml version="1.0" encoding="utf-8"?>
<!-- Generator: Adobe Illustrator 23.0.3, SVG Export Plug-In . SVG Version: 6.00 Build 0)  -->
<svg version="1.1" id="Layer_1" xmlns="http://www.w3.org/2000/svg" xmlns:xlink="http://www.w3.org/1999/xlink" x="0px" y="0px"
	 viewBox="0 0 40 42" style="enable-background:new 0 0 40 42;" xml:space="preserve">
<style type="text/css">
	.st0{fill:none;stroke:#EAEFF0;stroke-width:2;stroke-linecap:round;stroke-linejoin:round;}
</style>
<path class="st0" d="M2.7,6.6v13.5c0,4.3,1.3,8.5,3.7,12c2.4,3.5,5.9,6.2,9.8,7.8l1.9,0.7c1.2,0.5,2.6,0.5,3.8,0l1.9-0.7
	c4-1.5,7.4-4.2,9.8-7.8c2.4-3.5,3.7-7.7,3.7-12V6.6c0-0.5-0.1-1-0.4-1.4c-0.3-0.4-0.7-0.8-1.1-1C30.8,2,25.4,1,20,1
	C14.6,1,9.2,2,4.2,4.2c-0.5,0.2-0.9,0.6-1.1,1C2.8,5.6,2.7,6.1,2.7,6.6L2.7,6.6z"/>
<path class="st0" d="M25.3,17H14.7c-1.5,0-2.7,1.2-2.7,2.7v8c0,1.5,1.2,2.7,2.7,2.7h10.7c1.5,0,2.7-1.2,2.7-2.7v-8
	C28,18.2,26.8,17,25.3,17z"/>
<path class="st0" d="M20,9c-1.4,0-2.8,0.6-3.8,1.6c-1,1-1.6,2.4-1.6,3.8V17h10.7v-2.7c0-1.4-0.6-2.8-1.6-3.8C22.8,9.6,21.4,9,20,9z"
	/>
<path class="st0" d="M20,23.1c0.1,0,0.3,0,0.4,0.1c0.1,0.1,0.2,0.2,0.2,0.3c0.1,0.1,0.1,0.3,0,0.4c0,0.1-0.1,0.2-0.2,0.3
	c-0.1,0.1-0.2,0.2-0.3,0.2c-0.1,0-0.3,0-0.4,0c-0.1-0.1-0.2-0.1-0.3-0.2c-0.1-0.1-0.1-0.2-0.1-0.4c0-0.2,0.1-0.3,0.2-0.5
	S19.8,23.1,20,23.1"/>
</svg>
