<svg width="146" height="48" viewBox="0 0 146 48" fill="none" xmlns="http://www.w3.org/2000/svg">
<g clip-path="url(#clip0)">
<path d="M114.342 5.17877C114.768 5.17891 115.185 5.05317 115.539 4.81746C115.893 4.58174 116.17 4.24664 116.333 3.85453C116.496 3.46243 116.539 3.03094 116.455 2.61465C116.372 2.19836 116.167 1.81597 115.866 1.51585C115.565 1.21572 115.181 1.01135 114.763 0.928581C114.345 0.845812 113.912 0.888365 113.518 1.05086C113.125 1.21335 112.788 1.48848 112.552 1.84145C112.315 2.19442 112.189 2.60937 112.189 3.03381C112.189 3.60263 112.416 4.14809 112.82 4.55031C113.224 4.95252 113.771 5.17857 114.342 5.17877Z" fill="white"/>
<path d="M145.811 18.6264L144.125 17.0255C144.006 16.9131 143.847 16.8524 143.683 16.8568C143.519 16.8612 143.363 16.9303 143.25 17.0489C143.235 17.0657 143.22 17.0825 143.207 17.1C142.827 17.6133 142.398 18.0881 141.926 18.5176C140.579 19.7241 138.837 20.3994 137.026 20.4164C136.456 20.4248 135.887 20.347 135.34 20.1857C137.162 18.9689 140.366 16.5465 141.067 14.1546C141.557 12.4822 141.314 10.8339 140.407 9.62299C139.601 8.5538 138.344 7.91477 136.921 7.84173V7.83151H136.647C134.864 7.83151 132.93 8.61588 131.472 9.92973C130.173 11.1156 129.297 12.6905 128.975 14.4165C128.654 16.1425 128.905 17.9258 129.691 19.497C128.624 20.1871 127.148 20.4332 125.635 20.4332C124.436 20.4332 123.356 20.0761 122.389 19.237L122.431 19.1866C124.869 16.2529 126.825 12.3814 127.939 8.28577C128.706 5.45869 128.479 2.87554 127.328 1.37838C127.006 0.947623 126.587 0.59836 126.105 0.358825C125.623 0.119291 125.09 -0.00379238 124.551 -0.000472452C123.104 -0.000472452 121.831 0.604965 120.768 1.79904C119.705 2.99312 118.824 4.84303 118.123 7.38163C116.817 12.2806 116.768 16.1616 117.976 18.9602C116.592 20.0644 115.399 20.4157 114.657 20.4157C114.227 20.4157 113.437 20.3273 112.978 19.7314C112.413 18.9945 112.373 17.5864 112.87 15.7701C113.29 14.2364 114.347 10.3869 114.842 8.5852C114.86 8.51826 114.865 8.44837 114.856 8.37955C114.847 8.31073 114.825 8.24433 114.79 8.18414C114.755 8.12397 114.709 8.07119 114.654 8.02885C114.599 7.98651 114.536 7.95544 114.468 7.93741C114.423 7.92487 114.377 7.91848 114.33 7.91842H111.903C111.748 7.91857 111.597 7.96939 111.474 8.06308C111.351 8.15676 111.262 8.28812 111.222 8.43695L109.018 16.4318C108.188 19.3684 107.244 20.4383 106.153 20.4383C105.528 20.4383 104.717 20.2777 105.17 18.5337C105.457 17.4207 106.395 14.1021 106.395 14.1021C106.497 13.7325 106.649 12.9576 106.635 12.4128C106.608 11.3173 106.332 10.3248 105.727 9.53608C104.898 8.45521 103.596 7.8337 102.147 7.8337C100.568 7.8337 99.2144 8.45009 98.1075 9.52075C97.2681 8.45009 95.9595 7.8337 94.5095 7.8337C93.6474 7.8337 92.6541 7.98561 91.9136 8.55453C91.931 8.48945 91.9352 8.42161 91.9262 8.35488C91.9171 8.28816 91.8949 8.22387 91.8609 8.16572C91.8268 8.10756 91.7816 8.05668 91.7277 8.016C91.6739 7.97531 91.6125 7.94563 91.5471 7.92864C91.5042 7.91763 91.4601 7.91199 91.4159 7.91185H89.1184C88.9709 7.91191 88.8272 7.95793 88.7073 8.04345C88.5874 8.12897 88.4974 8.2497 88.4498 8.38875C88.4029 8.56256 88.3237 8.85615 88.2181 9.24249C87.8883 10.0802 87.2373 10.6608 86.2747 10.969C84.442 11.5532 81.9055 10.9544 80.3206 9.58136C79.5307 8.86539 78.5815 8.3465 77.551 8.0674C73.6437 7.01063 69.5164 9.63541 68.3493 13.9188C68.2509 14.2803 68.1755 14.6476 68.1235 15.0186C67.0122 20.0819 65.645 20.423 64.9947 20.423C64.8283 20.423 64.4163 20.3916 64.1883 20.0907C63.9603 19.7898 63.843 19.1997 64.0417 18.4877C64.4376 17.0496 65.2513 14.086 65.6266 12.7254C65.6967 12.4798 65.7157 12.2225 65.6824 11.9693C65.6491 11.7162 65.5643 11.4724 65.4331 11.2531C64.98 10.5096 64.2514 10.3511 63.5461 10.197C61.9993 9.85962 60.7802 9.45283 60.5485 7.78696C60.5269 7.61682 60.4437 7.46039 60.3146 7.34703C60.1854 7.23368 60.0191 7.17119 59.847 7.1713H57.5011C57.3473 7.17116 57.1977 7.22101 57.0749 7.31327C56.9521 7.40553 56.8629 7.53517 56.8208 7.68252C56.3626 9.31334 54.9404 14.373 54.4199 16.2412C53.6868 18.882 52.3548 20.3953 50.6277 20.3953C50.2039 20.3953 49.7934 20.2192 49.5801 19.9373C49.2729 19.5349 49.2685 18.9149 49.3932 18.4592H49.3822L51.9714 9.0621H54.1267C54.2813 9.06221 54.4317 9.01175 54.5547 8.91847C54.6777 8.82519 54.7666 8.69425 54.8077 8.54577L55.4558 6.20873C55.4933 6.07413 55.4757 5.93022 55.4071 5.80843C55.3384 5.68665 55.2241 5.59688 55.0892 5.55875C55.0431 5.54625 54.9955 5.53987 54.9478 5.53976H52.9362L54.2557 0.75176C54.2934 0.617054 54.276 0.472955 54.2073 0.351002C54.1386 0.229048 54.0242 0.139172 53.8892 0.101042C53.8415 0.0875513 53.7921 0.0811527 53.7426 0.082054H51.316C51.1611 0.0824512 51.0106 0.13356 50.8877 0.227514C50.7648 0.321469 50.6762 0.453063 50.6357 0.602044L49.2707 5.5456H46.485C46.3304 5.54529 46.1799 5.59558 46.0567 5.68873C45.9336 5.78188 45.8445 5.91274 45.8032 6.06121L45.1581 8.39824C45.1396 8.46514 45.1346 8.535 45.1432 8.60384C45.1519 8.67269 45.1741 8.73915 45.2085 8.79945C45.243 8.85975 45.289 8.91269 45.344 8.95525C45.399 8.99781 45.4619 9.02916 45.5291 9.0475C45.5749 9.0603 45.6222 9.06669 45.6698 9.06649H48.2987L47.5377 11.8417C46.7269 14.7338 45.433 17.0409 43.799 18.5147C42.4526 19.7246 40.7085 20.4021 38.8954 20.4194C38.3249 20.4283 37.7563 20.3507 37.2093 20.1893C39.031 18.9689 42.2368 16.5465 42.9361 14.1546C43.4258 12.4822 43.1832 10.8339 42.2727 9.62299C41.4663 8.5538 40.2091 7.91915 38.7905 7.84173V7.83151H38.5171C36.7335 7.83151 34.7996 8.61588 33.343 9.92973C32.5067 10.6803 31.8397 11.5989 31.3857 12.625C30.9316 13.651 30.701 14.7613 30.709 15.8826C30.7056 17.1379 30.9976 18.3765 31.5616 19.4991C30.1944 20.2295 28.7025 20.607 27.7568 20.607C27.1308 20.607 26.2848 20.2689 26.7364 18.5249C27.0252 17.4126 27.9628 14.094 27.9628 14.094C28.064 13.7238 28.2172 12.9496 28.2033 12.4048C28.1747 11.3049 27.8983 10.3161 27.2943 9.52732C26.4651 8.45302 25.1603 7.83151 23.7131 7.83151C22.1348 7.83151 20.7808 8.4479 19.6738 9.51856C18.8337 8.4479 17.5259 7.83151 16.0751 7.83151C15.3516 7.83151 14.4785 8.05937 13.6083 8.45886C13.6237 8.23611 13.6449 7.89943 13.6449 7.69932C13.6255 5.90891 12.8976 4.19847 11.6196 2.93957C10.3415 1.68067 8.61649 0.975007 6.8192 0.975873C5.02191 0.976738 3.29755 1.68407 2.02073 2.94419C0.743899 4.20432 0.0177405 5.91547 0 7.70589C0 10.4928 1.8899 12.8759 4.54 13.8026C4.61668 13.8294 4.69791 13.841 4.77906 13.8365C4.8602 13.832 4.93966 13.8117 5.01291 13.7766C5.08616 13.7416 5.15176 13.6925 5.20596 13.6321C5.26016 13.5718 5.30191 13.5015 5.3288 13.4251C5.3332 13.4119 5.3376 13.398 5.34127 13.3842L5.94973 11.1786C5.98929 11.0311 5.9725 10.8742 5.90262 10.7384C5.83274 10.6025 5.71473 10.4973 5.57146 10.4431C4.28562 9.94141 3.53348 8.79261 3.53348 7.70809C3.5356 7.24368 3.6368 6.78504 3.83037 6.36256C4.02395 5.94009 4.30546 5.56344 4.65626 5.25759C5.00705 4.95174 5.41911 4.72369 5.8651 4.58855C6.31109 4.45341 6.78082 4.41428 7.24315 4.47374C7.70548 4.5332 8.14983 4.68991 8.54675 4.93346C8.94366 5.17701 9.28407 5.50185 9.54539 5.88642C9.80671 6.271 9.98297 6.70653 10.0625 7.16413C10.142 7.62173 10.123 8.09094 10.0066 8.54065L9.26108 11.2465L8.80657 12.8992L8.43049 14.2605L5.97832 23.1639C5.95999 23.2309 5.95508 23.3007 5.96388 23.3696C5.97268 23.4384 5.99501 23.5048 6.0296 23.5651C6.06418 23.6253 6.11035 23.6781 6.16545 23.7206C6.22055 23.763 6.28351 23.7942 6.35073 23.8124C6.39591 23.8246 6.44247 23.831 6.48928 23.8314H8.92459C9.07936 23.831 9.22975 23.7802 9.35284 23.6867C9.47592 23.5932 9.56495 23.4622 9.60636 23.3136L11.7521 15.5116C12.6098 12.4493 14.4565 11.359 15.8984 11.359C16.9057 11.359 17.0032 12.2244 16.8515 13.0022L14.0496 23.1639C14.0283 23.2424 14.0255 23.3247 14.0413 23.4045C14.0571 23.4843 14.0911 23.5593 14.1408 23.6239C14.1904 23.6884 14.2543 23.7407 14.3274 23.7767C14.4006 23.8127 14.4811 23.8314 14.5628 23.8314H16.9937C17.1484 23.8315 17.2988 23.7809 17.4219 23.6875C17.5449 23.5941 17.6337 23.463 17.6747 23.3144C18.0977 21.7756 19.3483 17.2257 19.8256 15.5094C20.5587 12.8685 21.9816 11.359 23.7109 11.359C24.5063 11.359 24.8597 12.0053 24.6185 12.9102C24.2571 14.2605 23.3268 17.5696 23.3268 17.5696C22.829 19.375 22.9441 21.1241 23.8671 22.3299C24.7035 23.4254 26.1397 23.9585 27.6058 23.9585C29.6013 23.9585 31.9171 23.0712 33.7506 22.1736C35.2204 23.318 37.0758 23.9402 39.0676 23.9402C41.5315 23.9402 44.296 22.7717 46.1954 20.859C46.2944 21.2576 46.4549 21.6385 46.6712 21.9881C47.4292 23.1946 48.9966 23.9198 50.5287 23.9198C53.8782 23.9198 56.6031 21.4593 57.7745 17.3177C58.0832 16.2295 58.6762 14.094 59.2092 12.1652C59.2561 12.2018 59.3016 12.2383 59.3477 12.269C60.0753 12.7822 60.8884 13.163 61.7493 13.3936C61.7493 13.3936 60.8748 16.5837 60.5889 17.65C60.1153 19.4188 60.3631 21.0452 61.2714 22.2313C62.1071 23.3268 63.4266 23.9497 64.8943 23.9497C66.5972 23.9497 67.8405 23.2997 68.9123 22.0283C69.1601 21.7124 69.3829 21.3779 69.5787 21.0277C70.2103 21.8973 71.0399 22.6054 71.9993 23.0939C72.9587 23.5824 74.0206 23.8374 75.0981 23.838C76.4594 23.838 77.8149 23.4276 79.037 22.6271C80.7282 21.52 81.9657 19.7876 82.5206 17.75C82.8373 16.5989 82.9122 15.3951 82.7405 14.2138C83.3749 14.3948 84.0314 14.4877 84.6913 14.4899C85.4202 14.4916 86.1463 14.4013 86.8524 14.2211C85.7095 18.3781 84.3907 23.1632 84.3907 23.1632C84.3724 23.2301 84.3675 23.3 84.3763 23.3688C84.3851 23.4377 84.4074 23.5041 84.442 23.5643C84.4766 23.6246 84.5227 23.6774 84.5778 23.7199C84.6329 23.7623 84.6959 23.7935 84.7631 23.8117C84.8083 23.824 84.8549 23.8301 84.9017 23.83H87.3524C87.5071 23.83 87.6575 23.7795 87.7806 23.686C87.9036 23.5926 87.9924 23.4615 88.0334 23.3129L90.1835 15.5101C91.0405 12.4486 92.8872 11.3582 94.3299 11.3582C95.3364 11.3582 95.4339 12.2222 95.2829 13.0007L92.484 23.1632C92.4655 23.2301 92.4605 23.2999 92.4692 23.3688C92.4779 23.4376 92.5002 23.504 92.5347 23.5643C92.5692 23.6245 92.6154 23.6774 92.6704 23.7199C92.7255 23.7623 92.7884 23.7935 92.8556 23.8117C92.9008 23.824 92.9474 23.8301 92.9942 23.83H95.4251C95.5799 23.8299 95.7304 23.7794 95.8535 23.686C95.9767 23.5926 96.0657 23.4615 96.1069 23.3129C96.5299 21.7741 97.7856 17.2242 98.257 15.5087C98.9901 12.8678 100.414 11.3582 102.142 11.3582C102.938 11.3582 103.291 12.0046 103.05 12.9094C102.688 14.2627 101.76 17.5689 101.76 17.5689C101.263 19.3743 101.496 21.0328 102.42 22.2342C103.256 23.3297 104.576 23.9534 106.043 23.9534C106.979 23.9534 108.64 23.8022 110.148 21.8406L110.169 21.8683C111.195 23.1997 112.785 23.9344 114.653 23.9344C116.332 23.9344 118.137 23.1595 119.919 21.7106C121.701 23.3385 123.984 23.9344 125.663 23.9344C127.775 23.9344 130.051 23.069 131.885 22.1736C133.351 23.318 135.21 23.9402 137.201 23.9402C140.449 23.9402 143.612 22.3781 145.872 19.4436C145.964 19.3236 146.009 19.174 145.998 19.0234C145.986 18.8727 145.92 18.7314 145.811 18.6264ZM34.6251 17.9122C34.3152 17.1996 34.1851 16.4223 34.2461 15.6482C34.3883 13.3111 36.7071 11.0836 38.6292 11.2735C39.83 11.3926 39.7919 12.6531 39.5522 13.2688C39.1776 14.2335 37.5128 16.0666 34.6523 17.8924L34.6251 17.9122ZM79.2701 16.87C78.9307 18.1152 78.1917 19.1632 77.1889 19.8198C76.2505 20.434 75.1912 20.6231 74.2059 20.3587C73.2207 20.0944 72.404 19.394 71.9062 18.392C71.374 17.3199 71.2677 16.044 71.6071 14.7981C72.2823 12.3033 74.5549 10.7353 76.6684 11.3093C78.7819 11.8833 79.9467 14.3752 79.2672 16.87H79.2701ZM120.606 16.0944C120.285 14.1868 120.66 11.5956 121.543 8.2865C122.673 4.21057 123.469 3.52114 124.27 3.52114C124.386 3.51898 124.5 3.55603 124.593 3.62631C125.121 4.02507 125.033 5.5288 124.535 7.3736C123.802 10.0758 122.703 12.7736 121.31 15.0303C121.078 15.3962 120.845 15.7526 120.603 16.0944H120.606ZM132.804 17.8924L132.778 17.9092C132.467 17.197 132.337 16.4195 132.398 15.6452C132.545 13.3082 134.689 11.0055 136.781 11.2706C136.803 11.2706 136.825 11.2779 136.847 11.2816C137.976 11.4707 137.939 12.6619 137.705 13.2651C137.358 14.1576 135.905 15.7964 133.423 17.4835C133.223 17.6222 133.018 17.7581 132.804 17.8924Z" fill="white"/>
</g>
<path d="M27.2047 39.6953H22.3453V37.3906H26.9156V35.2812H22.3453V33.0312H27.2047V30.7266H19.4781V42H27.2047V39.6953ZM33.1688 42V35.5938H33.3172L38.0281 42H40.3016V30.7266H37.5828V37.0703H37.4344L32.7391 30.7266H30.45V42H33.1688ZM49.2578 42V33.0312H52.5156V30.7266H43.1484V33.0312H46.3984V42H49.2578ZM63.0891 39.6953H58.2297V37.3906H62.8V35.2812H58.2297V33.0312H63.0891V30.7266H55.3625V42H63.0891V39.6953ZM69.2016 32.8906H70.8891C71.9125 32.8906 72.5766 33.5078 72.5766 34.4688C72.5766 35.4453 71.9516 36.0312 70.8969 36.0312H69.2016V32.8906ZM69.2016 38.0547H70.6859L72.6156 42H75.8344L73.5844 37.6328C74.8188 37.0938 75.5063 35.8281 75.5063 34.4453C75.5063 32.1172 73.9281 30.7266 71.2953 30.7266H66.3344V42H69.2016V38.0547ZM78.5875 30.7266V42H81.4547V38.6953H83.3531C85.8609 38.6953 87.5875 37.125 87.5875 34.7266C87.5875 32.3047 85.9469 30.7266 83.525 30.7266H78.5875ZM81.4547 32.9297H82.7672C83.9781 32.9297 84.6891 33.5469 84.6891 34.7344C84.6891 35.9062 83.9703 36.5312 82.7516 36.5312H81.4547V32.9297ZM93.3641 32.8906H95.0516C96.075 32.8906 96.7391 33.5078 96.7391 34.4688C96.7391 35.4453 96.1141 36.0312 95.0594 36.0312H93.3641V32.8906ZM93.3641 38.0547H94.8484L96.7781 42H99.9969L97.7469 37.6328C98.9813 37.0938 99.6688 35.8281 99.6688 34.4453C99.6688 32.1172 98.0906 30.7266 95.4578 30.7266H90.4969V42H93.3641V38.0547ZM105.617 42V30.7266H102.75V42H105.617ZM108.589 38.7891C108.636 40.9609 110.433 42.3047 113.284 42.3047C116.238 42.3047 118.034 40.8828 118.034 38.5312C118.034 36.7422 117.034 35.7344 114.808 35.3047L113.355 35.0234C112.167 34.7891 111.667 34.4297 111.667 33.8125C111.667 33.0625 112.331 32.5859 113.339 32.5859C114.347 32.5859 115.105 33.1406 115.167 33.9375H117.816C117.769 31.8516 115.941 30.4219 113.3 30.4219C110.581 30.4219 108.816 31.8672 108.816 34.0703C108.816 35.8438 109.878 36.9688 111.941 37.3594L113.425 37.6562C114.714 37.9141 115.206 38.25 115.206 38.875C115.206 39.6172 114.472 40.1328 113.402 40.1328C112.214 40.1328 111.394 39.6094 111.323 38.7891H108.589ZM128.733 39.6953H123.873V37.3906H128.444V35.2812H123.873V33.0312H128.733V30.7266H121.006V42H128.733V39.6953Z" fill="white"/>
<path fill-rule="evenodd" clip-rule="evenodd" d="M144 37.5C144 38.0523 143.552 38.5 143 38.5H135C134.448 38.5 134 38.0523 134 37.5V36C134 35.4477 134.448 35 135 35H143C143.552 35 144 35.4477 144 36V37.5Z" fill="white"/>
<path fill-rule="evenodd" clip-rule="evenodd" d="M14 37.5C14 38.0523 13.5523 38.5 13 38.5H5C4.44772 38.5 4 38.0523 4 37.5V36C4 35.4477 4.44772 35 5 35H13C13.5523 35 14 35.4477 14 36V37.5Z" fill="white"/>
<defs>
<clipPath id="clip0">
<rect width="146" height="23.959" fill="white"/>
</clipPath>
</defs>
</svg>
