<svg xmlns="http://www.w3.org/2000/svg" viewBox="0 0 352.81 261.83"><defs><style>.cls-1{fill:#fff;}</style></defs><title>Asset 6</title><g id="Layer_2" data-name="Layer 2"><g id="Layer_9" data-name="Layer 9"><path class="cls-1" d="M346,221.74a7,7,0,0,0-9.14-4.76,64.37,64.37,0,0,1-21,3.94c-7.08,0-17.78-3.39-12.66-23.2,3.26-12.64,13.23-47.88,13.23-47.88,1.15-4.2,2.88-13,2.72-19.19-.32-12.48-3.45-23.71-10.28-32.68-9.34-12.24-24.1-19.27-40.48-19.27-17.86,0-33.19,7-45.71,19.18-9.51-12.19-24.31-19.18-40.73-19.18-8.19,0-18.07,2.6-27.92,7.13.18-2.52.42-6.36.42-8.62A77.21,77.21,0,0,0,0,77.21c0,31.66,21.39,58.73,51.38,69.26a7,7,0,0,0,9.07-4.75l6.88-25.07a7,7,0,0,0-4.27-8.39C48.51,102.58,40,89.53,40,77.21a37.21,37.21,0,1,1,73.25,9.48L67.66,252.8a6,6,0,0,0,5.78,7.59H101a8,8,0,0,0,7.71-5.88L133,165.87c9.7-34.78,30.6-47.17,46.92-47.17,11.4,0,12.5,9.83,10.75,18.67L159,252.8a6,6,0,0,0,5.79,7.59H192.3a8,8,0,0,0,7.69-5.87c4.79-17.47,18.95-69.17,24.35-88.66,8.3-30,24.4-47.16,44-47.16,9,0,13,7.34,10.27,17.63-4.1,15.38-14.59,52.93-14.59,52.93-5.63,20.51-4.33,40.38,6.12,54.07,9.46,12.41,25.73,18.5,42.3,18.5,11,0,23.59-3,35.7-7.36a7,7,0,0,0,4.41-8.42Z"/></g></g></svg>