<svg width="180" height="56" viewBox="0 0 180 56" fill="none" xmlns="http://www.w3.org/2000/svg">
<g clip-path="url(#clip0)">
<path d="M2.63383 2.63908C2.63383 2.18851 1.41328 1.02988 1.02784 1.02988H0V0H6.10278L12.3983 15.8345H12.5268L19.1435 0H24.6038V1.02988H23.576C23.1906 1.02988 21.97 2.18851 21.97 2.63908V18.4092C21.97 18.8598 23.1906 20.0184 23.576 20.0184H24.6038V21.0483H16.5096V19.954H17.5375C17.9229 19.954 19.1435 18.7954 19.1435 18.3448V3.08965L11.4989 21.3701L3.85439 2.76782V18.3448C3.85439 18.7954 5.07494 19.954 5.52462 19.954H6.55246V20.9839H0V19.954H1.02784C1.41328 19.954 2.63383 18.7954 2.63383 18.3448V2.63908Z" fill="#373D48"/>
<path d="M33.4047 12.0367C33.7901 9.91258 33.4047 8.04591 31.0921 8.04591C28.394 8.04591 27.045 10.2344 27.045 13.3884C27.045 16.4137 28.9722 18.9241 32.0557 18.9241C34.4325 18.9241 35.3961 18.0873 36.3597 16.4781H37.2591C36.3597 19.439 34.561 21.3057 31.1563 21.3057C27.3662 21.3057 24.925 18.0873 24.925 14.2252C24.925 9.84821 27.8158 6.95166 31.4133 6.95166C33.5332 6.95166 35.0107 7.59534 36.2313 8.88269L34.2398 11.9724L33.4047 12.0367Z" fill="#373D48"/>
<path d="M60.8351 4.18387C61.8629 4.18387 62.5696 3.47582 62.5696 2.44594C62.5696 1.35169 61.7987 0.708008 60.8351 0.708008C59.8715 0.708008 59.0364 1.35169 59.0364 2.44594C59.0364 3.47582 59.8073 4.18387 60.8351 4.18387Z" fill="#373D48"/>
<path d="M80.1071 19.954C79.7216 19.954 78.6295 18.9885 78.6295 18.5379V10.9425C78.6295 8.62529 76.9593 7.08046 74.8394 7.08046C72.3983 7.08046 71.1135 8.49655 69.5075 10.1701L68.9936 7.4023H64.6895V8.36782H65.5246C65.9101 8.36782 67.0021 9.3977 67.0021 9.78391V18.4736C67.0021 18.9241 65.9101 19.8897 65.5246 19.8897H64.6895H63.8544C63.4689 19.8897 62.3769 18.9241 62.3769 18.4736V7.33793H57.4946V8.36782H58.3298C58.7152 8.36782 59.8073 9.3977 59.8073 9.78391V18.4736C59.8073 18.9241 58.7152 19.8897 58.3298 19.8897H57.4946H56.788C56.3383 19.8897 54.6681 18.6023 54.2826 18.1517L46.9593 8.43218L52.0343 2.96092C52.2912 2.63908 54.2826 1.02989 54.7323 1.02989H55.7602V0H48.1799V1.02989H49.2077C49.5931 1.02989 50.8137 2.44598 50.4925 2.83218L43.0407 11.2V2.63908C43.0407 2.18851 44.2612 1.02989 44.6467 1.02989H45.6103V0H37.3876V1.02989H38.4154C38.8008 1.02989 40.0214 2.18851 40.0214 2.63908V18.4092C40.0214 18.8598 38.8008 20.0184 38.4154 20.0184H37.3876V21.0483H45.6103V19.954H44.5824C44.197 19.954 42.9764 18.7954 42.9764 18.3448V12.8092L45.0963 10.492L52.3555 20.9839H57.4946H64.6895H71.8201V19.954H71.0492C70.6638 19.954 69.5717 18.9885 69.5717 18.5379V11.5862C69.5717 10.6851 72.0771 8.75402 74.0043 8.75402C75.4818 8.75402 76.1884 9.78391 76.1884 11.0713V18.5379C76.1884 18.9885 75.0963 19.954 74.7109 19.954H73.94V20.9839H80.8779V19.954H80.1071Z" fill="#373D48"/>
<path d="M82.6124 16.2206C82.6124 17.508 84.4753 20.2114 87.3661 20.2114C89.0364 20.2114 90 19.6321 90 18.3448C90 16.7999 88.6509 16.285 87.4304 15.7701C86.4668 15.3838 85.6959 15.062 84.6038 14.5471C82.9336 13.7747 81.713 12.6804 81.713 10.8137C81.713 8.36775 83.1905 6.95166 85.8244 6.95166C87.3019 6.95166 88.137 7.65971 89.1648 7.65971C89.5503 7.65971 89.8072 7.59534 89.9357 7.2735H90.7066V11.4574H89.8715C89.8715 10.3632 88.2655 7.91718 85.7601 7.91718C84.1541 7.91718 83.4475 8.62522 83.4475 9.71948C83.4475 10.8781 84.2826 11.3287 85.6317 11.908C86.6595 12.3586 87.4304 12.6804 88.5867 13.131C90.0642 13.7103 91.7344 14.8689 91.7344 17.0574C91.7344 19.6321 89.9357 21.177 87.3661 21.177C85.6316 21.177 84.6038 20.3402 83.4475 20.3402C82.8693 20.3402 82.7409 20.4689 82.4197 20.7907H81.7773V16.0275H82.6124V16.2206Z" fill="#373D48"/>
<path d="M92.5696 14.1609C92.5696 10.1058 95.3319 6.95174 98.8008 7.0161C101.884 7.0161 103.619 9.14024 103.747 11.7793L103.812 12.7448L94.7537 13.5173C94.7537 16.2851 96.6809 18.9885 99.7002 18.9885C102.013 18.9885 103.105 18.0874 103.94 16.5425H104.775C103.876 19.5035 102.206 21.3701 98.8651 21.3701C95.0749 21.3058 92.5696 18.023 92.5696 14.1609ZM101.499 11.9081C101.756 9.97703 101.435 8.04599 98.7366 8.04599C95.91 8.04599 94.818 10.3632 94.6895 12.4874L101.499 11.9081Z" fill="#373D48"/>
<path d="M106.188 9.9126C105.996 9.46203 104.775 8.36778 104.454 8.36778H103.876V7.33789H111.071V8.36778H110.235C109.85 8.36778 109.015 9.33329 109.015 9.84824L112.163 17.1218L115.246 9.84824C115.246 9.26893 114.411 8.36778 114.09 8.36778H113.255V7.33789H118.715V8.36778H118.073C117.752 8.36778 116.788 9.39766 116.467 9.84824L111.841 20.3402L108.437 27.8712L107.216 27.2919L110.814 19.8252L106.188 9.9126Z" fill="#373D48"/>
<path d="M40.4711 31.7977C40.4711 33.4713 41.6274 34.823 43.4261 35.531C46.1242 38.4276 49.4004 41.5172 52.227 44.092C53.0621 42.7402 53.319 41.3241 53.319 39.6506C53.319 37.7195 52.0343 36.5609 49.9786 36.4965V35.4023H57.4304V36.4322H56.5953C56.2098 36.4322 54.7323 38.1057 54.7323 38.6851C54.6681 40.4874 54.1542 42.6759 52.8694 44.6069C54.4111 45.9586 55.8886 47.1816 57.1092 48.0184H58.394V49.0483H56.1456C54.0899 49.0483 52.6766 48.469 50.9422 46.9241C49.2719 48.5333 47.152 49.4345 44.0685 49.4345C40.6638 49.4345 37.4518 46.9241 37.4518 43.2552C37.4518 40.3586 38.9293 38.2345 40.7923 36.8828C39.7644 35.5954 39.122 34.3724 39.122 32.5057C39.122 29.4804 41.0492 27.8069 44.1328 27.8069C46.0599 27.8069 47.0878 28.4506 47.9871 28.4506C48.4368 28.4506 48.758 28.4506 48.9507 28.0644H49.8501V33.0207H48.9507C48.9507 31.6046 46.8951 28.7724 44.0685 28.7724C41.8201 28.8368 40.4711 29.931 40.4711 31.7977ZM39.5717 41.9034C39.5717 44.9287 42.7837 47.7609 45.7387 47.7609C47.6017 47.7609 49.0792 47.246 50.2998 46.3448C47.2805 43.7057 43.8758 40.423 41.242 37.4621C40.1499 38.6207 39.5717 39.7793 39.5717 41.9034Z" fill="#373D48"/>
<path d="M79.9143 35.5311C79.9143 33.3426 77.4732 28.9656 73.5546 28.9656C69.9572 28.9656 67.773 30.961 67.3876 35.7242C67.2591 37.5909 67.3233 39.2001 67.4518 41.0667C67.773 44.7357 70.3426 47.761 74.5824 47.761C78.1799 47.761 79.9786 46.2162 81.3276 43.4483H82.4197C81.0706 47.1817 78.1156 49.4345 73.94 49.4345C67.9015 49.4345 64.0471 44.4782 64.0471 38.492C64.0471 32.5058 67.5803 27.6782 73.4261 27.6782C75.6745 27.6782 77.0878 28.5794 78.6938 28.5794C79.3362 28.5794 79.6574 28.3863 79.9786 28.0001H80.7494V35.4667H79.9143V35.5311Z" fill="#373D48"/>
<path d="M83.8329 42.2898C83.8329 37.8484 86.9807 35.0806 90.5781 35.0806C94.1755 35.0806 97.3233 37.8484 97.3233 42.2898C97.3233 46.7312 94.1755 49.499 90.5781 49.499C86.9807 49.499 83.8329 46.6668 83.8329 42.2898ZM94.6252 44.5426C94.8179 43.1265 94.8179 41.2599 94.6252 39.9082C94.3683 37.7196 93.1477 36.2392 90.6424 36.2392C88.2013 36.2392 86.9807 37.7197 86.6595 39.8438C86.4668 41.1955 86.4668 43.1266 86.6595 44.4783C86.9807 46.6024 88.137 48.1472 90.6424 48.1472C93.212 48.1472 94.3683 46.6668 94.6252 44.5426Z" fill="#373D48"/>
<path d="M119.422 46.6023C119.422 47.0528 120.45 48.0184 120.835 48.0184H121.477V49.0482H114.668V48.0184H115.439C115.824 48.0184 116.852 47.0528 116.852 46.6023V39.0068C116.852 37.6551 116.21 36.754 114.732 36.754C112.934 36.754 110.749 38.4919 110.749 39.3931V46.6023C110.749 47.0528 111.777 48.0184 112.163 48.0184H112.934V49.0482H105.996V48.0184H106.767C107.152 48.0184 108.18 47.0528 108.18 46.6023V39.0068C108.18 37.6551 107.473 36.754 105.996 36.754C104.197 36.754 102.013 38.5563 102.013 39.5218V46.6023C102.013 47.0528 103.041 48.0184 103.426 48.0184H104.197V49.0482H97.259V48.0184H98.0299C98.4154 48.0184 99.4432 47.0528 99.4432 46.6023V37.9126C99.4432 37.462 98.4154 36.4965 98.0299 36.4965H97.259V35.4022H101.435L102.013 38.0413C103.555 36.3678 104.582 35.1448 106.959 35.1448C108.758 35.1448 110.3 36.1103 110.557 38.0413C112.227 36.3678 113.319 35.2091 115.567 35.2091C117.623 35.2091 119.293 36.6252 119.293 39.0712V46.6023H119.422Z" fill="#373D48"/>
<path d="M125.525 35.4023L125.974 38.1701C127.131 35.9816 128.672 35.0161 130.921 35.0161C134.261 35.0161 136.253 37.7839 136.253 41.9678C136.253 46.1517 133.94 49.3058 130.664 49.3058C128.287 49.3058 127.002 48.4046 126.039 46.6023V53.1035C126.039 53.554 127.131 54.5196 127.452 54.5196H128.351V55.5494H121.156V54.5196H122.056C122.441 54.5196 123.469 53.554 123.469 53.1035V37.9127C123.469 37.4621 122.441 36.4966 122.056 36.4966H121.156V35.4023H125.525ZM125.974 40.423V44.0276C125.974 46.1517 127.645 47.954 129.893 47.954C132.206 47.954 133.298 46.4736 133.619 44.3494C133.812 43.0621 133.812 41.5816 133.619 40.2943C133.362 38.1058 132.141 36.754 130.214 36.754C127.901 36.6897 126.617 38.2989 125.974 40.423Z" fill="#373D48"/>
<path d="M165.803 48.0827C165.418 48.0827 164.325 47.1172 164.325 46.6666V39.0068C164.325 36.6896 162.655 35.1448 160.535 35.1448C158.094 35.1448 156.809 36.5609 155.203 38.2344L154.69 35.4666H150.385V36.4965H151.221C151.606 36.4965 152.698 37.5264 152.698 37.9126V46.6023C152.698 47.0528 151.606 48.0183 151.221 48.0183H150.385H149.55C149.165 48.0183 148.073 47.0528 148.073 46.6023V39.2C148.073 36.4965 145.889 35.1448 142.998 35.1448C140.236 35.1448 138.63 36.1103 137.537 37.2689L139.336 40.0367H140.3C139.272 37.7195 140.043 36.1747 142.355 36.1747C144.797 36.1747 145.567 37.2689 145.567 39.2V40.8735L142.034 41.5816C140.107 41.9678 137.602 42.9333 137.602 45.6367C137.602 47.8252 139.208 49.3701 141.071 49.3701C143.062 49.3701 144.54 47.7609 145.632 46.3448L145.953 49.1126H150.385H157.516V48.0827H156.745C156.36 48.0827 155.268 47.1172 155.268 46.6666V39.6505C155.268 38.7494 157.773 36.8183 159.7 36.8183C161.178 36.8183 161.884 37.8482 161.884 39.1356V46.6023C161.884 47.0528 160.792 48.0183 160.407 48.0183H159.636V49.0482H166.574V48.0183H165.803V48.0827ZM145.567 45.1218C144.989 46.1517 143.576 47.5034 142.227 47.5034C140.878 47.5034 140.043 46.4735 140.043 45.3149C140.043 43.9632 140.621 43.062 142.291 42.6114L145.567 41.7747V45.1218Z" fill="#373D48"/>
<path d="M167.473 38.0414C167.28 37.5908 166.06 36.4966 165.739 36.4966H165.096V35.4023H172.291V36.4322H171.52C171.135 36.4322 170.3 37.3977 170.3 37.9127L173.448 45.1862L176.531 37.9127C176.531 37.3334 175.696 36.4322 175.375 36.4322H174.54V35.4023H180V36.4322H179.358C179.036 36.4322 178.073 37.4621 177.752 37.9127L173.126 48.4046L169.722 56L168.501 55.4207L172.098 47.9541L167.473 38.0414Z" fill="#373D48"/>
</g>
<defs>
<clipPath id="clip0">
<rect width="180" height="56" fill="white"/>
</clipPath>
</defs>
</svg>
