<svg xmlns="http://www.w3.org/2000/svg" xmlns:xlink="http://www.w3.org/1999/xlink" viewBox="0 0 160 160"><defs><style>.cls-1,.cls-2,.cls-3{opacity:0.2;}.cls-1{fill:url(#linear-gradient);}.cls-2{fill:url(#linear-gradient-2);}.cls-3{fill:url(#linear-gradient-3);}.cls-4{fill:#fff;}</style><linearGradient id="linear-gradient" x1="117" y1="72.67" x2="117" y2="19.33" gradientTransform="translate(66.8 -69.26) rotate(45)" gradientUnits="userSpaceOnUse"><stop offset="0" stop-color="#fff" stop-opacity="0"/><stop offset="1" stop-color="#fff"/></linearGradient><linearGradient id="linear-gradient-2" x1="442.27" y1="35.41" x2="413.98" y2="7.12" gradientTransform="translate(-250.7 -200.77) rotate(45)" xlink:href="#linear-gradient"/><linearGradient id="linear-gradient-3" x1="80" y1="132" x2="80" y2="28" gradientTransform="matrix(1, 0, 0, 1, 0, 0)" xlink:href="#linear-gradient"/></defs><title>placeholder-icon-02</title><g id="Layer_1" data-name="Layer 1"><rect class="cls-1" x="97.91" y="26.91" width="38.18" height="38.18" rx="0.8" transform="translate(1.74 96.2) rotate(-45)"/><rect class="cls-2" x="17" y="97" width="40" height="40" rx="0.83"/><circle class="cls-3" cx="80" cy="80" r="52"/><path class="cls-4" d="M82.92,75.1a2.92,2.92,0,1,0-5.84,0v2.5a.41.41,0,0,0,.42.42h5a.43.43,0,0,0,.29-.12.43.43,0,0,0,.13-.3Z"/><path class="cls-4" d="M100,66.26A3.31,3.31,0,0,0,99,64a3.25,3.25,0,0,0-2.3-1H63.27A3.25,3.25,0,0,0,61,64,3.3,3.3,0,0,0,60,66.28l0,12.26A25.25,25.25,0,0,0,79.77,103a1.17,1.17,0,0,0,.32,0,1.86,1.86,0,0,0,.34,0A25.26,25.26,0,0,0,100,78.36ZM72.5,88.87V79.69A1.68,1.68,0,0,1,73,78.51,1.62,1.62,0,0,1,74.17,78h.41V75.1a5.42,5.42,0,1,1,10.84,0V78h.41a1.62,1.62,0,0,1,1.18.49,1.68,1.68,0,0,1,.49,1.18v9.18A1.66,1.66,0,0,1,87,90.05a1.62,1.62,0,0,1-1.18.49H74.17A1.62,1.62,0,0,1,73,90.05,1.66,1.66,0,0,1,72.5,88.87Z"/><path class="cls-4" d="M80,87.2a2.09,2.09,0,1,0-2.08-2.08A2.08,2.08,0,0,0,80,87.2Z"/></g></svg>