<svg xmlns="http://www.w3.org/2000/svg" xmlns:xlink="http://www.w3.org/1999/xlink" viewBox="0 0 160 160"><defs><style>.cls-1,.cls-2,.cls-3{opacity:0.2;}.cls-1{fill:url(#linear-gradient);}.cls-2{fill:url(#linear-gradient-2);}.cls-3{fill:url(#linear-gradient-3);}.cls-4{fill:#fff;}</style><linearGradient id="linear-gradient" x1="38" y1="146.67" x2="38" y2="93.33" gradientTransform="translate(95.98 8.28) rotate(45)" gradientUnits="userSpaceOnUse"><stop offset="0" stop-color="#fff" stop-opacity="0"/><stop offset="1" stop-color="#fff"/></linearGradient><linearGradient id="linear-gradient-2" x1="128" y1="83" x2="128" y2="41" gradientTransform="matrix(1, 0, 0, 1, 0, 0)" xlink:href="#linear-gradient"/><linearGradient id="linear-gradient-3" x1="413.59" y1="-128.64" x2="345.71" y2="-196.52" gradientTransform="translate(-303.42 -73.49) rotate(45)" xlink:href="#linear-gradient"/></defs><title>placeholder-icon-03</title><g id="Layer_1" data-name="Layer 1"><rect class="cls-1" x="18.91" y="100.91" width="38.18" height="38.18" rx="0.8" transform="translate(-73.72 62.02) rotate(-45)"/><circle class="cls-2" cx="128" cy="62" r="21"/><rect class="cls-3" x="32" y="32" width="96" height="96" rx="2"/><path class="cls-4" d="M99.08,82.34a3.48,3.48,0,0,0,0-4.69L97,75.43l.7-3a3.48,3.48,0,0,0-2.34-4.07l-2.91-.86-.87-2.92a3.46,3.46,0,0,0-1.57-2,3.39,3.39,0,0,0-2.49-.38l-3,.69-2.21-2.08a3.46,3.46,0,0,0-4.7,0L75.45,63l-3-.69a3.45,3.45,0,0,0-4.06,2.35l-.87,2.91-2.91.87a3.47,3.47,0,0,0-2,1.58,3.43,3.43,0,0,0-.37,2.49l.69,3-2.08,2.22a3.49,3.49,0,0,0,0,4.7L63,84.56l-.7,3a3.46,3.46,0,0,0,2.35,4.07l2.91.87.86,2.91a3.45,3.45,0,0,0,4.06,2.36l3-.7,2.21,2.09A3.43,3.43,0,0,0,80,100a3.47,3.47,0,0,0,2.35-.92L84.56,97l3,.7a3.45,3.45,0,0,0,4.06-2.35l.87-2.91,2.91-.87a3.47,3.47,0,0,0,2.35-4.07l-.7-3ZM86.83,81.13l-5.69,6a1.71,1.71,0,0,1-.52.37,1.57,1.57,0,0,1-1.25,0,1.71,1.71,0,0,1-.52-.37l-5.68-6A4.05,4.05,0,0,1,72,78.27a4.17,4.17,0,0,1,.31-1.56,4,4,0,0,1,.88-1.31,3.88,3.88,0,0,1,1.31-.88A4.12,4.12,0,0,1,76,74.21a4.05,4.05,0,0,1,2.86,1.19l.82.82a.34.34,0,0,0,.14.09.42.42,0,0,0,.16,0,.53.53,0,0,0,.16,0,.38.38,0,0,0,.13-.09l.82-.82a4,4,0,0,1,1.32-.94A4,4,0,0,1,84,74.11a4.08,4.08,0,0,1,1.59.29,4.2,4.2,0,0,1,1.35.9,4,4,0,0,1,.82,4.52A4,4,0,0,1,86.83,81.13Z"/></g></svg>